<mxfile host="Electron" modified="2024-04-16T03:05:48.080Z" agent="Mozilla/5.0 (Windows NT 10.0; Win64; x64) AppleWebKit/537.36 (KHTML, like Gecko) draw.io/24.2.5 Chrome/120.0.6099.109 Electron/28.1.0 Safari/537.36" etag="075yDAwl4kfnLd89v7IT" version="24.2.5" type="device">
  <diagram name="Page-1" id="-4qahFz382-FT_UuDVyc">
    <mxGraphModel dx="1674" dy="836" grid="0" gridSize="10" guides="1" tooltips="1" connect="1" arrows="1" fold="1" page="0" pageScale="1" pageWidth="850" pageHeight="1100" math="0" shadow="0">
      <root>
        <mxCell id="0" />
        <mxCell id="1" parent="0" />
        <mxCell id="BJWZIvIbwDyXQehV0seY-20" style="edgeStyle=orthogonalEdgeStyle;rounded=0;orthogonalLoop=1;jettySize=auto;html=1;exitX=0.5;exitY=0;exitDx=0;exitDy=0;entryX=0.5;entryY=1;entryDx=0;entryDy=0;" parent="1" source="BJWZIvIbwDyXQehV0seY-1" target="BJWZIvIbwDyXQehV0seY-8" edge="1">
          <mxGeometry relative="1" as="geometry" />
        </mxCell>
        <mxCell id="BJWZIvIbwDyXQehV0seY-1" value="" style="shape=image;verticalLabelPosition=bottom;labelBackgroundColor=default;verticalAlign=top;aspect=fixed;imageAspect=0;image=https://image.freepik.com/free-icon/dll-file-format-variant_318-45751.jpg;" parent="1" vertex="1">
          <mxGeometry x="340" y="420" width="61" height="61" as="geometry" />
        </mxCell>
        <mxCell id="BJWZIvIbwDyXQehV0seY-30" style="edgeStyle=orthogonalEdgeStyle;rounded=0;orthogonalLoop=1;jettySize=auto;html=1;exitX=0;exitY=0.5;exitDx=0;exitDy=0;entryX=0.5;entryY=0;entryDx=0;entryDy=0;" parent="1" source="BJWZIvIbwDyXQehV0seY-4" target="BJWZIvIbwDyXQehV0seY-26" edge="1">
          <mxGeometry relative="1" as="geometry">
            <mxPoint x="200" y="390" as="targetPoint" />
            <Array as="points">
              <mxPoint x="403" y="277" />
              <mxPoint x="403" y="340" />
              <mxPoint x="232" y="340" />
              <mxPoint x="232" y="419" />
            </Array>
          </mxGeometry>
        </mxCell>
        <mxCell id="BJWZIvIbwDyXQehV0seY-4" value="" style="shape=image;verticalLabelPosition=bottom;labelBackgroundColor=default;verticalAlign=top;aspect=fixed;imageAspect=0;image=data:image/jpeg,/9j/4AAQSkZJRgABAQEAAAAAAAD/4QAuRXhpZgAATU0AKgAAAAgAAkAAAAMAAAABAAoAAEABAAEAAAABAAAAAAAAAAD/2wBDAAoHBwkHBgoJCAkLCwoMDxkQDw4ODx4WFxIZJCAmJSMgIyIoLTkwKCo2KyIjMkQyNjs9QEBAJjBGS0U+Sjk/QD3/2wBDAQsLCw8NDx0QEB09KSMpPT09PT09PT09PT09PT09PT09PT09PT09PT09PT09PT09PT09PT09PT09PT09PT09PT3/wAARCAIyAdoDASIAAhEBAxEB/8QAHwAAAQUBAQEBAQEAAAAAAAAAAAECAwQFBgcICQoL/8QAtRAAAgEDAwIEAwUFBAQAAAF9AQIDAAQRBRIhMUEGE1FhByJxFDKBkaEII0KxwRVS0fAkM2JyggkKFhcYGRolJicoKSo0NTY3ODk6Q0RFRkdISUpTVFVWV1hZWmNkZWZnaGlqc3R1dnd4eXqDhIWGh4iJipKTlJWWl5iZmqKjpKWmp6ipqrKztLW2t7i5usLDxMXGx8jJytLT1NXW19jZ2uHi4+Tl5ufo6erx8vP09fb3+Pn6/8QAHwEAAwEBAQEBAQEBAQAAAAAAAAECAwQFBgcICQoL/8QAtREAAgECBAQDBAcFBAQAAQJ3AAECAxEEBSExBhJBUQdhcRMiMoEIFEKRobHBCSMzUvAVYnLRChYkNOEl8RcYGRomJygpKjU2Nzg5OkNERUZHSElKU1RVVldYWVpjZGVmZ2hpanN0dXZ3eHl6goOEhYaHiImKkpOUlZaXmJmaoqOkpaanqKmqsrO0tba3uLm6wsPExcbHyMnK0tPU1dbX2Nna4uPk5ebn6Onq8vP09fb3+Pn6/9oADAMBAAIRAxEAPwD2WiiigAooooAKKKKACqt/qFrpdnJdX08cFvGMtJI2AP8APpVfXNbsvDukT6lqEnlwRD8WPZQO5P8Anivmvxl421HxnqJmu38u1QnyLZT8sY/q3v8AyFAHoXif46BXaDw1aBwOPtVyDg/7qf1P5V5brniXVPEdyZ9UuRNIfRFXH5Csqum0P4eeJPEKLLY6ZIsDciaYiNCPbPX8M0AczRXpsXwH8RMgMl7piN/d8xz/AOy0/wD4UJr/AP0EdM/76k/+JoA8vor1D/hQmv8A/QR0z/vqT/4mj/hQmv8A/QR0z/vqT/4mgDy+ivUP+FCa/wD9BHTP++pP/iaP+FCa/wD9BHTP++pP/iaAPL6K9Q/4UJr/AP0EdM/76k/+Jo/4UJr/AP0EdM/76k/+JoA8vor1D/hQmv8A/QR0z/vqT/4mj/hQmv8A/QR0z/vqT/4mgDy+ivUP+FCa/wD9BHTP++pP/iaP+FCa/wD9BHTP++pP/iaAPL6K9Q/4UJr/AP0EdM/76k/+Jo/4UJr/AP0EdM/76k/+JoA8vor1D/hQmv8A/QR0z/vqT/4mj/hQmv8A/QR0z/vqT/4mgDy+ivUP+FCa/wD9BHTP++pP/iaP+FCa/wD9BHTP++pP/iaAPL6K9Q/4UJr/AP0EdM/76k/+Jo/4UJr/AP0EdM/76k/+JoA8vor1D/hQmv8A/QR0z/vqT/4mj/hQmv8A/QR0z/vqT/4mgDy+ivUP+FCa/wD9BHTP++pP/iaP+FCa/wD9BHTP++pP/iaAPL6K9Q/4UJr/AP0EdM/76k/+Jo/4UJr/AP0EdM/76k/+JoA8vor1D/hQmv8A/QR0z/vqT/4mj/hQmv8A/QR0z/vqT/4mgDy+ivUP+FCa/wD9BHTP++pP/iaP+FCa/wD9BHTP++pP/iaAPL6K9Q/4UJr/AP0EdM/76k/+JrK8T/CfVvCuhzapeXllLDEVUrEXLHc2B1UetAHCVv8AhHxZe+DtZF9ZLHICuyWJxxInXGex46j9RxWBRQB9YeF/FWneLdKW902XOOJYW4eJvQj+vQ1t18k6B4h1Hwzqcd/pc5ilXhgeVkXurDuP/wBYwea+jPBPjvT/ABlp++EiG+jA8+1Y/MvuPVff88UAdVRRRQAUUUUAFFFFABRRRQAUUUUAFFFFABRRRQAUUUUAFFFFABRRWB451o+H/Bup6hG22ZItkR9Hb5VP4Eg/hQB4l8WvGDeIvET2NtITp9gxjQA8SSdGb354HsM964SKJ5pVjiRndyFVVGSxPQCozk5PevV/gh4VS/1GfXrtN0VmfLtwRkGQjJb/AICCPxOe1AHTfD74T2mi28Wo6/ElzqTYZIXG5Lf8P4m9+g7etenUUUAFFFFABRRRQAUUUUAFFFFABRRRQAUUUUAFFFFABRRRQAUUUUAFFFFABRRRQAUUUUAFFFFABRRRQAUUUUAFcN8ZP+SbX/8A10i/9GLXc1w3xk/5Jtf/APXSL/0YtAHzbXovw/8AAdp418LaqC/kX8Ey/Z5+SBleVYdwfzHX2PnVe4/AD/kDax/18J/6CaAPHtZ0W+8P6nLYanAYbiM8qejDsQe4PqKj03UrvSb+K9sJ3guIjlJEOCP8R7HrX094t8G6d4x00218myZM+TcIPniP9Qe47+xr5x8UeFNR8I6q1lqMXB5imUfJKvqD/TqKAPdfh98SrXxdAlpelLbVkX5o84WbHVk/nt6j3Fd1XxzBNLbTJNBI0cqMGV0OCpHcEdK92+G/xWj1lYtK1+RYtR4WK4PCz+x9G/Q+x4oA9QooooAKKKKACiiigAooooAKKKKACiiigAooooAKKKKACvNPjrdGLwXbQj/lveqD9ArH+eK9Lryv4+f8ixpv/X5/7I1AHhFfTfwpsUsfh1pYUYaZWmY+pZj/AEwPwr5kr6n+Hf8AyT7RP+vVaAOkooooAKKKKACiiigAooooAKKKKACiiigAooooAKKKKACiiigAooooAKKKKACiiigAooooAKKKKACiiigAooooAK4b4yf8k2v/APrpF/6MWu5rhvjJ/wAk2v8A/rpF/wCjFoA+ba9x+AH/ACBtY/6+E/8AQTXh1e4/AD/kDax/18J/6CaAPWqy9e0Cw8S6bJYapAJYW5B6MjdmU9iP85rUooA+X/G3gLUPBmobZQ09hKT5N0owG/2W9G9u/auUr7A1HT7TVbKWzv4Unt5V2vG4yD/n1HSvnz4h/DS78JzPe2Ie40lzw+MtB/sv/wDFd++D1AOl+G/xb8rytI8TTEpwsF65+7/syH0/2vz9a9oVg4DKQVPQg9a+Na9K+HPxTm8OmPS9aZ59L6RydXt/8V9uo7elAH0DRUVtcw3ttHcWsqTQSqGSRDkMD3BqWgAooooAKKKKACiiigAooooAKKKKACiiigAryv4+f8ixpv8A1+f+yNXqleV/Hz/kWNN/6/P/AGRqAPCK+p/h3/yT7RP+vVa+WK+p/h3/AMk+0T/r1WgDpKKKKACiiigAooooAKKKKACiiigAooooAKKKKACiiigAooooAKKKKACiiigAooooAKKKKACiiigAooooAKKKKACuG+Mn/JNr/wD66Rf+jFrua4b4yf8AJNr/AP66Rf8AoxaAPm2vcfgB/wAgbWP+vhP/AEE14dXuPwA/5A2sf9fCf+gmgD1qiiigAqOaKO4ieKaNZI3BVkYZDA9iD1qSigDwb4kfCiTR2l1bw/G0un8tLbjloPceq/qPcdPLa+y68e+JHwkE5l1fwzCBLy09koxu/wBqMev+z37c8EA4vwB8R73wbcC3m3XOlSNmSDPMZ/vJ6H26H2PNfQ+k6vZ65p0V9ptws9tKPlZT09QfQj0NfIjKUYqwIYdQR0ro/BvjbUPBmoedaN5trIR59sx+WQf0Yev8xQB9TUVjeGvE+neKdLW90ybcvAkjb78Tf3WHY/oe1bNABRRRQAUUUUAFFFFABRRRQAUUUUAFeV/Hz/kWNN/6/P8A2Rq9Uryv4+f8ixpv/X5/7I1AHhFfU/w7/wCSfaJ/16rXyxX1P8O/+SfaJ/16rQB0lFFFABRRRQAUUUUAFFFFABRRRQAUUUUAFFFFABRRRQAUUUUAFFFFABRRRQAUUUUAFFFFABRRRQAUUUUAFFFFABXDfGT/AJJtf/8AXSL/ANGLXc1w3xk/5Jtf/wDXSL/0YtAHzbXuPwA/5A2sf9fCf+gmvDq9x+AH/IG1j/r4T/0E0AetUUUUAFFFFABRRRQB5t8RvhZD4jEmp6MqQaqOXTolx9fRvfv39a8DurWeyupLa6ieGeJirxuMFSOxFfYtcV4++HFl4ytzPFtttUjXEc+OHH91/Ue/Ue44oA8B8OeJtR8Laol9pcxjccOh5SRe6sO4/l1GDX0b4L8caf4z0/zbU+VdxgefbMctGfUeqn1/PBr5o1fSL3QtSlsdSt2guYj8yt3HqD3B9RSaVql5ouoxX2nXDwXMRyrqfzBHcex60AfX1FcR8P8A4kWnjC3W2uNltq0a/PDnCy4/iT29uo9xXb0AFFFFABRRRQAUUUUAFFFFABXlfx8/5FjTf+vz/wBkavVK8r+Pn/Isab/1+f8AsjUAeEV9T/Dv/kn2if8AXqtfLFfU/wAO/wDkn2if9eq0AdJRRRQAUUUUAFFFFABRRRQAUUUUAFFFFABRRRQAUUUUAFFFFABRRRQAUUUUAFFFFABRRRQAUUUUAFFFFABRRRQAVw3xk/5Jtf8A/XSL/wBGLXc1xnxbt2uPhvqe3rH5b49hIuf0zQB8z17j8AP+QNrH/Xwn/oJrw6vZ/gBfR7NZsWOJMxzKPUcg/lx+dAHslFFFABRRRQAUUUUAFFFFAHN+MfBWneM9O8m8Xy7mMHyLlR80Z/qPb+Rr5y8T+F9R8Kao1lqUW08mOVfuSr6qf6dR3r6xrI8ReGtO8UaY9jqkPmIeUccPG3ZlPY/z6HIoA+ULe5ltLmO4tpXimjYMjocFSOhBr3r4cfFSLX1j0rW3SHU/uxzdFuP8G9uh7eleT+NfA2oeDNQ8u5Uy2ch/cXKr8rj0Po3t+WRXMhipBBII7igD7Korxv4b/Fvd5WkeJp+eFgvXPX/ZkP8A7N+frXsgIIBHIPegAooooAKKKKACiiigAryv4+f8ixpv/X5/7I1eqV5X8fP+RY03/r8/9kagDwivqf4d/wDJPtE/69Vr5Yr6n+Hf/JPtE/69VoA6SiiigAooooAKKKKACiiigAooooAKKKKACiiigAooooAKKKKACiiigAooooAKKKKACiiigAooooAKKKKACiiigAqlrGmx6xo15p83Ed1C8RPpkYz/AFq7RQB8eX1nNp99PZ3CFJreRo5FPZgcH+Vavg3xLN4T8S22pRAui/JNGDjfGeo/kR7gV6R8aPAzmVvEumxFlIAvUQdMcCT8sA/QH1rxqgD6+0rU7TWdNhvrCZZbaZQyMv8AX0PbHartfLHhPxxq3g25L6dKHt5D+9tpOY39/Y+4/UV69o3xw8P3sSjU47jT5v4sr5ifgV5/MCgD0miuUHxP8IEAjXIPxRx/7LS/8LO8If8AQct/++X/AMKAOqorlf8AhZ3hD/oOW/8A3y/+FH/CzvCH/Qct/wDvl/8ACgDqqK5X/hZ3hD/oOW//AHy/+FH/AAs7wh/0HLf/AL5f/CgDqqK5X/hZ3hD/AKDlv/3y/wDhR/ws7wh/0HLf/vl/8KAN3VNLs9Z06Wx1C3Se2lGGRx+WD2PuOlfPPxB+G134PuGurXfc6TI3yTY+aLPRX/x6H2PFe0/8LO8If9By3/75f/Cop/iN4Lu4HguNYtZYZFKujxsQwPYgr0oA+Y69Q+G/xVl0MxaXr0jy6bwsU/Vrf2Pqv6jtkcVznjnSfDtpe/a/C+rQ3NpK3Nt82+E+2Ryv6j361yVAH2NBPFdQJPbyLLFIoZHQ5DA9CCOtS182/D74k3fhCdbW7L3Oku3zRZ+aLPVk/wDieh9jXsP/AAtrwd/0Fx/34k/+JoA7GiiigAooooAK8r+Pn/Isab/1+f8AsjV6pXlfx8/5FjTf+vz/ANkagDwivqf4d/8AJPtE/wCvVa+WK+p/h3/yT7RP+vVaAOkooooAKKKKACiiigAooooAKKKKACiiigAooooAKKKKACiiigAooooAKKKKACiiigAooooAKKKKACiiigAooooAKKKKAGuiSIySKGRhhlIyCK8V8e/BuWKWTUvC8fmQsd0liPvJ67PUf7PUds9K9sooA+OJopLeZopo3jkQ4ZHG0g+4PQ1HX1jrvhHQ/Eq/8TXToZ3xgS42yD/gQ5/CuE1D4C6RMxaw1O8tgedsirKB/I0AeE0V7Gf2fpMnHiBcds2n/wBnR/wz7L/0MCf+Ah/+LoA8cor2P/hn2X/oYE/8BD/8XR/wz7L/ANDAn/gIf/i6APHKK9j/AOGfZf8AoYE/8BD/APF0f8M+y/8AQwJ/4CH/AOLoA8cor2P/AIZ9l/6GBP8AwEP/AMXR/wAM+y/9DAn/AICH/wCLoA8cor2P/hn2X/oYE/8AAQ//ABdH/DPsv/QwJ/4CH/4ugDxyivY/+GfZf+hgT/wEP/xdc345+FzeCtEi1CTVFuxJOsOwQbMZVjnO4/3f1oA4Cil+X3o496APsqiiigAooooAK8r+Pn/Isab/ANfn/sjV6pXlfx8/5FjTf+vz/wBkagDwivqf4d/8k+0T/r1Wvlivqf4d/wDJPtE/69VoA6SiiigAooooAKKKKACiiigAooooAKKKKACiiigAooooAKKKKACiiigAooooAKKKKACiiigAooooAKKKKACiiigAooooAKKKKACiiigAooooAKKKKACiiigAooooAKKKKACvNPjv/wAiTa/9fyf+gPXpdeafHf8A5Em1/wCv5P8A0B6APn+iiigD7LooooAKKKKACvK/j5/yLGm/9fn/ALI1eqV5X8fP+RY03/r8/wDZGoA8Ir6n+Hf/ACT7RP8Ar1Wvlivqf4d/8k+0T/r1WgDpKKKKACiiigAooooAKKKKACiiigAooooAKKKKACiiigAooooAKKKKACiiigAooooAKKKKACiiigAooooAKKKKACiiigAooooAKKKKACiiigAooooAKKKKACiiigAooooAK80+O/8AyJNr/wBfyf8AoD16XXmnx3/5Em1/6/k/9AegD5/ooooA+y6KKKACiiigAryv4+f8ixpv/X5/7I1eqV5X8fP+RY03/r8/9kagDwivqf4d/wDJPtE/69Vr5Yr6n+Hf/JPtE/69VoA6SiiigAooooAKKKKACiiigAooooAKKKKACiiigAooooAKKKKACiiigAooooAKKKKACiiigAooooAKKKKACiiigAooooAKKKKACiiigAooooAKKKKACiiigAooooAKKKKACvNPjv8A8iTa/wDX8n/oD16XXmnx3/5Em1/6/k/9AegD5/ooooA+y6KKKACiiigAryv4+f8AIsab/wBfn/sjV6pXlfx8/wCRY03/AK/P/ZGoA8Ir6n+Hf/JPtE/69Vr5Yr6n+Hf/ACT7RP8Ar1WgDpKKKKACiiigAooooAKKKKACiiigAooooAKKKKACiiigAooooAKKKKACiiigAooooAKKKKACiiigAooooAKKKKACiiigAooooAKKKKACiiigAooooAKKKKACiiigAooooAK80+O//Ik2v/X8n/oD16XXmnx3/wCRJtf+v5P/AEB6APn+iiigD7LooooAKKKKACvK/j5/yLGm/wDX5/7I1eqVyXxC8Fy+NtLtbOG8S1ME3mlnjL5+UjHUetAHzDX1P8O/+SfaJ/16rXm3/DP93/0Hof8AwGP/AMVXrPhrSH0Hw7Y6Y8qzNaxCMyBdu7HtQBqUUUUAFFFFABRRRQAUUUUAFFFFABRRRQAUUUUAFFFFABRRRQAUUUUAFFFFABRRRQAUUUUAFFFFABRRRQAUUUUAFFFFABRRRQAUUUUAFFFFABRRRQAUUUUAFFFFABRRRQAV5p8d/wDkSbX/AK/k/wDQHr0uvNPjv/yJNr/1/J/6A9AHz/RRRQB9l0UUUAFFFFABRRRQAUUUUAFFFFABRRRQAUUUUAFFFFABRRRQAUUUUAFFFFABRRRQAUUUUAFFFFABRRRQAUUUUAFFFFABRRRQAUUUUAFFFFABRRRQAUUUUAFFFFABRRRQAUUUUAFFFFABRRRQAUUUUAFeafHf/kSbX/r+T/0B69LrzT47/wDIk2v/AF/J/wCgPQB8/wBFFFAH2XRRXmvxE+K0Xhx5NM0by7jUxxJI3KW5/wDZm9ug7+lAHfajq1jo9t9o1G8gtYv700gUH2Gep9hXHX3xn8J2blY7i5uiO8EBx/49ivn/AFPV77WrtrrU7uW5nb+ORs49h6D2HFUaAPoL/he3hn/n21T/AL8p/wDF0f8AC9vDP/Ptqn/flP8A4uvn2igD6C/4Xt4Z/wCfbVP+/Kf/ABdH/C9vDP8Az7ap/wB+U/8Ai6+faKAPoL/he3hn/n21T/vyn/xdH/C9vDP/AD7ap/35T/4uvn2igD6C/wCF7eGf+fbVP+/Kf/F0f8L28M/8+2qf9+U/+Lr59ooA+gv+F7eGf+fbVP8Avyn/AMXR/wAL28M/8+2qf9+U/wDi6+faKAPoL/he3hn/AJ9tU/78p/8AF0f8L28M/wDPtqn/AH5T/wCLr59ooA+gv+F7eGf+fbVP+/Kf/F0f8L28M/8APtqn/flP/i6+faKAPoL/AIXt4Z/59tU/78p/8XR/wvbwz/z7ap/35T/4uvn2igD6C/4Xt4Z/59tU/wC/Kf8AxdH/AAvbwz/z7ap/35T/AOLr59ooA+gv+F7eGf8An21T/vyn/wAXR/wvbwz/AM+2qf8AflP/AIuvn2igD6C/4Xt4Z/59tU/78p/8XR/wvbwz/wA+2qf9+U/+Lr59ooA+gv8Ahe3hn/n21T/vyn/xdH/C9vDP/Ptqn/flP/i6+faKAPoL/he3hn/n21T/AL8p/wDF0f8AC9vDP/Ptqn/flP8A4uvn2igD6C/4Xt4Z/wCfbVP+/Kf/ABdH/C9vDP8Az7ap/wB+U/8Ai6+faKAPoL/he3hn/n21T/vyn/xdH/C9vDP/AD7ap/35T/4uvn2igD6C/wCF7eGf+fbVP+/Kf/F0f8L28M/8+2qf9+U/+Lr59ooA+gv+F7eGf+fbVP8Avyn/AMXR/wAL28M/8+2qf9+U/wDi6+faKAPoL/he3hn/AJ9tU/78p/8AF0f8L28M/wDPtqn/AH5T/wCLr59ooA+gv+F7eGf+fbVP+/Kf/F0f8L28M/8APtqn/flP/i6+faKAPoL/AIXt4Z/59tU/78p/8XR/wvbwz/z7ap/35T/4uvn2igD6C/4Xt4Z/59tU/wC/Kf8AxdH/AAvbwz/z7ap/35T/AOLr59ooA+j7H4y+E71wsl1cWpPTz4SB+a5xXZWGpWWqWwuLC6huYT/HC4YfpXx9V/Sdb1DQr1bvS7uW2mX+JG4YehHQj2NAH15RXnXw8+Kdv4oKabqgS21THykfcn+no3t+XoPRaACiiigAooooAKKKKACvNPjv/wAiTa/9fyf+gPXpdeafHf8A5Em1/wCv5P8A0B6APn+iiigD6S+KXjRvCegCKzfGo3uUhI6xqPvP+GQB7n2r5vd2kcu7FmY5JJ5Jrp/iH4n/AOEr8VS3sRP2ZI0jhUn7oAyf/HiTXLUAFFFFABRRRQAUUUUAFFFFABRRRQAUUUUAFFFFABRRRQAUUUUAFFFFABRRRQAUUUUAFFFFABRRRQAUUUUAFFFFABRRRQAUUUUAFFFFABRRRQAUUUUAFFFFABRRRQBJDM8EySxOySIwZWU4KkcgivpX4a+Mf+Eu8OK1wy/2hakR3IH8X91/xAP4g9q+Zq7r4Q642k+O7aFmxBfg28gz3PK/juAH4mgD6RooooAKKKKACiiigArzT47/APIk2v8A1/J/6A9el15p8d/+RJtf+v5P/QHoA+f6KKKACiiigAooooAKKKKACiiigAqzBp93dIXt7WeVAcFo4ywz+FVq+gvgT/yI1x/1/P8A+gJQB4T/AGNqX/QPu/8Avw3+FH9jal/0D7v/AL8N/hX1/RQB8gf2NqX/AED7v/vw3+FH9jal/wBA+7/78N/hX1/RQB8gf2NqX/QPu/8Avw3+FH9jal/0D7v/AL8N/hX1/RQB8gf2NqX/AED7v/vw3+FH9jal/wBA+7/78N/hX1/RQB8fTabe28Zkms7iJB1Z4mUfmaq19KfGL/kmmpf78P8A6MWvmugByKzuFUFmJwAOpq1/Y2pf9A+7/wC/Df4VVVmRgykhgcgjqK+mfhp4uHizwzG87g6ha4huR3Y9n/4EB+YNAHzh/Y2pf9A+7/78N/hUVxZXNptNzbTQhvu+YhXP519iVzPj7wqni7wtPZKF+1x/vbZj2cdB9CMj8c0AfLVFPkjeGRo5FKOhKspHII7UygAooooAKKKKACrMGn3d0he2tZ5kBwWjjLDP4U7TdOuNW1GCys08y4uHEaL6k/096+qfC+gW/hjw/a6XbciFfnfH+sc8s34n8hgUAfK/9jal/wBA+7/78N/hSnR9RAJOn3YAGSTC3+FfX1eZfGPxn/YukDRbGXbe3y/vSp5jh6H8W5H0B9qAPAaKKKAJYbea5k8u3ieV/wC6ilj+lT/2NqX/AED7v/vw3+Fdr8Ev+ShR/wDXtL/SvoqgD5A/sbUv+gfd/wDfhv8ACj+xtS/6B93/AN+G/wAK+v6KAPkD+xtS/wCgfd/9+G/wo/sbUv8AoH3f/fhv8K+v6KAPkD+xtS/6B93/AN+G/wAKP7G1L/oH3f8A34b/AAr6/ooA+QP7G1L/AKB93/34b/Cj+xtS/wCgfd/9+G/wr6/ooA+NSpUkEEEdjSVa1T/kLXn/AF3f/wBCNVaACtHw/M1t4j0yZTho7uJgfowrOq3pH/IZsf8Ar4j/APQhQB9gUUUUAFFFFABRRRQAV5p8d/8AkSbX/r+T/wBAevS680+O/wDyJNr/ANfyf+gPQB8/0UUUAFFFFABRRRQAUUUUAFFFFABX0F8Cf+RGuP8Ar+f/ANASvn2voL4E/wDIjXH/AF/P/wCgJQB6TVDVtb07QrdJ9VvIrWJ22K8pwC2CcfkDV+vL/j3/AMilp/8A1/D/ANFvQB1n/CxfCf8A0HrL/vuj/hYvhP8A6D1l/wB918sUUAfU/wDwsXwn/wBB6y/77o/4WL4T/wCg9Zf9918sUUAfU/8AwsXwn/0HrL/vuj/hYvhP/oPWX/fdfLFFAHvXxP8AGPh/V/AV9Z6fq1tcXLtEVjRsk4kUn9AT+FeC0UUAFdN4B8Vv4R8Tw3hybST91coOcoe/1BwfwxXM0UAfY8MsdxCksLq8bqGVlPDA85FSV5T8E/GH2/Tn8P3kmbi0XfbEn70XdfqpP5H2r1agDwP40+Ev7L1pdbtI8Wt+2JgBwk3r/wACHP1DV5hX1t4j0O38SaDd6XdDCTphWxkow5Vh9Dg18q6np1xpGp3Gn3ibLi3cxuvuP6e/oaAKdFFFABRRW54Q8NzeK/ElrpsO5Uc7ppAP9XGPvH+n1IoA9N+CHg/ZHJ4kvI/mcGKzBHboz/8Aso+jV7FUFlZw6fZw2lrGI4IEEcaDoqgYAqegDO17WrXw9otzqd62IbdN2AeWPZR7k4H418q67rNz4g1q51O9bdNcPuIzwo7KPYDA/Cu8+MnjL+2tZ/sWxkzZWDnzSDxJL0P4LyPqT7V5nQAUUUUAeg/BP/koUf8A17S/0r6Kr51+Cf8AyUKP/r2l/pX0VQBHNNHbwvNMwSONSzMegA5zXP8A/CxfCf8A0HrL/vutXX/+Rd1L/r1l/wDQTXyHQB9T/wDCxfCf/Qesv++6P+Fi+E/+g9Zf9918sUUAfU//AAsXwn/0HrL/AL7o/wCFi+E/+g9Zf9918sUUAfU//CxfCf8A0HrL/vuj/hYvhP8A6D1l/wB918sUUAWdRdZdSunRgyNK7Kw7gmq1FFABVvSP+QzY/wDXxH/6EKqVb0j/AJDNj/18R/8AoQoA+wKKKKACiiigAooooAK80+O//Ik2v/X8n/oD16XXmnx3/wCRJtf+v5P/AEB6APn+iiigAooooAKKKKACiiigAooooAK+gvgT/wAiNcf9fz/+gJXz7X0F8Cf+RGuP+v5//QEoA9Jry/49/wDIpaf/ANfw/wDRb16hXl/x7/5FLT/+v4f+i3oA8EooooAKKKKACiiigAooooAKKKKAL+jarc6FrFrqVk+2e3cOvv6g+xGR9DX1XoGt23iLRLXU7M5iuE3bSclT0Kn3ByK+Ra9P+DHjD+ydYOh3kmLS+fMJJ4SboP8AvoYH1AoA98rx344eEd8cfiS0j+ZAIbsAduiv/wCy/itexVBfWUGpWM9ndIJIJ0McinuCMGgD47orZ8VeHZ/C3iG60y4yfKbMbkf6xDyrfiP1yKxqACvor4R+D/8AhHfDov7qPbf6gA7AjlI/4V9iep+oHavK/hZ4R/4SjxOj3Me7T7LEs+Rwx/hT8SM/QGvpWgAri/if4yHhPw4y20gGo3mY7cA8p/ef8AfzIrrbu7g0+0murqRYoIULyO3RVHJNfLXjTxPP4t8SXGoyblhzst4yf9XGOg+vUn3JoAwSxYkkkk9zSUUUAFFFFAHoPwT/AOShR/8AXtL/AEr6Kr51+Cf/ACUKP/r2l/pX0VQBQ1//AJF3Uv8Ar1l/9BNfIdfXmv8A/Iu6l/16y/8AoJr5DoAKKKKACiiigAooooAKKKKACrekf8hmx/6+I/8A0IVUq3pH/IZsf+viP/0IUAfYFFFFABRRRQAUUUUAFeafHf8A5Em1/wCv5P8A0B69LrzT47/8iTa/9fyf+gPQB8/0UUUAFFFFABRRRQAUUUUAFFFFABX0F8Cf+RGuP+v5/wD0BK+fa+gvgT/yI1x/1/P/AOgJQB6TXl/x7/5FLT/+v4f+i3r1CvL/AI9/8ilp/wD1/D/0W9AHglFFFABRRRQAUUUUAFFFFABRRRQAU5HaNw6MVdTkEHkGm0UAfT/w58Wr4t8MRTysPt1viG6X/aHRvow5+uR2rrK+X/h54ubwj4oiuZGb7FPiK6X/AGD/ABfVTz9MjvX07HIksavGwZGAKsDwQaAPOPjN4T/tjw+NXtUzd6cCXwOXh/i/756/TdXgCI0jhEUs7HAUDkmvsd0WVGR1DIwwVI4Irx/wz8L2034pXMs0ROlWBFzasw4ct9xc9ypB/FR60Ad38P8AwsvhPwpb2bAfa5P3tyw7yHqPoBgfhXT0Vz3jXxRD4R8OXGoSbWmI8u3jJ+/Ien4Dkn2FAHnXxt8Z5K+GrGTgYkvGU/iqfyJ/4D7141U93dTX11NdXUjSzzOXkdjyzHkmoKACiiigAooooA9B+Cf/ACUKP/r2l/pX0VXzr8E/+ShR/wDXtL/SvoqgChr/APyLupf9esv/AKCa+Q6+vNf/AORd1L/r1l/9BNfIdABRRRQAUUUUAFFFFABRRRQAVb0j/kM2P/XxH/6EKqVb0j/kM2P/AF8R/wDoQoA+wKKKKACiiigAooooAK80+O//ACJNr/1/J/6A9el15p8d/wDkSbX/AK/k/wDQHoA+f6KKKACiiigAooooAKKKKACiiigAr6C+BP8AyI1x/wBfz/8AoCV8+19BfAn/AJEa4/6/n/8AQEoA9JrH8SeF9N8V2UVpq0TyRRyeYoWQp82COo9ia2KKAOE/4Ux4Q/587j/wJf8Axo/4Ux4Q/wCfO4/8CX/xru6KAOE/4Ux4Q/587j/wJf8Axo/4Ux4Q/wCfO4/8CX/xru6KAOE/4Ux4Q/587j/wJf8Axo/4Ux4Q/wCfO4/8CX/xru6KAPmb4oeHdP8ADHitbDSo3jgNskhDOWO4ls8n6CuNr0X45f8AI+p/15x/+hNXnVABRRRQAUUUUAFe9fBbxh/amktoV5Jm6slzAWPLxen/AAE4H0IrwWuh8CjUj400v+xf+PzzhgnO3b/Fu/2duc+1AH1VRRRQAjEICzEADqSeBXzR8TfGJ8W+JG+zuTp1pmO3APDf3n/Ej8gK978a6bfav4Q1Ky0uYxXUsRC4/jHdPbcMjPvXym6NG5R1KspwQR0NADaKKKACiiigAooooA9B+Cf/ACUKP/r2l/pX0VXzr8E/+ShR/wDXtL/SvoqgCG6t47u1lt5gTHKhRwD1BGD/ADriv+FMeEP+fO4/8CX/AMa7uigDhP8AhTHhD/nzuP8AwJf/ABo/4Ux4Q/587j/wJf8Axru6KAOE/wCFMeEP+fO4/wDAl/8AGj/hTHhD/nzuP/Al/wDGu7ooA4T/AIUx4Q/587j/AMCX/wAa474ofDzQPC/hQX+l28sdwbhI9zTMwwQ2eD9BXtledfHH/kQl/wCvyP8Ak1AHzzRRRQAVb0j/AJDNj/18R/8AoQqpVvSP+QzY/wDXxH/6EKAPsCiiigAooooAKKKKACvNPjv/AMiTa/8AX8n/AKA9el15p8d/+RJtf+v5P/QHoA+f6KKKACiiigAooooAKKKKACiiigAr6C+BP/IjXH/X8/8A6AlfPtfQXwJ/5Ea4/wCv5/8A0BKAPSa86+NGrX+j+GLKbTbye0le8CM0MhQkbGOOO2QPyr0WvL/j3/yKWn/9fw/9FvQB5D/wnHif/oP6n/4Ev/jR/wAJx4n/AOg/qf8A4Ev/AI1hUUAbv/CceJ/+g/qf/gS/+NH/AAnHif8A6D+p/wDgS/8AjWFRQBu/8Jx4n/6D+p/+BL/40f8ACceJ/wDoP6n/AOBL/wCNYVFAFvUNUvdWuBcajdzXUwUL5kzl2wO2T25NVKKKACiiigAooooAK99+DHg7+yNHOt3keLy+X90COY4eo/764P0C15j8NvCDeLfE0ccyE2FtiW6PqOy/8CP6AmvppFWNAqgKo4AA4FADqKoazqtvoej3epXbYhtozI3bPoB7k4H1NeWfCf4gT6j4hv8ATdWly2oStdQEnhX7oPbaBgex9aAPYq8F+NHg7+ydXGu2ceLW+bEwA4SbqT/wIZP1Br3qs/XdGtvEGjXWmXq5huE2kgcqezD3BwfwoA+RKK0Nc0a58P6zdabertmt32kgcMOzD2IwfxrPoAKKKKACiiigD0H4J/8AJQo/+vaX+lfRVfOvwT/5KFH/ANe0v9K+iqAKOtyPDoWoSRuyOltIysvUEKcEV8v/APCceJ/+g/qf/gS/+NfT+v8A/Iu6l/16y/8AoJr5DoA3f+E48T/9B/U//Al/8aP+E48T/wDQf1P/AMCX/wAawqKAN3/hOPE//Qf1P/wJf/Gj/hOPE/8A0H9T/wDAl/8AGsKigDd/4TjxP/0H9T/8CX/xqtqHiXWdVtvs+o6reXUO4N5c0zOMjocE+5rLooAKKKKACrekf8hmx/6+I/8A0IVUq3pH/IZsf+viP/0IUAfYFFFFABRRRQAUUUUAFeafHf8A5Em1/wCv5P8A0B69LrzT47/8iTa/9fyf+gPQB8/0UUUAFFFFABRRRQAUUUUAFFFFABX0F8Cf+RGuP+v5/wD0BK+fa+gvgT/yI1x/1/P/AOgJQB6TXl/x7/5FLT/+v4f+i3r1CvL/AI9/8ilp/wD1/D/0W9AHglFFFABRRRQAUUUUAFFFFABRRRQAVJDDJcTJDCjPJIwVVUZLE8ACo69Y+Cng77dft4hvo8wWrbLUH+KTu30UfqfUUAemeAfCaeEfDMNmQpu5P3t045y57fQDj8M966eisXxX4ig8LeHrrU7jBMS4iQn/AFjn7q/if0BNAHl3xx8WCSeHw5aSfLGRNdkH+LHyp+AOfxWvJrS6msbqK6tpGjmhcPG46qwOQaW+vZ9Svp7y6kMk87mSRj3JOTVegD6t8GeJYPFnhq21KLasjDZPGD9yQfeH8iPYit6vm/4U+Mf+EY8Ri3upMadfERy5PCN/C/4E4Psc9q+kKAPLvjR4O/tXSRrtnHm6slxMFHLxev1U5P0JrwWvsl0WRCjqGRhggjgivmP4j+EG8I+JpIYlP2C5zLbMf7vdfqp4+mDQByVFFFABRRRQB6D8E/8AkoUf/XtL/SvoqvnX4J/8lCj/AOvaX+lfRVAFDX/+Rd1L/r1l/wDQTXyHX15r/wDyLupf9esv/oJr5DoAKKKKACiiigAooooAKKKKACrekf8AIZsf+viP/wBCFVKt6R/yGbH/AK+I/wD0IUAfYFFFFABRRRQAUUUUAFeafHf/AJEm1/6/k/8AQHr0uvNPjv8A8iTa/wDX8n/oD0AfP9FFFABRRRQAUUVp6DoN94j1eHTdOj3zy9z91F7sT2A/+t1oAzKK9/0j4G6Da2y/2pPc3twR8xV/LQfQDn8yaq+IPgZplxau+g3M1rdAZWOZt8be2eo+vP0oA8KoqzfWNxpt9NZ3kZiuIXKSIeoIqtQAV9BfAn/kRrj/AK/n/wDQEr59r6C+BP8AyI1x/wBfz/8AoCUAek15f8e/+RS0/wD6/h/6LevUK8v+Pf8AyKWn/wDX8P8A0W9AHglFFFABRRRQAUUUUAFFFFABRRRQBqeHNDufEmu2ul2g+edsFsZCL1LH2Aya+qtI0u20XSbbTrJNlvboI0Hf3J9ycn6muD+Dng/+xNDOr3iYvb9QUBHMcPUD/gXB+m2vSaACvnn4w+LzrviI6XayZstOYqcHh5ejH8Pu/gfWvWfiP4rHhTwrNPC4F7cZhth3DHq3/ARk/XAr5jZi5JJJJ6kmgBtFFFABX0V8IvGB8Q+HvsF3Juv9PARiTy8f8Le57H6A96+da3PCHiSfwp4jttThyyIds0YOPMjP3l/r9QDQB9X1y/j/AMJp4v8ADMtqgUXkWZbVz2cds+hHH4g9q6GyvIdQs4bu1kWSCdBJG46MpGQanoA+OJongmeKZGSRGKsrDkEcYNR16v8AGrwcLLUF8Q2UeLe6bZdAfwydm+jD9R6mvKKACiiigD0H4J/8lCj/AOvaX+lfRVfOvwT/AOShR/8AXtL/AEr6KoAoa/8A8i7qX/XrL/6Ca+Q6+vNf/wCRd1L/AK9Zf/QTXyHQAUUUUAFFFFABRRRQAUUUUAFW9I/5DNj/ANfEf/oQqpVvSP8AkM2P/XxH/wChCgD7AooooAKKKKACiiigArzT47/8iTa/9fyf+gPXpdeafHf/AJEm1/6/k/8AQHoA+f6KKKACiiigAr274B6bENN1TUioMzyrbhj2ULuP5lh+QrxGvY/gNrkMbaho0rhZZGFxCCfvYGGH5BT9M0Ae0UUUUAeCfHfTorbxRZXsShXu7fEmO7IcZ/IgfhXl9ei/GvXIdU8YJZ27hk0+LynI6eYTlh+HA+oNedUAFfQXwJ/5Ea4/6/n/APQEr59r6C+BP/IjXH/X8/8A6AlAHpNYHi7whY+MtPhstRluI44pvOUwMAScEdwf7xrfooA8z/4UP4c/5/NU/wC/qf8AxFH/AAofw5/z+ap/39T/AOIr0yigDzP/AIUP4c/5/NU/7+p/8RR/wofw5/z+ap/39T/4ivTKKAPM/wDhQ/hz/n81T/v6n/xFH/Ch/Dn/AD+ap/39T/4ivTKKAPM/+FD+HP8An81T/v6n/wARXh+uWUem69qFlCWaO2uZIUZjyQrEDPvxX15XyV4s/wCRw1r/AK/p/wD0Y1AGTXZ/DHwefFniZPtCE6dZ4luCRw391PxI/IGuRt4Jbu4jgt42kllYIiKMlmPAA/GvqPwN4Vj8I+GrexAU3LfvLlx/FIev4DgD2FAHRBQoAAAA4wKXpyaK4D4u+LP+Ef8ADBsrZ8X2ogxrg8pH/G35HH457UAeS/E7xZ/wlXiqVoH3WNpmG3weGwfmf8T+gFcbRRQAUUUUAFFFFAHtXwQ8X+ZFJ4bvJPmQGW0JPVerJ+HX8W9K9hr5A03ULjSNSt7+zcx3Fu4kRvcf09vQ19U+Gddt/Eug2uqWuAs65dM52OOGU/Q5/nQBZ1fS7bWtJudOvU329whjcd/Yj3BwfqK+VfEeh3PhvXbrS7sfPA2A2MB16hh7EYNfW9ebfGPwf/behjV7NP8ATbBSXAHMkPUj/gPJ+m6gD59ooooA9B+Cf/JQo/8Ar2l/pX0VXzr8E/8AkoUf/XtL/SvoqgCC8tlvbKe2kJCTxtGxU8gEYOPzrzr/AIUP4c/5/NU/7+p/8RXplFAHmf8Awofw5/z+ap/39T/4ij/hQ/hz/n81T/v6n/xFemUUAeZ/8KH8Of8AP5qn/f1P/iKP+FD+HP8An81T/v6n/wARXplFAHmf/Ch/Dn/P5qn/AH9T/wCIo/4UP4c/5/NU/wC/qf8AxFemUUAfNnxO8GWHgvU7K306W4kSeEyMZmBIIOOMAVw9er/H7/kPaV/17N/6FXlFABVvSP8AkM2P/XxH/wChCqlW9I/5DNj/ANfEf/oQoA+wKKKKACiiigAooooAK80+O/8AyJNr/wBfyf8AoD16XXmnx3/5Em1/6/k/9AegD5/ooooAKK6Dxr4bfwp4mn005Maqjxv/AHgV6/nkfhXP0AFT2V5cafdxXVnM8M8TbkkQ4KmoKKAPW9I+PV7b2wj1bSo7qUDHmwy+WW+q4I/LH0qrr/xy1XUbV7fSbOPTg4wZS/mSD6cAA++DXl1FADndpHLuxZmOSSeSabRRQAV0Wg+PPEHhmxaz0m9EFu0hkK+Sj5YgAnJB7AVztFAHaf8AC3/GX/QWX/wGi/8AiaP+Fv8AjL/oLL/4DRf/ABNcXRQB2n/C3/GX/QWX/wABov8A4mj/AIW/4y/6Cy/+A0X/AMTXF0UAdp/wt/xl/wBBZf8AwGi/+Jo/4W/4y/6Cy/8AgNF/8TXF0UAdp/wt/wAZf9BZf/AaL/4mj/hb/jL/AKCy/wDgNF/8TXF0UAdp/wALf8Zf9BZf/AaL/wCJrkry7lvrye7uG3zTu0kjYxlick8epJqCigC7pOq3eialFf6e6x3MJJjZkV9pIxnBBHeun/4W/wCMv+gsv/gNF/8AE1xdFAHaf8Lf8Zf9BZf/AAGi/wDia57XfEOpeJL4XmrXJuJwgQEqFAUdgAMDqfzrMooAKKKKACiiigAooooAK6DQPG2veF7aW30e/MEMr+YyGNXG7GM/MDjjHT0Fc/RQB2n/AAt/xl/0Fl/8Bov/AImg/F3xiQQdVUg9QbaL/wCJri6KAHyP5sjOQoLEkhRgD8O1MoooA0dE17UPDmoC+0qcQXIUoGKK3B68EEV0f/C3/GX/AEFl/wDAaL/4muLooA7T/hb/AIy/6Cy/+A0X/wATR/wt/wAZf9BZf/AaL/4muLooA7T/AIW/4y/6Cy/+A0X/AMTR/wALf8Zf9BZf/AaL/wCJri6KAO0/4W/4y/6Cy/8AgNF/8TR/wt/xl/0Fl/8AAaL/AOJri6KAO0/4W/4y/wCgsv8A4DRf/E0f8Lf8Zf8AQWX/AMBov/ia4uigDY8QeKdW8U3EM2sXIuJIVKIRGqYHX+ECseiigAq/oURm1/To1GS91GoH1YVQrs/hTo7ax4+sDtzFaE3Uhx029P8Ax4rQB9MUUUUAFFFFABRRRQAV5p8d/wDkSbX/AK/k/wDQHr0uvNPjv/yJNr/1/J/6A9AHz/RRRQB9C/F/wa3iHRF1KxjLX9gCdqjJli6kD1I6j8R1NfPVfZdeP/Eb4RvdzS6v4ajHmuS81mOAx7snv/s/l6UAeKUVLPBLbTPDPE8UqHayOpDKfcHpUVABRRRQAUUUUAFFFFABRRRQAUUUUAFFFFABRRRQAUUUUAFFFFABRRRQAUUUUAFFFFABRRRQAUUUUAFFFFABRRRQAUUUUAFFFFABRRRQAUUUUAFFFFABRRU1raz3tylvawyTTSHascalmY+wFAEIycDvX0d8J/Br+GPD5ub1Nmo32HkUjmNP4V+vJJ9zjtWJ8OPhN/Zc0Or+IkVrtCGgteoiPZm9WHp0HXk9PWKACiiigAooooAKKKKACvNPjv8A8iTa/wDX8n/oD16XXmnx3/5Em1/6/k/9AegD5/ooooA+y6KKKAMXXvCGieJUxq2nxTuBgS8rIPow5x7dK4a++AujysWstTvbcH+F1WQD+Vep0UAePf8ADPsP/QwSf+Ag/wDi6T/hn2H/AKGCT/wEH/xdexUUAeO/8M+w/wDQwSf+Ag/+Lo/4Z9h/6GCT/wABB/8AF17FRQB47/wz7D/0MEn/AICD/wCLo/4Z9h/6GCT/AMBB/wDF17FRQB47/wAM+w/9DBJ/4CD/AOLo/wCGfYf+hgk/8BB/8XXsVFAHjv8Awz7D/wBDBJ/4CD/4uj/hn2H/AKGCT/wEH/xdexUUAeO/8M+w/wDQwSf+Ag/+Lo/4Z9h/6GCT/wABB/8AF17FRQB47/wz7D/0MEn/AICD/wCLo/4Z9h/6GCT/AMBB/wDF17FRQB47/wAM+w/9DBJ/4CD/AOLo/wCGfYf+hgk/8BB/8XXsVFAHjv8Awz7D/wBDBJ/4CD/4uj/hn2H/AKGCT/wEH/xdexUUAeO/8M+w/wDQwSf+Ag/+Lo/4Z9h/6GCT/wABB/8AF17FRQB47/wz7D/0MEn/AICD/wCLo/4Z9h/6GCT/AMBB/wDF17FRQB47/wAM+w/9DBJ/4CD/AOLo/wCGfYf+hgk/8BB/8XXsVFAHjv8Awz7D/wBDBJ/4CD/4uj/hn2H/AKGCT/wEH/xdexUUAeO/8M+w/wDQwSf+Ag/+Lo/4Z9h/6GCT/wABB/8AF17FRQB47/wz7D/0MEn/AICD/wCLo/4Z9h/6GCT/AMBB/wDF17FRQB47/wAM+w/9DBJ/4CD/AOLo/wCGfYf+hgk/8BB/8XXsVFAHjv8Awz7D/wBDBJ/4CD/4uj/hn2H/AKGCT/wEH/xdexUUAeO/8M+w/wDQwSf+Ag/+Lo/4Z9h/6GCT/wABB/8AF17FRQB47/wz7D/0MEn/AICD/wCLo/4Z9h/6GCT/AMBB/wDF17FRQB47/wAM+w/9DBJ/4CD/AOLo/wCGfYf+hgk/8BB/8XXsVFAHjv8Awz7D/wBDBJ/4CD/4ul/4Z9h7+IJP/AQf/F17DRQB5bYfAbRYHDX2oXtyB/CoWMH+Z/Wu70Pwro3huPZpOnxW5IwZAMu31Y8mteigAooooAKKKKACiiigAooooAK80+O//Ik2v/X8n/oD16XXmnx3/wCRJtf+v5P/AEB6APn+iiigD7LooooAKKKKACiivOfjRrGo6L4esJtMvZ7SR7razQuVJG1jjj6UAejUV8qf8J74o/6D+pf+BDV9GeBrqe+8E6Rc3czzTy26s8jnLMfc0Ab9FFFABRRRQAUUUUAFFFFABRRRQAUUUUAFFFFABRRRQAUUUUAFFFFABRRRQAUUUUAFFFFABRRRQAUUUUAFFFFABRRRQAUUUUAFFFFABRRRQAUUUUAFFFFABRRRQAUUUUAFeafHf/kSbX/r+T/0B69LrzT47/8AIk2v/X8n/oD0AfP9FFFAH2XRRRQAUUUUAFeV/Hz/AJFjTf8Ar8/9kavVK8r+Pn/Isab/ANfn/sjUAeEV9T/Dv/kn2if9eq18sV9T/Dv/AJJ9on/XqtAHSUUUUAFFFFABRRRQAUUUUAFFFFABRRRQAUUUUAFFFFABRRRQAUUUUAFFFFABRRRQAUUUUAFFFFABRRRQAUUUUAFFFFABRRRQAUUUUAFFFFABRRRQAUUUUAFFFFABRRRQAV5p8d/+RJtf+v5P/QHr0uvNPjv/AMiTa/8AX8n/AKA9AHz/AEUUUAfZdFFFABRRRQAV5X8fP+RY03/r8/8AZGr1SvK/j5/yLGm/9fn/ALI1AHhFfU/w7/5J9on/AF6rXyxX1P8ADv8A5J9on/XqtAHSUUUUAFFFFABRRRQAUUUUAFFFFABRRRQAUUUUAFFFFABRRRQAUUUUAFFFFABRRRQAUUUUAFFFFABRRRQAUUUUAFFFFABRRRQAUUUUAFFFFABRRRQAUUUUAFFFFABRRRQAV5p8d/8AkSbX/r+T/wBAevS680+O/wDyJNr/ANfyf+gPQB8/0UUUAfZdFFFABRRRQAV5X8fP+RY03/r8/wDZGr1SvK/j5/yLGm/9fn/sjUAeEV9T/Dv/AJJ9on/XqtfLFfU/w7/5J9on/XqtAHSUUUUAFFFFABRRRQAUUUUAFFFFABRRRQAUUUUAFFFFABRRRQAUUUUAFFFFABRRRQAUUUUAFFFFABRRRQAUUUUAFFFFABRRRQAUUUUAFFFFABRRRQAUUUUAFFFFABRRRQAV5p8d/wDkSbX/AK/k/wDQHr0uvNPjv/yJNr/1/J/6A9AHz/RRRQB9l0UUUAFFFFABXlfx8/5FjTf+vz/2Rq9Ury/49RM3hGwkA4S9AP4o/wDhQB4JX1P8O/8Akn2if9eq18sV9RfDOdbn4d6MykELDsP1Viv9KAOpooooAKKKKACiiigAooooAKKKKACiiigAooooAKKKKACiiigAooooAKKKKACiiigAooooAKKKKACiiigAooooAKKKKACiiigAooooAKKKKACiiigAooooAKKKKACiiigArzT47/8AIk2v/X8n/oD16XXl3x6uFXwpp8GfmkvAwHsqN/8AFCgDwWiiigD7LooooAKKKKACuQ+Kektq/wAP9RSNS0luouFAH9w5P/jua6+muiyoyOoZGGCD3FAHxtXuHwJ8RJPpt3oMzASwMbiEE9UbhgPo2D/wKvMvHXhiTwn4oubAqfs5PmWzH+KMnj8RyPqKy9F1i60DVrfUrCTZcQNuU9j6g+oIyPxoA+vKK5zwf4y07xlpi3Fm4S4QDz7Zm+aI/wBQex/keK6OgAooooAKKKKACiiigAooooAKKKKACiiigAooooAKKKKACiiigAooooAKKKKACiiigAooooAKKKKACiiigAooooAKKKKACiiigAooooAKKKKACiiigAooooAKKKKACvnz41+Ik1bxTHp1u+6HTUKMQf8Alq3LfkAB9Qa9G+I/xHt/Ctk9lYyLLrEq4VQciAH+Jvf0H49K+dZJHlkaSVi7uSzMxyST3NAC28El1cxW8ClpZXEaKO5JwP1r3f8A4UrY/wDPcflXGfBnws2r+JP7XnQ/ZNOO5SRw0x+6Pw6+3y+tfQVABRRRQAUUUUAFFFFAHK+PfBUHjTRDASsd9Bl7aYj7p7qf9k4H5A9q+atU0y70fUJbK/gaG4iOHRh0/wAR7jrX1/XN+L/A2leMrQJfRmO5QfubmMfOnt7j2P4YPNAHzJp2p3ekXqXen3ElvcJ92SM4P/1x7GvTtD+PF7BGsWuacl1jgzQN5bfip4P4YrmfE3wt8Q+G2eQWzX9oOk9spbA/2l6r+o964wgqSCCCOxoA+gY/jr4ZZAZLbU0b08pD/wCzU/8A4Xn4X/55al/34X/4qvnqigD6F/4Xn4X/AOeWpf8Afhf/AIqj/hefhf8A55al/wB+F/8Aiq+eqKAPoX/hefhf/nlqX/fhf/iqP+F5+F/+eWpf9+F/+Kr56ooA+hf+F5+F/wDnlqX/AH4X/wCKo/4Xn4X/AOeWpf8Afhf/AIqvnqigD6F/4Xn4X/55al/34X/4qj/hefhf/nlqX/fhf/iq+eqKAPoX/hefhf8A55al/wB+F/8AiqP+F5+F/wDnlqX/AH4X/wCKr56ooA+hf+F5+F/+eWpf9+F/+Ko/4Xn4X/55al/34X/4qvnqigD6F/4Xn4X/AOeWpf8Afhf/AIqj/hefhf8A55al/wB+F/8Aiq+eqKAPoX/hefhf/nlqX/fhf/iqP+F5+F/+eWpf9+F/+Kr56ooA+hf+F5+F/wDnlqX/AH4X/wCKo/4Xn4X/AOeWpf8Afhf/AIqvnqigD6F/4Xn4X/55al/34X/4qj/hefhf/nlqX/fhf/iq+eqKAPoX/hefhf8A55al/wB+F/8AiqP+F5+F/wDnlqX/AH4X/wCKr56ooA+hf+F5+F/+eWpf9+F/+Ko/4Xn4X/55al/34X/4qvnqigD6F/4Xn4X/AOeWpf8Afhf/AIqj/hefhf8A55al/wB+F/8Aiq+eqKAPoX/hefhf/nlqX/fhf/iqP+F5+F/+eWpf9+F/+Kr56ooA+hf+F5+F/wDnlqX/AH4X/wCKo/4Xn4X/AOeWpf8Afhf/AIqvnqigD6F/4Xn4X/55al/34X/4qj/hefhf/nlqX/fhf/iq+eqKAPoX/hefhf8A55al/wB+F/8AiqP+F5+F/wDnlqX/AH4X/wCKr56ooA+hf+F5+F/+eWpf9+F/+Ko/4Xn4X/55al/34X/4qvnqigD6F/4Xn4X/AOeWpf8Afhf/AIqj/hefhf8A55al/wB+F/8Aiq+eqKAPoX/hefhf/nlqX/fhf/iqP+F5+F/+eWpf9+F/+Kr56ooA+hf+F5+F/wDnlqX/AH4X/wCKo/4Xn4X/AOeWpf8Afhf/AIqvnqigD3+5+O/h2NM29nqUz+hjRR+e6uL8R/G3WdUjaDSYU0yE8F1bfKf+BHgfgM+9eaVJBBLczLFDG8sjHCqilifwFABLM80rSSuzyOcszHJJ9Sa2PCvha/8AFurpY2CccGWYj5Yl9T/h3rqvCnwb1nWXSbWFbTLPqQ4/fP8ARf4fqfyNe46D4e07w1py2Ol2whhH3j1Zz6se5oAXQNCtPDmjW+mWCbYoRy3dz3Y+5P8Ah0rToooAWiiigAooooAKKKKACiiigAr55+Mv/IzN9aKKAPOaKKKACiiigAooooAKKKKACiiigAooooAKKKKACiiigAooooAKKKKACiiigAooooAKKKKACiiigAooooAKKKKACiiigAooooAKKKKACiiigAooooAKKKKACvb/AIHf8e0/0oooA9dooooAKKKKAP/Z;" parent="1" vertex="1">
          <mxGeometry x="433.5" y="244.99" width="54" height="64.02" as="geometry" />
        </mxCell>
        <mxCell id="BJWZIvIbwDyXQehV0seY-13" style="edgeStyle=orthogonalEdgeStyle;rounded=0;orthogonalLoop=1;jettySize=auto;html=1;exitX=1;exitY=0.5;exitDx=0;exitDy=0;entryX=0;entryY=0.5;entryDx=0;entryDy=0;" parent="1" source="BJWZIvIbwDyXQehV0seY-5" target="BJWZIvIbwDyXQehV0seY-4" edge="1">
          <mxGeometry relative="1" as="geometry" />
        </mxCell>
        <mxCell id="BJWZIvIbwDyXQehV0seY-15" style="edgeStyle=orthogonalEdgeStyle;rounded=0;orthogonalLoop=1;jettySize=auto;html=1;exitX=0.5;exitY=0;exitDx=0;exitDy=0;entryX=0;entryY=0.5;entryDx=0;entryDy=0;" parent="1" source="BJWZIvIbwDyXQehV0seY-5" target="BJWZIvIbwDyXQehV0seY-14" edge="1">
          <mxGeometry relative="1" as="geometry" />
        </mxCell>
        <mxCell id="BJWZIvIbwDyXQehV0seY-5" value="" style="shape=image;verticalLabelPosition=bottom;labelBackgroundColor=default;verticalAlign=top;aspect=fixed;imageAspect=0;image=https://cdn3.iconfinder.com/data/icons/logos-and-brands-adobe/512/267_Python-1024.png;" parent="1" vertex="1">
          <mxGeometry x="120" y="240" width="74" height="74" as="geometry" />
        </mxCell>
        <mxCell id="BJWZIvIbwDyXQehV0seY-6" value="Auto Downloader Malware&lt;div&gt;Program&lt;/div&gt;" style="text;html=1;align=center;verticalAlign=middle;whiteSpace=wrap;rounded=0;" parent="1" vertex="1">
          <mxGeometry x="82.5" y="314" width="149" height="40" as="geometry" />
        </mxCell>
        <mxCell id="BJWZIvIbwDyXQehV0seY-8" value="malware.exe" style="text;html=1;align=center;verticalAlign=middle;whiteSpace=wrap;rounded=0;" parent="1" vertex="1">
          <mxGeometry x="417.5" y="304.02" width="86" height="30" as="geometry" />
        </mxCell>
        <mxCell id="BJWZIvIbwDyXQehV0seY-11" value="Run malware" style="text;html=1;align=center;verticalAlign=middle;whiteSpace=wrap;rounded=0;" parent="1" vertex="1">
          <mxGeometry x="260" y="250" width="100" height="30" as="geometry" />
        </mxCell>
        <mxCell id="BJWZIvIbwDyXQehV0seY-18" style="edgeStyle=orthogonalEdgeStyle;rounded=0;orthogonalLoop=1;jettySize=auto;html=1;exitX=1;exitY=0.5;exitDx=0;exitDy=0;entryX=0;entryY=0.5;entryDx=0;entryDy=0;" parent="1" source="BJWZIvIbwDyXQehV0seY-14" target="BJWZIvIbwDyXQehV0seY-17" edge="1">
          <mxGeometry relative="1" as="geometry" />
        </mxCell>
        <mxCell id="BJWZIvIbwDyXQehV0seY-14" value="&lt;h1 style=&quot;margin-top: 0px;&quot;&gt;Malware info&lt;/h1&gt;&lt;p&gt;malware info analysis in other AV&lt;br&gt;sha256 hash, type, ....&lt;/p&gt;" style="text;html=1;whiteSpace=wrap;overflow=hidden;rounded=0;" parent="1" vertex="1">
          <mxGeometry x="180" y="60" width="180" height="120" as="geometry" />
        </mxCell>
        <mxCell id="BJWZIvIbwDyXQehV0seY-40" style="edgeStyle=orthogonalEdgeStyle;rounded=0;orthogonalLoop=1;jettySize=auto;html=1;exitX=1;exitY=0.5;exitDx=0;exitDy=0;entryX=0.5;entryY=0;entryDx=0;entryDy=0;" parent="1" source="BJWZIvIbwDyXQehV0seY-17" target="BJWZIvIbwDyXQehV0seY-36" edge="1">
          <mxGeometry relative="1" as="geometry" />
        </mxCell>
        <mxCell id="BJWZIvIbwDyXQehV0seY-17" value="" style="shape=image;verticalLabelPosition=bottom;labelBackgroundColor=default;verticalAlign=top;aspect=fixed;imageAspect=0;image=data:image/jpeg,iVBORw0KGgoAAAANSUhEUgAABFkAAAVdCAYAAAAse5acAAAABHNCSVQICAgIfAhkiAAAAAlwSFlzAAAuIAAALiAB1RweGwAAABl0RVh0U29mdHdhcmUAd3d3Lmlua3NjYXBlLm9yZ5vuPBoAACAASURBVHic7N13uGVlff7/9wwz1KGDCAKiLBAEROFBBSKKUmILkqAYExXbsrfEkmiMmgSTiMbERNHHRFHzVTEaQqI/BQsIEVQWWABBebAAQToIQ532+2Pt4Uw5M3P6Z62936/rWtc+c2bm7NsLp3zuecq8FStWIEmShk/KZQGwKbDJGq/r+ngq378Q2AiYP87reJ+b6vfNB5YPnmVrvI73uel83xLgPuD+weuqH4/3uUl/f1NXS9f3306SJPXTPEsWSZLipVw2BbYEFg2eDX28oe/fjLagUDctA+4FFgN3DV4n8vE6v7+pq/vm9n+CJElakyWLJEnTlHKZB2wNbAdsO3jdbh3f3orxSxELEU3XMsYvYu4EblvluX0d3/5tU1f+xVCSpGmwZJEkaSDlspB1lyPrK1C2wZJE/bcMuIP1FzHjfq6pqyURgSVJ6hpLFknSUEu5bAvsNHgessrHa357R9oVJZImbzFwM3Dj4LlplY9X+3ZTV7dHhZQkabZZskiSeiXlshGwAxMrTh5CezCrpO5YwuolzDoLGeCWpq6WBeWUJGnSLFkkSZ0wONdkR2BXYLfB68pnZ8aKk+1pb5qRNPyWA7cyVrr8BrhulefawevNnicjSeoCSxZJ0qxLucynXVWyZnmyaqHyMGDjqIySeu0B4P9YvXhZs4y5qamr5WEJJUkjwZJFkjQtg+07D2Xd5cmuwC64bUdSrCXA9ay9CmbV5wa3J0mSpsOSRZK0QSmXnYBHAI8c5/VhwIK4dJI0Y5bSroj5BfDLNV+buroxMJskqQcsWSRJpFy2YN0lyiOAzePSSVJn3MM45QtjJczdgdkkSR1gySJJI2CwpWc31l2iPCQunSQNjZtYdwlzrVuRJGn4WbJI0pAY3M6zO/AoYJ/B6960RcruuKVHkiItBa6hLVx+DvwMuHLweo23I0nScLBkkaSeGWzteRSrlyn7AHvhth5J6qN7gKsYK11Wvv7MLUiS1C+WLJLUQYNVKbuxepGy8uNdA6NJkubWdaxSuqzy8bWufpGk7rFkkaRAg1Upe7P2qpS9cVWKJGnd7qHddrTm6pefu/pFkuJYskjSHEi5LKAtTg5Y49kDmBeXTJI0ZFYAvwIuXeP5eVNXSwNzSdJIsGSRpBmWctmNtkDZn7EyZV9g48hckqSR9gBwBWOly2XApU1dXRuaSpKGjCWLJE1RymUbVi9SVhYr20TmkiRpEu5gULis8lzW1NUdoakkqacsWSRpA1IuG9OuRFmzUNktMpckSbPoWtYoXoArmrp6IDSVJHWcJYskrWJwEO1jgYNXeR4FLIjMJUlSByylPVz34lWeH3nQriSNsWSRNLLWKFTS4HUfYH5kLkmSemQ57c1GFwMNFi+SRpwli6SRMChUHsfqK1QsVCRJmnmrFi8rnx9avEgaBZYskoaOhYokSZ1j8SJpJFiySOq1lMtmjBUpK7f8PAoLFUmSum45Y2e8rNxqdHFTV/eGppKkabBkkdQrKZfdgEOBwwbPY4GFoaEkSdJMWQL8CLhg8FzY1NW1sZEkaeIsWSR1VsplIe22n8MYK1Z2DQ0lSZLm2nUMCpfB6w+buloSG0mSxmfJIqkzUi4PYfVCJQGbhoaSJEldcx/t9qIHi5emrm6KjSRJLUsWSSFSLhsB+zO27edQYM/QUJIkqa+uZmylywXAZU1dLYuNJGkUWbJImhMpl20YW6FyKPAEYFFoKEmSNKwWA99nrHi5sKmrO2IjSRoFliySZkXKZWvgCOApg+exeOOPJEmKsZz2QN1zB895TV39NjKQpOFkySJpRgxKlSfRFipHYqkiSZK6a2Xpcg5t6XK+pYukmWDJImlKUi5b0ZYqR9IWK4/DUkWSJPXTcuCHtIXLObSly52hiST1kiWLpAlZpVR5CmOlykaBkSRJkmbLMsZKl3OxdJE0QZYsksY1KFV+h7FS5SAsVSRJ0mhaBlzCWOnyv5YuksZjySIJgJTLxsDhwLHAU7FUkSRJWpeVpcu3gbOA7zZ19UBsJEldYMkijbCUS0VbqhxLe7aKVypLkiRN3mLas1zOAs5q6qoE55EUxJJFGiEpl0W0q1RWFit7xiaSJEkaSlczKFyAbzd1tTg4j6Q5YskiDbGUyzzaq5RXliqHAwtDQ0mSJI2WJcB3GStdftTUlUOYNKQsWaQhk3LZETiGtlQ5BtgpNpEkSZJWcSNwNm3hcnZTVzcH55E0gyxZpJ5LuSwADmNstcpBwLzQUJIkSZqIFbQH6K5c5XJBU1dLYyNJmg5LFqmHBqtVnj14ngpsFZtIkiRJM+BO2huL/gf4H1e5SP1jySL1RMplb+C4wXMoMD82kSRJkmbRcuBC4EzgzKaufh6cR9IEWLJIHZVymQ88gbFiZZ/YRJIkSQp0JYPCBfh+U1fLg/NIGocli9QhKZfNgKNoS5Vn4aG1kiRJWtuNwFdoC5dvNnV1b3AeSQOWLFKwlMsOtIXKcbS3AW0em0iSJEk9cg/tbUVnAl9p6uqW4DzSSLNkkQKkXCrGtgEdBmwUm0iSJElDYBlwAWPnuJTgPNLIsWSR5kjK5fHAc2iLlUcHx5EkSdLw+ylt4fJfTV39IDqMNAosWaRZlHI5CDgReB6wR2waSZIkjbBfAV8ETm/q6pLgLNLQsmSRZljKZX/g+bTFyl7BcSRJkqQ1XUVbuHyhqavLosNIw8SSRZoBKZdH0a5YORG3AkmSJKk/fgqcTrvC5WfRYaS+s2SRpijl8kja1SrPBw4MjiNJkiRN14+BLwBfbOrqF9FhpD6yZJEmIeWyG22xciJwSHAcSZIkabZcRLvC5YtNXV0bHUbqC0sWaQNSLjsDJ9AWK4cB82ITSZIkSXNmBe210KcDX2rq6jfBeaROs2SRxpFy2Ya2VHk+cAQwPzaRJEmSFG45cB7tlqLTm7q6IziP1DmWLNJAymUj4GjgJOA4YNPQQJIkSVJ33QecCZwGfKOpq2WxcaRusGTRyEu57AO8GHgRsEtwHEmSJKlvrgc+A3y6qasro8NIkSxZNJJSLlvTbgU6CXhibBpJkiRpaHyPdnXLF5q6+m1wFmnOWbJoZKRc5gNH0RYrx+N2IEmSJGm23AecQVu4fLOpq+WxcaS5YcmioZdy2Zu2WHkhsGtsGkmSJGnkXAd8FjitqaufR4eRZpMli4ZSymUr2tuBTqK9dlmSJElSvAtoV7ec3tTVncFZpBlnyaKhMdgO9DTGtgNtFhpIkiRJ0rrcy9h2om+5nUjDwpJFvZdy2Q54KfBq4JHBcSRJkiRNzi+AU4FPNnV1W3QYaTosWdRbKZcEvJb2liAPsZUkSZL67T7gC8BHmrpqosNIU2HJol5JuWxKe9bKa4FDguNIkiRJmh0XAR+hPbvlvugw0kRZsqgXUi6PoN0O9FJg++A4kiRJkubGrcAngVObuvpldBhpQyxZ1FmDg2x/F3gN8HRgfmwiSZIkSUGWA18DPgp83YNy1VWWLOqclMv2tCtWXoUH2UqSJEla3S+Aj9EelHtrdBhpVZYs6oyUyyG0q1Y8yFaSJEnShqw8KPejTV1dFB1GAksWBfMgW0mSJEkzwINy1QmWLAqRcnk4bbHiQbaSJEmSZsrKg3I/0tTVr6PDaPRYsmhOpVz2B95OuyVoQXAcSZIkScNpKe1Wor9v6uqy6DAaHZYsmhMpl9+hLVeeCcwLjiNJkiRpNKwAvkpbtvxvdBgNP0sWzZqUyzzaUuXPgMOD40iSJEkabd8F/g74alNXDsKaFZYsmnEplwW024HeDuwfHEeSJEmSVnUZ8H7g801dLY0Oo+FiyaIZk3LZHHgZ8KfAw4PjSJIkSdL6/Br4IPBvTV3dEx1Gw8GSRdOWctmO9qagNwA7BMeRJEmSpMm4Bfgw7Y1Et0WHUb9ZsmjKUi67An8CvAJYFBxHkiRJkqZjMfAJ4B+aurouOoz6yZJFk5Zy2Qd4G/DHwMLgOJIkSZI0k5YA/w68v6mrK6PDqF8sWTRhKZcn0N4UdBxewyxJkiRpuK0AzgT+rqmr70eHUT9YsmiDUi4JOBk4JjqLJEmSJAU4G3hnU1dNdBB1myWL1inlsh/w18Dx0VkkSZIkqQPOAN7V1NXl0UHUTZYsWkvKZU/gvcAfAvOD40iSJElSlywHPg+8u6mrq6PDqFssWfSgwW1B7wJeCiwIjiNJkiRJXbYU+CTw195GpJUsWUTKZUfgz4FXA5sGx5EkSZKkPrkPOBX426aubo4Oo1iWLCMs5bI18BbgTcCi4DiSJEmS1GeLgX8EPtDU1W+jwyiGJcsISrlsAbwBeCuwbXAcSZIkSRomtwOnAB9u6uru6DCaW5YsIyTlsgnwSuAdwE7BcSRJkiRpmN0IvA/4eFNX90eH0dywZBkBKZcFwIuBvwR2D44jSZIkSaPkGuCvgE83dbU0OoxmlyXLkEu5PJ/2F/Re0VkkSZIkaYRdBfxlU1dfiA6i2WPJMqRSLgcB/wwcFp1FkiRJkvSgC4DXN3V1SXQQzTxLliEzuI75ZOBlwPzgOJIkSZKktS0H/g14p9c+DxdLliExOHflNcB7gW2C40iSJEmSNuwO4N3ARz2vZThYsgyBlMvTgH8C9ovOIkmSJEmatMuBNzZ19a3oIJoeS5YeS7nsAXwQ+P3gKJIkSZKk6ftP4E+buvpVdBBNjSVLD6VcNgfeDrwN2DQ4jiRJkiRp5twHvB/4+6au7okOo8mxZOmZlMvzgFOA3aOzSJIkSZJmzTXAW5u6+mJ0EE2cJUtPpFwOAD4MPCU4iiRJkiRp7pwLvKGpq0ujg2jDLFk6LuWyHfBXwKuAjYLjSJIkSZLm3jLgY8BfNnV1W3QYrZslS0elXOYDNfA3wPbBcSRJirRs8GyE/+AgSRpttwJ/AeSmrpZHh9HaLFk6KOXyaOCTwBOis0iSem8ZcCdwF/AAsGSNZ+k4n+vU55u6evAvKymXecDCNZ4F43xusp+fia+xvs9vDGwJbIVFkSRp+r4PvLSpq59GB9HqLFk6JOWygPbGoL8ENgmOI0mK9wDwW9qS5LfjPBv8fFNXi+c+ttYn5bII2HrwbLXKx1tP4vMbz3lwSVLX3E97tMT7m7paGh1GLUuWjki5PAb4FHBQdBZJ0oy4h3UXIRMqTZq6um/uY6sPUi6bMrlSZrzPbT7nwSVJs+ES4CVNXf0kOogsWcKlXBYC7wTeQbucWJLUHUuBG4HfDJ4bgDuYWEHivyip0wYraCdS1GwDPBTYefDsRLstSpLUHUuA9wEnN3W1JDrMKLNkCZRyOZh29coB0VkkacTcy1hxsq7nBuDmVc8DkfTguTg7snrxsq5ns6CYkjSqLqVd1XJxdJBRZckSIOWyCfAe4K14+J0kzaQ7mEB50tTVb8MSSiMk5bI1EytjtonKKElDaBlwCvCepq7ujw4zaixZ5ljK5VDam4P2ic4iST2xHLiZiZUnnmEi9dDgjJmJlDE7AvODYkpS31xJewPRhdFBRoklyxxJuWwG/A3wJvzLgSRBe3PODWy4PLmpqatlUSEldUfKZSPgIWy4jHko3sAkSdD+Y9U/An/R1NW90WFGgSXLHEi5HAH8G1BFZ5GkOXYbUAbP1au+NnV1Y2QwScMt5bIT7d+99lzjtQK2C4wmSREK8LKmrs6LDjLsLFlmUcplEfB3wGuAecFxJGm2/IbVS5RVi5Q7IoNJ0nhSLtuwdvGy8uOdA6NJ0mxaAXwU+LOmrhZHhxlWliyzJOXyZOA0YI/YJJI0bcuAaxm/SLm6qat7ArNJ0oxKuWxOW7iMV8DshpcWSOq/XwEnNXX1neggw8iSZYalXOYD7wTejX8IS+qPB4BfMs62HuCXTV0tCcwmSZ2QclkIPILxtyE9As+BkdQfy4D3Aic3dbU8OswwsWSZQSmXhwL/DjwtOoskjeNu1i5QVr5e6x+wkjR1g39o243xC5g9gS3i0knSOn0L+OOmrm6IDjIsLFlmSMrlKNqCZafoLJJG2u2s+3wU//CUpCCDf4xb1zkw2wZGk6QbaYuWb0YHGQaWLNM0uErwPcA78GpmSXPnbuBS4MeD50fAlU1d3R6aSpI0aSmXbYF9gMcCBw6eA3D1i6S5sxx4H/Cepq6WRYfpM0uWaUi5PAz4HHBEdBZJQ+3/aEuUH6/yWtzeI0nDa7D9qKItXB67yuvDInNJGnrnAS9o6ur/ooP0lSXLFKVcng58BtghOoukobEE+Cmrr075cVNXt4amkiR1Rsple1YvXg4EHg0sjMwlaajcAryoqauvRQfpI0uWSUq5LABOBt4KzAuOI6m/bmWsTFlZqFzR1NUDoakkSb2TctkY2JfVi5cDge0jc0nqtRXAKcA7m7paGh2mTyxZJiHlsjvwBeDQ6CySemM57cGzq233aerqutBUkqShl3LZlbW3G+2J5whKmrgLgec3dXVNdJC+sGSZoJTLccCn8PR3Set2N/ATVl+dcmlTV3eHppIkaSDlsgXtobqrrnp5DB6yK2ndbgde0tTVmdFB+sCSZQMGyy//HnhTdBZJnXIdY6tTVhYqV3sYrSSpbwaH7O7J6sXLY4FdI3NJ6px/BN7u9vb1s2RZj5TLbsB/Aik6i6QwDwBXsPZ2n9tCU0mSNMtSLtux9najfYGNI3NJCtUAv9/U1bXRQbrKkmUdUi6HAP8NPDQ6i6Q5dR3wPdr9pxcClzR1dX9sJEmSuiHlsglwEO0ZhYcCT8QVL9KouQH4vaauLooO0kWWLONIuZxAez3zZtFZJM2q+4FLaMuU7wEXeiCtJEmTMzhgd2XhcihtCbNJaChJs+1e2muevxQdpGssWdaQcnkH8Dd4PbM0jK5lbIXKhcAP3VMqSdLMGpxpeBBjpcuhwG6hoSTNhhXAXzR19b7oIF1iyTIw+MPgE8CLorNImhH3ARezytafpq6uj40kSdJoSrnswupbjA4GNg0NJWmmfAZ4hf942bJkAVIu2wNnAE+KziJpym4FvgOcx9gqlSWxkSRJ0nhSLguBx9GWLkcATwa2Dw0laTrOB45v6urW6CDRRr5kSbnsA3yF9to6Sf2xslQ5d/Bc1tTVaP+GJklST6Vc5gH7A08ZPJYuUv9cDTyrqasro4NEGumSJeXyNOBLwDbRWSRt0C20q1TOxVJFkqShNk7pcgSwQ2AkSRNzB3BCU1ffig4SZWRLlpRLDXwEWBCdRdK4bmH1lSqXW6pIkjSaBqXLfqy+0sXSReqmpcBrm7rK0UEijFzJknKZD5wC/El0FkmrsVSRJEkTYuki9cI/AG9t6mp5dJC5NFIlS8plEfA54NnRWSSxGDgH+Mbg1VJFkiRNySqly5HA0YPXRaGhJAH8D/CCpq4WRweZKyNTsqRcdqU94PbA6CzSiFoBXAKcDZwFXODtP5IkaTYMbi86DDgWOAY4CJgXGkoaXT+mPRD3uuggc2EkSpaUy57At4Hdo7NII+Z62pUqZwHfbOrq5uA8kiRpBKVcdgSOoi1djgZ2iU0kjZxrgKc2dXV1dJDZNvQlS8rlUbQFi7+RSrPvPtobgM4Gzm7q6tLgPJIkSWtJuRxAu8LlGNqbizaNTSSNhOtpi5afRQeZTUNdsqRc9ge+CewUnUUaYpcxtgXo/Kau7g3OI0mSNGEpl82AJzG2tWj/2ETSULsROKqpq8uig8yWoS1ZUi6Po92msH10FmnI3AF8nbZUObupq+uD80iSJM2YlMsutGXLscDvAtvEJpKGzq3A0U1d/TA6yGwYypIl5fJ42gHQ3xClmfFr4L+BM4HzPLBWkiSNgsEBukcAxwG/Bzw8NpE0NO4Ajm3q6gfRQWba0JUsKZfDgf8P2Co6i9Rzl9CWKmc2dfXj6DCSJEnRUi4H0hYux9HeWCRp6u4EntHU1Xejg8ykoSpZUi5H0t7DvUV0FqmHHgDOpS1W/ntUrliTJEmaipTLrrSrW44DngJsHBpI6qe7gWc3dXVOdJCZMjQlS8rlWOAMYLPoLFKP3EG78utM4OtNXd0ZnEeSJKl3Ui5b0Z7fchzwDDy2QJqMe4Hjm7o6KzrITBiKkiXl8mzgP4BNorNIPfBrBqtVgO80dbU0OI8kSdLQSLksAJ7M2CoXz3GRNux+4LlNXf1PdJDp6n3JknL5A+DzwMLoLFKHXQmcDpzh+SqSJElzZ3COy/HAicA+wXGkLlsC/GFTV1+ODjIdvS5ZUi4vAD4DbBSdReqgq4AvAqc3dXVpdBhJkqRRl3I5gLZseR6wV3AcqYuWAS9q6upz0UGmqrclS8rlxcAngfnRWaQO+SVjxcpQ3jsvSZI0DFIuj2OscHlEcBypS5YDL23q6tPRQaailyVLyuVZwH/hChYJ4BraM4lOb+rqougwkiRJmpyUyyG0hctzgd2D40hdsAx4TlNXX4kOMlm9K1lSLk8Avg1sHp1FCnQ9g2IF+F5TV/36hSxJkqS1pFzmAU9krHDZJTaRFOoe4KlNXX0/Oshk9KpkSbnsBVwA7BCdRQpwI/Al2mLlfy1WJEmShtegcPkd2sLlBGCn2ERSiFuAw5q6uio6yET1pmRJuexEW7A8MjqLNIfuoj1j5f/RXre8PDiPJEmS5ljKZT7ttdB/RHuGy5axiaQ59QvaouXG6CAT0YuSJeWyCDgXODg4ijQXVtBuiTsN+M+mru6JjSNJkqSuSLlsDvw+cBLwVGBeaCBpblwMPKWpq8XRQTak8yVLymUB8BXg2Ogs0iy7mrZY+UxTV9cEZ5EkSVLHpVx2B15EW7jsGZtGmnVnAc9q6mppdJD16UPJchrw4ugc0iy5i/YA29Oaujo/OowkSZL6KeXyJNqy5bm4nUjD69NNXZ0UHWJ9Ol2ypFxOBt4RnUOaYSuAc2hXrXzZ7UCSJEmaKYPtRH9AW7gciduJNHze19TVO6NDrEtnS5aUy6uBj0bnkGbQL4BP07avv44OI0mSpOGWcnk47a6AF+MFIhour2nq6tToEOPpZMmScnkO8GVgfnQWaZoWM9gOBJzvtcuSJEmaa4ProFfdTrQoNJA0fcuBP2jq6r+ig6ypcyVLyuUw4JvAZtFZpGm4DDgV+GxTV3dFh5EkSZIAUi5bAi8EXg3sHxxHmo57gaOaurogOsiqOlWypFweBVwAbBedRZqCJbQrsD7qIbaSJEnqusFhua+hPcNlYXAcaSpuAw5r6upn0UFW6kzJMjig6QfAftFZpEm6BsjAvzZ1dWN0GEmSJGkyUi47AS8HamD34DjSZF0OPL4rF4p0qWT5FO0eQakPVgBn0x7O/NWmrpYF55EkSZKmJeWyEfBM2tUtx+DNROqP05q6ekl0COhIyZJyOQn4VHQOaQJuo/3/6seauirRYSRJkqTZkHKpgFcBL8HjHNQPL2nq6rToEOElS8plP9ptQpuHBpHW7we0B9l+oamr+6LDSJIkSXMh5bIp8Hzag3IfHxxHWp97aLcNXR4ZIrRkSblsAVwE7BsWQlq3pcDpwIeauro4OowkSZIUKeVyMPBm4ERgQXAcaTxXAIc0dXV3VIDokuWzwB+HBZDGdyfwCeCfmrq6NjqMJEmS1CUpl92ANwKvALYKjiOt6d+bunph1JuHlSwpl5fTDrJSV1wHfBj4eFNXd0aHkSRJkros5bIV8ErgDcCuwXGkVb2iqat/jXjjkJIl5fIY4HvAZnP+5tLafgJ8gPa8lSXRYSRJkqQ+SbkspD235S3AY4LjSAD3Ak9s6uonc/3Gc16ypFy2BBpg7zl9Y2lt3wBOaerqG9FBJEmSpGGQcjkaeCtwdHQWjbyfA6mpq7vm8k0jDivKWLAozhLgC8AHIlpNSZIkaZgN/gHzG4PdC2+hXeGyMDaVRtTetP3DH87lm87pSpaUy6tor8GV5tpdwMdpD7O9LjqMJEmSNApSLrvSHpL7SmDL4DgaTa9u6upjc/Vmc1aypFweB1wIbDInbyi17qI9zPYfmrq6LTqMJEmSNIpSLtsBf0J7SK5li+bS/cChTV39cC7ebE5KlpTLxsCPgX1m/c2k1mLgn2m3BVmuSJIkSR0wKFveArweWBQcR6PjSuDApq4emO03mj/bbzDw51iwaG4sBv4O2KOpq3dYsEiSJEnd0dTVbU1dvQPYg/bv7YtjE2lE7EPbS8y6WV/JknJ5FO0qFrcJaTbdDfwL7cqVW6LDSJIkSdqwlMsOtCtbXgdsERxHw+1+2tUsP5vNN5mLkuUc4Cmz+iYaZXcDH6G9itlyRZIkSeqhQdnyVuC1WLZo9pzb1NWRs/kGs1qypFxOAj41a2+gUXYP8FHg/U1d3RwdRpIkSdL0pVx2BN4GvAbYPDiOhtNLmro6bba++KyVLIMm8kpg+1l5A42qJbTXgJ/c1NVN0WEkSZIkzbyUy0OAdwKvBhYGx9FwuRXYZ7Z2QszmwbcfxIJFM+vLwKObunqjBYskSZI0vJq6uqmpqzcCj6adA6SZsj1tXzErZmUlS8rlqcC3ZvwLa1RdCLylqasLooNIkiRJmnspl8OADwCHRmfR0HhaU1ffnukvOuMlS8plE+BSYK8Z/cIaRVcDf97U1X9EB5EkSZIUL+XyXOBvgT2js6j3rgIOaOrq/pn8orOxXeidWLBoem4D3ky7NciCRZIkSRIAg/ng0bTzwm3BcdRve9H2FzNqRleypFz2BX4EbDxjX1Sj5H7gn2kPtb0jOowkSZKk7kq5bEM7JL8e2CQ4jvrpAeCxTV1dMVNfcMZKlpTLPOA7wJNm5Atq1HweeEdTV7+KDiJJkiSpP1IuewDvA/4wOIr66XzgyU1dzUg5MpPbhV6KBYsm73LgiKauXmDBIkmSJGmymrr6VVNXLwCOoJ0vpMl4Em2fMSNmZCVLymUz4BfAQ6f9xTQq7gbeC3yoqaul0WEkSZIk9V/KZQHteS3vBrYIjqP+uAF4ZFNX9073C83USpZXYcGiiftPYN+mrk6xYJEkSZI0U5q6WtrU1SnASoqZFgAAIABJREFUvrRzhzQRD6XtNaZt2itZUi6b065i2WkmAmmo/QJ4XVNXX4sOIkmSJGn4pVyeDvwL8MjoLOq8G2lXs9wznS8yEytZXoMFi9bvfuCvgP0sWCRJkiTNlcH8sR/tPHJ/cBx12060/ca0TGslS8plC+CXwI7TDaKhdTbt6pWrooNIkiRJGl0pl71oV7UcE51FnXUz8Iimru6e6heY7kqW12LBovHdAjy/qatjLVgkSZIkRWvq6qqmro4Fnk87r0hr2pG255iyKa9kSbksol3FssN0Amgo/RfwyqaubooOIkmSJElrSrk8BPg48JzoLOqcW2hXsyyeyk+ezkqW12PBotXdAbywqavjLVgkSZIkdVVTVzc1dXU88ELaOUZaaQfavmNKprSSJeWyJfArYLupvrGGzteAlzd1dX10EEmSJEmaqJTLLsC/Ak+PzqLOuA3Yo6mruyb7E6e6kuUNWLCodRfwiqaunmHBIkmSJKlvmrq6vqmrZwCvoJ1vpO1oe49Jm/RKlpTLVrSrWLadyhtqqHwbeGlTV7+ODiJJkiRJ05VyeTjwSeCp0VkU7nba1Sx3TuYnTWUly5uwYBl19wCvA46yYJEkSZI0LAbzzVG08849wXEUa1va/mNSJrWSJeWyNe0qlm0m+0YaGlcCJzR1dXl0EEmSJEmaLSmX/YAvAftEZ1GYO2hXs/x2oj9hsitZXoQFyyj7HHCIBYskSZKkYTeYew6hnYM0mrah7UEmbMEk3+Dlk/zxGg73A29s6urj0UEkSZIkaa40dbUY+KOUy3nAPwGbBEfS3Hs58M8T/cET3i6UcknARVMMpf76BfDcpq4uiQ4iSZIkSVFSLgcB/wE8MjqL5twhTV01E/mBk9ku9LIphlF/nQEcZMEiSZIkadQN5qKDaOckjZYJ9yETWsmSctkM+A2w9TRCqT+WAG9v6upD0UEkSZIkqWtSLm8G/h5YGJ1Fc+K3wM5NXd27oR840ZUsJ2DBMipuBo60YJEkSZKk8Q3mpSNp5ycNv61pe5ENmmjJ4lah0fBT4AlNXX03OogkSZIkddlgbnoC7Ryl4TehXmSD24VSLhVw1UwkUqedDTxvMvd/S5IkSdKoS7lsDXwROCY6i2bdXk1dlfX9gImsZHEVy/A7FXimBYskSZIkTc5gjnom7Vyl4bbBfmS9K1lSLhsB1wI7z2Aodcdy4E+buvrH6CCSJEmS1HcplzcBH2RyN/mqP34D7NbU1bJ1/YAN/Yd/BhYsw2oxcJwFiyRJkiTNjMF8dRztvKXhszNtT7JOGypZ3Co0nH4DHN7U1Veig0iSJEnSMBnMWYfTzl0aPuvtSda5XSjl8lDarUILZiGU4lwDPG1Dh/VIkiRJkqZucInMt4Ddo7NoRi2l3TJ0w3jfub6VLM/FgmXYXA0cYcEiSZIkSbNrMHcdQTuHaXgsoO1LxrW+ksXrp4bLFbQFy6+jg0iSJEnSKBjMX0fQzmMaHuvsS8bdLpRyWQjcBiyaxVCaOz8Gjm7q6uboIJIkSZI0alIuOwLfAA6MzqIZsRjYrqmrJWt+x7pWshyGBcuwuAg40oJFkiRJkmIM5rEjaecz9d8i2t5kLesqWY6evSyaQxcARzV1dXt0EEmSJEkaZYO57CjaOU39N25vsq6SxfNY+u9S4JlNXd0ZHUSSJEmSBIP57Jm085r6bdzeZK0zWVIu2wE3s/5DcdVtvwYOa+rq+uggkiRJkqTVpVx2oV3R8vDoLJqy5cCOTV3dtuonxytSjlrH59UPtwDHWrBIkiRJUjcN5rVjaec39dN82v5krU+uyfNY+utu2i1CP4sOIkmSJElat8Hc9kzaOU79tFZ/Ml7J4nks/bQEOKGpqx9EB5EkSZIkbdhgfjuBdp5T/6zVn6xWsqRcHgXsPmdxNJNe1tTV16NDSJIkSZImbjDHvSw6h6Zk90GP8qA1V7K4iqWfPtTU1WejQ0iSJEmSJm8wz30oOoemZLUeZc2SxfNY+ud84G3RISRJkiRJ0/I22vlO/bJaj/LgFc4plwXA7cCigFCamt8ABzV1dUN0EEmSJEnS9KRcHgpcAuwcnUUTthjYtqmrpbD6SpYKC5Y+WQqcaMEiSZIkScNhMN+dSDvvqR8W0fYpwOoly75zn0XT8LamrlxKJkmSJElDZDDneSREvzzYp1iy9NMZTV15KJIkSZIkDaHBvHdGdA5NmCVLj90GvDo6hCRJkiRpVr2adv5T941bsjw6IIgm70+buroxOoQkSZIkafYM5r4/jc6hCXmwT5m3YsUKUi7zgLuALeIyaQK+0dTVMRv+YZIkSZKkYZByOZs1rglW59wNbNnU1YqVK1l2x4Kl6+4G6ugQkiRJkqQ5VdPOg+quLWh7lQe3C3keS/e9s6mrX0WHkCRJkiTNncEc+M7oHNqgfcGSpS+uBP4lOoQkSZIkKcS/AFdEh9B6rVayeOhtt727qatl0SEkSZIkSXNvMA++OzqH1uvR4EqWPvgJ8B/RISRJkiRJob4E/Cg6hNbJ7UI98ZdNXa2IDiFJkiRJijOYC98VnUPrtC/AvIM/ftVDgBuDw2h8FzV19fjoEJIkSZKkbki5XAg8MTqHxrXTfGDv6BRap7+JDiBJkiRJ6hTnxO7aez6wbXQKjesG4KvRISRJkiRJnfJ14ProEBrXtvOBraJTaFyf8UYhSZIkSdKqBnPiZ6NzaFxbWbJ012nRASRJkiRJnXRadACNa6v5wJbRKbSW7zV1dUV0CEmSJElS9zR1dSXwvegcWsuWrmTpps9FB5AkSZIkdZpzY/e4XaijzosOIEmSJEnqNOfG7nG7UAfdCVwaHUKSJEmS1GmX0s6P6g5XsnTQhU1dLY8OIUmSJEnqrsHceGF0Dq3GM1k66LvRASRJkiRJveD82C2uZOkgtwpJkiRJkibC+bFbPJOlg26MDiBJkiRJ6gXnx25xu1AH3RQdQJIkSZLUC86P3eJ2oQ7yF4kkSZIkaSKcH7tlq/nAougUetDypq7uig4hSZIkSeq+wfzo7bTdsWg+MC86hR40P+XiGTmSJEmSpA0azI/zo3PoQfP8j9E9D4kOIEmSJEnqBefHjrFk6R5/kUiSJEmSJsL5sWMsWbpnp+gAkiRJkqResGTpGEuW7tk/OoAkSZIkqRecHzvGkqV7Do8OIEmSJEnqBefHjrFk6Z5DUy7+d5EkSZIkrdNgbjw0OodW5zDfPVsD+0WHkCRJkiR12n7ANtEhtDpLlm46IjqAJEmSJKnTnBs7yJKlm/4wOoAkSZIkqdOcGzvIkqWbDk+57B0dQpIkSZLUPYN50UNvO8iSpbtOig4gSZIkSeqkk6IDaHyWLN31opTLRtEhJEmSJEndMZgTXxSdQ+OzZOmuhwHHRoeQJEmSJHXKsbTzojrIkqXb3hUdQJIkSZLUKc6JHWbJ0m1PTLk8KzqEJEmSJCneYD58YnQOrZslS/f9dcplXnQISZIkSVKcwVz419E5tH6WLN33WOCE6BCSJEmSpFAn0M6H6jBLln54rzcNSZIkSdJoGsyD743OoQ2zZOmHfYHXRYeQJEmSJIV4He1cqI6zZOmPk1Mue0SHkCRJkiTNncEceHJ0Dk2MJUt/bAHk6BCSJEmSpDmVaedB9YAlS78cnXI5KTqEJEmSJGn2Dea/o6NzaOIsWfrngymXnaJDSJIkSZJmz2Du+2B0Dk2OJUv/bAecGh1CkiRJkjSrTqWd/9Qjliz9dHzK5Y3RISRJkiRJM28w7x0fnUOTZ8nSX6ekXA6PDiFJkiRJmjmDOe+U6ByaGkuW/loIfNHzWSRJkiRpOAzmuy/SznvqIUuWftsF+HzKZaPoIJIkSZKkqRvMdZ+nnfPUU5Ys/XckcHJ0CEmSJEnStJxMO9+pxyxZhsPbUi4nRoeQJEmSJE3eYJ57W3QOTZ8ly3CYB3wm5XJUdBBJkiRJ0sQN5rjP0M516jlLluGxMXBGyuXg6CCSJEmSpA0bzG9n0M5zGgKWLMNlEfC1lMte0UEkSZIkSes2mNu+RjvHaUhYsgyfHYGzUy47RweRJEmSJK1tMK+dTTu/aYhYsgynPYCzUi7bRAeRJEmSJI0ZzGln0c5tGjKWLMPrAOCrKZetooNIkiRJkmAwn32Vdl7TELJkGW6HAd9MuWwbHUSSJEmSRtlgLvsm7ZymIWXJMvwOAc5JubjXT5IkSZICDOaxc2jnMw0xS5bRcCDwnZTLLtFBJEmSJGmUDOaw79DOZRpyliyjY1/gvJTLw6ODSJIkSdIoGMxf59HOYxoBliyjZU/aoqWKDiJJkiRJw2wwd51HO4dpRFiyjJ7daYuWx0QHkSRJkqRhNJi3zqOdvzRCLFlG087Ad1Muz4oOIkmSJEnDJOXyDOB/aecujRhLltG1CDgz5fKm6CCSJEmSNAxSLq8H/hvYMjqLYsw7+ONXrYgOoXCnAm9o6mppdBBJkiRJ6puUy0bAPwKvi86iWK5kEcCrga+mXLaODiJJkiRJfZJy2ZJ29YoFiyxZ9KBjgAtSLo+IDiJJkiRJfZBy2Y32/JVnRGdRN1iyaFWPBr6fcjk8OogkSZIkdVnK5RDg+4A3t+pBlixa047AOSmXN0cHkSRJkqQuSrm8BjgfbxDSGjz4VutzBvCSpq5+Gx1EkiRJkqINzl/5BHBidBZ1kytZtD7HA5ekXA6KDiJJkiRJkVIuBwIXY8Gi9bBk0YY8kvZA3FdGB5EkSZKkCCmXlwPfA/aKzqJuc7uQJuNzwCubulocHUSSJEmSZlvKZQvgY8AfR2dRP7iSRZPxAuCilMt+0UEkSZIkaTYN5p6LsGDRJLiSRVNxD/A24KNNXfn/H0mSJElDI+UyD3gN8H5g8+A46hlXsmgqNgf+BfhmyuXh0WEkSZIkaSYM5ptv0s47FiyaNEsWTcdTgUsHh0BJkiRJUm8N5ppLaeccaUrcLqSZ8jXg5U1dXR8dRJIkSZImKuWyC/CvwNOjs6j/XMmimfJ04PKUi4dCSZIkSeqFwfxyORYsmiGuZNFs+C/aq55vig4iSZIkSWtKuTwE+DjwnOgsGi6uZNFseA7tqpYTo4NIkiRJ0qoGc8rlWLBoFriSRbPtbOC1TV2V6CCSJEmSRlfKpQI+AhwTnUXDy5JFc+F+4G+Bv2vq6v7oMJIkSZJGR8plE+DPgD8HNgmOoyHndiHNhU2A99Be93x0cBZJkiRJI2Iwf1xKO49YsGjWuZJFEU4H3tzU1W+ig0iSJEkaPimXnYEPAZ4TqTllyaIodwLvAj7S1NWy6DCSJEmS+i/lshHwWuCvga2C42gEuV1IUbYC/gm4KOXyhOgwkiRJkvptMFdcRDtnWLAohCtZ1AXLgU8D72rq6v+iw0iSJEnqj5TLw2hXrrwYFxIomCWLuuQe4B+Av2/qanF0GEmSJEndlXJZBLwd+BNg8+A4EmDJom66kfb07094XoskSZKkVQ3OXXkF7cywU2waaXUupVIX7QScSnvl87Ojw0iSJEnqhsF8cCntvGDBos5xJYv64FzgLU1dXRwdRJIkSdLcS7kcDHwAeEpwFGm9LFnUFyuAzwHvbOrq19FhJEmSJM2+lMvDgZOBFwDzguNIG2TJor65D/gw7eG4t0WHkSRJkjTzUi7b0R5q+wZg0+A40oRZsqiv7gT+GfgHyxZJkiRpOAzKlT8BXg9sFRxHmjRLFvWdZYskSZLUc5YrGhaWLBoWli2SJElSz1iuaNhYsmjYWLZIkiRJHWe5omFlyaJhZdkiSZIkdYzlioadJYuGnWWLJEmSFMxyRaPCkkWj4k4gA//U1NV10WEkSZKkUZBy2RV4I1BjuaIRYMmiUbME+ALwgaaufhIdRpIkSRpGKZfHAG8Bng8sDI4jzRlLFo2ybwCnNHX1jeggkiRJ0jBIuRwNvBU4OjqLFMGSRYKfAB8AvtDU1ZLoMJIkSVKfpFwW0q5YeQvwmOA4UihLFmnMdcCHgY83dXVndBhJkiSpy1IuWwGvBN4A7BocR+oESxZpbXcCn6A9JPfa6DCSJElSl6RcdqM9zPYVeJittBpLFmndlgKnAx9q6uri6DCSJElSpJTLwcCbgROBBcFxpE6yZJEm5gfAqbTnttwXHUaSJEmaCymXTWnPW3k18PjgOFLnWbJIk3Mb8CngY01dlegwkiRJ0mxIuVTAq4CXANsFx5F6w5JFmpoVwNnAR4GvNnW1LDiPJEmSNC0pl42AZwKvAY4B5sUmkvrHkkWavmuADPxrU1c3RoeRJEmSJiPlshPwcqAGdg+OI/WaJYs0c5YAXwY+2tTV+dFhJEmSpPVJuTyJdtXKHwALg+NIQ8GSRZodl9EelPvZpq7uig4jSZIkAaRctgReSHuQ7f7BcaShY8kiza7FwH8ApwHnN3XlrzdJkiTNqZTLPOBJwEnAc4FFoYGkIWbJIs2dXwCfBj7d1NWvo8NIkiRpuKVcHg68ePA8MjiONBIsWaS5twI4h3Z1y5eburonNo4kSZKGRcplc9ozVk4CjsQbgqQ5ZckixbqLwXYiD8uVJEnSVA0OsT2JdjvQlrFppNFlySJ1x9W0q1s+09TVNcFZJEmS1HEpl92BF9GWK3vGppEElixSF60Avk1buPyn24kkSZK00mA70O/TFitPxe1AUqdYskjddhfwReD/Ad9p6mp5cB5JkiTNsZTLfODJwB8Bz8PtQFJnWbJI/XED8CXgdOC7XgctSZI0vAbXLh8OnAicADw0NpGkibBkkfrpOtoVLqc3dfWD6DCSJEmaGSmXx9MWK88Ddg2OI2mSLFmk/vslY4XLD6PDSJIkaXJSLo9jrFh5RHAcSdNgySINl6totxOd3tTVZdFhJEmSNL6Uy/60xcqJwF7BcSTNEEsWaXhdzljh8vPoMJIkSaMu5bI3Y8XKfsFxJM0CSxZpNPyItnA5o6mrn0WHkSRJGhUpl0cBx9MWK48NjiNpllmySKPn58B/A2cCF3gttCRJ0swZXLd8GHAc8HvA3rGJJM0lSxZptN0CfJW2cDm7qau7g/NIkiT1TsplC+AY2mLlmcAOsYkkRbFkkbTSfcC3aQuXrzR1dX1wHkmSpM5KuewMPJu2WHkqsGlsIkldYMkiaTwrgIbBtqKmri4NziNJkhQu5XIAY9uAEjAvNpGkrrFkkTQRv2LsHJfzmrpaGhtHkiRp9qVcFgBHMFas7BEaSFLnWbJImqw7gK8DZ9Ge4+K2IkmSNDRSLrvQnq9yLPC7wDaxiST1iSWLpOm6lLZwOQs4v6mr+4PzSJIkTVjKZRPgSbSlyrHAAbGJJPWZJYukmXQvcC5wNnBWU1dXxMaRJElaW8plX9pC5RjgKcBmoYEkDQ1LFkmz6VrGVrl8q6mr24PzSJKkEZRy2RZ4GmOrVXaLTSRpWFmySJory4AfMDjLBfhBU1fLYiNJkqRhlHLZCHg8Y2erPB7YKDSUpJFgySIpyu3At2gLl3OauirBeSRJUo+lXCrgSNpi5WnAtrGJJI0iSxZJXfF/wHdoz3T5TlNXP4+NI0mSuizlsjfwZNozVZ4MPCw0kCRhySKpu35DW7p8Bzi3qasrg/NIkqRAKZd9GCtUngzsHBpIksZhySKpL25k9dLlp8F5JEnSLEq5PJrVS5WdQgNJ0gRYskjqq5tZpXQBLm/qyt/PJEnqoZTLPGA/Vi9VdozMJElTYckiaVjcApw3eC4EftjU1ZLYSJIkaTwpl4XA44BDgSMGzw6hoSRpBliySBpW9wEXA9+jLV0ubOrq+thIkiSNppTLLrSFyqHAE4GDgU1DQ0nSLLBkkTRKrmVQuDC22uWB2EiSJA2XlMvGwEG0ZcrKYmW30FCSNEcsWSSNsvuBS2gLl+/Rrna5LjaSJEn9knLZlbEVKofSFiybhIaSpCCWLJK0uutYZYsRcElTV/fHRpIkqRtSLpvQliirbv3ZNTSUJHWIJYskrd8DwBXAj4Afr3xt6uq20FSSJM2ylMt2wIHAY1d53RfYODKXJHWZJYskTc11jBUvK8uXq5u6Wh6aSpKkSUq5zAf2ZKxMWVmouEJFkibJkkWSZs7dwE9YvXi5tKmru0NTSZI0kHLZAjiA1QuVxwBbROaSpGFhySJJs2s5cDVrbzfygF1J0qwaHEi75nafPYH5kbkkaZhZskhSjFsZW/Gysny5wiulJUmTNbgyeV9WX51yILB9ZC5JGkWWLJLUHUuAn7J68fLjpq5uDU0lSeqMlP9/9u486rKqMBP3y1BMCogKiIIDHNFGMUaPSTSdqHFOa8xgO6RjYif9O4l2WhMzKW0mkzbGeU48Jv3DaIxzQiQRESNoRxyORAPSoAccQJlUBAQKiqL6j3OK+r6qr6jpft++w/Ostde9dauW611L77lnv+69T3+XLF+d8gNJTkiyrmQuAAZKFoDp981std0oSe+QXYD5NR5GW2Xb7T73KJkLgNunZAGYTdcnOTfLV71c0DXV1UVTAbDL6rY/LMn9s3x1yolxGC3AzFGyAMyX72Y4aLdfMi7KsPLlipLBABZZ3fZHZliZctz4Wi35850LRgNggpQsAIvj+9mqeFkyvtk1ld8DgN1Ut/1eGbbybF2gbH5/x3LpAFgrShYAkmR9kouzcgnz9a6pNhbMBjAV6rbfJ8m9snKJcmySA8qlA2AaKFkA2JENSb6WlbchXeyx08A8GR+HfGxW3tZz73iKDwC3Q8kCwJ64NcklWXkL0kVdU91QMBvAiuq2PygrlyhVkmOS7F0uHQCzTMkCwGq6LCscwpvhIN5rSgYD5lvd9odm5W09VZKjCkYDYI4pWQAo5dokl2coYrY7PJYaWGp83PFROxh3S3JIqYwALC4lCwDT7qbsRBmT5CoH9MJsGg+UPTw7V57sXygmAOyQkgWAebExyVXZcRlzeddUN5UKCYukbvv9MxQjOypPDk+yT6GYADAxShYAFtHV2bky5tpiCWGK1W1/SHauPDmsVEYAKEHJAgDbd0O2Kl6SfC/JNeO4djvvr++ayu8rU61u+72S3CHJoeM4ZDvv75RtC5WDCkQGgKmnZAGAybs1Q+myvRJmp953TbVhzZMzE+q2X5ftlyI7+/6QeFQxAEyUkmW63Jzk5Ul+N8kBhbMAUN6N2c2CZvP7rqmuX/vY3J667Xdm9ciO3h+45sEBmDbrk7wiyYuS7Fc4CyMly3S5qWuqA+q2PzbJ65M8uXQgAGbexgyly3UZyvwNW41bVvhsqj5fuvVq3OKybqux7wqf7ernk/jPuL3P90tycIaSxAGvAOypU5O8oGuqi+u2Xx9PXpsa+5YOwLa6pro4yVPqtn9yhrLl2MKRAJhd+2Q4fHRmDyCt235jhrJonygoAFhsF2coV04tHYSV2Yc7xcYvzgOS/GGGJeMAsIj2ybASRMECwKK6McO88AEKlulmJcuU65pqfZKX1m3/N0lel+SphSMBAACwdk5J8htdU32tdBB2TMkyI8Yv1E/Xbf+kDFuI7ls2EQAAAKvoKxm2Bn24dBB2nu1CM2b8gp2Y5CVJbigcBwAAgMm6IcN870QFy+yxkmUGdU11U5L/Vbf9O5K8JsnPFY4EAADAnvtAkhd2TfWN0kHYPUqWGTZ+8Z5Wt/3jk7whyf0KRwIAAGDXXZjk+V1TnV46CHvGdqE5MH4RH5TkRUmuLxwHAACAnXN9hnncgxQs88FKljnRNdXNSf68bvu/TfLqJE8vHAkAAIDte2+S3+qa6tLSQZgcJcucGb+gz6jb/rVJ/izJo8omAgAAYIkzk7y4a6pPlw7C5ClZ5tT4hX30eF7Ly5I8tHAkAACARfb5JCfZFjTfnMky58Yv8MMybB+6sHAcAACARXNhhvnYwxQs889KlgXQNdWmJO+r2/6DSZ6T5A+THFM0FAAAwHy7JMkfJzm5a6qNpcOwNpQsC2T8Yv/1eDju85K8OMldy6YCAACYK9/OcD7mW7qmWl86DGtLybKAxi/6a+q2f1uS30rywiQHl00FAAAw065L8pokr+6a6rrSYShDybLAxi/+H9Vt/+YkJyV5bpL9y6YCAACYKTcl+YskL+ua6qrSYShLyULGC8Fv1m3/miR/lOSXkuxTNBQAAMB025jk7Un+qGuqS0qHYTooWbjNeGH4lbrtX5nkT5P8XOFIAAAA0+gDSV7SNdUFpYMwXZQsbGO8UDytbvs6ycuSPK5wJAAAgGnw0SQndU3VlQ7CdFKysF3jhePxddv/WIYnET2pcCQAAIASPpzkz7qm+mTpIEw3JQs7NF5IPlm3/YOTvCjJ0+LMFgAAYL5tTPL+JC/vmuoLpcMwG5Qs7LTxwvLMuu2PS/K7GQ7I9TQiAABgntyU4UDbV3RNdVHpMMwWJQu7bLzQ/Grd9n+U5DeT/FqSg4uGAgAA2DPXJfnLJK/tmuqy0mGYTUoWdtt44fnduu1fluTXkzw/yeFlUwEAAOySq5K8Icmbuqb6XukwzDYlC3tsvBD9ad32r07y35L8dpJ7lk0FAABwu76R5FVJ/qprqhtLh2E+KFmYmPHC9Ma67f8iyc8n+b0kJ5RNBQAAsMz5Sf48ybu6prqldBjmi5KFiRsvVH9Tt/07kvxUhsc//3DZVAAAwIL7TJI/S/KPXVNtKh2G+aRkYdWMF65TkpxSt/2jMzz++fFlUwEAAAvm9AyPYf546SDMPyULa2K8oH28bvuHZFjZ8jNJ9imbCgAAmFMbk/x9kj/rmuqc0mFYHEoW1tR4gfvPddvfK8mvZjgo1xOJAACASbgqyV8leWvXVF8vHYbFo2ShiPGCd1Ld9n+c5D8n+e9JfqRsKgAAYEZ9Osmbk7yva6qbSodhcSlZKGq8AL4zyTvHrUTPy/BkogOLBgMAAKbdjUneleQttgQxLZQsTI3xwvjf6rb/nST/Nclzk1RlUwEAAFOmT/IXSf7/rqmuLh0GllKyMHXGC+Vr6rZ/bZInZNhK9JNJ9i4aDAAAKOUKyYtCAAAgAElEQVTWJP+cYUvQRzyCmWmlZGFqjRfO05KcVrf9vZP8WpJfSXLXkrkAAIA18+0kf53kL7um+lrhLLBDShZmwnhBfVHd9n+Y5BkZVrf8UNFQAADAavlshlUr73GQLbNEycJMGS+wf5Pkb+q2f2iGsuVZSQ4oGgwAANhT65P8XZI3d031+dJhYHcoWZhZ44X3l+u2/+0kv5zhoNxjy6YCAAB20cUZDrL9311Tfbd0GNgTShZm3nghflXd9q9O8tgkz0nyM/EYaAAAmFY3Jvn7JCcnOcNBtswLJQtzY7wwfzTJR+u2PyTD2S3PSfKIkrkAAIDbfCpDsfKerqmuLZwFJk7JwlwaL9hvS/K2uu2Pz1C2PDvJ0SVzAQDAAro0yTuSnNw11ZdLh4HVpGRh7o0X8pPqtn9Jlm8nclguAACsjvVZvh3o1rJxYG0oWVgY44X99CSn121/aJJnZihcfqRkLgAAmCOfzlCsvLtrqmsKZ4E1p2RhIY0X/LcmeWvd9vdP8ktJfjHJ3YsGAwCA2fOtJH+T5O1dU11QOgyUpGRh4Y0/BC8etxM9LsPqlqfGdiIAANie9UlOybBq5aNdU20sGwemg5IFRuMPw2lJTqvb/k4Znk70zCQ/nmTvktkAAGAK3JrkE0neneHpQN8rnAemjpIFVjD+YGzeTnRUkqdlKF0ekWSvktkAAGANbcrw2OX3JHl/11SXFc4DU03JAjsw/pC8Mckb67Y/JsnTMxQuDysaDAAAVs/nMhQr7+2a6pLSYWBWKFlgF4w/MK9O8uq67Y/NULg8M8kPFA0GAAB77osZtgK9t2uqi0uHgVmkZIHdNP7wvDzJy+u2v1+G1S3PSHJC0WAAALDzzs+wYuU9XVNdWDoMzDolC0zA+IP00iQvrdv+gRlWtzw9yX2LBgMAgG19Jcl7k7y7a6rzSoeBeaJkgQkbf6hekuQldds/JMPqlqcnuXfJXAAALLSvZShW3tM11TmFs8DcUrLAKhp/wM5J8nt12/9Qkp9O8tTYUgQAwOo7P8kpSf6ha6rPlg4Di0DJAmtk/GH7bJKT6ravMpQtT83wWOh9SmYDAGAubMzwuOVTkpzSNVVfOA8sHCULFDD+4G1+StFdkzw5Q+Hy+CQHlcwGAMBMuSHJ6RmKlVO7pvp24Tyw0JQsUNj4Q3hykpPrtj8wyWMzFC5PTnJkwWgAAEynK5KcmqFYOaNrqhsL5wFGShaYIuMP5IeSfKhu+72T/HC2bCu6f8lsAAAUdUHGbUBJPtM11a2F8wArULLAlBp/OM8ex4vqtj8+WwqXhyfZu2A8AABW1+Z7wc3nq3y5cB5gJyhZYEaMP6yvTPLKuu0PT/KUcTwmycElswEAMBHXJflYxpXNXVNdVTgPsIuULDCDxh/c/53kf9dtvy7DypYnjuPBSfYqGA8AgJ2zKckXkpw2jrO7ptpQNhKwJ5QsMOPGH+JPjOOkuu2PzPCUoicmeVySwwvGAwBguauSfDRDqXJ611RXFM4DTJCSBebM+EP9jiTvqNt+ryQPzVC4PCHJj8T3HgBgLd2S5NNJPpKhWPl811SbykYCVovJFsyx8Qe8G8ef1m1/aIZHRD8hQ/FyTMF4AADz6pIMhcpHMjxi+ZrCeYA1omSBBTL+wH9gHKnb/oRsKVx+PMkB5dIBAMys9Rm2bp+W5CNdU51fOA9QiJIFFth4A3B+ktfWbX9gkkdmKFx+IskD4wBdAICVbEpyXpJ/yVCsnNU11Y1lIwHTQMkCJEnGG4PNJ9unbvu7ZChdHjUOpQsAsKg2lypnjuOsrqm+UzIQMJ2ULMCKxhuHD44jddvfNctLlwdE6QIAzKdNSb6U5aXKt0sGAmaDkgXYKeONxdLzXDaXLo/OULqcEKULADCbNmXYQn1mko9HqQLsJiULsFtWKF0Oz5aVLo/OULoAAEyr8zMUKmdmKFWuKhsHmAdKFmAixhuT948jddsfkeXbi5QuAEBJm1eqnJmhVLmyaBpgLilZgFUx3ri8bxybS5cfTfLwcdTxyGgAYHWsT9IlOXsc/6pUAdaCkgVYE+ONzd+PI3Xbr0vyg9lSujwiyTHFAgIAs+ySJJ/KllLl37qm2lA2ErCIlCxAEeONz2fH8fokqdv+HlleujwkyX6lMgIAU+nmJOdkSanSNdU3y0YCGChZgKkx3iAtPddl/wxFyyOypXy5e7GAAEAJ38qWFSqfSnJO11Q3lY0EsDIlCzC1xhuozTdVSZK67e+Z5aXLg5OsKxIQAJi0DUm+kCWlStdU3ygbCWDnKVmAmTLeaH0jybuTpG77A5M8NMNBuptfj0+yd6mMAMBOuTXJlzMcUPv5za9dU91YNBXAHlCyADNtvBH7P+NIktRtf8cM24yWli/HJ9mrREYAIJsyFCq3lSkZtv18v2gqgAlTsgBzZ7xh+8Q4kiR12x+coXhZuuKliuIFACZtU5I+y1eonNM11XVFUwGsASULsBDGG7uzxpEkqdv+kGxbvBwXxQsA7KxNSS7KtoXKtUVTARSiZAEW1ngDeOY4kiR1298p2241OjaKFwDYlOTibLvl53tFUwFMESULwBLjjeK/jCNJUrf9HZI8cBwnLhmHl8gIAGvgqiTnLhnnJTmva6rri6YCmHJKFoAdGG8oPzOO29Rtf2SWly4nJjkhyUFrnREAdtMNSc7P8kLl3K6priiaCmBGKVkAdtN4A3pFkjM2f1a3/d4ZznU5MctXvlRJ9ikQEwCSZGOGw2iXrkw5N8lFXVPdWjIYwDxRsgBM0Hij+pVxfHDz53XbH5BhlcvWK1+OKhATgPl2WbZamZLk/K6p1hdNBbAAlCwAa2C8sT1nHLep2/6wJPdLcv/xdfOokuy3xjEBmB03Z1iZcuGScUGSC7umurpkMIBFpmQBKGi8Ef70OG5Tt/0+Se6dLaXL0hLmbmubEoCCLs9WJco4vtY11caSwQDYlpIFYAqNN84XjeOfl/5d3faHZPmql80lzH2THLC2SQGYgPUZtpkuLVEuzLAq5dqSwQDYNUoWgBkz3nB/bhy3GQ/dvWeWly/HJzl2/Nw1H6CcW5J8I8nFSb6c5WXKNxw+CzAf3HADzInxBv1r4/jI0r8btx8dk6Fwuc8Kr0esYVSAeXVlkq9mKFK2fr3E9h6A+adkAVgA443918axjbrt75CVy5fNrwetRU6AKXdDtl+ifLVrqusLZgNgCihZAMg4MThvHNuo2/7IbL+EuUf8ngDz4ZYk38z2S5QrCmYDYAa4KQZgh8aJxRXZ6ilIyW1bke6W5OitxjFL3t89ybq1yguwgg1JvpXk0nFcsuT95nG5LT0A7AklCwB7ZJyQfHMcn1np34yH8h6R5cXL1mXMPZLstwaRgflzc4Zr0PbKk0uSXOlwWQBWm5IFgFU3TmwuH8fnVvo3ddvvleTwbLsK5ugkRyU5chx3SbL36qcGpsCtSb6TYSXdFUkuy7blyaVJruqaalOpkACwmZIFgKkwTpCuHMc52/t34/aku2ZL6XLEkvdb//mI2KYE02ZDhu/55uJk6fut//xt23cAmCVKFgBmyjjh2jwB26G67Q/LzhUyhye54ypEhkXw/SRXZSeKk66pri4VEgBWm5IFgLk2TuiuTnLBjv5t3fbrktx5HIcteb+9zzb/+U5J9lmF+LCWNib5XpLvZvjOfHfJ2PrPyz7rmmpDicAAMG2ULAAwGieKO71KZrPxPJlDc/tFzOZxaIYVMweP447jcM4Me+rWDCtKvp/kunF8P8k1uf3CZPOfr3GuCQDsGSULAOyhcWL6vXHslrrtD8ry4mV33i/9zG/89Lsly8uQpa+7/L5rqhvWOD8AsBU3YAAwBcYJ8g3ZxVU021O3/b5J9k9ywPi6Wu/XZdgqtfcKryt9trt/t3eGlRq3ZtjWsvR1pc/25O82JLlpHOtX633XVLds/79BAGAWKVkAYA6NE/hbklxfOgsAwKKw/xsAAABgApQsAAAAABOgZAEAAACYACULAAAAwAQoWQAAAAAmQMkCAAAAMAFKFgAAAIAJULIAAAAATICSBQAAAGAClCwAAAAAE6BkAQAAAJgAJQsAAADABChZAAAAACZAyQIAAAAwAUoWAAAAgAlQsgAAAABMgJIFAAAAYAKULAAAAAAToGQBAAAAmAAlCwAAAMAEKFkAAAAAJkDJAgAAADABShYAAACACVCyAAAAAEyAkgUAAABgApQsAAAAABOgZAEAAACYACULAAAAwAQoWQAAAAAmQMkCAAAAMAFKFgAAAIAJULIAAAAATICSBQAAAGAClCwAAAAAE6BkAQAAAJgAJQsAAADABChZAAAAACZAyQIAAAAwAUoWAAAAgAlQsgAAAABMgJIFAAAAYAKULAAAAAAToGQBAAAAmAAlCwAAAMAEKFkAAAAAJkDJAgAAADABShYAAACACVCyTJd967bfq3QIAAAApt84f9y3dA62ULJMl32SHFY6BAAAADPhsAzzSKaEkmX6HFE6AAAAADPh8NIBWE7JMn18SQAAANgZ/k/6KaNkmT53Kx0AAACAmWD+OGWULNPnoaUDAAAAMBPMH6eMkmX6/GjpAAAAAMwE88cpo2SZPg+r236/0iEAAACYXuO88WGlc7CckmX67J+kLh0CAACAqVZnmD8yRZQs0+knSgcAAABgqpk3TiEly3R6dukAAAAATDXzximkZJlOx9dt7wAjAAAAtjHOF48vnYNtKVmm138tHQAAAICpZL44pZQs0+vpddsfVDoEAAAA02OcJz69dA5WpmSZXgcneVbpEAAAAEyVZ2WYLzKFlCzT7X/Wbb+udAgAAADKG+eH/7N0DrZPyTLd7pPkl0uHAAAAYCr8coZ5IlNKyTL9XlK3/f6lQwAAAFDOOC98Sekc3D4ly/Q7OsmvlQ4BAABAUb+WYX7IFFOyzIYX121/h9IhAAAAWHvjfPDFpXOwY0qW2XBkkj8pHQIAAIAi/iTDvJApp2SZHS+o2/6HS4cAAABg7YzzwBeUzsHOUbLMjr2T/JVHOgMAACyGcf73VzF3nxn+i5otD0xyUukQAAAArImTMswDmRFKltlzUt32J5QOAQAAwOoZ533+T/YZo2SZPfslOblu+/1KBwEAAGDyxvneyRnmf8wQJctseliS15UOAQAAwKp4XYZ5HzNGyTK7nlu3/bNLhwAAAGByxnnec0vnYPcoWWbbW+u2f1DpEAAAAOy5cX731tI52H1Kltl2YJIP1m1/aOkgAAAA7L5xXvfBDPM8ZpSSZfYdl+QdddvvVToIAAAAu26cz70jw/yOGaZkmQ9PSfKy0iEAAADYLS/LMK9jxilZ5seL6rZ/QekQAAAA7LxxHvei0jmYDCXLfHlt3fbPLB0CAACAHRvnb68tnYPJUbLMl72SvL1u+8eVDgIAAMD2jfO2t2eYxzEnlCzzZ78MTxx6aOkgAAAAbGucr30ww/yNOaJkmU93TPLhuu2r0kEAAADYYpynfTjDvI05o2SZX4cnOaNue48AAwAAmALj/OyMDPM15pCSZb7dK8kn6ra/f+kgAAAAi2ycl30iwzyNOaVkmX93T3JW3fYPKh0EAABgEY3zsbMyzM+YY0qWxXBEko/Xbf+w0kEAAAAWyTgP+3iGeRlzTsmyOO6c4YyWHy0dBAAAYBGM868zMszHWABKlsVySJKP1G3/mNJBAAAA5tk47/pIhnkYC0LJsnjukOTUuu1/rnQQAACAeTTOt07NMP9igShZFtMBSd5Xt/2LSwcBAACYJ+M8630Z5l0smL0e+tavbCodgqJOTvKrXVPdXDoIAADArKrbfr8kb03ynMJRKMhKFp6T5PS67R3EBAAAsBvG+dTpUbAsPCULSfLIJJ+u2/740kEAAABmyTiP+nSGeRULTsnCZvfNULQ8unQQAACAWTDOnz6dYT4FShaWOSzDI56b0kEAAACm2Thv+kiGeRQkcfAt2/eOJM/tmur60kEAAACmRd32d0jyF0meXToL08dKFrbn2Uk+W7f9CaWDAAAATINxfvTZKFjYDiULt+eEJJ+r2/4XSwcBAAAoaZwXfS7DPAlWZLsQO+uvk/yPrqluLB0EAABgrdRtf2CSNyb5ldJZmH5WsrCzfiXJZzzmGQAAWBTj/OczUbCwk5Qs7IoTk3y+bvtnlg4CAACwmsZ5z+czzINgp9guxO56Z5Lnd011dekgAAAAk1K3/WFJ3pDkF0pnYfZYycLu+oUk59Vt/6TSQQAAACZhnN+cFwULu8lKFibhr5O8sGuqa0sHAQAA2FV12x+S5DVx9gp7yEoWJuFXkpxbt/1jSgcBAADYFeM85twoWJgAK1mYpE1J3pLk97qmur50GAAAgO2p2/4OSf48yfOS7FU4DnPCShYmaa8k/z3JF+u2/4+lwwAAAKxknK98McP8RcHCxFjJwmq5NcOJ3L/fNdX3S4cBAACo2/6OSf4kyfNj0QGrwP+oWC17J/mNJBfUbf+00mEAAIDFNs5LLsgwTzEXZlVYycJaOS3Jr3dNdVHpIAAAwOKo2/64JG9K8sTSWZh/ShbW0vokL0vyiq6pbiodBgAAmF912++f5HeTnJTkgMJxWBCWSLGWDkjy0iT/Xrf9Y0uHAQAA5tM43/j3DPMPBQtrxkoWSvq7JC/smury0kEAAIDZV7f93ZK8JsmzSmdhMSlZKO3aJC9J8pauqTaWDgMAAMyeuu33SfK8JH+a5JDCcVhgtgtR2iEZHvX8hbrtHUQFAADsknEe8YUM8woFC0VZycK0OSPJ73RN9YXSQQAAgOlVt/2Dk7wyifMemRpKFqbRrUnekeQlXVNdWjoMAAAwPeq2PzrDtqBnx+4MpoyShWl2Y5LXJnl511TXlQ4DAACUU7f9wUlelOQ3kxxYOA6sSMnCLLgyyR8nabumuqV0GAAAYO3Ubb9vkibJHyY5onAcuF2WVjELjkjy5iTn1W3/1NJhAACAtTHe/5+XYT6gYGHqWcnCLPpEkpO6pvrX0kEAAIDJq9v+R5O8LMmPl84Cu0LJwiw7I8kfdk31qdJBAACAPVe3/SMyHBXgiUHMJCUL8+D0JH/UNdXZpYMAAAC7rm77hyf5oySPLxwF9oiShXnykQxly6dLBwEAAHasbvsfyVCuPKFwFJgIJQvz6LQMZctnSgcBAAC2Vbf9D2coV55YOApMlJKFefbhDGe2fK50EAAAIKnb/mEZzlx5UukssBqULCyCf8qwsqUrHQQAABZR3fZ1hpUr/6lwFFhVShYWyRlJXtk11emlgwAAwCKo2/7xSX47yeNKZ4G1oGRhEf17klcn+buuqTaUDgMAAPOkbvt1SZ6V5LeSPKhwHFhTShYW2TeTvD5J2zXVNaXDAADALKvb/tAkTZIXJLlH4ThQhJIFkuuSvC3J67qmuqR0GAAAmCV12x+T5DeS/H9JDi4cB4pSssAWtyR5b5JXdU31b6XDAADANKvb/gcznLfy9CT7Fo4DU0HJAiv7WIay5bTSQQAAYJrUbf/EDOXKY0pngWmjZIHbd16S12U4JPeG0mEAAKCEuu0PynCY7W8keWDhODC1lCywc76X5O1J/qJrqgtLhwEAgLVQt/39kjw3yS8luVPhODD1lCywazYl+Zckb0nyj11T3VI4DwAATFTd9vsm+akkz0vyE0n2KpsIZoeSBXbfN5O0Sd7WNdVlpcMAAMCeqNv+qAxPCGriEcywW5QssOduSfIPSd7SNdXHS4cBAIBdUbf9ozOsWvnpeEoQ7BElC0zWBRm2Ev1N11TXlA4DAAArqdv+0CS/mKFcuX/hODA3lCywOq5P8q4MB+X+W+kwAACQJHXb/2CGg2x/PskdCseBuaNkgdX3b0lOTvKurqm+XTgLAAALpm77u2YoVZ6T5AfLpoH5pmSBtbMhyakZCpd/9mQiAABWy/iEoJ/MUKw8Ocm6ooFgQShZoIwrk7wzycldU51bOgwAAPOhbvsTMxQrv5DkiLJpYPEoWaC8c7JlO9F3CmcBAGDG1G1/l2zZDvSQsmlgsSlZYHrcnORDGQqX02wnAgBge8btQE/MUKw8Jcl+RQMBSZQsMK2uyJbtROeVDgMAwHSo2/6B2bId6MiyaYCtKVlg+n0+yd8meV/XVJeWDgMAwNqq2/7oJP85yX9J8tDCcYDboWSB2bEpyaeSvCfJ+7umuqxwHgAAVknd9kcleVqSZyR5RJK9yiYCdoaSBWbTrUk+maFw+UDXVFcWzgMAwB6q2/6IJD+XoVj5sSR7l00E7ColC8y+jUnOzFC4fNATigAAZsf4ZKCfzVCsPCrJPkUDAXtEyQLz5ZYkH8tQuPxD11RXF84DAMBW6rY/LMlPZyhWHpNk37KJgElRssD8ujnJRzMULqd0TXVt4TwAAAurbvtDkjw1Q7HyuHjkMswlJQsshpuSnJbk75P8U9dU3y6cBwBg7tVtf9ck/ynJzyR5YpL9yyYCVpuSBRbPxiRnJzklyT92TfXlwnkAAOZG3fbHJ/mpDKtWHh5nrMBCUbIAF2YsXJKc3TXVrYXzAADMjLrt985QpmwuVu5XNhFQkpIFWOqqJKdmKFxO75rqhsJ5AACmTt32ByV5fIZi5clJDi+bCJgWShZge9ZneFLRKUlO7ZrqssJ5AACKqdv+qAyFylMzPBHogLKJgGmkZAF2xqYkn8uWc1zOK5wHAGDV1W3/wGzZBvSwJHuVTQRMOyULsDu+luQj4/iYx0MDAPNgfMzyY5I8YRz3LhoImDlKFmBP3ZLk09lSunze4bkAwCwYD619aLaUKj+SZN+ioYCZpmQBJu07Sc7IWLp0TfWtwnkAAG5Tt/3ds6VUeWySu5RNBMwTJQuw2s7LllUun+yaan3hPADAAqnb/oAkP5YtxcoDyyYC5pmSBVhLNyY5K8npGVa5nF84DwAwh+q2PyFDofL4JI9McmDZRMCiULIAJV2S5KNJPp7krK6pLimcBwCYQXXbH5OhTHl0ksclOaZsImBRKVmAaXJxkjMzrHY5q2uqr5eNAwBMo7rt75WhVHlkkkclObZoIICRkgWYZl/LULicmaF0+WrRNABAEXXb3ydbCpVHxqOVgSmlZAFmyTeyvHS5qGwcAGA11G1/XJaXKvcsGghgJylZgFl2aZaXLl8pGwcA2B112983y0uVo4sGAthNShZgnnwrySeSfCrJ2Um+2DXVhrKRAICl6rZfl+QHkjw8ySOS/HiSuxcNBTAhShZgnt2YpMtQuJyd5Oyuqa4oGwkAFkvd9kdmKFQ2jzoeqQzMKSULsGi+mi2ly6eS/HvXVLeUjQQA86Fu+32TPCjDCpXNpcp9ioYCWENKFmDR3ZDkc1m+2uWqspEAYDbUbX94lq9SeViSg4qGAihIyQKwrYuypHRJcp6zXQBYdONZKg/M8lLluKKhAKaMkgVgxzYkOT/JF5N8YXz9YtdU3ymaCgBWSd32d8lwOO0PJHnw+HpCknUlcwFMOyULwO67NGPhki3lS9811a1FUwHATqrbfu8kVZaXKT8Qj1AG2C1KFoDJuj7JuVlevJzbNdX3i6YCYOHVbX/HJCdmeaFyYpI7lMwFME+ULACrb1OSPttuN7qkaCoA5lbd9sdk2+0+VZK9SuYCmHdKFoByvptttxud3zXVzUVTATAz6rbfL8NZKVtv97lzyVwAi0rJAjBdNiT5v9l21cu3i6YCoLi67e+abVen/Ic4jBZgaihZAGbDN7NV8ZLkKw7ZBZg/42G09822hco9SuYCYMeULACz64YsP2T3giQXJblU+QIw/cYy5egkxyW5f5YfRntQwWgA7CYlC8D8uSnJVzMctttnKF42v36ta6oNBbMBLJS67dcluXeGIqVa8loluU+S/YuFA2DilCwAi2Vjkq9nefGyuYy5uGuqGwtmA5hJddsfmOTYbClPlhYq90qyT7l0AKwlJQsAm21K8q2sXMBc1DXVNQWzARRVt/2hWb4KZWmRcvd4NDIAUbIAsPO+na2Kl2wpYK4sGQxgEuq2PyIrb+s5LsldC0YDYEYoWQCYhOuynQImw0G8fmuA4uq23ytbDppdqUg5uFw6AOaBkgWA1bY+ycXZdhvSN5Jc3jXV1QWzAXOmbvvDktwtyT2z7baeY5McUC4dAPNOyQJAaeuTXJ7ksu2MzX93pUdTw2IaH3V8RJKjMhQoR21n3C1KFAAKUrIAMCs2JrkyOy5jLu+a6qZSIYGdV7f9/tlSmtxeeXJEPKEHgBmgZAFgHn03Oy5jLuua6rpiCWGO1W1/cJavLtleeXLnUhkBYDUoWQBYZNdnJ8qYJN9xeC+Lbjw09i7ZufLkDoViAkBRShYA2LENGUqXy5N8L8k1K4xrt/d511TrC2SGbdRtf0CSQ5IcusLY3ud3ylCo3C3JurVPDQCzQ8kCAKvv5uxkIbO9z7um+v7ax2aa1G1/x+x6QbL15/uteXAAWCBKlulyU5JnJXltknsVzgLAdNmYbUuYXSlrrstQ9mxIssH2p9U3bq9ZN479khyc3S9HDomDXwFY7utJfjPJ3yXZv3AWRkqW6XJT11QH1G1/YJIXJ/mdeAwhAKtjY8bCJcktS95v2MHnu/JvJ/n5xgwlw7qtxr4rfDYtnytFAFgN65O8MsmfdU11Y93266NkmRr7lg7AtrqmujHJH9Rtf3KS1yd5ctlEAMyhfcahzAeA2XFqkhd0TXVx6SCsTMkyxcYvzlPqtv9PGcqW4wpHAgAAYO1dlKFc+afSQbh9e5cOwI6NX6QHJPn9JDcWjgMAAMDauDHDPPABCpbZYCXLjOia6qYkf1q3/TuSvCbJzxaOBAAAwOr5YJIXdk319dJB2HlKlhkzfsF+rm77xyd5Q5L7FY4EAADA5FyY5PldU51eOgi7znahGTV+4R6U5EVJri8cBwAAgD1zfYb53YMULLPLSpYZ1jXVzUn+vG77dyZ5dZJnFI4EAADArntPkt/qmuqbpYOwZ0Fi3+QAACAASURBVJQsc2D8Ij6zbvu3JnljhkNyAQAAmG5fSvI/uqb6eOkgTIbtQnNk/GI+OMkLk3yvcBwAAABW9r0M87YHK1jmi5Usc6ZrqluSvLZu+5OT/F6S5yc5sGgoAAAAkuGRzG9I8uddU11dOgyTp2SZU+MX9kV1278+yR8k+W/x3zcAAEAJtyT5qyQv7ZrqstJhWD0m3XNu/AI/t277Vyd5aZJnJtmrbCoAAICFsCnJu5P8QddUfekwrD4ly4IYv9A/X7f9K5K8LMmTCkcCAACYZx9OclLXVF8oHYS1o2RZMOMX/Cfrtv+xJC9P8ojCkQAAAObJp5K8qGuqT5YOwtpTsiyo8Qv/o3XbPyXJ/0pyYuFIAAAAs+zcJP+za6oPlQ5COR7hvODGC8CDkzw7yVcLxwEAAJg1X80wn3qwggUrWUjXVLcmeWfd9u9J0iT5/SRHlk0FAAAw1a5I8idJ2q6pNpQOw3RQsnCb8cLw5rrtT07ygiS/m+TQoqEAAACmyzVJXpHk9V1TXV86DNNFycI2xgvFy+q2/8skL0ry60kOLJsKAACgqBuTvCnJy7um+m7pMEwnJQvbNV44frdu+1cl+Y0kz4uVLQAAwGK5Jslbkryua6orS4dhuilZ2KHxQnJS3fYvT/JrSX4zyd3KpgIAAFhVlyd5bZK/7Jrq2tJhmA1KFnbaeGF5Rd32r0/ynCS/k+S4oqEAAAAm66Ikr0xyctdUN5UOw2xRsrDLxgvNW+u2/6skT8twbsuDy6YCAADYI19I8vIk7++aamPpMMwmJQu7bbzwvCfJe+q2f2KGsuWRZVMBAADskrMyHGZ7WukgzD4lCxMxXpBOq9v+4RnKlqck2atsKgAAgBVtSvKhDOXK2aXDMD+ULEzUeIF6at32JyT5vSQ/H/87AwAApsMtSd6V5M+7pjq/dBjmj8kvq2K8YP1S3fa/n+S3k/xKkoPKpgIAABbUDUn+Osmruqb6RukwzC8lC6tqvIA9v277lyZ5fpJfT3JY2VQAAMCCuDrJm5K8oWuqb5cOw/xTsrAmxgvaH9Rt/4okv5qhcLln2VQAAMCc+kaSNyR5a9dU3y8dhsWhZGFNjRe4V9dt/7okT07y35M8Ng7JBQAA9symJGckeXOSUz2GmRKULBQxXvBOSXJK3fbHZyhbfinJoUWDAQAAs+aaJG9P8uauqb5cOgyLTclCceOF8AV125+U5BcyFC4nlk0FAABMuXMzrFp5Z9dU15cOA4mShSkyXhjfmuStddv/WIay5WeTrCsaDAAAmBYbknwww6qVT5YOA1tTsjCVxgvmJ+u2PypJM467l00FAAAU8q0kbZK2a6rLSoeB7VGyMNXGC+gf123/v5L8TIbVLY8smwoAAFgjZ2XYEvT3XVPdUjoM7IiShZkwXlDfl+R9dds/MEPZ8gtJ7lg0GAAAMGnfT/LODFuCzisdBnaFkoWZM15on1u3/e9leCLR85Lcv2wqAABgD12Q5C1J3t411bWlw8DuULIws8YL7xuTvLFu+8ck+fUkT0myT9FgAADAztqY5ENJ3tQ11cdKh4E9pWRhLowX5I/VbX+3DNuInpPkAUVDAQAA2/OlJCdnePzy5YWzwMQoWZgr4wX6VUleVbd9naFseVaSO5fMBQAA5LtJ/i7JyV1TdaXDwGpQsjC3xgt3V7f9CzNsI3pOkifG/+4BAGCt3JLktAyrVj7UNdXNZePA6jLZZO6NF/IPJPlA3fZHZthO9EtJTiwaDAAA5te5Sd6eYTvQFaXDwFpRsrBQxgv8q5O8um77h2RY3fLzSe5SMhcAAMyB7yR5V4btQOeUDgMlKFlYWOOF/5y67X87yZMzrG75yfheAADAzrolyT9nWLVyqu1ALDqTSRbe+EPwwSQfrNv+iCT/JcMKlweVzAUAAFPs3zOcs/K3XVNdWTgLTA0lCywx/kC8Nslr67b/gSTPTPKMJPcpGgwAAMr7apL3JHl311RfLB0GppGSBbZj/OH4YpIX123/QxkKl6cnuUfRYAAAsHa+meS9GYqVz5YOA9NOyQI7YfxB+Wzd9r+V5D9mKFyeluSIosEAAGDyrkzy/iTvTvJ/uqbaVDgPzAwlC+yC8Qfmk0k+Wbf985M8OkPh8rNJDiuZDQAA9sDVGc4pfHeSj3dNtbFwHphJShbYTeMPzxlJzqjb/rlJHp/h/JafTnJwyWwAALATrkvyDxnOWTm9a6oNhfPAzFOywASMP0j/lOSf6rY/IMOjoJ+R4dHQB5XMBgAAS9yQ5NQMxco/d021vnAemCtKFpiw8Ydq8yOh75DkKRm2FD0xyf4lswEAsJBuSnJahq1AH+qa6vrCeWBuKVlgFY0/YO9O8u667Q/JULQ8NcNKlzuVzAYAwFz7XpJ/TnJKktO6prq2cB5YCEoWWCPjD9t7k7y3bvt1SX48Q+HyU0nuVTIbAABz4etJ/jFDsfIJZ6zA2lOyQAHjD97HxvH8uu0fnKFweWqSHyyZDQCAmfJvGUqVU7qm+kLpMLDolCwwBcYfxC8k+eO67Y/JlsLlkUnWlcwGAMBU2ZDkrGwpVi4pnAdYQskCU2b8oXxTkjfVbX9okidlKFyelOTQktkAACjimiQfzlCsfLhrqmsK5wG2Q8kCU2z8Ad18cO66JI/KlnNcjikYDQCA1XVJtpyvcqbzVWA2KFlgRow/rB8dx6/Xbf+QDI+HfkKSH0qyT8F4AADsmY1JPpvkIxkes3xO4TzAblCywIwaf3jPyXCOy2FJHpuhcHlCkqNLZgMAYKdcmqFU+UiSM7qmurpwHmAPKVlgDow/yO8bR+q2f0C2FC4/nuSAcukAABitT/KJjMVK11RfKpwHmDAlC8yh8Qf7S0leU7f9gRmeUrS5dPkPJbMBACyY/5stq1XO6prqxsJ5gFWkZIE5N/6QnzaO1G1/z2wpXB4bTywCAJika5KckS2rVb5ROA+whpQssGDGH/q3JXlb3fb7JPmRbCld6iR7F4wHADBrbk3SZctqlU93TbWxbCSgFCULLLDxBuBfx/EHddvfJcnjkvxEhsdF37dcOgCAqfWVJGcm+ZckH+2a6jtl4wDTQskC3Ga8QXj3OFK3/d0zlC2PSvLoJFWpbAAABfVJPp6hWDmza6pvlY0DTCslC7Bd4w3Eu8aRuu3vkS2ly6OidAEA5lOfsVDJUKp8s2gaYGYoWYCdNt5g/O04Urf90VleuhxXKBoAwJ64KMtLlUuLpgFmlpIF2G3jDcg7x7G0dHn0+HpsqWwAALfj4gyFysejVAEmSMkCTMwKpcsxWb7SRekCAJSwuVQ5M0OpcknRNMDcUrIAq2a8gXnHOFK3/VFJHpHk4ePrQ5LsXywgADCPbkpyTpJPJTk7yae6prqsbCRgUShZgDUz3uB8YByp237/DEXL0uLlqGIBAYBZdFmWFCpJzuma6qaykYBFpWQBihlvgM4eR5Kkbvt7Z0vh8ogkD4prFQAwuCXJv2coUz6V5Oyuqb5WNBHAEiYuwFQZb5S+luTvkqRu+4OS/FC2FC8PT3KXQvEAgLX1nWxZoXJ2ks92TXVD2UgA26dkAabaeCN15jiSJHXbH58tK10enuSEJHsXiAcATM6tSc7PllLlU11TfblsJIBdo2QBZs54w/XlJCcnSd32hyT5wSR1koeO475J9ioUEQC4fZuSfCXJ58fRJfm3rqmuLZoKYA8pWYCZN96QnTWOJMuKl4cuGcdH8QIAa21Thv9z5PNLhkIFmEtKFmAubad4OTjD04wULwCwOlYqVM7pmuq6oqkA1oiSBVgY4w3eSsXL1luNFC8AsGNbFyqbt/woVICFpWQBFtp4I/iJcSRZVrxsLl0elOR+SfYrkREApsDNSS7M8PjkpVt+FCoASyhZALayneJlXYYVLiduNe4Vq14AmB+bknw9yblbjS93TbWhZDCAWaBkAdgJ443ll8bx7s2fj6teHpjlxcsDk9ylQEwA2BXfSXJelpcp51mdArD7lCwAe2C8ET17HLep2/7u2bZ8OSHJAWudEYCFtz7J+dm2TPlW0VQAc0jJArAKxhvXbyU5ffNnddvvk6TK8uLlAUmOjesxAHvuliQXZ1h1ubRQ6bum2lgyGMCicFMPsEbGG9wLx/H+zZ+P570cl+T+GQ7YXfp62NonBWDKXZ3kggy/J0tfL3JuCkBZShaAwsYb4gvGsUzd9odnS+mytIA5Nsk+axgTgLW1McOqlKVFyoVJLuia6qqSwQDYPiULwBQbb6SvSvLJpZ/Xbb9fVl79cr9Y/QIwS67OkgIly1el3FwyGAC7TskCMIPGG+//O45l6rY/IltKl+MzrHo5Nsl9khy6hjEBGFyT5KsZVqZcnOTL2bIq5cqSwQCYLCULwJwZb9ivTPKJrf+ubvs7Zyhbjl3h9V5J1q1dUoC5sSHJ1zMUKF/d+rVrqu8WzAbAGlKyACyQ8Ub/u0k+v/Xf1W2/d5Kjs/0S5m5rlxRg6lye7ZQoSS7tmurWgtkAmBJKFgCSJOME4RvjOGvrv6/b/sAMhcvW5cs9kxyT5K5rFhZg8r6d5JIM18CtS5Svdk11Y8FsAMwIJQsAO2WcYJw/jm3UbX9AkntkWA1zdIbi5eitxhFJ9lqLvACjTRm2UF661bhkyftvdk21vlhCAOaGkgWAiRgnKBeNY0XjU5GWFjErlTFHJtl7tfMCc+HWJFdk++XJ5gLFU3oAWBNKFgDWzDjR+eo4VlS3/bokd8/y4uWoDOXLkRlWwxyZ5PAk+6xyZKCMjRkeX39FhlUoV4zjsiwvUL7VNdWGUiEBYGtKFgCmyjhh+vo4tms8qPcu2VK6bF3CbP1+/9VLDeyEm7KlLLlyO+83//k7DpIFYBYpWQCYSeME7KpxfGlH/75u+0Nz+4XM4UnuvGTstyrBYX7cnOFpZZvH5pUnKxYnXVNdUygnAKwZJQsAC2Gc4F2T5Cs78+/rtj8oy0uXOyc5bAd/vnOSgyedHVbZdVlelnw3ydU7+PN3u6a6oUhaAJhiShYAWME4gbwhw7kPO61u+32zvHzZuog5JEMRc8dxbO+9w3/ZkVuTfH8c193O+2uz/cLk6q6pblnz5AAwp5QsADBB44R18zam3TaupLm9ImZHRc2BSQ4Yx/5bva7bk2zskg1J1mc4j2Tp6/okN2bHBcnW72/7zEoSAJg+ShYAmEJLVtJcOen/7PHQ4M2Fy0olzPber/TZugxPedp7hdeVPtvdv9s7w8qNWzM8eWbp60qf7cnfbV2MbK8k2eHfO7wVABaLkgUAFsw48b9xHAAATIj93gAAAAAToGQBAAAAmAAlCwAAAMAEKFkAAP4fe3ceZslZl4/7mcm+QQiETdkLWTQoUgECIsKXXUVAEFFRVCxFRQURQVR+CAgGBAHZil2QXSFAgIQ1IAmQgrBIMFIg+xIgCdkzSWZ+f1RNZuuZ6e453e9Z7vu66uqmJ93n4cr0Oefz5H3fAgCYACULAAAAwAQoWQAAAAAmQMkCAAAAMAFKFgAAAIAJULIAAAAATICSBQAAAGAClCwAAAAAE6BkAQAAAJgAJQsAAADABChZAAAAACZAyQIAAAAwAUoWAAAAgAlQsgAAAABMgJIFAAAAYAKULAAAAAAToGQBAAAAmAAlCwAAAMAEKFkAAAAAJkDJAgAAADABShYAAACACVCyAAAAAEyAkgUAAABgApQsAAAAABOgZAEAAACYACULAAAAwAQoWQAAAAAmQMkCAAAAMAFKFgAAAIAJULIAAAAATICSBQAAAGAClCwAAAAAE6BkAQAAAJgAJQsAAADABChZAAAAACZAyQIAAAAwAUoWAAAAgAlQsgAAAABMgJIFAAAAYAKULAAAAAAToGQBAAAAmAAlCwAAAMAEKFkAAAAAJkDJMl02lA4AAADATDFHThEly3Q5sG77Q0qHAAAAYPqN8+OBpXOwjZJl+ly7dAAAAABmgvlxyihZpo9fEgAAAJbD/DhllCzTxy8JAAAAy2F+nDJKlulz89IBAAAAmAnmxymjZJk+dy4dAAAAgJlgfpwySpbp45cEAACA5TA/Thkly/S5Xt32Ny0dAgAAgOk1zo3XK52DHSlZptPPlQ4AAADAVDM3TiEly3R6cOkAAAAATDVz4xRSskyn+9Ztf53SIQAAAJg+47x439I52JWSZTrtn+ThpUMAAAAwlR6eYW5kyihZptfvlg4AAADAVDIvTikly/S6dd32dygdAgAAgOkxzom3Lp2DpSlZpttflw4AAADAVDEnTjEly3R7YN32dekQAAAAlDfOhw8snYPdU7JMv6eWDgAAAMBUeFrpAOyZkmX63adu+58rHQIAAIByxrnw3qVzsGdKltmgrQQAAFhs5sIZoGSZDXet296+OwAAgAVUt/0Dkty1dA72TskyO15Yt/2RpUMAAACwfuq2v3qSF5bOwfIoWWbH9ZI8q3QIAAAA1tXxSa5fOgTLo2SZLY+s2/5upUMAAACw9uq2v2uSPyidg+VTssyel9Vtf0jpEAAAAKyduu0PTtIm2VA6C8unZJk9N4tTpQEAAObdk5P8ROkQrIySZTY9pm77XyodAgAAgMmr2/7eSR5fOgcrp2SZTRuSvLZu+5uWDgIAAMDk1G1/oySvj3l9JvmXNruOTPLWcZ8eAAAAM65u+4OS/EeSo0pnYXWULLPttnG/dAAAgHnxr0luVzoEq6dkmX2/V7f975cOAQAAwOrVbf97SR5ZOgf7RskyH/61bvtjS4cAAABg5cZ5zi6FOaBkmQ8HJzmxbvublw4CAADA8o1z3IkZ5jpmnJJlfhyd5OS67a9XOggAAAB7N85vJ2eY55gDSpb5cuMk763b/uqlgwAAALB749z23gxzHHNCyTJ/bpPkhPHWXwAAAEyZcV47IcP8xhxRssynuyZ5fd32/v0CAABMkXFOe32GuY05YwifXw9K8tK67TeUDgIAAEAyzmcvzTCvMYeULPPtkUleVbf9fqWDAAAALLJxLntVhjmNOaVkmX+/k2Hr0AGlgwAAACyicR57fYb5jDmmZFkMv5bkPx2GCwAAsL7GOew/M8xlzDkly+L4pSTvqtv+0NJBAAAAFsE4f70rwzzGAlCyLJZ7JDmpbvurlQ4CAAAwz8a566QMcxgLQsmyeH4uyQfqtr9W6SAAAADzaJy3PpBh/mKBKFkWU53kE3Xb37J0EAAAgHkyzlmfyDB3sWCULIvrpklOq9v+7qWDAAAAzINxvjotw7zFAlKyLLYjk7y3bvvfLx0EAABglo1z1XszzFksqA23e+mXtpQOwVT4pyRP7JrK3wcAAIBlqtt+Q5JnJPnr0lkoz0oWtvrrJG+p2/6Q0kEAAABmwTg/vSUKFkZKFrb3q0lOqdv+uqWDAAAATLNxbjolwxwFSZQs7OrYJJ+q2/7nSwcBAACYRuO89KkM8xNcxZks7M6VSf4uyTOd0wIAAHDV+StPSPLUJPsVjsMUspKF3dkvyT8mObFu+2uWDgMAAFDSOBedmGFOUrCwJCULe3PfJGfUbX9c6SAAAAAljPPQGRnmI9gtJQvLcYMkH6nb/i9LBwEAAFhP4xz0kQxzEeyRM1lYqXckeUTXVOeWDgIAALBW6ra/RpJXJ7l/4SjMECtZWKn7J/l03fZ3KR0EAABgLYzzzqejYGGFrGRhtTYneV6SJ3VNdUnpMAAAAPuqbvtDkjw9yZ/HogRWwV8aVmtjksdkOBT3DqXDAAAA7Itxrjkjw5xjVmZVrGRhEq5M8qwkT+6aalPpMAAAAMtVt/2BSZ6S5K/i1szsI+0ck7Bfkick+VTd9rctHQYAAGA5xvnlUxnmGQUL+8xKFibt8gx7GJ/eNdUVpcMAAADsrG77/ZM8abwOKByHOWIlC5N2QJL/L8kn6rb/qcJZAAAAdjDOKZ/IMLcoWJgoK1lYS5cneW6Sf+ia6qLSYQAAgMVVt/1hSf4+w8G2yhXWhJUsrKUDkjw+yZl12/9K6TAAAMBiGueRMzPMJwoW1oyVLKyndyZ5dNdUXysdBAAAmH91298oyQuS/HLpLCwGJQvr7eIkT03yz11TXV46DAAAMH/qtj8gyV8m+bskhxaOwwKxXYj1dmiSZyT5bN32dy0dBgAAmC/jnPHZDHOHgoV1ZSULpb02yeO6pjq7dBAAAGB21W1/7STPTvLw0llYXEoWpsG5GW6f9mJbiAAAgJUYtwY9KsNMcY2yaVh0tgsxDa6R5HkZ7kL0q6XDAAAAs2GcH87MME8oWCjOSham0akZthCdVjoIAAAwfeq2Py7D1qA7lc4C21OyMM3ekuSJXVN9uXQQAACgvLrtb5bhQNuHlM4CS1GyMO02JXlRkqd2TXVO6TAAAMD6q9v+qAy3Y/7jJAcWjgO7pWRhVpyX5OlJXtA11WWlwwAAAGuvbvuDkjw6yZOSHFk4DuyVkoVZ89Ukf5PkjV1T+bsLAABzqG77DUl+Pck/Jrlx2TSwfEoWZtXnk/xDkv9QtgAAwHwYy5VfTfL3SY4pHAdWTMnCrFO2AADAjFOuMC+ULMwLZQsAAMwY5QrzRsnCvFG2AADAlFOuMK+ULMwrZQsAAEwZ5QrzTsnCvFO2AABAYcoVFoWShUXx+STPTPLmrqmuKB0GAAAWQd32+yf5tSRPiHKFBaBkYdF8Pcm/JHlZ11QXlg4DAADzqG77w5P8QZK/SHLDwnFg3ShZWFTnJXlJkud3TfWd0mEAAGAe1G1/vSR/luSPkhxZOA6sOyULi25Tkn9P8uyuqc4sHQYAAGZR3fa3TvK4JL+Z5MDCcaAYJQsMtiR5d5JndU11SukwAAAwC+q2v2uSv0pyvyQbCseB4pQssKvTkzw7wx2JriwdBgAApknd9vtluFPQ45IcWzgOTBUlC+ze/yV5TpJXdU11UekwAABQUt32hyX53SSPTXKTwnFgKilZYO9+lOQ1SV7cNdX/lA4DAADrqW77WyZ5VJLfSXL1wnFgqilZYGU+lORFSd7eNdUVpcMAAMBaqNt+/yQPSPLHSe5WOA7MDCULrM63k7wsycu6pvpW6TAAADAJddv/WJI/GK/rF44DM0fJAvvmiiTvSPKirqk+UDoMAACsRt32/y/DqpX7J9m/cByYWUoWmJyzkrw4yWu6pjqvdBgAANiTuu2PzHDOyqOS3KJwHJgLShaYvIuTvCHD6pZPlw4DAADbq9v+ZzOsWnlYkkMLx4G5omSBtfXJJK9M8iarWwAAKGVctfLQJL+X5PaF48DcUrLA+rg0ydsz3Ar6fV1TXVk4DwAAc65u+/2S3DPDlqAHJDm4bCKYf0oWWH/fTvLaDGe3fLF0GAAA5kvd9rfKUKw8PO4QBOtKyQJlfTLJq5O8sWuqcwtnAQBgRtVtf40kv57kEbEdCIpRssB0uCzDraBfneQk24kAANibcTvQvTMUK/dPclDRQICSBabQd5O8Lsmru6b6QukwAABMl7rtfzJDsfJbSa5bNg2wPSULTLcuw+qWN3dN9f3CWQAAKKRu+6OT/FqGcqUumwbYHSULzIYrk3wwyZuS/KfzWwAA5t94zsqDMtx6+e5J9iubCNgbJQvMnsuTvC/JG5Oc0DXV+YXzAAAwIXXbXy3Jr2Q4xPaeSQ4omwhYCSULzLbLkrwnwwqXd3ZNdVHhPAAArFDd9ocl+eUMK1buGwfYwsxSssD8uDjJiRkKl3d3TXVJ4TwAAOxG3faHJLlfhmLlF5McWjYRMAlKFphPFyY5IUPhclLXVJsK5wEAWHh12x+Y4ZbLD82wJejwsomASVOywPw7L8nbMxQuH1S4AACsn7FYuXuGYuUBSY4smwhYS0oWWCznJ3lvkndk2FLkLkUAABM23hXofknun+Q+Sa5WNhGwXpQssLiuSPLRDIXLO7qm+krhPAAAM6tu+5tmKFXun+QuSfYvmwgoQckCbPXfGQqXE5Kc3jWV5wYAgN2o235DkmMznK1y/yQ/VTYRMA2ULMBSvpvknRlKl/d3TXVp4TwAAMXVbX9wkntkKFV+Ocl1yyYCpo2SBdibi5OcnKFweVfXVN8vnAcAYN3UbX90kl/KUKzcK261DOyBkgVYic1JTsuwyuWkJJ+1rQgAmCfjNqCfznCr5V9OclySjUVDATNDyQLsi+9lWOVyUpL3dU11duE8AAArVrf9tZPcM0Oxcq8k1ymbCJhVShZgUrYkOSND4XJyko91TXV52UgAALuq2/6AJHfOUKjcO8ltk2woGgqYC0oWYK1cmORDGUqXk7qm6gvnAQAWWN32VYZC5d5J7pbk8LKJgHmkZAHWy1cyFi5JPtg11QWF8wAAc6xu+yOS3D3bipWblk0ELAIlC1DCFRkO0N26tejTXVNdWTYSADDL6rbfL8nPZtsWoOOS7F80FLBwlCzANDg/yUeTnJLkw1G6AAB7sV2p8gtJ7prkLkmuVjITgJIFmEYXJPlYhsLllCRd11RXFE0EABRVt/3+SeoMhcovZDi49oiSmQB2pmQBZsGFSU7NttLldHcuAoD5Nt4B6NhsK1XuFIfVAlNOyQLMoouzY+nyya6pNhVNBADsk7rtD0xy++xYqhxaMhPASilZgHlwSYaDdD+c5CMZVrpcXDQRALBHddsfmmGlys9nKFWOS3JIyUwA+0rJAsyjK5J8LkPx8vEkp3VN9eWykQBgsdVtf7MMRcodx4+3ibv/AHNGyQIsiu9nLFzG6/SuqS4qGwkA5lPd9odlWKVyXLYVK0cXDQWwDpQswKK6Msnns610+XjXVF8qGwkAZlPd9jfPthUqxyU5Jsl+RUMBFKBkAdjmBxlWu2xd8fLJrqkuLBsJAKZL3faHZzigdusKlTsmuVbRUABTQskCsHtXJvlCkjOSfCbJZ5N8tmuqc4qmAoB1Urf9UUl+erx+Jsltk/xkrFIBWJKSBWDlvpGhcLmqeEnSd03l+RSAmVS3/YYkVXYsVH46yQ1K5gKYNUoWgMm4MMMZNxE1/wAAIABJREFUL9sXL593uC4A02Y8lPaY7FioHJPk8JK5AOaBkgVg7WxO0mfHVS+f6ZrqW0VTAbAw6rb/sWxblbL1Y5VkY8lcAPNKyQKw/n6YXbcbndk11eVFUwEws+q2PyDJrbPrdp9rlswFsGiULADTYVOSL2bH4uWzXVP9sGgqAKZO3fbXzLYyZWuhcqskB5bMBYCSBWDafTM7bTdK8uWuqTYXTQXAmqvbfmOSm2XX7T4/XjIXALunZAGYPRdl10N2P+eQXYDZNR5Ge5vsehjtYSVzAbAyShaA+bAlw62l+yRfHj9uvb6sgAEobyxSbpbh4Nmt19b/fYMkG8qlA2ASlCwAi+G72al42fp511TnlQwGME/qtj8yuxYoW6/rFowGwDpQsgDwwyyx+iVDAXN2yWAA06hu+2tn6RLlZnE3H4CFpmQBYE8uyBKrX8br211TeQ0B5k7d9huSXD9Lb+upkhxRLh0A00zJAsBqXZLkK1m6hPl611RXFswGsEd12++X5IZZukS5aZJDyqUDYFYpWQBYC5cn+Wp2XPmytYj5v66pNpWLBiyKuu0PTHKT7Lqtp0py4yQHFAsHwFxSsgCw3jYn+fp4fTfJd3ZznWM7ErCUcTvPUUmut5vruhlWqdwwycZCMQFYQEoWAKbVpgwlzJ6KmO8kObtrqitKhQQmp277/ZNcO7svT7YWKNdNcmChmACwW0oWAGbd5iTfz97LmO92TXVJqZCwyOq2PyRDMbK38uToWHkCwAxTsgCwSM7L3suY73RN9aNiCWGG1G1/9ey5ONlanhxZKiMArCclCwDs6pIsXcZ8N0NR86PxOn/r511TXVomKkxG3fYHJ7n6eF1tu8+PzNKrUK4bd+ABgB0oWQBgMi7PruXL+Ut8bU+fX9A11eZ1T85Mq9t+Y5IjsnRBsrfPt/+aO+0AwD5SskyXK5K8O8n9SwcBoIgtSS7M6gqa7VfVXLbuyVmVuu0PyurKke0/PzzJhvXODsBUeEeS+yXZv3QQBkqW6XJZ11QH121/vyTPS1KVDgTATNqUXcuXC8avX77TdcUSX1uXr6/lqp1xdcf+GVZn7Hyt5dd3988emG2rTbYvStwhB4DV6JP8eddU767b/tIkB5UOxEDbNYXGX5QPJPmrJE9McmjhSADMlgMz3KXl6NJB9qRu+81ZfilzZZL9svxSwx1qAJhHFyd5RpJnWbk6nZQsU2r8hXla3favTfLcJA8sHAkAJm1jhv/y5r++AcDevS3JY7qm+lrpIOyekmXKjb9AD6rb/t5Jnp/kJwpHAgAAYP38b5I/65rqpNJB2DtLaWfE+At1TJK/SXJR4TgAAACsrYsyzH/HKFhmh5UsM6Rrqk1JnlG3/euSPCfJgwtHAgAAYPLemuSxXVN9o3QQVkbJMoPGX7SH1G1/jyQvSHLLwpEAAADYd/+T5NFdU72/dBBWx3ahGTb+4t0myeOTXFg4DgAAAKtzYYa57jYKltlmJcuM65rq8iTPqtv+9UmeneTXC0cCAABg+d6Y5HFdU32rdBD2nZJlToy/kA+r275N8q9Jbl04EgAAALt3ZpI/7ZrqQ6WDMDm2C82Z8Rf0p5M8Ksm3C8cBAABgR9/OMK/9tIJl/ljJMoe6proiyUvqtn9NkkcneUKSa5RNBQAAsNDOTfLMJC/omuqS0mFYG0qWOTb+4h5ft/1LMxyi9OdJDiubCgAAYKFclOR5SY7vmupHpcOwtpQsC2D8RX5S3fbPT/K3SZokB5ZNBQAAMNc2JWmTPK1rqu+VDsP6ULIskPEX+9F12z8nyVOS/GacywMAADBJm5P8e5Ind031f6XDsL6ULAto/EX/7brt/ynJ05P8SuFIAAAA8+CEJE/qmuoLpYNQhpJlgY2/+A+o2/6OSZ6R5BfKJgIAAJhJH07yxK6pPl46CGUpWcj4RHC3uu3vleQfk9yucCQAAIBZ8Kkkf9M11cmlgzAdnMfBVcYnhmOTPCTJWYXjAAAATKuzMsxNxypY2J6VLOyga6otSd5at/3bkjwiyZOT3KBoKAAAgOnwjQw3EXl111RXlg7D9FGysKTxCeMVddu/LsMtnx+X5IZlUwEAABTx9STPTtJ2TXVZ6TBMLyULezQ+gbygbvuXJPmNJH+d5FZlUwEAAKyLLyb5pySv75rq8tJhmH5KFpZlfEJ5Td32/5bhls9PTHL7sqkAAADWxCcz3IH1hPFIBVgWJQsrMj7BvD3J2+u2v3uSJyS5Z9lUAAAAE/G+JM/smuqDpYMwm5QsrNr4xPPBuu1vl2FlywPjjlUAAMBs2ZzkbUme0TXVp0qHYbYpWdhn4xPRg+u2v0WSxyf5rSQHlk0FAACwR5uSvC7J8V1TnVU6DPNBycLEjE9Mv1+3/ZOTPDbDXYkOK5sKAABgBxclaZM8p2uqb5YOw3xRsjBx4xPVY+u2f1qSR4/XNcumAgAAFtwPk7wgyQu6pjqndBjmk5KFNTM+cT2lbvtnZ1jV8tgkP142FQAAsGC+meQ5SdquqS4qHYb5pmRhzY1PZM+t2/6FGc5reXySW5RNBQAAzLmzkhyf5HVdU20qHYbFoGRh3YxPbK+s2/7VSe6X5I+T3CfJhpK5AACAubElyXuTvCjJu7um2lw4DwtGycK6G5/o3pXkXXXb3yzJo5L8bpKjigYDAABm1TlJXpXkxV1Tfbl0GBaXkoWixifAx9Vt/3dJHpZhdcvtyqYCAABmxKcyrFp5Q9dUl5QOA0oWpsL4hPjKDNuJ7pDkT5L8WpKDigYDAACmzWVJ3pzkhV1TfaJ0GNiekoWpMz5RfqJu+8cmeWSSP0pyo7KpAACAwr6W5CVJXt411Q9Kh4GlKFmYWuMT5zPrtj8+yS9mWN1yrzgoFwAAFsWWJCcneWGSEx1ky7RTsjD1xifSdyZ5Z932N8+2g3KPLBoMAABYK+dl20G2XyodBpZLycJMGZ9gH1u3/d9mOCj3T5LctmwqAABgQs7IsGrlDV1TXVw6DKyUkoWZND7hviLJK+q2Py5D2fKQJAcWDQYAAKzUpiRvyXCQ7Wmlw8C+ULIw88Yn4tPGg3J/J8kjkty6aCgAAGBvzkzy6iSv6Zrq7MJZYCKULMyN8Yn5WUmeVbf9sRnKlocluUbJXAAAwFXOTfKGJK/umur00mFg0pQszKXxCfv0cXXLr2QoXO6VZL+SuQAAYAFdmeEOQa9OckLXVJeVjQNrR8nCXBufwN+c5M11218vycMzFC63KpkLAAAWwBczFCuv7ZrqO4WzwLpQsrAwxif245McX7f9HTKULb8et4IGAIBJOS/JGzNsB/pE6TCw3pQsLKTxCf8Tdds/JjtuJ9pYMhcAAMygzdlxO9ClZeNAOUoWFtr4AvCmJG+q2/7Hsm070S1K5gIAgBlwVrZtB/pW4SwwFZQsMBpfGJ6Z5Jl1298xw+2gH5zkWkWDAQDA9PhBkrdmuO3yx0uHgWmjZIEljC8YH6/b/tFJ7p7koUkeGLeDBgBg8Zyb5G0ZVoB/sGuqKwrngamlZIE9GF9ATk5yct32j8pwbstDM5zjckTJbAAAsIYuSHJChmLl5K6pNhXOAzNByQLLNL6wvCvJu+q2PzjJfTMULr+c5NCS2QAAYAIuTvLODMXKexxgCyunZIFVGF9w3pbkbXXbH5qhaHlohuLl4JLZAABgBS5N8p4Mxco7u6a6uHAemGlKFthH4wvR1jsUHZFhK9GvJ7lnkgNLZgMAgCVsSvK+JG/McMvlCwrngbmhZIEJGl+gXpfkdXXbXyPDYbkPzXB4rt83AABKuSLJBzP8x8G3dU11buE8MJcMfbBGxheuVyZ5Zd3210ryoCQPyFC4HFQyGwAAC+GyDMXK25P8Z9dUPyicB+aekgXWwfiC1iZp67Y/PMl9Mmwr+sW4LTQAAJNzbpITM9wZ6L1dU11YOA8sFCULrLPxhe6tSd5at/3+Se6SoXD5lSQ3LhgNAIDZ9NUMpcoJST7aNdUVZePA4lKyQEHjC+CHxusv6ra/TbYVLrcrmQ0AgKn2qYzFStdUnysdBhgoWWCKjC+Qn0vy1LrtfyzJ/TMULneLOxUBACyyTRn+w9wJSd7RNdW3CucBlqBkgSk1vnC+OMmL67a/Wrad43K/JEeWzAYAwLo4L8m7s+18lfML5wH2QskCM2B8QX1zkjeP57jcNUPh8stxjgsAwDz5apJ3ZihWTnG+CswWJQvMmPGF9gPj9Wd1298iyb0zrHT5hSSHlEsHAMAKXZLkw0nem+SkrqnOKhsH2BdKFphx4wvxWUmeX7f9wRnuVnSf8bp1yWwAACzpzAylynsz3A3o0sJ5gAlRssAcGV+g3zdef1m3/Q2ybZXL/4uzXAAASjgvwyrkratVvlE4D7BGlCwwx8YX8JcneXnd9vsluWOGwuXeGW4RvbFgPACAebU5wy2WT8pQrHy8a6ory0YC1oOSBRbE+ML+sfH6u7rtr5XkXhkKl3snuU7BeAAAs+57GUqVk5Kc3DXVDwrnAQpQssCCGl/4X5/k9XXbb0jyM9m2tei4JAcWjAcAMO02JTkt4xagJJ/pmmpL2UhAaUoWIOMbgjPG65l12x+SoWj5hfG6Q5QuAMBi25TkExnuBPThJKd1TXVJyUDA9FGyALsY3zB8cLwyli53yrbS5fZRugAA821Tkk9mW6lyqlIF2BslC7BX4xuKD4zXzqXL3ZIcG6ULADDbNiU5PcmHolQBVknJAqzYEqXLodl1pcsBheIBACzH5dl1pcrFJQMBs0/JAuyz8Q3J+8dra+ly52wrXY6N0gUAKOvyDCtVPjxeH1OqAJOmZAEmbnzD8r7xSt32h2VY6fJz48c7JDmiWEAAYBFckOGg2lOT/FeGlSoXlY0EzDslC7Dmxjc025cuG5P8VIY7GN1pvKpiAQGAedBnKFROzXBr5f/ummpz2UjAolGyAOtufMPzufF6aZLUbX90tpUux2XYYnRIqYwAwFS7JMPWn9MylipdU32/bCQAJQswJcY3Ru8Yr9Rtf0CSn8mOxcsNiwUEAEr6erYrVJJ8pmuqy8tGAtiVkgWYSuMbp9PH6/lJUrf9j2Vb4XKnJLeNW0cDwLzZlOSMbCtUTu2a6ltlIwEsj5IFmBnjG6y3jFfqtj84ye0ylC63S1InuVmSDaUyAgArsiXJl5N0ST6VoVT5VNdUlxZNBbBKShZgZo1vwD42XkmSuu2vnuRnM5QuW68qihcAKG1LhsNpP7Xd9emuqX5UNBXABClZgLkyvlH70Hgluap4uW2GlS6KFwBYezsXKl2SMxQqwLxTsgBzb3xD9+HxSpLUbX+17LjipY7iBQBWY2uhsnXLz9YVKucXTQVQgJIFWEjjG78PZ8/Fy+2S3DyKFwDYakuSL2XXLT8KFYAoWQCuspvi5Ygkx4zXT233+VHrnxAA1tU5ST4/Xv+99fOuqS4omgpgiilZAPZgfCN56nhdpW7762db4bL1ulWSg9c7IwDso0uTfDHbCpWtZcq3i6YCmEFKFoBVGN94fjvJSVu/Vrf9fhm2F+288uWmSTYWiAkA29uc5CvZaWVKki91TXVlyWAA80LJAjAh4xvU/xmvt2z9et32hyb5yey68uXaBWICsBjOzk4rU5J8oWuqi4umAphzShaANTa+oT19vK5St/21M5Qvt0hyy/HjLZLcKFa+ALB3m5N8LclZ4/U/48cvdE11dslgAItKyQJQyPgG+OwkH9r+63XbH5Rh29Ettru2ljBXX+eYAJT3o+xYomy9vtQ11WUlgwGwIyULwJQZ3zD/93jtoG7762TH8mXrddMk+61jTAAm68oM56WctfPVNdX3SgYDYPmULAAzZHyj/b0kH9n+63XbH5jkZtm1fPmJJNda55gA7N4Pkvxvdi1Tvtw11aaSwQDYd0oWgDkwvjH/4njtoG77IzKsdLnJEh9vEredBpikS5P833h9ZeePXVNdUDAbAGtMyQIw58Y39J8drx3Ubb8hyXWz+xLmx+IQXoDtbU7yreymREny3a6ptpSLB0BJShaABTYOAt8Zr4/t/OfjNqQbZfclzDXWLSzA+jk3uy9RvmZbDwC7o2QBYLfGQeJL47WLuu2PTHLDJDdI8uM7XVu/dti6hAVYnouSfDPJN8aP21/fSPL1rqnOKxcPgFmmZAFg1cZB5Lwkn9vdPzMWMTsXLzuXMUeseVhgEVyQ3Zcn30zyTQUKAGtJyQLAmtquiNnlltRb1W1/tSy9Cmbrdb0kRyXZsNZ5gam0Jck5GbY2LlmeZChQzi+WEACiZAFgCoyD0ZnjtaS67Q9Icu0k11nGdc04sBem3eYkP8xwW/q9XWd3TXV5oZwAsGxKFgBmwjhgfWu89qhu+/2SHJ3lFTJHJ9lvbVLDwrkyyfezvOLk+11TXVkoJwCsCSULAHNnHNy+O157VLf9xgwrX66dYUvSNfbwcefPlTPMqysz3GHn3AzbdHb+fKmPZyf5YddUm0sEBoBpoGQBYKGNA+H3x2vZ6rbfkOHA3pUUM0cluXqSw+M1mLV3RZILk/wou5YieytMLhhv8Q4ArIA3eACwCuMAev54fXWl31+3/cEZSprDd/q42s8P2pf/P0yFyzKUIheM12o/vzBDSXLpOucHgIWnZAGAAsYB+NKscAXN7owHA29fvBySoXg5ePy4Vp8fkGHb1MYlPk67zRm2xez88fIMhcdlGf4drdXnl2S7gsTBrgAw+5QsADAHxgF96zaQqTBuqdpdAbPU1/b0ZxszlCBLFSO7K0t2+2e2wgAAa0HJAgCsibHIuKJ0DgCA9TILS3kBAAAApp6SBQAAAGAClCwAAAAAE6BkAQAAAJgAJQsAAADABChZAAAAACZAyQIAAAAwAUoWAAAAgAlQsgAAAABMgJIFAAAAYAKULAAAAAAToGQBAAAAmAAlCwAAAMAEKFkAAAAAJkDJAgAAADABShYAAACACVCyAAAAAEyAkgUAAABgApQsAAAAABOgZAEAAACYACULAAAAwAQoWQAAAAAmQMkCAAAAMAFKFgAAAIAJULIAAAAATICSBQAAAGAClCwAAAAAE7AxyZbSIbiK0gsAAICVMEdOjy0bk1xYOgVXOaBu+yNKhwAAAGD6jfPjAaVzcJULNyY5v3QKdnDt0gEAAACYCebH6XK+kmX6+CUBAABgOcyP0+X8jUkuKJ2CHVyndAAAAABmgvlxulxgJcv0OaZ0AAAAAGaC+XG62C40he5cOgAAAAAzwfw4XZQsU+i4uu3dggsAAIDdGufG40rnYAcXOJNl+lwtlnwBAACwZ8dkmB+ZHlayTKmfLx0AAACAqWZunD5Klin1G6UDAAAAMNXMjdPHLZyn1B3rtr9l6RAAAABMn3FevGPpHOzCLZyn2CNKBwAAAGAqPaJ0AJZku9AUe3jd9vuVDgEAAMD0GOfEh5fOwZLO35jk3NIpWNL1k9yndAgAAACmyn0yzItMn3M3Jvnf0inYrb8tHQAAAICpYk6cXv+7sWuqs5OcUzoJS7pj3fa/VDoEAAAA5Y3zoQNvp9M5XVOdvXH8H18sGoU9eWrd9htKhwAAAKCccS58aukc7NYXk0TJMv1+JsmDS4cAAACgqAdnmA+ZTjuULGcWDMLePcWdhgAAABbTOA8+pXQO9ujMxEqWWXGrJH9aOgQAAABF/GmGuZDpZbvQjHl63fY3Lh0CAACA9TPOgU8vnYO92qFk+XqSi8plYRkOS9KWDgEAAMC6ajPMg0yvizL0KkPJ0jXVliRnlUzEstyzbvtHlA4BAADA2hvnv3uWzsFenTX2KletZEkcfjsr/rlu++uUDgEAAMDaGee+fy6dg2W5qk/ZvmRxLstsOCrJi0uHAAAAYE29OMP8x/S7qk9RssymB9Zt/5jSIQAAAJi8uu3/PMkDS+dg2ZQsc+D4uu3vUjoEAAAAk1O3/Z2TPKt0DlZkyZKlT3Lh+mdhlfZP8qa67a9bOggAAAD7bjyH5c1JDiidhWW7MEOfkmS7kqVrqiuSfLhAIFbvekneXLf9/qWDAAAAsHp12++X5A1Jrl86Cyvy4bFPSbLjSpYkOXmdw7Dv7pLk+NIhAAAA2CdPT3K30iFYsR16FCXLfHhM3fYPLx0CAACAlavb/qFJHl86B6uyQ4+yYcuWLTv8ad32X09yg/VMxERcnuT+XVO9t3QQAAAAlqdu+3skOTHJgaWzsGLf6Jrqhtt/YeeVLInVLLPqgCRvrdv+9qWDAAAAsHd1298uyduiYJlVu/QnS5Us71uHIKyNw5KcWLf9LUoHAQAAYPfqtr95kvckObx0FlZtl/5kqZLl/Uk2r30W1si1kpxUt70TqQEAAKZQ3fbXy7AK4ujSWVi1zRn6kx3sUrJ0TfXDJJ9ej0SsmRsleW/d9keWDgIAAMA245x2UpIbF47Cvvn02J/sYKmVLIktQ/PgmAxbh65WOggAAADJOJ+dmGFeY7Yt2ZvsrmRx+O18uFOS99dtf43SQQAAABbZOJe9P8OcxuxbsjfZXclyapKL1i4L6+jYJB+q295ePwAAgALGeexDGeYzZt9FGXqTXSxZsnRNtSnJKWuZiHX100lOcRguAADA+hrnsFMyzGXMh1PG3mQXu1vJktgyNG9uleQjddvfqHQQAACARTDOXx/JMI8xP3bbl+ypZHlLkisnn4WCbpahaKlKBwEAAJhn49z1kQxzGPPjygx9yZJ2W7J0TfXtJO9Zi0QUdcMMRcttSgcBAACYR+O89ZEM8xfz5T1jX7KkPa1kSZKXTzgM0+F6ST5Wt/0vlQ4CAAAwT8Y562MZ5i7mzyv29Id7K1lOTPLdyWVhihye5IS67f+idBAAAIB5MM5XJ2SYt5g/303yrj39Axu2bNmyx59Qt/0/JXn8BEMxfV6c5M+6prqidBAAAIBZU7f9/kmen+RRpbOwpo7vmuqv9/QP7G0lS7KXpTDMhUclObFu+6uXDgIAADBLxjnqxChYFsFe+5G9lixdU/1vko9OJA7T7F5JTq3b/ialgwAAAMyCcX46NcM8xXz76NiP7NFyVrIkVrMsilsn+UTd9ncuHQQAAGCajXPTJzLMUcy/ZfUiyy1Z3pLk/NVnYYYcneRDdds/pnQQAACAaTTOSx/KMD8x/87P0Ivs1V4Pvt2qbvuXJPnDfQjF7Hlbkt/tmupHpYMAAACUNp6/8qokDyydhXX10q6p/mg5/+ByV7IkyctXGYbZ9cAkn67b/mdLBwEAAChpnIs+HQXLIlp2H7LskqVrqi7J51YVh1l20wwH4lrFBAAALKRxHjo1w3zEYvnc2Icsy/4r/OGvSPK8FX4Ps++gJC+p2/7nk/xh11QXlg4EAACw1uq2PzzJS5P8RuksFLOiGwGtZLtQkrwmyXkr/B7mx28kOb1u+58sHQQAAGAtjXPP6VGwLLLzMvQgy7bsg2+3qtv+75M8ZUXfxLy5OMnjk7yoa6qV/QUCAACYYnXbb0jyx0mOT3Jo4TiU9eSuqf5hJd+w0pUsSfIvSc5dxfcxPw5N8q9J3l+3/Y1KhwEAAJiEcb55f4Z5R8Gy2M7N0H+syIpLlq6pzk/yzyv9PubS3ZN8vm77R5YOAgAAsC/GuebzGeYc+Oex/1iRFW8XSpK67Y9I8tUkR634m5lX70nyyK6pvl06CAAAwHLVbX/9DLfovW/pLEyNc5LcuGuqC1b6javZLpTxgZ69mu9lbt03yRfqtv+t0kEAAACWY5xfvhAFCzt69moKlmSVK1mSq25l9X9JrrWqH8A8e3uGWz2fXToIAADAzuq2v3aGWzM/oHQWps4Pktyka6oLV/PNq1rJkiTjAz5rtd/PXHtAhlUtDy0dBAAAYHvjnPKFKFhY2rNWW7Ak+7CSJUnqtj8sw2qWo1f9Q5h3Jyf5066pvlQ6CAAAsLjqtr95hrsG3at0FqbW9zOsYrlotT9gn0qWJKnb/nGxooU9uyzJPyV5RtdUl5YOAwAALI667Q9O8sQkf53koMJxmG5/1TXVPp0/u+rtQtt5UZLvTeDnML8OSvL3GbYQOVAKAABYF+P88YUM84iChT35XoZ+Y5/s80qWJKnb/jFJnrPPP4hF8Z9J/qJrqm+UDgIAAMyfuu1vkORfkjyodBZmxmO7pnruvv6QSZUshyT5SpLr7vMPY1FclOQpSZ7bNdUVpcMAAACzr277/ZM8JsmTkxxWOA6z47tJbto11SX7+oMmsV0oY5C/ncTPYmEcluT4JJ+p2/4upcMAAACzbZwrPpNhzlCwsBJ/O4mCJZnQSpYkqdt+Q5JTkhiYWY03JPmbrqm+WjoIAAAwO+q2v3GSf0zysMJRmE0fTXLXrqkmUo5MrGRJkrrtb53kjCQHTuyHskguS/KCJE/vmuq80mEAAIDpVbf9kUmelOTRcagtq7MpyW27pjpzUj9woiVLktRt/7QMf9Fhtc5J8tQkL+qaalPpMAAAwPSo2/7AJH+c5O+SHFU4DrPt6V1TTfTok4mcybKTpyXp1+DnsjiOSvLcJGfWbf+Q0mEAAIDpMM4HZ2aYFxQs7Is+Q38xURNfyZIkddvfI8n7Jv6DWVSnJXlc11Snlg4CAACsv7rt75Tk2UmOK52FuXHPrqneP+kfuiYlS5LUbf+6JL+5Jj+cRfUfSZ7QNZWVUgAAsADqtq+SPDPJr5bOwlz5966pfmstfvBalizXTvLFWMLFZF2e5MUZ9s6dXToMAAAweeM8+aQkj0pyQOE4zJdzktxqrebJNStZkqRu+0cmedmaPQCL7OIkL0pyfNdU3y8dBgAA2Hd12x+d5PEZDrY9tHAc5tMfdE318rX64WtdsmxIckqSu6zZg7DoLkrywiTP6prqB6XDAAAAK1e3/bWS/FWSP0lyWOE4zK+PJrlr11RrVoSsacmSJHXb3zrJGUkOXNMHYtFdlORfkzxb2QIAALNhLFcel+RPo1xhbW1Kctuuqc5cywdZ85IlSeq2f1p6lrK6AAAd50lEQVSG/XSw1i7MtrLlh6XDAAAAu6rb/prZVq4cXjgOi+HpXVP97Vo/yHqVLAcn+XySas0fDAYXJnlBhrLlnNJhAACApG77ozKUK4+OcoX10yc5pmuqS9f6gdalZEmSuu2PTfJfsW2I9XVBkucneY6yBQAAyhjLlccm+bMkRxSOw2LZlOTnuqY6fT0ebN1KliSp2/7RGQZeWG8XJHlpkud1TfXN0mEAAGAR1G3/40n+PMkfRrlCGX/WNdUL1uvB1rVkSZK67d+S5MHr+qCwzeVJ3phhG9HnSocBAIB5VLf9bTJsC/r1JAcUjsPiemvXVA9ZzwcsUbJcLcmnk9xsXR8YdvW+DLd+fl/pIAAAMA/qtr9nhlsx37N0Fhbel5P8bNdU56/ng657yZIkddvfNslpSQ5a9weHXX0uybOTvLFrqstLhwEAgFlSt/0BGVasPC7JbQrHgSS5LMlxXVOdsd4PXKRkSZK67f8wyUuKPDgs7ZsZzgx66Xq3nQAAMGvGXQp/mOEw2x8vHAe290ddU720xAMXK1mSpG771yd5WLEAsLTzk7wswyG53ygdBgAApknd9jfIcJjtHyS5WuE4sLM3dE31G6UevHTJcniSLsktioWA3bsiyZuSPLdrqk+VDgMAACXVbX+7JI9J8tAk+xeOA0s5K0ndNdWFpQIULVmSpG77Y5J8IskhRYPAnn0yyYsznNtyaekwAACwHuq2PzjDeSuPSnL7wnFgTy5JcoeuqT5fMkTxkiVJ6rb/vSSvKJ0DluGcJK9K8pKuqfrSYQAAYC3UbV8l+aMkv5vkqMJxYDl+v2uqV5YOMRUlS5LUbf/qJL9TOgcs05YkJyd5UZITu6a6snAeAADYJ3Xb75fkF5P8cZJ7JdlQNhEs22u6pnpE6RDJdJUsh2bYkvGTpbPACn09SZvk5V1Tfa90GAAAWIm67a+T5JFJmiQ3LBwHVuoLSW7fNdXFpYMkU1SyJEnd9rdIcmosR2M2XZ7kP5K8qGuqj5YOAwAAe1K3/V0yrFr51SQHFI4Dq3FOkjt1TXVW6SBbTVXJkiR12985yfuTHFw6C+yD/85wUO5ru6a6oHQYAABIkrrtj0jy8AwH2f5U4TiwLy5Nco+uqT5WOsj2pq5kSZK67R+Y5K1JNpbOAvvowiRvSfLqJB/tmmr6fuEAAJhrddtvSHKXJI9I8pAkhxcNBPtuc5IHd031ttJBdjaVJUuS1G3/J0n+tXQOmKCvJHlNhkOZvlY6DAAA861u+xtluLnI7yS5aeE4MEl/2jXVC0uHWMrUlixJUrf9M5I8oXQOmLAtST6UYXXLf0zLAU0AAMy+8YYiv5ph1crd4g5BzJ9ndk31xNIhdmfaS5YNSf4tyW+VzgJr5IKM24kclgsAwGqNh9g+IsN2oCPKpoE187okvz3NxzBMdcmSJHXbH5Dk3UnuUToLrLEvZ1jd8m9dU329cBYAAKZc3fY3TPLbGcqVm5VNA2vu/Unu1zXV5aWD7MnUlyzJVSdgfyTJz5TOAutgS5IPZihc/tN2IgAAthq3Az0oQ7Fy99gOxGL4TJKfn4U7t85EyZIkddtfL8lpSW5UOgusowuSvDnJvyc5pWuqzYXzAACwzuq235jkrkl+M8mvxXYgFsvXkhzXNdV3SgdZjpkpWZKkbvtbJvlYkqNKZ4ECvpfh1uZvSvJf07wPEQCAfTOeT/lzSR6a5MFJrlM2ERRxTpI7d031P6WDLNdMlSxJUrf9nTPsxTq4dBYo6NsZDsx9U5KPK1wAAGbfWKzcMUOx8pAk1y+bCIq6NMk9uqb6WOkgKzFzJUuS1G3/wAz/RX9j6SwwBb6esXDpmur00mEAAFiZuu2PzbZi5YaF48A02JzkwV1Tva10kJWayZIlSeq2/4MkL42DnmB7/5fhDJc3dU11RukwAAAsrW7722YoVn4tyU0Kx4FpsiXJH3ZN9bLSQVZjZkuWJKnb/hFJXhErWmApX8q2wuXzpcMAACy6uu2PybZi5eaF48A02pzk97um+v/bu/dgu8v63uPvXEkwhUAEFImi/ESwIBgfq9BjlELxUivV4yi9cWg7/Z3anl6mPWiPeNTTqlVpO9aO2j4drbVOBcdqU/VUKSjFCnr8gVJQER9ESURugUADhGRn5/zxW5u9drKT7Mva+7su79fMM7+1155hPgxDdvZnPc/3+XB0kLka6JIFIOXy88BHgOXRWaQ+djPt/JZPNXV1Q3QYSZKkUZFyOQ14JW25clJwHKmfjQEXNHX1segg8zHwJQtAyuVVwKXAiugs0gD4AbAJ+Gfaa6HHgvNIkiQNjZTLctrrll8BnAc8JTaRNBB2Aec3dfXJ6CDzNRQlC0DK5WeAfwQOic4iDZBtwP+lLV0+19TVg8F5JEmSBk7K5TDgJbSlysuAtbGJpIHyKPBfm7r6bHSQXhiakgUg5XIO7S+Lh0ZnkQbQTuAqOrtcmrraEhtHkiSpf6VcjmNyt8qLgJWhgaTB9DBwXlNXV0QH6ZWhKlkAUi4bgc8Ca6KzSAPuetrCZZNzXCRJkh6br3JeZ20IjiMNuu3AzzR1dXV0kF4aupIFIOXyfOBzwOHRWaQh8QPaGS6bgKubutoVnEeSJGnBpVxWABtpS5VX4HwVqVceAF7S1NVXooP02lCWLAAplw3A5cC66CzSkNlGW2J+Hri8qas7gvNIkiT1TMrlWOBc4MW0c1acryL11lbg3Kauro8OshCGtmSBx+6hvwI4OjqLNMRuoi00Pw98qamrR4LzSJIkzVjKZTXwAtpS5VzglNhE0lC7Gzinqasbo4MslKEuWQBSLicBVwLHRmeRRsAO4Gra0uXyYf7DU5IkDa7Oh7HndtZGYFVsImkk3AGc3dTVzdFBFtLQlywAKZcTgC8AT47OIo2YO4B/pd3lckVTV/cE55EkSSMo5XIUcA7tbpWfxg9gpcV2O/BTTV3dGh1koY1EyQKPXbH2GeC06CzSiNpDe2PRxNGiaxygK0mSFkJnYO2ZTB4B2gAsCQ0lja4bgJc3dbUlOshiGJmSBSDlsgb4B+Bno7NIYjvwRdqdLl8EvtnU1ej8gSRJknom5bIE+HHgLNqdKmcBa0JDSQL4NPALTV1tjw6yWEaqZAFIuSwFLgF+PzqLpCnuBf4NuKqzLF0kSdK0ukqVF3XWC4HHB0aStK8/By5q6mo8OshiGrmSZULKpQbeByyPziJpWpYukiQJsFSRBswY8FtNXeXoIBFGtmQBSLmcDXwCWBudRdJB3Ut7c9FVnXWTpYskScOpU6qcwmSpshFLFWkQbANe3dTVldFBoox0yQKPXfH8GeCE6CySZmUrU3e6WLpIkjSgpilVXgisC4wkafZupR1wO9RXNB/MyJcsACmXdcCngBdEZ5E0ZxOly9XAtcDXvb1IkqT+1Ln959nAGbS7VCxVpMH2JeCVTV1tjQ4SzZKlI+WyEvgb4ILoLJJ6YgdwHfAV2tLl2qau7oiNJEnSaEq5HEtbqJwBPB94DrAqNJSkXvkI8OtNXe2MDtIPLFn2knJ5I/A2YEl0Fkk9t5lO4cLkbhd/GEiS1EOdDy830JYpE8XK+tBQkhbCHuBNTV29IzpIP7FkmUbK5dW0bdzq6CySFtSjwPW0hctXaHe7bImNJEnSYEm5HMfkDpUzaAuWQ0JDSVpojwAXNHX1iegg/caSZT9SLs8F/hl4QnQWSYtqC11HjIDrm7p6NDaSJEn9IeVyCG2J0n3057jQUJIW253AK5q6+lp0kH5kyXIAKZf1wCeBFJ1FUpidwLeBbwA3TDyburovNJUkSQss5XIkcBpwetfzZGBlZC5JoRrgVU1dbY4O0q8sWQ6ic6b0XcDvRWeR1Fe2MFm8TJQvtzZ1NR6aSpKkWUq5LAVOYLJMmShU3KEiqdt7gDc40/DALFlmKOVyHvC3wBHRWST1rYeA/2Bq8XJjU1cPhaaSJKkj5fI44FSmFirPAh4XmUtSX7sf+JWmrjZFBxkEliyzkHJ5MnAp7flTSZqJceBW9j1u5IBdSdKC6gyk3fu4zwnA0shckgbKtcD5TV3dHh1kUFiyzFLKZTnwduAivOZZ0txtZXLHy0T58m23X0qSZqtzvP1kpu5OOQ1YF5lL0kDbA1wCXNzU1Vh0mEFiyTJHKZeX0l7z/PjoLJKGxi7gW0wtXm5o6mpraCpJUt9Iuaxj6u6U04BnAisic0kaKvfSXs/8L9FBBpElyzykXJ4E/AOwMTqLpKH2Q/Y6bgQUh+xK0vDqDKOt2Pe4z5Mic0kaelcDv9DU1Q+jgwwqS5Z5SrksA94KvBHPt0paPA8BNzJ118vNTV3dH5pKkjRrKZcjgJOYujvlVBxGK2nxjAPvAN7a1NXu6DCDzJKlR1Iu5wAfBY6JziJppN0PFNphu6X7dVNXd0YGk6RRlnJ5Au3OlBM6z+7X3l4pKdJdwC81dXVFdJBhYMnSQ50fnh8Fzo7OIknTeIjJ8mXv52aPH0nS3HWO96xnannS/XRXiqR+dCVtweKHcT1iydJjnR+wFwNvAZYFx5GkmdoJ3Mb0BcxtTV3tCswmSX0h5bICeCrTFylPBVbGpZOkWdkN/B/g7X7Q1luWLAsk5fJC4MPA8bFJJGnedgObmf4Y0q1NXT0cmE2SeirlcihtcTLdsZ71+CGapMH3feDCpq7+LTrIMLJkWUAplzXAO4HfBJYEx5GkhfIj9j8HZltkMEmaTsplLfufj/LEwGiStJD2AO8H/rCpq+3RYYaVJcsiSLlsBD5I+4NbkkbJfexVvDBZwNwVGUzScEu5HMP0x3oq4MjAaJIUoQC/1tTV1dFBhp0lyyJJuawG3gb8Hl71LEnQzoG5k3YnzIHW3V4lKAkg5bIMOJp2t8mB1hNwPookQXs183uANzV19Uh0mFFgybLIUi5nAB8CTorOIkkDYhy4h4OXMXc2dbUjKqSkuUu5rKItRg5WnhyFH1ZJ0kzdDPxqU1fXRgcZJZYsAVIuhwBvBS7C4WmS1EvbmFkZ80BYQmmEpFwOZ2blydqojJI0hHYDlwBvberq0egwo8aSJVDK5TnA3wKnRmeRpBHzCDMoY4B7mrryB6XUJeWyhHZHyUzKk9VBMSVpVN0I/EpTV9dFBxlVlizBUi4rgIuBNwIrguNIkqYaA+5iavGyDXhgmvVg99dNXY1FBJZmKuWyHDi8ax2219cTay1TC5VjgOUBkSVJ+7cLeAfw9qaudkWHGWWWLH0i5fIs2l0tG6KzSJJ64mGmKV8O8N50RY0zZjStzgyTmRQk070/8d6hix5ckrQQrqfdvfIf0UFkydJXOp8ovR54M3BIcBxJUrydzKKUme79pq62L35sHUjKZQ1zK0e63/fmHEnSo8AfAe92B23/sGTpQymXZ9LeQPS86CySpIG3m7Z0+U/a0mbXXmtsmvf66v3uuTideSAr9lrLp3lvtu/34p9xoPdXAj9GW5I49F6SNF9fpb056FvRQTSVJUufSrksBWrgbcC64DiSJEXa3VnLsKCQJI22rcCbgNzU1Xh0GO3LkqXPpVyOpN0C9hv4F0tJkiRJGkW7gb8C3tzU1X3RYbR/liwDIuVyKvBe4EXBUSRJkiRJi+cq4HeauroxOogOzpJlwKRcXgNcAjw5OoskSZIkacHcDlzU1NXHo4No5ixZBlDK5VDgDbQ3Ea0KjiNJkiRJ6p0dwLuBdzV19XB0GM2OJcsAS7kcD/wZ8KrgKJIkSZKk+fsk8AdNXX0/OojmxpJlCKRczgb+Avjx6CySJEmSpFn7JvC7TV1dGR1E87M0OoDmr/M/4unA7wLbguNIkiRJkmZmG+3vcadbsAwHd7IMmZTLUcDbgV/DEk2SJEmS+tE48EHg4qau7okOo96xZBlSKZcNwF8CZ0ZnkSRJkiQ95hrgt5u6uj46iHrPkmXIpVzOB/4IeHp0FkmSJEkaYd8F3tzU1aXRQbRwLFlGQMplOXAh8GZgfWwaSZIkSRopt9N+8P13TV2NRYfRwrJkGSEpl0OA1wH/Czg6OI4kSZIkDbO7gHcAf93U1aPRYbQ4LFlGUMplDe0E64uAw4PjSJIkSdIwuR+4BHhvU1cPRYfR4rJkGWEplyOA1wO/AxwaHEeSJEmSBtl24D3AnzZ19UB0GMWwZBEpl2OAi4H/DqwMjiNJkiRJg2QH8AHgT7yOWZYsekzK5SnAW4ALgGXBcSRJkiSpn40BHwL+uKmrLdFh1B8sWbSPlMszgD8GXg0sCY4jSZIkSf1kHPgY8Jamrm6NDqP+Ysmi/Uq5PBt4G/Cy6CySJEmS1Ac+Bfzvpq6+GR1E/cmSRQeVcvlJ2qvHNkZnkSRJkqQAlwMXN3XVRAdRf7Nk0YylXF4IvAF4aXQWSZIkSVpge4BNwDubuvpqdBgNBksWzVrK5Vm0ZctrcUCuJEmSpOGyC/go8O6mrm6ODqPBYsmiOUu5HA/8T+BXgdWxaSRJkiRpXrYDfwP8ubcFaa4sWTRvKZejgN8G/gdwRHAcSZIkSZqNe4H3Au9r6uq+6DAabJYs6pmUyxrg14HfB44LjiNJkiRJB/ID4M+ADzZ19XB0GA0HSxb1XMplBfCLwOuBk4PjSJIkSVK3m4B3Ax9r6mosOoyGiyWLFkzKZQnwCtohuWcEx5EkSZI02r4MvBP4bFNX/iKsBWHJokWRcnkB8IfAy6KzSJIkSRoZe4DPAu9q6urfo8No+FmyaFGlXE6lPUZ0PrA8OI4kSZKk4TQGXEpbrtwUHUajw5JFIVIuTwF+i/b653XBcSRJkiQNh63Ah2hvCvpBdBiNHksWhUq5rAJeS1u4PDc4jiRJkqTB9DXgfcBlTV3tiA6j0WXJor6Rcnku8Ju0R4lWBceRJEmS1N920B4Jen9TV1+LDiOBJYv6UMplHe0xot8AnhYcR5IkSVJ/+R7wV8CHmrraGh1G6mbJor6VclkKvIR2d8tLgaWxiSRJkiQFGQf+BXg/8LmmrsaD80jTsmTRQEi5PBV4HQ7KlSRJkkbJxCDbDzR1dVt0GOlgLFk0UByUK0mSJI0EB9lqIFmyaGClXBJt2eKgXEmSJGnwTQyyfV9TV010GGkuLFk08FIuR9IeI3odDsqVJEmSBs33gA/QDrK9LzqMNB+WLBoanUG5ZwMXAq8EVocGkiRJkrQ/jwCfAj4MXOkgWw0LSxYNpZTLYbSzWy4EzoxNI0mSJKnjGtpi5bKmrh4MziL1nCWLhl7K5UTasuWXgeNi00iSJEkjZwvw98CHm7q6JTqMtJAsWTQyOseJzmHyOJHDciVJkqSFsYPJ40BXeBxIo8KSRSMp5XI47a1EFwLPj00jSZIkDY2v0BYrlzZ19UBwFmnRWbJo5KVcTgL+G3ABcGxwHEmSJGnQ3AF8BPi7pq5ujg4jRbJkkTpSLsuAn6bd3XIeHieSJEmS9mcHsIl218q/NnW1OzaO1B8sWaRppFzW0t5OdD6wEVgam0iSJEkKNw5cDVxKezvQtuA8Ut+xZJEOIuXyRODVtKXLmcCS2ESSJEnSotlDe+3yZcAnmrr6UXAeqa9ZskizkHJZD7yGtnB5bnAcSZIkaaF8jbZY+XhTV5ujw0iDwpJFmqOUy9NoC5fzgdOC40iSJEnzdQPtUaCPN3X1vegw0iCyZJF6IOXyDNrdLa8FnhkcR5IkSZqpb9HuWLmsqavvRIeRBp0li9RjKZdTaHe3vAZ4enAcSZIkaW/fBT4OXNrU1U3RYaRhYskiLaCUywba3S2vAY6PTSNJkqQR9n3aYuWypq6uD84iDS1LFmmRpFx+Avg54Dw8UiRJkqSF9y1gE/BPTV39v+gw0iiwZJECpFwq2rLlPNproZfFJpIkSdIQ2E173fImYFNTVyU4jzRyLFmkYCmXxwMvpy1czgUOjU0kSZKkAfIwcDltsfKZpq7uDc4jjTRLFqmPpFxWA+fQFi4vB46JTSRJkqQ+dBfwGdpi5Yqmrh4JziOpw5JF6lMpl6XA85g8VnRSbCJJkiQFupnOMSDgq01djQfnkTQNSxZpQKRcTmSycDkDWBqbSJIkSQtoHLiWyfkqtwTnkTQDlizSAEq5HAX8bGf9FHBYbCJJkiT1wIPAF4BPA59u6uqe4DySZsmSRRpwKZfltDcUvbizNgBLQkNJkiRpJvYA1wOf76xrmroai40kaT4sWaQh09nlci5t4XIuDs+VJEnqJ3fR3gb0eeByd6tIw8WSRRpiKZclwOlM7nL5SWBFaChJkqTRsgv4MpO7Vb7R1JW/hElDypJFGiEplzW0M1wmSpcTYhNJkiQNpVuZLFW+0NTV9uA8khaJJYs0wlIuFZOFy1nAmthEkiRJA2k78EU6xUpTVyU4j6QgliySAEi5rKQ9TvRi2t0uG4BloaEkSZL6027agbVfoC1WvtzU1c7YSJL6gSWLpGmlXA4D/gvwos6ydJEkSaNqolS5qrP+vamrByMDSepPliySZqRTuryAydLl2Vi6SJKk4bQb+DqTpcqXLFUkzYQli6Q56SpdzmKydFkamUmSJGmOxpksVb6IpYqkObJkkdQTKZfDmdzpchbt1dGWLpIkqR+NA9+gLVSuoi1VHghNJGkoWLJIWhCd0mUjk8eLLF0kSVKUiVLlqs662lJF0kKwZJG0KFIua4EzgDM7z+fhldGSJGlhbAe+ClwLXANc29TVtthIkkaBJYukECmXZcAptKXLRPFyQmgoSZI0qG5lslC5BripqavdsZEkjSJLFkl9I+VyNJOFy5lAAlaFhpIkSf1mB9DQ2aECXNPU1d2xkSSpZckiqW+lXFbQ3lrUXbwcFxpKkiQtti10FSrA15u62hUbSZKmZ8kiaaCkXNYzWbicSTtQd0VoKEmS1Cu7aAfUThz7ubapq82xkSRp5ixZJA20lMtq4DmdlTrPZ+BNRpIk9btx4DvAdbTHf64Drmvq6pHQVJI0D5YskoZOyuVxtMeMntO1TsLiRZKkKOPAzXSKlM76elNXD4WmkqQes2SRNBIsXiRJWjQWKpJGliWLpJHVKV5OZ+pRI4sXSZJmrrtQmTjy8w0LFUmjypJFkrrsVbxMrGcAyyNzSZLUB8aYnKEysSxUJKmLJYskHUTKZSVwMnAKcGrXWh+ZS5KkBbQZuLFr3QR8u6mrnaGpJKnPWbJI0hylXNayb/FyCrA2MpckSbOwjbZAmVKoNHW1LTSVJA0oSxZJ6rGUy3omC5eJ8uVkYGVkLknSSNsJfJupO1NubOpqc2gqSRoyliyStAhSLsuBE5m66+VU4HhgSVwySdKQ2QN8n6k7U24EbmnqaiwwlySNBEsWSQrUGbR7Iu1w3ZO6nicChwZGkyT1t4eBW2hv9vlO1/MWB9FKUhxLFknqQymXJbSDdbvLl4nXxwVGkyQtri1MFijdZcrmpq78i7wk9RlLFkkaMJ3dL92ly8Tz6bj7RZIG0cPAd9l3V8p33JUiSYPFkkWShkRn98uTmVq+nAg8rfP+8rh0kjTyxoDbge/RHvPpLlNud1eKJA0HSxZJGgEpl2W0x4+eBjx1mufRcekkaWjcDdxGW6Ts/dzc1NXuwGySpEVgySJJmjiCNF35MvH0GJIktcd69lei3ObRHkmSJYsk6aBSLsew/xLmSXgUSdJwGAN+yP5LlLsCs0mSBoAliyRpXjpHkZ5Ae+tR91rf9fpYYEVURkkCdgF30N7WswXY3PV6Yt3pkR5J0nxYskiSFlzKZSnt3Jfu4mXvMuZJwMqojJIG2k7aHSj7K082A3c3dTUellCSNBIsWSRJfaFzO9JR7LsL5jjgicAxnbUOWBoUU9LiGge2And11o/YtzzZAtzj7TySpH5gySJJGiid40mPZ7J0Obrr9d5fH43HlKR+s4v2Fp6J4qT79d5f3+vxHUnSILFkkSQNtZTLEcyskDkKWBMUUxp024F7mEFx0tTV/VEhJUlaaJYskiR1pFxWAEd21hFdr/f33sTXa4FlAZGlXtoNbAPuA+7vPO/bz9dT3mvqaldEYEmS+o0liyRJ89SZJ3M4By5iJtZhwI/R7ppZ0/XakkbztZt2R8l/dp4Trx/kwIXJxNcPONdEkqT5sWSRJKkPpFxWMX35sr/XB/v+aixu+tlu4BGmL0UO9Hq/32/qasfi/itIkqS9WbJIkjSkUi7LgVXAIXs99/d6Lt9fQVvmLJ3mOd17c/3eUtqbZsZpC4ru53Tvzed7u4AdwKOdZ/fr6d6b9febuho70H87SZI0mP4/lPrVVNjRG50AAAAASUVORK5CYII=;" parent="1" vertex="1">
          <mxGeometry x="417.5" y="90" width="48.64" height="60" as="geometry" />
        </mxCell>
        <mxCell id="BJWZIvIbwDyXQehV0seY-19" value="malware DB AV" style="text;html=1;align=center;verticalAlign=middle;whiteSpace=wrap;rounded=0;" parent="1" vertex="1">
          <mxGeometry x="387.14" y="150" width="103.86" height="30" as="geometry" />
        </mxCell>
        <mxCell id="BJWZIvIbwDyXQehV0seY-21" value="APC Injection" style="text;html=1;align=center;verticalAlign=middle;whiteSpace=wrap;rounded=0;" parent="1" vertex="1">
          <mxGeometry x="327.5" y="490" width="90" height="30" as="geometry" />
        </mxCell>
        <mxCell id="BJWZIvIbwDyXQehV0seY-23" style="edgeStyle=orthogonalEdgeStyle;rounded=0;orthogonalLoop=1;jettySize=auto;html=1;exitX=0;exitY=0.5;exitDx=0;exitDy=0;" parent="1" source="BJWZIvIbwDyXQehV0seY-22" edge="1">
          <mxGeometry relative="1" as="geometry">
            <mxPoint x="460" y="380" as="targetPoint" />
          </mxGeometry>
        </mxCell>
        <mxCell id="BJWZIvIbwDyXQehV0seY-32" style="edgeStyle=orthogonalEdgeStyle;rounded=0;orthogonalLoop=1;jettySize=auto;html=1;exitX=1;exitY=0.5;exitDx=0;exitDy=0;entryX=0;entryY=0.5;entryDx=0;entryDy=0;" parent="1" source="BJWZIvIbwDyXQehV0seY-22" target="BJWZIvIbwDyXQehV0seY-33" edge="1">
          <mxGeometry relative="1" as="geometry">
            <mxPoint x="650" y="450" as="targetPoint" />
          </mxGeometry>
        </mxCell>
        <mxCell id="BJWZIvIbwDyXQehV0seY-22" value="" style="shape=image;verticalLabelPosition=bottom;labelBackgroundColor=default;verticalAlign=top;aspect=fixed;imageAspect=0;image=https://image.freepik.com/free-icon/dll-file-format-variant_318-45751.jpg;" parent="1" vertex="1">
          <mxGeometry x="491" y="420" width="61" height="61" as="geometry" />
        </mxCell>
        <mxCell id="BJWZIvIbwDyXQehV0seY-25" value="Nirvana Debugging" style="text;html=1;align=center;verticalAlign=middle;whiteSpace=wrap;rounded=0;" parent="1" vertex="1">
          <mxGeometry x="460.25" y="490" width="122.5" height="30" as="geometry" />
        </mxCell>
        <mxCell id="BJWZIvIbwDyXQehV0seY-28" style="edgeStyle=orthogonalEdgeStyle;rounded=0;orthogonalLoop=1;jettySize=auto;html=1;entryX=0;entryY=0.5;entryDx=0;entryDy=0;" parent="1" source="BJWZIvIbwDyXQehV0seY-26" target="BJWZIvIbwDyXQehV0seY-1" edge="1">
          <mxGeometry relative="1" as="geometry" />
        </mxCell>
        <mxCell id="BJWZIvIbwDyXQehV0seY-29" style="edgeStyle=orthogonalEdgeStyle;rounded=0;orthogonalLoop=1;jettySize=auto;html=1;exitX=1;exitY=0.5;exitDx=0;exitDy=0;" parent="1" source="BJWZIvIbwDyXQehV0seY-26" target="BJWZIvIbwDyXQehV0seY-22" edge="1">
          <mxGeometry relative="1" as="geometry">
            <Array as="points">
              <mxPoint x="280" y="451" />
              <mxPoint x="280" y="560" />
              <mxPoint x="522" y="560" />
            </Array>
          </mxGeometry>
        </mxCell>
        <mxCell id="BJWZIvIbwDyXQehV0seY-26" value="" style="shape=image;verticalLabelPosition=bottom;labelBackgroundColor=default;verticalAlign=top;aspect=fixed;imageAspect=0;image=data:image/jpeg,/9j/4AAQSkZJRgABAQEAAAAAAAD/4QAuRXhpZgAATU0AKgAAAAgAAkAAAAMAAAABAAoAAEABAAEAAAABAAAAAAAAAAD/2wBDAAoHBwkHBgoJCAkLCwoMDxkQDw4ODx4WFxIZJCAmJSMgIyIoLTkwKCo2KyIjMkQyNjs9QEBAJjBGS0U+Sjk/QD3/2wBDAQsLCw8NDx0QEB09KSMpPT09PT09PT09PT09PT09PT09PT09PT09PT09PT09PT09PT09PT09PT09PT09PT09PT3/wAARCAIyAdoDASIAAhEBAxEB/8QAHwAAAQUBAQEBAQEAAAAAAAAAAAECAwQFBgcICQoL/8QAtRAAAgEDAwIEAwUFBAQAAAF9AQIDAAQRBRIhMUEGE1FhByJxFDKBkaEII0KxwRVS0fAkM2JyggkKFhcYGRolJicoKSo0NTY3ODk6Q0RFRkdISUpTVFVWV1hZWmNkZWZnaGlqc3R1dnd4eXqDhIWGh4iJipKTlJWWl5iZmqKjpKWmp6ipqrKztLW2t7i5usLDxMXGx8jJytLT1NXW19jZ2uHi4+Tl5ufo6erx8vP09fb3+Pn6/8QAHwEAAwEBAQEBAQEBAQAAAAAAAAECAwQFBgcICQoL/8QAtREAAgECBAQDBAcFBAQAAQJ3AAECAxEEBSExBhJBUQdhcRMiMoEIFEKRobHBCSMzUvAVYnLRChYkNOEl8RcYGRomJygpKjU2Nzg5OkNERUZHSElKU1RVVldYWVpjZGVmZ2hpanN0dXZ3eHl6goOEhYaHiImKkpOUlZaXmJmaoqOkpaanqKmqsrO0tba3uLm6wsPExcbHyMnK0tPU1dbX2Nna4uPk5ebn6Onq8vP09fb3+Pn6/9oADAMBAAIRAxEAPwD2WiiigAooooAKKKKACqt/qFrpdnJdX08cFvGMtJI2AP8APpVfXNbsvDukT6lqEnlwRD8WPZQO5P8Anivmvxl421HxnqJmu38u1QnyLZT8sY/q3v8AyFAHoXif46BXaDw1aBwOPtVyDg/7qf1P5V5brniXVPEdyZ9UuRNIfRFXH5Csqum0P4eeJPEKLLY6ZIsDciaYiNCPbPX8M0AczRXpsXwH8RMgMl7piN/d8xz/AOy0/wD4UJr/AP0EdM/76k/+JoA8vor1D/hQmv8A/QR0z/vqT/4mj/hQmv8A/QR0z/vqT/4mgDy+ivUP+FCa/wD9BHTP++pP/iaP+FCa/wD9BHTP++pP/iaAPL6K9Q/4UJr/AP0EdM/76k/+Jo/4UJr/AP0EdM/76k/+JoA8vor1D/hQmv8A/QR0z/vqT/4mj/hQmv8A/QR0z/vqT/4mgDy+ivUP+FCa/wD9BHTP++pP/iaP+FCa/wD9BHTP++pP/iaAPL6K9Q/4UJr/AP0EdM/76k/+Jo/4UJr/AP0EdM/76k/+JoA8vor1D/hQmv8A/QR0z/vqT/4mj/hQmv8A/QR0z/vqT/4mgDy+ivUP+FCa/wD9BHTP++pP/iaP+FCa/wD9BHTP++pP/iaAPL6K9Q/4UJr/AP0EdM/76k/+Jo/4UJr/AP0EdM/76k/+JoA8vor1D/hQmv8A/QR0z/vqT/4mj/hQmv8A/QR0z/vqT/4mgDy+ivUP+FCa/wD9BHTP++pP/iaP+FCa/wD9BHTP++pP/iaAPL6K9Q/4UJr/AP0EdM/76k/+Jo/4UJr/AP0EdM/76k/+JoA8vor1D/hQmv8A/QR0z/vqT/4mj/hQmv8A/QR0z/vqT/4mgDy+ivUP+FCa/wD9BHTP++pP/iaP+FCa/wD9BHTP++pP/iaAPL6K9Q/4UJr/AP0EdM/76k/+JrK8T/CfVvCuhzapeXllLDEVUrEXLHc2B1UetAHCVv8AhHxZe+DtZF9ZLHICuyWJxxInXGex46j9RxWBRQB9YeF/FWneLdKW902XOOJYW4eJvQj+vQ1t18k6B4h1Hwzqcd/pc5ilXhgeVkXurDuP/wBYwea+jPBPjvT/ABlp++EiG+jA8+1Y/MvuPVff88UAdVRRRQAUUUUAFFFFABRRRQAUUUUAFFFFABRRRQAUUUUAFFFFABRRWB451o+H/Bup6hG22ZItkR9Hb5VP4Eg/hQB4l8WvGDeIvET2NtITp9gxjQA8SSdGb354HsM964SKJ5pVjiRndyFVVGSxPQCozk5PevV/gh4VS/1GfXrtN0VmfLtwRkGQjJb/AICCPxOe1AHTfD74T2mi28Wo6/ElzqTYZIXG5Lf8P4m9+g7etenUUUAFFFFABRRRQAUUUUAFFFFABRRRQAUUUUAFFFFABRRRQAUUUUAFFFFABRRRQAUUUUAFFFFABRRRQAUUUUAFcN8ZP+SbX/8A10i/9GLXc1w3xk/5Jtf/APXSL/0YtAHzbXovw/8AAdp418LaqC/kX8Ey/Z5+SBleVYdwfzHX2PnVe4/AD/kDax/18J/6CaAPHtZ0W+8P6nLYanAYbiM8qejDsQe4PqKj03UrvSb+K9sJ3guIjlJEOCP8R7HrX094t8G6d4x00218myZM+TcIPniP9Qe47+xr5x8UeFNR8I6q1lqMXB5imUfJKvqD/TqKAPdfh98SrXxdAlpelLbVkX5o84WbHVk/nt6j3Fd1XxzBNLbTJNBI0cqMGV0OCpHcEdK92+G/xWj1lYtK1+RYtR4WK4PCz+x9G/Q+x4oA9QooooAKKKKACiiigAooooAKKKKACiiigAooooAKKKKACvNPjrdGLwXbQj/lveqD9ArH+eK9Lryv4+f8ixpv/X5/7I1AHhFfTfwpsUsfh1pYUYaZWmY+pZj/AEwPwr5kr6n+Hf8AyT7RP+vVaAOkooooAKKKKACiiigAooooAKKKKACiiigAooooAKKKKACiiigAooooAKKKKACiiigAooooAKKKKACiiigAooooAK4b4yf8k2v/APrpF/6MWu5rhvjJ/wAk2v8A/rpF/wCjFoA+ba9x+AH/ACBtY/6+E/8AQTXh1e4/AD/kDax/18J/6CaAPWqy9e0Cw8S6bJYapAJYW5B6MjdmU9iP85rUooA+X/G3gLUPBmobZQ09hKT5N0owG/2W9G9u/auUr7A1HT7TVbKWzv4Unt5V2vG4yD/n1HSvnz4h/DS78JzPe2Ie40lzw+MtB/sv/wDFd++D1AOl+G/xb8rytI8TTEpwsF65+7/syH0/2vz9a9oVg4DKQVPQg9a+Na9K+HPxTm8OmPS9aZ59L6RydXt/8V9uo7elAH0DRUVtcw3ttHcWsqTQSqGSRDkMD3BqWgAooooAKKKKACiiigAooooAKKKKACiiigAryv4+f8ixpv8A1+f+yNXqleV/Hz/kWNN/6/P/AGRqAPCK+p/h3/yT7RP+vVa+WK+p/h3/AMk+0T/r1WgDpKKKKACiiigAooooAKKKKACiiigAooooAKKKKACiiigAooooAKKKKACiiigAooooAKKKKACiiigAooooAKKKKACuG+Mn/JNr/wD66Rf+jFrua4b4yf8AJNr/AP66Rf8AoxaAPm2vcfgB/wAgbWP+vhP/AEE14dXuPwA/5A2sf9fCf+gmgD1qiiigAqOaKO4ieKaNZI3BVkYZDA9iD1qSigDwb4kfCiTR2l1bw/G0un8tLbjloPceq/qPcdPLa+y68e+JHwkE5l1fwzCBLy09koxu/wBqMev+z37c8EA4vwB8R73wbcC3m3XOlSNmSDPMZ/vJ6H26H2PNfQ+k6vZ65p0V9ptws9tKPlZT09QfQj0NfIjKUYqwIYdQR0ro/BvjbUPBmoedaN5trIR59sx+WQf0Yev8xQB9TUVjeGvE+neKdLW90ybcvAkjb78Tf3WHY/oe1bNABRRRQAUUUUAFFFFABRRRQAUUUUAFeV/Hz/kWNN/6/P8A2Rq9Uryv4+f8ixpv/X5/7I1AHhFfU/w7/wCSfaJ/16rXyxX1P8O/+SfaJ/16rQB0lFFFABRRRQAUUUUAFFFFABRRRQAUUUUAFFFFABRRRQAUUUUAFFFFABRRRQAUUUUAFFFFABRRRQAUUUUAFFFFABXDfGT/AJJtf/8AXSL/ANGLXc1w3xk/5Jtf/wDXSL/0YtAHzbXuPwA/5A2sf9fCf+gmvDq9x+AH/IG1j/r4T/0E0AetUUUUAFFFFABRRRQB5t8RvhZD4jEmp6MqQaqOXTolx9fRvfv39a8DurWeyupLa6ieGeJirxuMFSOxFfYtcV4++HFl4ytzPFtttUjXEc+OHH91/Ue/Ue44oA8B8OeJtR8Laol9pcxjccOh5SRe6sO4/l1GDX0b4L8caf4z0/zbU+VdxgefbMctGfUeqn1/PBr5o1fSL3QtSlsdSt2guYj8yt3HqD3B9RSaVql5ouoxX2nXDwXMRyrqfzBHcex60AfX1FcR8P8A4kWnjC3W2uNltq0a/PDnCy4/iT29uo9xXb0AFFFFABRRRQAUUUUAFFFFABXlfx8/5FjTf+vz/wBkavVK8r+Pn/Isab/1+f8AsjUAeEV9T/Dv/kn2if8AXqtfLFfU/wAO/wDkn2if9eq0AdJRRRQAUUUUAFFFFABRRRQAUUUUAFFFFABRRRQAUUUUAFFFFABRRRQAUUUUAFFFFABRRRQAUUUUAFFFFABRRRQAVw3xk/5Jtf8A/XSL/wBGLXc1xnxbt2uPhvqe3rH5b49hIuf0zQB8z17j8AP+QNrH/Xwn/oJrw6vZ/gBfR7NZsWOJMxzKPUcg/lx+dAHslFFFABRRRQAUUUUAFFFFAHN+MfBWneM9O8m8Xy7mMHyLlR80Z/qPb+Rr5y8T+F9R8Kao1lqUW08mOVfuSr6qf6dR3r6xrI8ReGtO8UaY9jqkPmIeUccPG3ZlPY/z6HIoA+ULe5ltLmO4tpXimjYMjocFSOhBr3r4cfFSLX1j0rW3SHU/uxzdFuP8G9uh7eleT+NfA2oeDNQ8u5Uy2ch/cXKr8rj0Po3t+WRXMhipBBII7igD7Korxv4b/Fvd5WkeJp+eFgvXPX/ZkP8A7N+frXsgIIBHIPegAooooAKKKKACiiigAryv4+f8ixpv/X5/7I1eqV5X8fP+RY03/r8/9kagDwivqf4d/wDJPtE/69Vr5Yr6n+Hf/JPtE/69VoA6SiiigAooooAKKKKACiiigAooooAKKKKACiiigAooooAKKKKACiiigAooooAKKKKACiiigAooooAKKKKACiiigAqlrGmx6xo15p83Ed1C8RPpkYz/AFq7RQB8eX1nNp99PZ3CFJreRo5FPZgcH+Vavg3xLN4T8S22pRAui/JNGDjfGeo/kR7gV6R8aPAzmVvEumxFlIAvUQdMcCT8sA/QH1rxqgD6+0rU7TWdNhvrCZZbaZQyMv8AX0PbHartfLHhPxxq3g25L6dKHt5D+9tpOY39/Y+4/UV69o3xw8P3sSjU47jT5v4sr5ifgV5/MCgD0miuUHxP8IEAjXIPxRx/7LS/8LO8If8AQct/++X/AMKAOqorlf8AhZ3hD/oOW/8A3y/+FH/CzvCH/Qct/wDvl/8ACgDqqK5X/hZ3hD/oOW//AHy/+FH/AAs7wh/0HLf/AL5f/CgDqqK5X/hZ3hD/AKDlv/3y/wDhR/ws7wh/0HLf/vl/8KAN3VNLs9Z06Wx1C3Se2lGGRx+WD2PuOlfPPxB+G134PuGurXfc6TI3yTY+aLPRX/x6H2PFe0/8LO8If9By3/75f/Cop/iN4Lu4HguNYtZYZFKujxsQwPYgr0oA+Y69Q+G/xVl0MxaXr0jy6bwsU/Vrf2Pqv6jtkcVznjnSfDtpe/a/C+rQ3NpK3Nt82+E+2Ryv6j361yVAH2NBPFdQJPbyLLFIoZHQ5DA9CCOtS182/D74k3fhCdbW7L3Oku3zRZ+aLPVk/wDieh9jXsP/AAtrwd/0Fx/34k/+JoA7GiiigAooooAK8r+Pn/Isab/1+f8AsjV6pXlfx8/5FjTf+vz/ANkagDwivqf4d/8AJPtE/wCvVa+WK+p/h3/yT7RP+vVaAOkooooAKKKKACiiigAooooAKKKKACiiigAooooAKKKKACiiigAooooAKKKKACiiigAooooAKKKKACiiigAooooAKKKKAGuiSIySKGRhhlIyCK8V8e/BuWKWTUvC8fmQsd0liPvJ67PUf7PUds9K9sooA+OJopLeZopo3jkQ4ZHG0g+4PQ1HX1jrvhHQ/Eq/8TXToZ3xgS42yD/gQ5/CuE1D4C6RMxaw1O8tgedsirKB/I0AeE0V7Gf2fpMnHiBcds2n/wBnR/wz7L/0MCf+Ah/+LoA8cor2P/hn2X/oYE/8BD/8XR/wz7L/ANDAn/gIf/i6APHKK9j/AOGfZf8AoYE/8BD/APF0f8M+y/8AQwJ/4CH/AOLoA8cor2P/AIZ9l/6GBP8AwEP/AMXR/wAM+y/9DAn/AICH/wCLoA8cor2P/hn2X/oYE/8AAQ//ABdH/DPsv/QwJ/4CH/4ugDxyivY/+GfZf+hgT/wEP/xdc345+FzeCtEi1CTVFuxJOsOwQbMZVjnO4/3f1oA4Cil+X3o496APsqiiigAooooAK8r+Pn/Isab/ANfn/sjV6pXlfx8/5FjTf+vz/wBkagDwivqf4d/8k+0T/r1Wvlivqf4d/wDJPtE/69VoA6SiiigAooooAKKKKACiiigAooooAKKKKACiiigAooooAKKKKACiiigAooooAKKKKACiiigAooooAKKKKACiiigAooooAKKKKACiiigAooooAKKKKACiiigAooooAKKKKACvNPjv/wAiTa/9fyf+gPXpdeafHf8A5Em1/wCv5P8A0B6APn+iiigD7LooooAKKKKACvK/j5/yLGm/9fn/ALI1eqV5X8fP+RY03/r8/wDZGoA8Ir6n+Hf/ACT7RP8Ar1Wvlivqf4d/8k+0T/r1WgDpKKKKACiiigAooooAKKKKACiiigAooooAKKKKACiiigAooooAKKKKACiiigAooooAKKKKACiiigAooooAKKKKACiiigAooooAKKKKACiiigAooooAKKKKACiiigAooooAK80+O/8AyJNr/wBfyf8AoD16XXmnx3/5Em1/6/k/9AegD5/ooooA+y6KKKACiiigAryv4+f8ixpv/X5/7I1eqV5X8fP+RY03/r8/9kagDwivqf4d/wDJPtE/69Vr5Yr6n+Hf/JPtE/69VoA6SiiigAooooAKKKKACiiigAooooAKKKKACiiigAooooAKKKKACiiigAooooAKKKKACiiigAooooAKKKKACiiigAooooAKKKKACiiigAooooAKKKKACiiigAooooAKKKKACvNPjv8A8iTa/wDX8n/oD16XXmnx3/5Em1/6/k/9AegD5/ooooA+y6KKKACiiigAryv4+f8AIsab/wBfn/sjV6pXlfx8/wCRY03/AK/P/ZGoA8Ir6n+Hf/JPtE/69Vr5Yr6n+Hf/ACT7RP8Ar1WgDpKKKKACiiigAooooAKKKKACiiigAooooAKKKKACiiigAooooAKKKKACiiigAooooAKKKKACiiigAooooAKKKKACiiigAooooAKKKKACiiigAooooAKKKKACiiigAooooAK80+O//Ik2v/X8n/oD16XXmnx3/wCRJtf+v5P/AEB6APn+iiigD7LooooAKKKKACvK/j5/yLGm/wDX5/7I1eqVyXxC8Fy+NtLtbOG8S1ME3mlnjL5+UjHUetAHzDX1P8O/+SfaJ/16rXm3/DP93/0Hof8AwGP/AMVXrPhrSH0Hw7Y6Y8qzNaxCMyBdu7HtQBqUUUUAFFFFABRRRQAUUUUAFFFFABRRRQAUUUUAFFFFABRRRQAUUUUAFFFFABRRRQAUUUUAFFFFABRRRQAUUUUAFFFFABRRRQAUUUUAFFFFABRRRQAUUUUAFFFFABRRRQAV5p8d/wDkSbX/AK/k/wDQHr0uvNPjv/yJNr/1/J/6A9AHz/RRRQB9l0UUUAFFFFABRRRQAUUUUAFFFFABRRRQAUUUUAFFFFABRRRQAUUUUAFFFFABRRRQAUUUUAFFFFABRRRQAUUUUAFFFFABRRRQAUUUUAFFFFABRRRQAUUUUAFFFFABRRRQAUUUUAFFFFABRRRQAUUUUAFeafHf/kSbX/r+T/0B69LrzT47/wDIk2v/AF/J/wCgPQB8/wBFFFAH2XRRXmvxE+K0Xhx5NM0by7jUxxJI3KW5/wDZm9ug7+lAHfajq1jo9t9o1G8gtYv700gUH2Gep9hXHX3xn8J2blY7i5uiO8EBx/49ivn/AFPV77WrtrrU7uW5nb+ORs49h6D2HFUaAPoL/he3hn/n21T/AL8p/wDF0f8AC9vDP/Ptqn/flP8A4uvn2igD6C/4Xt4Z/wCfbVP+/Kf/ABdH/C9vDP8Az7ap/wB+U/8Ai6+faKAPoL/he3hn/n21T/vyn/xdH/C9vDP/AD7ap/35T/4uvn2igD6C/wCF7eGf+fbVP+/Kf/F0f8L28M/8+2qf9+U/+Lr59ooA+gv+F7eGf+fbVP8Avyn/AMXR/wAL28M/8+2qf9+U/wDi6+faKAPoL/he3hn/AJ9tU/78p/8AF0f8L28M/wDPtqn/AH5T/wCLr59ooA+gv+F7eGf+fbVP+/Kf/F0f8L28M/8APtqn/flP/i6+faKAPoL/AIXt4Z/59tU/78p/8XR/wvbwz/z7ap/35T/4uvn2igD6C/4Xt4Z/59tU/wC/Kf8AxdH/AAvbwz/z7ap/35T/AOLr59ooA+gv+F7eGf8An21T/vyn/wAXR/wvbwz/AM+2qf8AflP/AIuvn2igD6C/4Xt4Z/59tU/78p/8XR/wvbwz/wA+2qf9+U/+Lr59ooA+gv8Ahe3hn/n21T/vyn/xdH/C9vDP/Ptqn/flP/i6+faKAPoL/he3hn/n21T/AL8p/wDF0f8AC9vDP/Ptqn/flP8A4uvn2igD6C/4Xt4Z/wCfbVP+/Kf/ABdH/C9vDP8Az7ap/wB+U/8Ai6+faKAPoL/he3hn/n21T/vyn/xdH/C9vDP/AD7ap/35T/4uvn2igD6C/wCF7eGf+fbVP+/Kf/F0f8L28M/8+2qf9+U/+Lr59ooA+gv+F7eGf+fbVP8Avyn/AMXR/wAL28M/8+2qf9+U/wDi6+faKAPoL/he3hn/AJ9tU/78p/8AF0f8L28M/wDPtqn/AH5T/wCLr59ooA+gv+F7eGf+fbVP+/Kf/F0f8L28M/8APtqn/flP/i6+faKAPoL/AIXt4Z/59tU/78p/8XR/wvbwz/z7ap/35T/4uvn2igD6C/4Xt4Z/59tU/wC/Kf8AxdH/AAvbwz/z7ap/35T/AOLr59ooA+j7H4y+E71wsl1cWpPTz4SB+a5xXZWGpWWqWwuLC6huYT/HC4YfpXx9V/Sdb1DQr1bvS7uW2mX+JG4YehHQj2NAH15RXnXw8+Kdv4oKabqgS21THykfcn+no3t+XoPRaACiiigAooooAKKKKACvNPjv/wAiTa/9fyf+gPXpdeafHf8A5Em1/wCv5P8A0B6APn+iiigD6S+KXjRvCegCKzfGo3uUhI6xqPvP+GQB7n2r5vd2kcu7FmY5JJ5Jrp/iH4n/AOEr8VS3sRP2ZI0jhUn7oAyf/HiTXLUAFFFFABRRRQAUUUUAFFFFABRRRQAUUUUAFFFFABRRRQAUUUUAFFFFABRRRQAUUUUAFFFFABRRRQAUUUUAFFFFABRRRQAUUUUAFFFFABRRRQAUUUUAFFFFABRRRQBJDM8EySxOySIwZWU4KkcgivpX4a+Mf+Eu8OK1wy/2hakR3IH8X91/xAP4g9q+Zq7r4Q642k+O7aFmxBfg28gz3PK/juAH4mgD6RooooAKKKKACiiigArzT47/APIk2v8A1/J/6A9el15p8d/+RJtf+v5P/QHoA+f6KKKACiiigAooooAKKKKACiiigAqzBp93dIXt7WeVAcFo4ywz+FVq+gvgT/yI1x/1/P8A+gJQB4T/AGNqX/QPu/8Avw3+FH9jal/0D7v/AL8N/hX1/RQB8gf2NqX/AED7v/vw3+FH9jal/wBA+7/78N/hX1/RQB8gf2NqX/QPu/8Avw3+FH9jal/0D7v/AL8N/hX1/RQB8gf2NqX/AED7v/vw3+FH9jal/wBA+7/78N/hX1/RQB8fTabe28Zkms7iJB1Z4mUfmaq19KfGL/kmmpf78P8A6MWvmugByKzuFUFmJwAOpq1/Y2pf9A+7/wC/Df4VVVmRgykhgcgjqK+mfhp4uHizwzG87g6ha4huR3Y9n/4EB+YNAHzh/Y2pf9A+7/78N/hUVxZXNptNzbTQhvu+YhXP519iVzPj7wqni7wtPZKF+1x/vbZj2cdB9CMj8c0AfLVFPkjeGRo5FKOhKspHII7UygAooooAKKKKACrMGn3d0he2tZ5kBwWjjLDP4U7TdOuNW1GCys08y4uHEaL6k/096+qfC+gW/hjw/a6XbciFfnfH+sc8s34n8hgUAfK/9jal/wBA+7/78N/hSnR9RAJOn3YAGSTC3+FfX1eZfGPxn/YukDRbGXbe3y/vSp5jh6H8W5H0B9qAPAaKKKAJYbea5k8u3ieV/wC6ilj+lT/2NqX/AED7v/vw3+Fdr8Ev+ShR/wDXtL/SvoqgD5A/sbUv+gfd/wDfhv8ACj+xtS/6B93/AN+G/wAK+v6KAPkD+xtS/wCgfd/9+G/wo/sbUv8AoH3f/fhv8K+v6KAPkD+xtS/6B93/AN+G/wAKP7G1L/oH3f8A34b/AAr6/ooA+QP7G1L/AKB93/34b/Cj+xtS/wCgfd/9+G/wr6/ooA+NSpUkEEEdjSVa1T/kLXn/AF3f/wBCNVaACtHw/M1t4j0yZTho7uJgfowrOq3pH/IZsf8Ar4j/APQhQB9gUUUUAFFFFABRRRQAV5p8d/8AkSbX/r+T/wBAevS680+O/wDyJNr/ANfyf+gPQB8/0UUUAFFFFABRRRQAUUUUAFFFFABX0F8Cf+RGuP8Ar+f/ANASvn2voL4E/wDIjXH/AF/P/wCgJQB6TVDVtb07QrdJ9VvIrWJ22K8pwC2CcfkDV+vL/j3/AMilp/8A1/D/ANFvQB1n/CxfCf8A0HrL/vuj/hYvhP8A6D1l/wB918sUUAfU/wDwsXwn/wBB6y/77o/4WL4T/wCg9Zf9918sUUAfU/8AwsXwn/0HrL/vuj/hYvhP/oPWX/fdfLFFAHvXxP8AGPh/V/AV9Z6fq1tcXLtEVjRsk4kUn9AT+FeC0UUAFdN4B8Vv4R8Tw3hybST91coOcoe/1BwfwxXM0UAfY8MsdxCksLq8bqGVlPDA85FSV5T8E/GH2/Tn8P3kmbi0XfbEn70XdfqpP5H2r1agDwP40+Ev7L1pdbtI8Wt+2JgBwk3r/wACHP1DV5hX1t4j0O38SaDd6XdDCTphWxkow5Vh9Dg18q6np1xpGp3Gn3ibLi3cxuvuP6e/oaAKdFFFABRRW54Q8NzeK/ElrpsO5Uc7ppAP9XGPvH+n1IoA9N+CHg/ZHJ4kvI/mcGKzBHboz/8Aso+jV7FUFlZw6fZw2lrGI4IEEcaDoqgYAqegDO17WrXw9otzqd62IbdN2AeWPZR7k4H418q67rNz4g1q51O9bdNcPuIzwo7KPYDA/Cu8+MnjL+2tZ/sWxkzZWDnzSDxJL0P4LyPqT7V5nQAUUUUAeg/BP/koUf8A17S/0r6Kr51+Cf8AyUKP/r2l/pX0VQBHNNHbwvNMwSONSzMegA5zXP8A/CxfCf8A0HrL/vutXX/+Rd1L/r1l/wDQTXyHQB9T/wDCxfCf/Qesv++6P+Fi+E/+g9Zf9918sUUAfU//AAsXwn/0HrL/AL7o/wCFi+E/+g9Zf9918sUUAfU//CxfCf8A0HrL/vuj/hYvhP8A6D1l/wB918sUUAWdRdZdSunRgyNK7Kw7gmq1FFABVvSP+QzY/wDXxH/6EKqVb0j/AJDNj/18R/8AoQoA+wKKKKACiiigAooooAK80+O//Ik2v/X8n/oD16XXmnx3/wCRJtf+v5P/AEB6APn+iiigAooooAKKKKACiiigAooooAK+gvgT/wAiNcf9fz/+gJXz7X0F8Cf+RGuP+v5//QEoA9Jry/49/wDIpaf/ANfw/wDRb16hXl/x7/5FLT/+v4f+i3oA8EooooAKKKKACiiigAooooAKKKKAL+jarc6FrFrqVk+2e3cOvv6g+xGR9DX1XoGt23iLRLXU7M5iuE3bSclT0Kn3ByK+Ra9P+DHjD+ydYOh3kmLS+fMJJ4SboP8AvoYH1AoA98rx344eEd8cfiS0j+ZAIbsAduiv/wCy/itexVBfWUGpWM9ndIJIJ0McinuCMGgD47orZ8VeHZ/C3iG60y4yfKbMbkf6xDyrfiP1yKxqACvor4R+D/8AhHfDov7qPbf6gA7AjlI/4V9iep+oHavK/hZ4R/4SjxOj3Me7T7LEs+Rwx/hT8SM/QGvpWgAri/if4yHhPw4y20gGo3mY7cA8p/ef8AfzIrrbu7g0+0murqRYoIULyO3RVHJNfLXjTxPP4t8SXGoyblhzst4yf9XGOg+vUn3JoAwSxYkkkk9zSUUUAFFFFAHoPwT/AOShR/8AXtL/AEr6Kr51+Cf/ACUKP/r2l/pX0VQBQ1//AJF3Uv8Ar1l/9BNfIdfXmv8A/Iu6l/16y/8AoJr5DoAKKKKACiiigAooooAKKKKACrekf8hmx/6+I/8A0IVUq3pH/IZsf+viP/0IUAfYFFFFABRRRQAUUUUAFeafHf8A5Em1/wCv5P8A0B69LrzT47/8iTa/9fyf+gPQB8/0UUUAFFFFABRRRQAUUUUAFFFFABX0F8Cf+RGuP+v5/wD0BK+fa+gvgT/yI1x/1/P/AOgJQB6TXl/x7/5FLT/+v4f+i3r1CvL/AI9/8ilp/wD1/D/0W9AHglFFFABRRRQAUUUUAFFFFABRRRQAU5HaNw6MVdTkEHkGm0UAfT/w58Wr4t8MRTysPt1viG6X/aHRvow5+uR2rrK+X/h54ubwj4oiuZGb7FPiK6X/AGD/ABfVTz9MjvX07HIksavGwZGAKsDwQaAPOPjN4T/tjw+NXtUzd6cCXwOXh/i/756/TdXgCI0jhEUs7HAUDkmvsd0WVGR1DIwwVI4Irx/wz8L2034pXMs0ROlWBFzasw4ct9xc9ypB/FR60Ad38P8AwsvhPwpb2bAfa5P3tyw7yHqPoBgfhXT0Vz3jXxRD4R8OXGoSbWmI8u3jJ+/Ien4Dkn2FAHnXxt8Z5K+GrGTgYkvGU/iqfyJ/4D7141U93dTX11NdXUjSzzOXkdjyzHkmoKACiiigAooooA9B+Cf/ACUKP/r2l/pX0VXzr8E/+ShR/wDXtL/SvoqgChr/APyLupf9esv/AKCa+Q6+vNf/AORd1L/r1l/9BNfIdABRRRQAUUUUAFFFFABRRRQAVb0j/kM2P/XxH/6EKqVb0j/kM2P/AF8R/wDoQoA+wKKKKACiiigAooooAK80+O//ACJNr/1/J/6A9el15p8d/wDkSbX/AK/k/wDQHoA+f6KKKACiiigAooooAKKKKACiiigAr6C+BP8AyI1x/wBfz/8AoCV8+19BfAn/AJEa4/6/n/8AQEoA9JrH8SeF9N8V2UVpq0TyRRyeYoWQp82COo9ia2KKAOE/4Ux4Q/587j/wJf8Axo/4Ux4Q/wCfO4/8CX/xru6KAOE/4Ux4Q/587j/wJf8Axo/4Ux4Q/wCfO4/8CX/xru6KAOE/4Ux4Q/587j/wJf8Axo/4Ux4Q/wCfO4/8CX/xru6KAPmb4oeHdP8ADHitbDSo3jgNskhDOWO4ls8n6CuNr0X45f8AI+p/15x/+hNXnVABRRRQAUUUUAFe9fBbxh/amktoV5Jm6slzAWPLxen/AAE4H0IrwWuh8CjUj400v+xf+PzzhgnO3b/Fu/2duc+1AH1VRRRQAjEICzEADqSeBXzR8TfGJ8W+JG+zuTp1pmO3APDf3n/Ej8gK978a6bfav4Q1Ky0uYxXUsRC4/jHdPbcMjPvXym6NG5R1KspwQR0NADaKKKACiiigAooooA9B+Cf/ACUKP/r2l/pX0VXzr8E/+ShR/wDXtL/SvoqgCG6t47u1lt5gTHKhRwD1BGD/ADriv+FMeEP+fO4/8CX/AMa7uigDhP8AhTHhD/nzuP8AwJf/ABo/4Ux4Q/587j/wJf8Axru6KAOE/wCFMeEP+fO4/wDAl/8AGj/hTHhD/nzuP/Al/wDGu7ooA4T/AIUx4Q/587j/AMCX/wAa474ofDzQPC/hQX+l28sdwbhI9zTMwwQ2eD9BXtledfHH/kQl/wCvyP8Ak1AHzzRRRQAVb0j/AJDNj/18R/8AoQqpVvSP+QzY/wDXxH/6EKAPsCiiigAooooAKKKKACvNPjv/AMiTa/8AX8n/AKA9el15p8d/+RJtf+v5P/QHoA+f6KKKACiiigAooooAKKKKACiiigAr6C+BP/IjXH/X8/8A6AlfPtfQXwJ/5Ea4/wCv5/8A0BKAPSa86+NGrX+j+GLKbTbye0le8CM0MhQkbGOOO2QPyr0WvL/j3/yKWn/9fw/9FvQB5D/wnHif/oP6n/4Ev/jR/wAJx4n/AOg/qf8A4Ev/AI1hUUAbv/CceJ/+g/qf/gS/+NH/AAnHif8A6D+p/wDgS/8AjWFRQBu/8Jx4n/6D+p/+BL/40f8ACceJ/wDoP6n/AOBL/wCNYVFAFvUNUvdWuBcajdzXUwUL5kzl2wO2T25NVKKKACiiigAooooAK99+DHg7+yNHOt3keLy+X90COY4eo/764P0C15j8NvCDeLfE0ccyE2FtiW6PqOy/8CP6AmvppFWNAqgKo4AA4FADqKoazqtvoej3epXbYhtozI3bPoB7k4H1NeWfCf4gT6j4hv8ATdWly2oStdQEnhX7oPbaBgex9aAPYq8F+NHg7+ydXGu2ceLW+bEwA4SbqT/wIZP1Br3qs/XdGtvEGjXWmXq5huE2kgcqezD3BwfwoA+RKK0Nc0a58P6zdabertmt32kgcMOzD2IwfxrPoAKKKKACiiigD0H4J/8AJQo/+vaX+lfRVfOvwT/5KFH/ANe0v9K+iqAKOtyPDoWoSRuyOltIysvUEKcEV8v/APCceJ/+g/qf/gS/+NfT+v8A/Iu6l/16y/8AoJr5DoA3f+E48T/9B/U//Al/8aP+E48T/wDQf1P/AMCX/wAawqKAN3/hOPE//Qf1P/wJf/Gj/hOPE/8A0H9T/wDAl/8AGsKigDd/4TjxP/0H9T/8CX/xqtqHiXWdVtvs+o6reXUO4N5c0zOMjocE+5rLooAKKKKACrekf8hmx/6+I/8A0IVUq3pH/IZsf+viP/0IUAfYFFFFABRRRQAUUUUAFeafHf8A5Em1/wCv5P8A0B69LrzT47/8iTa/9fyf+gPQB8/0UUUAFFFFABRRRQAUUUUAFFFFABX0F8Cf+RGuP+v5/wD0BK+fa+gvgT/yI1x/1/P/AOgJQB6TXl/x7/5FLT/+v4f+i3r1CvL/AI9/8ilp/wD1/D/0W9AHglFFFABRRRQAUUUUAFFFFABRRRQAVJDDJcTJDCjPJIwVVUZLE8ACo69Y+Cng77dft4hvo8wWrbLUH+KTu30UfqfUUAemeAfCaeEfDMNmQpu5P3t045y57fQDj8M966eisXxX4ig8LeHrrU7jBMS4iQn/AFjn7q/if0BNAHl3xx8WCSeHw5aSfLGRNdkH+LHyp+AOfxWvJrS6msbqK6tpGjmhcPG46qwOQaW+vZ9Svp7y6kMk87mSRj3JOTVegD6t8GeJYPFnhq21KLasjDZPGD9yQfeH8iPYit6vm/4U+Mf+EY8Ri3upMadfERy5PCN/C/4E4Psc9q+kKAPLvjR4O/tXSRrtnHm6slxMFHLxev1U5P0JrwWvsl0WRCjqGRhggjgivmP4j+EG8I+JpIYlP2C5zLbMf7vdfqp4+mDQByVFFFABRRRQB6D8E/8AkoUf/XtL/SvoqvnX4J/8lCj/AOvaX+lfRVAFDX/+Rd1L/r1l/wDQTXyHX15r/wDyLupf9esv/oJr5DoAKKKKACiiigAooooAKKKKACrekf8AIZsf+viP/wBCFVKt6R/yGbH/AK+I/wD0IUAfYFFFFABRRRQAUUUUAFeafHf/AJEm1/6/k/8AQHr0uvNPjv8A8iTa/wDX8n/oD0AfP9FFFABRRRQAUUVp6DoN94j1eHTdOj3zy9z91F7sT2A/+t1oAzKK9/0j4G6Da2y/2pPc3twR8xV/LQfQDn8yaq+IPgZplxau+g3M1rdAZWOZt8be2eo+vP0oA8KoqzfWNxpt9NZ3kZiuIXKSIeoIqtQAV9BfAn/kRrj/AK/n/wDQEr59r6C+BP8AyI1x/wBfz/8AoCUAek15f8e/+RS0/wD6/h/6LevUK8v+Pf8AyKWn/wDX8P8A0W9AHglFFFABRRRQAUUUUAFFFFABRRRQBqeHNDufEmu2ul2g+edsFsZCL1LH2Aya+qtI0u20XSbbTrJNlvboI0Hf3J9ycn6muD+Dng/+xNDOr3iYvb9QUBHMcPUD/gXB+m2vSaACvnn4w+LzrviI6XayZstOYqcHh5ejH8Pu/gfWvWfiP4rHhTwrNPC4F7cZhth3DHq3/ARk/XAr5jZi5JJJJ6kmgBtFFFABX0V8IvGB8Q+HvsF3Juv9PARiTy8f8Le57H6A96+da3PCHiSfwp4jttThyyIds0YOPMjP3l/r9QDQB9X1y/j/AMJp4v8ADMtqgUXkWZbVz2cds+hHH4g9q6GyvIdQs4bu1kWSCdBJG46MpGQanoA+OJongmeKZGSRGKsrDkEcYNR16v8AGrwcLLUF8Q2UeLe6bZdAfwydm+jD9R6mvKKACiiigD0H4J/8lCj/AOvaX+lfRVfOvwT/AOShR/8AXtL/AEr6KoAoa/8A8i7qX/XrL/6Ca+Q6+vNf/wCRd1L/AK9Zf/QTXyHQAUUUUAFFFFABRRRQAUUUUAFW9I/5DNj/ANfEf/oQqpVvSP8AkM2P/XxH/wChCgD7AooooAKKKKACiiigArzT47/8iTa/9fyf+gPXpdeafHf/AJEm1/6/k/8AQHoA+f6KKKACiiigAr274B6bENN1TUioMzyrbhj2ULuP5lh+QrxGvY/gNrkMbaho0rhZZGFxCCfvYGGH5BT9M0Ae0UUUUAeCfHfTorbxRZXsShXu7fEmO7IcZ/IgfhXl9ei/GvXIdU8YJZ27hk0+LynI6eYTlh+HA+oNedUAFfQXwJ/5Ea4/6/n/APQEr59r6C+BP/IjXH/X8/8A6AlAHpNYHi7whY+MtPhstRluI44pvOUwMAScEdwf7xrfooA8z/4UP4c/5/NU/wC/qf8AxFH/AAofw5/z+ap/39T/AOIr0yigDzP/AIUP4c/5/NU/7+p/8RR/wofw5/z+ap/39T/4ivTKKAPM/wDhQ/hz/n81T/v6n/xFH/Ch/Dn/AD+ap/39T/4ivTKKAPM/+FD+HP8An81T/v6n/wARXh+uWUem69qFlCWaO2uZIUZjyQrEDPvxX15XyV4s/wCRw1r/AK/p/wD0Y1AGTXZ/DHwefFniZPtCE6dZ4luCRw391PxI/IGuRt4Jbu4jgt42kllYIiKMlmPAA/GvqPwN4Vj8I+GrexAU3LfvLlx/FIev4DgD2FAHRBQoAAAA4wKXpyaK4D4u+LP+Ef8ADBsrZ8X2ogxrg8pH/G35HH457UAeS/E7xZ/wlXiqVoH3WNpmG3weGwfmf8T+gFcbRRQAUUUUAFFFFAHtXwQ8X+ZFJ4bvJPmQGW0JPVerJ+HX8W9K9hr5A03ULjSNSt7+zcx3Fu4kRvcf09vQ19U+Gddt/Eug2uqWuAs65dM52OOGU/Q5/nQBZ1fS7bWtJudOvU329whjcd/Yj3BwfqK+VfEeh3PhvXbrS7sfPA2A2MB16hh7EYNfW9ebfGPwf/behjV7NP8ATbBSXAHMkPUj/gPJ+m6gD59ooooA9B+Cf/JQo/8Ar2l/pX0VXzr8E/8AkoUf/XtL/SvoqgCC8tlvbKe2kJCTxtGxU8gEYOPzrzr/AIUP4c/5/NU/7+p/8RXplFAHmf8Awofw5/z+ap/39T/4ij/hQ/hz/n81T/v6n/xFemUUAeZ/8KH8Of8AP5qn/f1P/iKP+FD+HP8An81T/v6n/wARXplFAHmf/Ch/Dn/P5qn/AH9T/wCIo/4UP4c/5/NU/wC/qf8AxFemUUAfNnxO8GWHgvU7K306W4kSeEyMZmBIIOOMAVw9er/H7/kPaV/17N/6FXlFABVvSP8AkM2P/XxH/wChCqlW9I/5DNj/ANfEf/oQoA+wKKKKACiiigAooooAK80+O/8AyJNr/wBfyf8AoD16XXmnx3/5Em1/6/k/9AegD5/ooooAKK6Dxr4bfwp4mn005Maqjxv/AHgV6/nkfhXP0AFT2V5cafdxXVnM8M8TbkkQ4KmoKKAPW9I+PV7b2wj1bSo7qUDHmwy+WW+q4I/LH0qrr/xy1XUbV7fSbOPTg4wZS/mSD6cAA++DXl1FADndpHLuxZmOSSeSabRRQAV0Wg+PPEHhmxaz0m9EFu0hkK+Sj5YgAnJB7AVztFAHaf8AC3/GX/QWX/wGi/8AiaP+Fv8AjL/oLL/4DRf/ABNcXRQB2n/C3/GX/QWX/wABov8A4mj/AIW/4y/6Cy/+A0X/AMTXF0UAdp/wt/xl/wBBZf8AwGi/+Jo/4W/4y/6Cy/8AgNF/8TXF0UAdp/wt/wAZf9BZf/AaL/4mj/hb/jL/AKCy/wDgNF/8TXF0UAdp/wALf8Zf9BZf/AaL/wCJrkry7lvrye7uG3zTu0kjYxlick8epJqCigC7pOq3eialFf6e6x3MJJjZkV9pIxnBBHeun/4W/wCMv+gsv/gNF/8AE1xdFAHaf8Lf8Zf9BZf/AAGi/wDia57XfEOpeJL4XmrXJuJwgQEqFAUdgAMDqfzrMooAKKKKACiiigAooooAK6DQPG2veF7aW30e/MEMr+YyGNXG7GM/MDjjHT0Fc/RQB2n/AAt/xl/0Fl/8Bov/AImg/F3xiQQdVUg9QbaL/wCJri6KAHyP5sjOQoLEkhRgD8O1MoooA0dE17UPDmoC+0qcQXIUoGKK3B68EEV0f/C3/GX/AEFl/wDAaL/4muLooA7T/hb/AIy/6Cy/+A0X/wATR/wt/wAZf9BZf/AaL/4muLooA7T/AIW/4y/6Cy/+A0X/AMTR/wALf8Zf9BZf/AaL/wCJri6KAO0/4W/4y/6Cy/8AgNF/8TR/wt/xl/0Fl/8AAaL/AOJri6KAO0/4W/4y/wCgsv8A4DRf/E0f8Lf8Zf8AQWX/AMBov/ia4uigDY8QeKdW8U3EM2sXIuJIVKIRGqYHX+ECseiigAq/oURm1/To1GS91GoH1YVQrs/hTo7ax4+sDtzFaE3Uhx029P8Ax4rQB9MUUUUAFFFFABRRRQAV5p8d/wDkSbX/AK/k/wDQHr0uvNPjv/yJNr/1/J/6A9AHz/RRRQB9C/F/wa3iHRF1KxjLX9gCdqjJli6kD1I6j8R1NfPVfZdeP/Eb4RvdzS6v4ajHmuS81mOAx7snv/s/l6UAeKUVLPBLbTPDPE8UqHayOpDKfcHpUVABRRRQAUUUUAFFFFABRRRQAUUUUAFFFFABRRRQAUUUUAFFFFABRRRQAUUUUAFFFFABRRRQAUUUUAFFFFABRRRQAUUUUAFFFFABRRRQAUUUUAFFFFABRRU1raz3tylvawyTTSHascalmY+wFAEIycDvX0d8J/Br+GPD5ub1Nmo32HkUjmNP4V+vJJ9zjtWJ8OPhN/Zc0Or+IkVrtCGgteoiPZm9WHp0HXk9PWKACiiigAooooAKKKKACvNPjv8A8iTa/wDX8n/oD16XXmnx3/5Em1/6/k/9AegD5/ooooA+y6KKKAMXXvCGieJUxq2nxTuBgS8rIPow5x7dK4a++AujysWstTvbcH+F1WQD+Vep0UAePf8ADPsP/QwSf+Ag/wDi6T/hn2H/AKGCT/wEH/xdexUUAeO/8M+w/wDQwSf+Ag/+Lo/4Z9h/6GCT/wABB/8AF17FRQB47/wz7D/0MEn/AICD/wCLo/4Z9h/6GCT/AMBB/wDF17FRQB47/wAM+w/9DBJ/4CD/AOLo/wCGfYf+hgk/8BB/8XXsVFAHjv8Awz7D/wBDBJ/4CD/4uj/hn2H/AKGCT/wEH/xdexUUAeO/8M+w/wDQwSf+Ag/+Lo/4Z9h/6GCT/wABB/8AF17FRQB47/wz7D/0MEn/AICD/wCLo/4Z9h/6GCT/AMBB/wDF17FRQB47/wAM+w/9DBJ/4CD/AOLo/wCGfYf+hgk/8BB/8XXsVFAHjv8Awz7D/wBDBJ/4CD/4uj/hn2H/AKGCT/wEH/xdexUUAeO/8M+w/wDQwSf+Ag/+Lo/4Z9h/6GCT/wABB/8AF17FRQB47/wz7D/0MEn/AICD/wCLo/4Z9h/6GCT/AMBB/wDF17FRQB47/wAM+w/9DBJ/4CD/AOLo/wCGfYf+hgk/8BB/8XXsVFAHjv8Awz7D/wBDBJ/4CD/4uj/hn2H/AKGCT/wEH/xdexUUAeO/8M+w/wDQwSf+Ag/+Lo/4Z9h/6GCT/wABB/8AF17FRQB47/wz7D/0MEn/AICD/wCLo/4Z9h/6GCT/AMBB/wDF17FRQB47/wAM+w/9DBJ/4CD/AOLo/wCGfYf+hgk/8BB/8XXsVFAHjv8Awz7D/wBDBJ/4CD/4uj/hn2H/AKGCT/wEH/xdexUUAeO/8M+w/wDQwSf+Ag/+Lo/4Z9h/6GCT/wABB/8AF17FRQB47/wz7D/0MEn/AICD/wCLo/4Z9h/6GCT/AMBB/wDF17FRQB47/wAM+w/9DBJ/4CD/AOLo/wCGfYf+hgk/8BB/8XXsVFAHjv8Awz7D/wBDBJ/4CD/4ul/4Z9h7+IJP/AQf/F17DRQB5bYfAbRYHDX2oXtyB/CoWMH+Z/Wu70Pwro3huPZpOnxW5IwZAMu31Y8mteigAooooAKKKKACiiigAooooAK80+O//Ik2v/X8n/oD16XXmnx3/wCRJtf+v5P/AEB6APn+iiigD7LooooAKKKKACiivOfjRrGo6L4esJtMvZ7SR7razQuVJG1jjj6UAejUV8qf8J74o/6D+pf+BDV9GeBrqe+8E6Rc3czzTy26s8jnLMfc0Ab9FFFABRRRQAUUUUAFFFFABRRRQAUUUUAFFFFABRRRQAUUUUAFFFFABRRRQAUUUUAFFFFABRRRQAUUUUAFFFFABRRRQAUUUUAFFFFABRRRQAUUUUAFFFFABRRRQAUUUUAFeafHf/kSbX/r+T/0B69LrzT47/8AIk2v/X8n/oD0AfP9FFFAH2XRRRQAUUUUAFeV/Hz/AJFjTf8Ar8/9kavVK8r+Pn/Isab/ANfn/sjUAeEV9T/Dv/kn2if9eq18sV9T/Dv/AJJ9on/XqtAHSUUUUAFFFFABRRRQAUUUUAFFFFABRRRQAUUUUAFFFFABRRRQAUUUUAFFFFABRRRQAUUUUAFFFFABRRRQAUUUUAFFFFABRRRQAUUUUAFFFFABRRRQAUUUUAFFFFABRRRQAV5p8d/+RJtf+v5P/QHr0uvNPjv/AMiTa/8AX8n/AKA9AHz/AEUUUAfZdFFFABRRRQAV5X8fP+RY03/r8/8AZGr1SvK/j5/yLGm/9fn/ALI1AHhFfU/w7/5J9on/AF6rXyxX1P8ADv8A5J9on/XqtAHSUUUUAFFFFABRRRQAUUUUAFFFFABRRRQAUUUUAFFFFABRRRQAUUUUAFFFFABRRRQAUUUUAFFFFABRRRQAUUUUAFFFFABRRRQAUUUUAFFFFABRRRQAUUUUAFFFFABRRRQAV5p8d/8AkSbX/r+T/wBAevS680+O/wDyJNr/ANfyf+gPQB8/0UUUAfZdFFFABRRRQAV5X8fP+RY03/r8/wDZGr1SvK/j5/yLGm/9fn/sjUAeEV9T/Dv/AJJ9on/XqtfLFfU/w7/5J9on/XqtAHSUUUUAFFFFABRRRQAUUUUAFFFFABRRRQAUUUUAFFFFABRRRQAUUUUAFFFFABRRRQAUUUUAFFFFABRRRQAUUUUAFFFFABRRRQAUUUUAFFFFABRRRQAUUUUAFFFFABRRRQAV5p8d/wDkSbX/AK/k/wDQHr0uvNPjv/yJNr/1/J/6A9AHz/RRRQB9l0UUUAFFFFABXlfx8/5FjTf+vz/2Rq9Ury/49RM3hGwkA4S9AP4o/wDhQB4JX1P8O/8Akn2if9eq18sV9RfDOdbn4d6MykELDsP1Viv9KAOpooooAKKKKACiiigAooooAKKKKACiiigAooooAKKKKACiiigAooooAKKKKACiiigAooooAKKKKACiiigAooooAKKKKACiiigAooooAKKKKACiiigAooooAKKKKACiiigArzT47/8AIk2v/X8n/oD16XXl3x6uFXwpp8GfmkvAwHsqN/8AFCgDwWiiigD7LooooAKKKKACuQ+Kektq/wAP9RSNS0luouFAH9w5P/jua6+muiyoyOoZGGCD3FAHxtXuHwJ8RJPpt3oMzASwMbiEE9UbhgPo2D/wKvMvHXhiTwn4oubAqfs5PmWzH+KMnj8RyPqKy9F1i60DVrfUrCTZcQNuU9j6g+oIyPxoA+vKK5zwf4y07xlpi3Fm4S4QDz7Zm+aI/wBQex/keK6OgAooooAKKKKACiiigAooooAKKKKACiiigAooooAKKKKACiiigAooooAKKKKACiiigAooooAKKKKACiiigAooooAKKKKACiiigAooooAKKKKACiiigAooooAKKKKACvnz41+Ik1bxTHp1u+6HTUKMQf8Alq3LfkAB9Qa9G+I/xHt/Ctk9lYyLLrEq4VQciAH+Jvf0H49K+dZJHlkaSVi7uSzMxyST3NAC28El1cxW8ClpZXEaKO5JwP1r3f8A4UrY/wDPcflXGfBnws2r+JP7XnQ/ZNOO5SRw0x+6Pw6+3y+tfQVABRRRQAUUUUAFFFFAHK+PfBUHjTRDASsd9Bl7aYj7p7qf9k4H5A9q+atU0y70fUJbK/gaG4iOHRh0/wAR7jrX1/XN+L/A2leMrQJfRmO5QfubmMfOnt7j2P4YPNAHzJp2p3ekXqXen3ElvcJ92SM4P/1x7GvTtD+PF7BGsWuacl1jgzQN5bfip4P4YrmfE3wt8Q+G2eQWzX9oOk9spbA/2l6r+o964wgqSCCCOxoA+gY/jr4ZZAZLbU0b08pD/wCzU/8A4Xn4X/55al/34X/4qvnqigD6F/4Xn4X/AOeWpf8Afhf/AIqj/hefhf8A55al/wB+F/8Aiq+eqKAPoX/hefhf/nlqX/fhf/iqP+F5+F/+eWpf9+F/+Kr56ooA+hf+F5+F/wDnlqX/AH4X/wCKo/4Xn4X/AOeWpf8Afhf/AIqvnqigD6F/4Xn4X/55al/34X/4qj/hefhf/nlqX/fhf/iq+eqKAPoX/hefhf8A55al/wB+F/8AiqP+F5+F/wDnlqX/AH4X/wCKr56ooA+hf+F5+F/+eWpf9+F/+Ko/4Xn4X/55al/34X/4qvnqigD6F/4Xn4X/AOeWpf8Afhf/AIqj/hefhf8A55al/wB+F/8Aiq+eqKAPoX/hefhf/nlqX/fhf/iqP+F5+F/+eWpf9+F/+Kr56ooA+hf+F5+F/wDnlqX/AH4X/wCKo/4Xn4X/AOeWpf8Afhf/AIqvnqigD6F/4Xn4X/55al/34X/4qj/hefhf/nlqX/fhf/iq+eqKAPoX/hefhf8A55al/wB+F/8AiqP+F5+F/wDnlqX/AH4X/wCKr56ooA+hf+F5+F/+eWpf9+F/+Ko/4Xn4X/55al/34X/4qvnqigD6F/4Xn4X/AOeWpf8Afhf/AIqj/hefhf8A55al/wB+F/8Aiq+eqKAPoX/hefhf/nlqX/fhf/iqP+F5+F/+eWpf9+F/+Kr56ooA+hf+F5+F/wDnlqX/AH4X/wCKo/4Xn4X/AOeWpf8Afhf/AIqvnqigD6F/4Xn4X/55al/34X/4qj/hefhf/nlqX/fhf/iq+eqKAPoX/hefhf8A55al/wB+F/8AiqP+F5+F/wDnlqX/AH4X/wCKr56ooA+hf+F5+F/+eWpf9+F/+Ko/4Xn4X/55al/34X/4qvnqigD6F/4Xn4X/AOeWpf8Afhf/AIqj/hefhf8A55al/wB+F/8Aiq+eqKAPoX/hefhf/nlqX/fhf/iqP+F5+F/+eWpf9+F/+Kr56ooA+hf+F5+F/wDnlqX/AH4X/wCKo/4Xn4X/AOeWpf8Afhf/AIqvnqigD3+5+O/h2NM29nqUz+hjRR+e6uL8R/G3WdUjaDSYU0yE8F1bfKf+BHgfgM+9eaVJBBLczLFDG8sjHCqilifwFABLM80rSSuzyOcszHJJ9Sa2PCvha/8AFurpY2CccGWYj5Yl9T/h3rqvCnwb1nWXSbWFbTLPqQ4/fP8ARf4fqfyNe46D4e07w1py2Ol2whhH3j1Zz6se5oAXQNCtPDmjW+mWCbYoRy3dz3Y+5P8Ah0rToooAWiiigAooooAKKKKACiiigAr55+Mv/IzN9aKKAPOaKKKACiiigAooooAKKKKACiiigAooooAKKKKACiiigAooooAKKKKACiiigAooooAKKKKACiiigAooooAKKKKACiiigAooooAKKKKACiiigAooooAKKKKACvb/AIHf8e0/0oooA9dooooAKKKKAP/Z;" parent="1" vertex="1">
          <mxGeometry x="153" y="418.49" width="54" height="64.02" as="geometry" />
        </mxCell>
        <mxCell id="BJWZIvIbwDyXQehV0seY-27" value="malware analysis" style="text;html=1;align=center;verticalAlign=middle;whiteSpace=wrap;rounded=0;" parent="1" vertex="1">
          <mxGeometry x="147" y="490" width="60" height="30" as="geometry" />
        </mxCell>
        <mxCell id="BJWZIvIbwDyXQehV0seY-31" value="data pipe" style="text;html=1;align=center;verticalAlign=middle;whiteSpace=wrap;rounded=0;" parent="1" vertex="1">
          <mxGeometry x="290" y="334.02" width="60" height="30" as="geometry" />
        </mxCell>
        <mxCell id="BJWZIvIbwDyXQehV0seY-37" style="edgeStyle=orthogonalEdgeStyle;rounded=0;orthogonalLoop=1;jettySize=auto;html=1;exitX=0.5;exitY=0;exitDx=0;exitDy=0;entryX=0;entryY=0.5;entryDx=0;entryDy=0;" parent="1" source="BJWZIvIbwDyXQehV0seY-33" target="BJWZIvIbwDyXQehV0seY-36" edge="1">
          <mxGeometry relative="1" as="geometry" />
        </mxCell>
        <mxCell id="BJWZIvIbwDyXQehV0seY-33" value="" style="shape=image;verticalLabelPosition=bottom;labelBackgroundColor=default;verticalAlign=top;aspect=fixed;imageAspect=0;image=data:image/jpeg,iVBORw0KGgoAAAANSUhEUgAABFkAAAVdCAYAAAAse5acAAAABHNCSVQICAgIfAhkiAAAAAlwSFlzAAAuIAAALiAB1RweGwAAABl0RVh0U29mdHdhcmUAd3d3Lmlua3NjYXBlLm9yZ5vuPBoAACAASURBVHic7N13uGVlff7/9wwz1KGDCAKiLBAEROFBBSKKUmILkqAYExXbsrfEkmiMmgSTiMbERNHHRFHzVTEaQqI/BQsIEVQWWABBebAAQToIQ532+2Pt4Uw5M3P6Z62936/rWtc+c2bm7NsLp3zuecq8FStWIEmShk/KZQGwKbDJGq/r+ngq378Q2AiYP87reJ+b6vfNB5YPnmVrvI73uel83xLgPuD+weuqH4/3uUl/f1NXS9f3306SJPXTPEsWSZLipVw2BbYEFg2eDX28oe/fjLagUDctA+4FFgN3DV4n8vE6v7+pq/vm9n+CJElakyWLJEnTlHKZB2wNbAdsO3jdbh3f3orxSxELEU3XMsYvYu4EblvluX0d3/5tU1f+xVCSpGmwZJEkaSDlspB1lyPrK1C2wZJE/bcMuIP1FzHjfq6pqyURgSVJ6hpLFknSUEu5bAvsNHgessrHa357R9oVJZImbzFwM3Dj4LlplY9X+3ZTV7dHhZQkabZZskiSeiXlshGwAxMrTh5CezCrpO5YwuolzDoLGeCWpq6WBeWUJGnSLFkkSZ0wONdkR2BXYLfB68pnZ8aKk+1pb5qRNPyWA7cyVrr8BrhulefawevNnicjSeoCSxZJ0qxLucynXVWyZnmyaqHyMGDjqIySeu0B4P9YvXhZs4y5qamr5WEJJUkjwZJFkjQtg+07D2Xd5cmuwC64bUdSrCXA9ay9CmbV5wa3J0mSpsOSRZK0QSmXnYBHAI8c5/VhwIK4dJI0Y5bSroj5BfDLNV+buroxMJskqQcsWSRJpFy2YN0lyiOAzePSSVJn3MM45QtjJczdgdkkSR1gySJJI2CwpWc31l2iPCQunSQNjZtYdwlzrVuRJGn4WbJI0pAY3M6zO/AoYJ/B6960RcruuKVHkiItBa6hLVx+DvwMuHLweo23I0nScLBkkaSeGWzteRSrlyn7AHvhth5J6qN7gKsYK11Wvv7MLUiS1C+WLJLUQYNVKbuxepGy8uNdA6NJkubWdaxSuqzy8bWufpGk7rFkkaRAg1Upe7P2qpS9cVWKJGnd7qHddrTm6pefu/pFkuJYskjSHEi5LKAtTg5Y49kDmBeXTJI0ZFYAvwIuXeP5eVNXSwNzSdJIsGSRpBmWctmNtkDZn7EyZV9g48hckqSR9gBwBWOly2XApU1dXRuaSpKGjCWLJE1RymUbVi9SVhYr20TmkiRpEu5gULis8lzW1NUdoakkqacsWSRpA1IuG9OuRFmzUNktMpckSbPoWtYoXoArmrp6IDSVJHWcJYskrWJwEO1jgYNXeR4FLIjMJUlSByylPVz34lWeH3nQriSNsWSRNLLWKFTS4HUfYH5kLkmSemQ57c1GFwMNFi+SRpwli6SRMChUHsfqK1QsVCRJmnmrFi8rnx9avEgaBZYskoaOhYokSZ1j8SJpJFiySOq1lMtmjBUpK7f8PAoLFUmSum45Y2e8rNxqdHFTV/eGppKkabBkkdQrKZfdgEOBwwbPY4GFoaEkSdJMWQL8CLhg8FzY1NW1sZEkaeIsWSR1VsplIe22n8MYK1Z2DQ0lSZLm2nUMCpfB6w+buloSG0mSxmfJIqkzUi4PYfVCJQGbhoaSJEldcx/t9qIHi5emrm6KjSRJLUsWSSFSLhsB+zO27edQYM/QUJIkqa+uZmylywXAZU1dLYuNJGkUWbJImhMpl20YW6FyKPAEYFFoKEmSNKwWA99nrHi5sKmrO2IjSRoFliySZkXKZWvgCOApg+exeOOPJEmKsZz2QN1zB895TV39NjKQpOFkySJpRgxKlSfRFipHYqkiSZK6a2Xpcg5t6XK+pYukmWDJImlKUi5b0ZYqR9IWK4/DUkWSJPXTcuCHtIXLObSly52hiST1kiWLpAlZpVR5CmOlykaBkSRJkmbLMsZKl3OxdJE0QZYsksY1KFV+h7FS5SAsVSRJ0mhaBlzCWOnyv5YuksZjySIJgJTLxsDhwLHAU7FUkSRJWpeVpcu3gbOA7zZ19UBsJEldYMkijbCUS0VbqhxLe7aKVypLkiRN3mLas1zOAs5q6qoE55EUxJJFGiEpl0W0q1RWFit7xiaSJEkaSlczKFyAbzd1tTg4j6Q5YskiDbGUyzzaq5RXliqHAwtDQ0mSJI2WJcB3GStdftTUlUOYNKQsWaQhk3LZETiGtlQ5BtgpNpEkSZJWcSNwNm3hcnZTVzcH55E0gyxZpJ5LuSwADmNstcpBwLzQUJIkSZqIFbQH6K5c5XJBU1dLYyNJmg5LFqmHBqtVnj14ngpsFZtIkiRJM+BO2huL/gf4H1e5SP1jySL1RMplb+C4wXMoMD82kSRJkmbRcuBC4EzgzKaufh6cR9IEWLJIHZVymQ88gbFiZZ/YRJIkSQp0JYPCBfh+U1fLg/NIGocli9QhKZfNgKNoS5Vn4aG1kiRJWtuNwFdoC5dvNnV1b3AeSQOWLFKwlMsOtIXKcbS3AW0em0iSJEk9cg/tbUVnAl9p6uqW4DzSSLNkkQKkXCrGtgEdBmwUm0iSJElDYBlwAWPnuJTgPNLIsWSR5kjK5fHAc2iLlUcHx5EkSdLw+ylt4fJfTV39IDqMNAosWaRZlHI5CDgReB6wR2waSZIkjbBfAV8ETm/q6pLgLNLQsmSRZljKZX/g+bTFyl7BcSRJkqQ1XUVbuHyhqavLosNIw8SSRZoBKZdH0a5YORG3AkmSJKk/fgqcTrvC5WfRYaS+s2SRpijl8kja1SrPBw4MjiNJkiRN14+BLwBfbOrqF9FhpD6yZJEmIeWyG22xciJwSHAcSZIkabZcRLvC5YtNXV0bHUbqC0sWaQNSLjsDJ9AWK4cB82ITSZIkSXNmBe210KcDX2rq6jfBeaROs2SRxpFy2Ya2VHk+cAQwPzaRJEmSFG45cB7tlqLTm7q6IziP1DmWLNJAymUj4GjgJOA4YNPQQJIkSVJ33QecCZwGfKOpq2WxcaRusGTRyEu57AO8GHgRsEtwHEmSJKlvrgc+A3y6qasro8NIkSxZNJJSLlvTbgU6CXhibBpJkiRpaHyPdnXLF5q6+m1wFmnOWbJoZKRc5gNH0RYrx+N2IEmSJGm23AecQVu4fLOpq+WxcaS5YcmioZdy2Zu2WHkhsGtsGkmSJGnkXAd8FjitqaufR4eRZpMli4ZSymUr2tuBTqK9dlmSJElSvAtoV7ec3tTVncFZpBlnyaKhMdgO9DTGtgNtFhpIkiRJ0rrcy9h2om+5nUjDwpJFvZdy2Q54KfBq4JHBcSRJkiRNzi+AU4FPNnV1W3QYaTosWdRbKZcEvJb2liAPsZUkSZL67T7gC8BHmrpqosNIU2HJol5JuWxKe9bKa4FDguNIkiRJmh0XAR+hPbvlvugw0kRZsqgXUi6PoN0O9FJg++A4kiRJkubGrcAngVObuvpldBhpQyxZ1FmDg2x/F3gN8HRgfmwiSZIkSUGWA18DPgp83YNy1VWWLOqclMv2tCtWXoUH2UqSJEla3S+Aj9EelHtrdBhpVZYs6oyUyyG0q1Y8yFaSJEnShqw8KPejTV1dFB1GAksWBfMgW0mSJEkzwINy1QmWLAqRcnk4bbHiQbaSJEmSZsrKg3I/0tTVr6PDaPRYsmhOpVz2B95OuyVoQXAcSZIkScNpKe1Wor9v6uqy6DAaHZYsmhMpl9+hLVeeCcwLjiNJkiRpNKwAvkpbtvxvdBgNP0sWzZqUyzzaUuXPgMOD40iSJEkabd8F/g74alNXDsKaFZYsmnEplwW024HeDuwfHEeSJEmSVnUZ8H7g801dLY0Oo+FiyaIZk3LZHHgZ8KfAw4PjSJIkSdL6/Br4IPBvTV3dEx1Gw8GSRdOWctmO9qagNwA7BMeRJEmSpMm4Bfgw7Y1Et0WHUb9ZsmjKUi67An8CvAJYFBxHkiRJkqZjMfAJ4B+aurouOoz6yZJFk5Zy2Qd4G/DHwMLgOJIkSZI0k5YA/w68v6mrK6PDqF8sWTRhKZcn0N4UdBxewyxJkiRpuK0AzgT+rqmr70eHUT9YsmiDUi4JOBk4JjqLJEmSJAU4G3hnU1dNdBB1myWL1inlsh/w18Dx0VkkSZIkqQPOAN7V1NXl0UHUTZYsWkvKZU/gvcAfAvOD40iSJElSlywHPg+8u6mrq6PDqFssWfSgwW1B7wJeCiwIjiNJkiRJXbYU+CTw195GpJUsWUTKZUfgz4FXA5sGx5EkSZKkPrkPOBX426aubo4Oo1iWLCMs5bI18BbgTcCi4DiSJEmS1GeLgX8EPtDU1W+jwyiGJcsISrlsAbwBeCuwbXAcSZIkSRomtwOnAB9u6uru6DCaW5YsIyTlsgnwSuAdwE7BcSRJkiRpmN0IvA/4eFNX90eH0dywZBkBKZcFwIuBvwR2D44jSZIkSaPkGuCvgE83dbU0OoxmlyXLkEu5PJ/2F/Re0VkkSZIkaYRdBfxlU1dfiA6i2WPJMqRSLgcB/wwcFp1FkiRJkvSgC4DXN3V1SXQQzTxLliEzuI75ZOBlwPzgOJIkSZKktS0H/g14p9c+DxdLliExOHflNcB7gW2C40iSJEmSNuwO4N3ARz2vZThYsgyBlMvTgH8C9ovOIkmSJEmatMuBNzZ19a3oIJoeS5YeS7nsAXwQ+P3gKJIkSZKk6ftP4E+buvpVdBBNjSVLD6VcNgfeDrwN2DQ4jiRJkiRp5twHvB/4+6au7okOo8mxZOmZlMvzgFOA3aOzSJIkSZJmzTXAW5u6+mJ0EE2cJUtPpFwOAD4MPCU4iiRJkiRp7pwLvKGpq0ujg2jDLFk6LuWyHfBXwKuAjYLjSJIkSZLm3jLgY8BfNnV1W3QYrZslS0elXOYDNfA3wPbBcSRJirRs8GyE/+AgSRpttwJ/AeSmrpZHh9HaLFk6KOXyaOCTwBOis0iSem8ZcCdwF/AAsGSNZ+k4n+vU55u6evAvKymXecDCNZ4F43xusp+fia+xvs9vDGwJbIVFkSRp+r4PvLSpq59GB9HqLFk6JOWygPbGoL8ENgmOI0mK9wDwW9qS5LfjPBv8fFNXi+c+ttYn5bII2HrwbLXKx1tP4vMbz3lwSVLX3E97tMT7m7paGh1GLUuWjki5PAb4FHBQdBZJ0oy4h3UXIRMqTZq6um/uY6sPUi6bMrlSZrzPbT7nwSVJs+ES4CVNXf0kOogsWcKlXBYC7wTeQbucWJLUHUuBG4HfDJ4bgDuYWEHivyip0wYraCdS1GwDPBTYefDsRLstSpLUHUuA9wEnN3W1JDrMKLNkCZRyOZh29coB0VkkacTcy1hxsq7nBuDmVc8DkfTguTg7snrxsq5ns6CYkjSqLqVd1XJxdJBRZckSIOWyCfAe4K14+J0kzaQ7mEB50tTVb8MSSiMk5bI1EytjtonKKElDaBlwCvCepq7ujw4zaixZ5ljK5VDam4P2ic4iST2xHLiZiZUnnmEi9dDgjJmJlDE7AvODYkpS31xJewPRhdFBRoklyxxJuWwG/A3wJvzLgSRBe3PODWy4PLmpqatlUSEldUfKZSPgIWy4jHko3sAkSdD+Y9U/An/R1NW90WFGgSXLHEi5HAH8G1BFZ5GkOXYbUAbP1au+NnV1Y2QwScMt5bIT7d+99lzjtQK2C4wmSREK8LKmrs6LDjLsLFlmUcplEfB3wGuAecFxJGm2/IbVS5RVi5Q7IoNJ0nhSLtuwdvGy8uOdA6NJ0mxaAXwU+LOmrhZHhxlWliyzJOXyZOA0YI/YJJI0bcuAaxm/SLm6qat7ArNJ0oxKuWxOW7iMV8DshpcWSOq/XwEnNXX1neggw8iSZYalXOYD7wTejX8IS+qPB4BfMs62HuCXTV0tCcwmSZ2QclkIPILxtyE9As+BkdQfy4D3Aic3dbU8OswwsWSZQSmXhwL/DjwtOoskjeNu1i5QVr5e6x+wkjR1g39o243xC5g9gS3i0knSOn0L+OOmrm6IDjIsLFlmSMrlKNqCZafoLJJG2u2s+3wU//CUpCCDf4xb1zkw2wZGk6QbaYuWb0YHGQaWLNM0uErwPcA78GpmSXPnbuBS4MeD50fAlU1d3R6aSpI0aSmXbYF9gMcCBw6eA3D1i6S5sxx4H/Cepq6WRYfpM0uWaUi5PAz4HHBEdBZJQ+3/aEuUH6/yWtzeI0nDa7D9qKItXB67yuvDInNJGnrnAS9o6ur/ooP0lSXLFKVcng58BtghOoukobEE+Cmrr075cVNXt4amkiR1Rsple1YvXg4EHg0sjMwlaajcAryoqauvRQfpI0uWSUq5LABOBt4KzAuOI6m/bmWsTFlZqFzR1NUDoakkSb2TctkY2JfVi5cDge0jc0nqtRXAKcA7m7paGh2mTyxZJiHlsjvwBeDQ6CySemM57cGzq233aerqutBUkqShl3LZlbW3G+2J5whKmrgLgec3dXVNdJC+sGSZoJTLccCn8PR3Set2N/ATVl+dcmlTV3eHppIkaSDlsgXtobqrrnp5DB6yK2ndbgde0tTVmdFB+sCSZQMGyy//HnhTdBZJnXIdY6tTVhYqV3sYrSSpbwaH7O7J6sXLY4FdI3NJ6px/BN7u9vb1s2RZj5TLbsB/Aik6i6QwDwBXsPZ2n9tCU0mSNMtSLtux9najfYGNI3NJCtUAv9/U1bXRQbrKkmUdUi6HAP8NPDQ6i6Q5dR3wPdr9pxcClzR1dX9sJEmSuiHlsglwEO0ZhYcCT8QVL9KouQH4vaauLooO0kWWLONIuZxAez3zZtFZJM2q+4FLaMuU7wEXeiCtJEmTMzhgd2XhcihtCbNJaChJs+1e2muevxQdpGssWdaQcnkH8Dd4PbM0jK5lbIXKhcAP3VMqSdLMGpxpeBBjpcuhwG6hoSTNhhXAXzR19b7oIF1iyTIw+MPgE8CLorNImhH3ARezytafpq6uj40kSdJoSrnswupbjA4GNg0NJWmmfAZ4hf942bJkAVIu2wNnAE+KziJpym4FvgOcx9gqlSWxkSRJ0nhSLguBx9GWLkcATwa2Dw0laTrOB45v6urW6CDRRr5kSbnsA3yF9to6Sf2xslQ5d/Bc1tTVaP+GJklST6Vc5gH7A08ZPJYuUv9cDTyrqasro4NEGumSJeXyNOBLwDbRWSRt0C20q1TOxVJFkqShNk7pcgSwQ2AkSRNzB3BCU1ffig4SZWRLlpRLDXwEWBCdRdK4bmH1lSqXW6pIkjSaBqXLfqy+0sXSReqmpcBrm7rK0UEijFzJknKZD5wC/El0FkmrsVSRJEkTYuki9cI/AG9t6mp5dJC5NFIlS8plEfA54NnRWSSxGDgH+Mbg1VJFkiRNySqly5HA0YPXRaGhJAH8D/CCpq4WRweZKyNTsqRcdqU94PbA6CzSiFoBXAKcDZwFXODtP5IkaTYMbi86DDgWOAY4CJgXGkoaXT+mPRD3uuggc2EkSpaUy57At4Hdo7NII+Z62pUqZwHfbOrq5uA8kiRpBKVcdgSOoi1djgZ2iU0kjZxrgKc2dXV1dJDZNvQlS8rlUbQFi7+RSrPvPtobgM4Gzm7q6tLgPJIkSWtJuRxAu8LlGNqbizaNTSSNhOtpi5afRQeZTUNdsqRc9ge+CewUnUUaYpcxtgXo/Kau7g3OI0mSNGEpl82AJzG2tWj/2ETSULsROKqpq8uig8yWoS1ZUi6Po92msH10FmnI3AF8nbZUObupq+uD80iSJM2YlMsutGXLscDvAtvEJpKGzq3A0U1d/TA6yGwYypIl5fJ42gHQ3xClmfFr4L+BM4HzPLBWkiSNgsEBukcAxwG/Bzw8NpE0NO4Ajm3q6gfRQWba0JUsKZfDgf8P2Co6i9Rzl9CWKmc2dfXj6DCSJEnRUi4H0hYux9HeWCRp6u4EntHU1Xejg8ykoSpZUi5H0t7DvUV0FqmHHgDOpS1W/ntUrliTJEmaipTLrrSrW44DngJsHBpI6qe7gWc3dXVOdJCZMjQlS8rlWOAMYLPoLFKP3EG78utM4OtNXd0ZnEeSJKl3Ui5b0Z7fchzwDDy2QJqMe4Hjm7o6KzrITBiKkiXl8mzgP4BNorNIPfBrBqtVgO80dbU0OI8kSdLQSLksAJ7M2CoXz3GRNux+4LlNXf1PdJDp6n3JknL5A+DzwMLoLFKHXQmcDpzh+SqSJElzZ3COy/HAicA+wXGkLlsC/GFTV1+ODjIdvS5ZUi4vAD4DbBSdReqgq4AvAqc3dXVpdBhJkqRRl3I5gLZseR6wV3AcqYuWAS9q6upz0UGmqrclS8rlxcAngfnRWaQO+SVjxcpQ3jsvSZI0DFIuj2OscHlEcBypS5YDL23q6tPRQaailyVLyuVZwH/hChYJ4BraM4lOb+rqougwkiRJmpyUyyG0hctzgd2D40hdsAx4TlNXX4kOMlm9K1lSLk8Avg1sHp1FCnQ9g2IF+F5TV/36hSxJkqS1pFzmAU9krHDZJTaRFOoe4KlNXX0/Oshk9KpkSbnsBVwA7BCdRQpwI/Al2mLlfy1WJEmShtegcPkd2sLlBGCn2ERSiFuAw5q6uio6yET1pmRJuexEW7A8MjqLNIfuoj1j5f/RXre8PDiPJEmS5ljKZT7ttdB/RHuGy5axiaQ59QvaouXG6CAT0YuSJeWyCDgXODg4ijQXVtBuiTsN+M+mru6JjSNJkqSuSLlsDvw+cBLwVGBeaCBpblwMPKWpq8XRQTak8yVLymUB8BXg2Ogs0iy7mrZY+UxTV9cEZ5EkSVLHpVx2B15EW7jsGZtGmnVnAc9q6mppdJD16UPJchrw4ugc0iy5i/YA29Oaujo/OowkSZL6KeXyJNqy5bm4nUjD69NNXZ0UHWJ9Ol2ypFxOBt4RnUOaYSuAc2hXrXzZ7UCSJEmaKYPtRH9AW7gciduJNHze19TVO6NDrEtnS5aUy6uBj0bnkGbQL4BP07avv44OI0mSpOGWcnk47a6AF+MFIhour2nq6tToEOPpZMmScnkO8GVgfnQWaZoWM9gOBJzvtcuSJEmaa4ProFfdTrQoNJA0fcuBP2jq6r+ig6ypcyVLyuUw4JvAZtFZpGm4DDgV+GxTV3dFh5EkSZIAUi5bAi8EXg3sHxxHmo57gaOaurogOsiqOlWypFweBVwAbBedRZqCJbQrsD7qIbaSJEnqusFhua+hPcNlYXAcaSpuAw5r6upn0UFW6kzJMjig6QfAftFZpEm6BsjAvzZ1dWN0GEmSJGkyUi47AS8HamD34DjSZF0OPL4rF4p0qWT5FO0eQakPVgBn0x7O/NWmrpYF55EkSZKmJeWyEfBM2tUtx+DNROqP05q6ekl0COhIyZJyOQn4VHQOaQJuo/3/6seauirRYSRJkqTZkHKpgFcBL8HjHNQPL2nq6rToEOElS8plP9ptQpuHBpHW7we0B9l+oamr+6LDSJIkSXMh5bIp8Hzag3IfHxxHWp97aLcNXR4ZIrRkSblsAVwE7BsWQlq3pcDpwIeauro4OowkSZIUKeVyMPBm4ERgQXAcaTxXAIc0dXV3VIDokuWzwB+HBZDGdyfwCeCfmrq6NjqMJEmS1CUpl92ANwKvALYKjiOt6d+bunph1JuHlSwpl5fTDrJSV1wHfBj4eFNXd0aHkSRJkros5bIV8ErgDcCuwXGkVb2iqat/jXjjkJIl5fIY4HvAZnP+5tLafgJ8gPa8lSXRYSRJkqQ+SbkspD235S3AY4LjSAD3Ak9s6uonc/3Gc16ypFy2BBpg7zl9Y2lt3wBOaerqG9FBJEmSpGGQcjkaeCtwdHQWjbyfA6mpq7vm8k0jDivKWLAozhLgC8AHIlpNSZIkaZgN/gHzG4PdC2+hXeGyMDaVRtTetP3DH87lm87pSpaUy6tor8GV5tpdwMdpD7O9LjqMJEmSNApSLrvSHpL7SmDL4DgaTa9u6upjc/Vmc1aypFweB1wIbDInbyi17qI9zPYfmrq6LTqMJEmSNIpSLtsBf0J7SK5li+bS/cChTV39cC7ebE5KlpTLxsCPgX1m/c2k1mLgn2m3BVmuSJIkSR0wKFveArweWBQcR6PjSuDApq4emO03mj/bbzDw51iwaG4sBv4O2KOpq3dYsEiSJEnd0dTVbU1dvQPYg/bv7YtjE2lE7EPbS8y6WV/JknJ5FO0qFrcJaTbdDfwL7cqVW6LDSJIkSdqwlMsOtCtbXgdsERxHw+1+2tUsP5vNN5mLkuUc4Cmz+iYaZXcDH6G9itlyRZIkSeqhQdnyVuC1WLZo9pzb1NWRs/kGs1qypFxOAj41a2+gUXYP8FHg/U1d3RwdRpIkSdL0pVx2BN4GvAbYPDiOhtNLmro6bba++KyVLIMm8kpg+1l5A42qJbTXgJ/c1NVN0WEkSZIkzbyUy0OAdwKvBhYGx9FwuRXYZ7Z2QszmwbcfxIJFM+vLwKObunqjBYskSZI0vJq6uqmpqzcCj6adA6SZsj1tXzErZmUlS8rlqcC3ZvwLa1RdCLylqasLooNIkiRJmnspl8OADwCHRmfR0HhaU1ffnukvOuMlS8plE+BSYK8Z/cIaRVcDf97U1X9EB5EkSZIUL+XyXOBvgT2js6j3rgIOaOrq/pn8orOxXeidWLBoem4D3ky7NciCRZIkSRIAg/ng0bTzwm3BcdRve9H2FzNqRleypFz2BX4EbDxjX1Sj5H7gn2kPtb0jOowkSZKk7kq5bEM7JL8e2CQ4jvrpAeCxTV1dMVNfcMZKlpTLPOA7wJNm5Atq1HweeEdTV7+KDiJJkiSpP1IuewDvA/4wOIr66XzgyU1dzUg5MpPbhV6KBYsm73LgiKauXmDBIkmSJGmymrr6VVNXLwCOoJ0vpMl4Em2fMSNmZCVLymUz4BfAQ6f9xTQq7gbeC3yoqaul0WEkSZIk9V/KZQHteS3vBrYIjqP+uAF4ZFNX9073C83USpZXYcGiiftPYN+mrk6xYJEkSZI0U5q6WtrU1SnASoqZFgAAIABJREFUvrRzhzQRD6XtNaZt2itZUi6b065i2WkmAmmo/QJ4XVNXX4sOIkmSJGn4pVyeDvwL8MjoLOq8G2lXs9wznS8yEytZXoMFi9bvfuCvgP0sWCRJkiTNlcH8sR/tPHJ/cBx12060/ca0TGslS8plC+CXwI7TDaKhdTbt6pWrooNIkiRJGl0pl71oV7UcE51FnXUz8Iimru6e6heY7kqW12LBovHdAjy/qatjLVgkSZIkRWvq6qqmro4Fnk87r0hr2pG255iyKa9kSbksol3FssN0Amgo/RfwyqaubooOIkmSJElrSrk8BPg48JzoLOqcW2hXsyyeyk+ezkqW12PBotXdAbywqavjLVgkSZIkdVVTVzc1dXU88ELaOUZaaQfavmNKprSSJeWyJfArYLupvrGGzteAlzd1dX10EEmSJEmaqJTLLsC/Ak+PzqLOuA3Yo6mruyb7E6e6kuUNWLCodRfwiqaunmHBIkmSJKlvmrq6vqmrZwCvoJ1vpO1oe49Jm/RKlpTLVrSrWLadyhtqqHwbeGlTV7+ODiJJkiRJ05VyeTjwSeCp0VkU7nba1Sx3TuYnTWUly5uwYBl19wCvA46yYJEkSZI0LAbzzVG08849wXEUa1va/mNSJrWSJeWyNe0qlm0m+0YaGlcCJzR1dXl0EEmSJEmaLSmX/YAvAftEZ1GYO2hXs/x2oj9hsitZXoQFyyj7HHCIBYskSZKkYTeYew6hnYM0mrah7UEmbMEk3+Dlk/zxGg73A29s6urj0UEkSZIkaa40dbUY+KOUy3nAPwGbBEfS3Hs58M8T/cET3i6UcknARVMMpf76BfDcpq4uiQ4iSZIkSVFSLgcB/wE8MjqL5twhTV01E/mBk9ku9LIphlF/nQEcZMEiSZIkadQN5qKDaOckjZYJ9yETWsmSctkM+A2w9TRCqT+WAG9v6upD0UEkSZIkqWtSLm8G/h5YGJ1Fc+K3wM5NXd27oR840ZUsJ2DBMipuBo60YJEkSZKk8Q3mpSNp5ycNv61pe5ENmmjJ4lah0fBT4AlNXX03OogkSZIkddlgbnoC7Ryl4TehXmSD24VSLhVw1UwkUqedDTxvMvd/S5IkSdKoS7lsDXwROCY6i2bdXk1dlfX9gImsZHEVy/A7FXimBYskSZIkTc5gjnom7Vyl4bbBfmS9K1lSLhsB1wI7z2Aodcdy4E+buvrH6CCSJEmS1HcplzcBH2RyN/mqP34D7NbU1bJ1/YAN/Yd/BhYsw2oxcJwFiyRJkiTNjMF8dRztvKXhszNtT7JOGypZ3Co0nH4DHN7U1Veig0iSJEnSMBnMWYfTzl0aPuvtSda5XSjl8lDarUILZiGU4lwDPG1Dh/VIkiRJkqZucInMt4Ddo7NoRi2l3TJ0w3jfub6VLM/FgmXYXA0cYcEiSZIkSbNrMHcdQTuHaXgsoO1LxrW+ksXrp4bLFbQFy6+jg0iSJEnSKBjMX0fQzmMaHuvsS8bdLpRyWQjcBiyaxVCaOz8Gjm7q6uboIJIkSZI0alIuOwLfAA6MzqIZsRjYrqmrJWt+x7pWshyGBcuwuAg40oJFkiRJkmIM5rEjaecz9d8i2t5kLesqWY6evSyaQxcARzV1dXt0EEmSJEkaZYO57CjaOU39N25vsq6SxfNY+u9S4JlNXd0ZHUSSJEmSBIP57Jm085r6bdzeZK0zWVIu2wE3s/5DcdVtvwYOa+rq+uggkiRJkqTVpVx2oV3R8vDoLJqy5cCOTV3dtuonxytSjlrH59UPtwDHWrBIkiRJUjcN5rVjaec39dN82v5krU+uyfNY+utu2i1CP4sOIkmSJElat8Hc9kzaOU79tFZ/Ml7J4nks/bQEOKGpqx9EB5EkSZIkbdhgfjuBdp5T/6zVn6xWsqRcHgXsPmdxNJNe1tTV16NDSJIkSZImbjDHvSw6h6Zk90GP8qA1V7K4iqWfPtTU1WejQ0iSJEmSJm8wz30oOoemZLUeZc2SxfNY+ud84G3RISRJkiRJ0/I22vlO/bJaj/LgFc4plwXA7cCigFCamt8ABzV1dUN0EEmSJEnS9KRcHgpcAuwcnUUTthjYtqmrpbD6SpYKC5Y+WQqcaMEiSZIkScNhMN+dSDvvqR8W0fYpwOoly75zn0XT8LamrlxKJkmSJElDZDDneSREvzzYp1iy9NMZTV15KJIkSZIkDaHBvHdGdA5NmCVLj90GvDo6hCRJkiRpVr2adv5T941bsjw6IIgm70+buroxOoQkSZIkafYM5r4/jc6hCXmwT5m3YsUKUi7zgLuALeIyaQK+0dTVMRv+YZIkSZKkYZByOZs1rglW59wNbNnU1YqVK1l2x4Kl6+4G6ugQkiRJkqQ5VdPOg+quLWh7lQe3C3keS/e9s6mrX0WHkCRJkiTNncEc+M7oHNqgfcGSpS+uBP4lOoQkSZIkKcS/AFdEh9B6rVayeOhtt727qatl0SEkSZIkSXNvMA++OzqH1uvR4EqWPvgJ8B/RISRJkiRJob4E/Cg6hNbJ7UI98ZdNXa2IDiFJkiRJijOYC98VnUPrtC/AvIM/ftVDgBuDw2h8FzV19fjoEJIkSZKkbki5XAg8MTqHxrXTfGDv6BRap7+JDiBJkiRJ6hTnxO7aez6wbXQKjesG4KvRISRJkiRJnfJ14ProEBrXtvOBraJTaFyf8UYhSZIkSdKqBnPiZ6NzaFxbWbJ012nRASRJkiRJnXRadACNa6v5wJbRKbSW7zV1dUV0CEmSJElS9zR1dSXwvegcWsuWrmTpps9FB5AkSZIkdZpzY/e4XaijzosOIEmSJEnqNOfG7nG7UAfdCVwaHUKSJEmS1GmX0s6P6g5XsnTQhU1dLY8OIUmSJEnqrsHceGF0Dq3GM1k66LvRASRJkiRJveD82C2uZOkgtwpJkiRJkibC+bFbPJOlg26MDiBJkiRJ6gXnx25xu1AH3RQdQJIkSZLUC86P3eJ2oQ7yF4kkSZIkaSKcH7tlq/nAougUetDypq7uig4hSZIkSeq+wfzo7bTdsWg+MC86hR40P+XiGTmSJEmSpA0azI/zo3PoQfP8j9E9D4kOIEmSJEnqBefHjrFk6R5/kUiSJEmSJsL5sWMsWbpnp+gAkiRJkqResGTpGEuW7tk/OoAkSZIkqRecHzvGkqV7Do8OIEmSJEnqBefHjrFk6Z5DUy7+d5EkSZIkrdNgbjw0OodW5zDfPVsD+0WHkCRJkiR12n7ANtEhtDpLlm46IjqAJEmSJKnTnBs7yJKlm/4wOoAkSZIkqdOcGzvIkqWbDk+57B0dQpIkSZLUPYN50UNvO8iSpbtOig4gSZIkSeqkk6IDaHyWLN31opTLRtEhJEmSJEndMZgTXxSdQ+OzZOmuhwHHRoeQJEmSJHXKsbTzojrIkqXb3hUdQJIkSZLUKc6JHWbJ0m1PTLk8KzqEJEmSJCneYD58YnQOrZslS/f9dcplXnQISZIkSVKcwVz419E5tH6WLN33WOCE6BCSJEmSpFAn0M6H6jBLln54rzcNSZIkSdJoGsyD743OoQ2zZOmHfYHXRYeQJEmSJIV4He1cqI6zZOmPk1Mue0SHkCRJkiTNncEceHJ0Dk2MJUt/bAHk6BCSJEmSpDmVaedB9YAlS78cnXI5KTqEJEmSJGn2Dea/o6NzaOIsWfrngymXnaJDSJIkSZJmz2Du+2B0Dk2OJUv/bAecGh1CkiRJkjSrTqWd/9Qjliz9dHzK5Y3RISRJkiRJM28w7x0fnUOTZ8nSX6ekXA6PDiFJkiRJmjmDOe+U6ByaGkuW/loIfNHzWSRJkiRpOAzmuy/SznvqIUuWftsF+HzKZaPoIJIkSZKkqRvMdZ+nnfPUU5Ys/XckcHJ0CEmSJEnStJxMO9+pxyxZhsPbUi4nRoeQJEmSJE3eYJ57W3QOTZ8ly3CYB3wm5XJUdBBJkiRJ0sQN5rjP0M516jlLluGxMXBGyuXg6CCSJEmSpA0bzG9n0M5zGgKWLMNlEfC1lMte0UEkSZIkSes2mNu+RjvHaUhYsgyfHYGzUy47RweRJEmSJK1tMK+dTTu/aYhYsgynPYCzUi7bRAeRJEmSJI0ZzGln0c5tGjKWLMPrAOCrKZetooNIkiRJkmAwn32Vdl7TELJkGW6HAd9MuWwbHUSSJEmSRtlgLvsm7ZymIWXJMvwOAc5JubjXT5IkSZICDOaxc2jnMw0xS5bRcCDwnZTLLtFBJEmSJGmUDOaw79DOZRpyliyjY1/gvJTLw6ODSJIkSdIoGMxf59HOYxoBliyjZU/aoqWKDiJJkiRJw2wwd51HO4dpRFiyjJ7daYuWx0QHkSRJkqRhNJi3zqOdvzRCLFlG087Ad1Muz4oOIkmSJEnDJOXyDOB/aecujRhLltG1CDgz5fKm6CCSJEmSNAxSLq8H/hvYMjqLYsw7+ONXrYgOoXCnAm9o6mppdBBJkiRJ6puUy0bAPwKvi86iWK5kEcCrga+mXLaODiJJkiRJfZJy2ZJ29YoFiyxZ9KBjgAtSLo+IDiJJkiRJfZBy2Y32/JVnRGdRN1iyaFWPBr6fcjk8OogkSZIkdVnK5RDg+4A3t+pBlixa047AOSmXN0cHkSRJkqQuSrm8BjgfbxDSGjz4VutzBvCSpq5+Gx1EkiRJkqINzl/5BHBidBZ1kytZtD7HA5ekXA6KDiJJkiRJkVIuBwIXY8Gi9bBk0YY8kvZA3FdGB5EkSZKkCCmXlwPfA/aKzqJuc7uQJuNzwCubulocHUSSJEmSZlvKZQvgY8AfR2dRP7iSRZPxAuCilMt+0UEkSZIkaTYN5p6LsGDRJLiSRVNxD/A24KNNXfn/H0mSJElDI+UyD3gN8H5g8+A46hlXsmgqNgf+BfhmyuXh0WEkSZIkaSYM5ptv0s47FiyaNEsWTcdTgUsHh0BJkiRJUm8N5ppLaeccaUrcLqSZ8jXg5U1dXR8dRJIkSZImKuWyC/CvwNOjs6j/XMmimfJ04PKUi4dCSZIkSeqFwfxyORYsmiGuZNFs+C/aq55vig4iSZIkSWtKuTwE+DjwnOgsGi6uZNFseA7tqpYTo4NIkiRJ0qoGc8rlWLBoFriSRbPtbOC1TV2V6CCSJEmSRlfKpQI+AhwTnUXDy5JFc+F+4G+Bv2vq6v7oMJIkSZJGR8plE+DPgD8HNgmOoyHndiHNhU2A99Be93x0cBZJkiRJI2Iwf1xKO49YsGjWuZJFEU4H3tzU1W+ig0iSJEkaPimXnYEPAZ4TqTllyaIodwLvAj7S1NWy6DCSJEmS+i/lshHwWuCvga2C42gEuV1IUbYC/gm4KOXyhOgwkiRJkvptMFdcRDtnWLAohCtZ1AXLgU8D72rq6v+iw0iSJEnqj5TLw2hXrrwYFxIomCWLuuQe4B+Av2/qanF0GEmSJEndlXJZBLwd+BNg8+A4EmDJom66kfb07094XoskSZKkVQ3OXXkF7cywU2waaXUupVIX7QScSnvl87Ojw0iSJEnqhsF8cCntvGDBos5xJYv64FzgLU1dXRwdRJIkSdLcS7kcDHwAeEpwFGm9LFnUFyuAzwHvbOrq19FhJEmSJM2+lMvDgZOBFwDzguNIG2TJor65D/gw7eG4t0WHkSRJkjTzUi7b0R5q+wZg0+A40oRZsqiv7gT+GfgHyxZJkiRpOAzKlT8BXg9sFRxHmjRLFvWdZYskSZLUc5YrGhaWLBoWli2SJElSz1iuaNhYsmjYWLZIkiRJHWe5omFlyaJhZdkiSZIkdYzlioadJYuGnWWLJEmSFMxyRaPCkkWj4k4gA//U1NV10WEkSZKkUZBy2RV4I1BjuaIRYMmiUbME+ALwgaaufhIdRpIkSRpGKZfHAG8Bng8sDI4jzRlLFo2ybwCnNHX1jeggkiRJ0jBIuRwNvBU4OjqLFMGSRYKfAB8AvtDU1ZLoMJIkSVKfpFwW0q5YeQvwmOA4UihLFmnMdcCHgY83dXVndBhJkiSpy1IuWwGvBN4A7BocR+oESxZpbXcCn6A9JPfa6DCSJElSl6RcdqM9zPYVeJittBpLFmndlgKnAx9q6uri6DCSJElSpJTLwcCbgROBBcFxpE6yZJEm5gfAqbTnttwXHUaSJEmaCymXTWnPW3k18PjgOFLnWbJIk3Mb8CngY01dlegwkiRJ0mxIuVTAq4CXANsFx5F6w5JFmpoVwNnAR4GvNnW1LDiPJEmSNC0pl42AZwKvAY4B5sUmkvrHkkWavmuADPxrU1c3RoeRJEmSJiPlshPwcqAGdg+OI/WaJYs0c5YAXwY+2tTV+dFhJEmSpPVJuTyJdtXKHwALg+NIQ8GSRZodl9EelPvZpq7uig4jSZIkAaRctgReSHuQ7f7BcaShY8kiza7FwH8ApwHnN3XlrzdJkiTNqZTLPOBJwEnAc4FFoYGkIWbJIs2dXwCfBj7d1NWvo8NIkiRpuKVcHg68ePA8MjiONBIsWaS5twI4h3Z1y5eburonNo4kSZKGRcplc9ozVk4CjsQbgqQ5ZckixbqLwXYiD8uVJEnSVA0OsT2JdjvQlrFppNFlySJ1x9W0q1s+09TVNcFZJEmS1HEpl92BF9GWK3vGppEElixSF60Avk1buPyn24kkSZK00mA70O/TFitPxe1AUqdYskjddhfwReD/Ad9p6mp5cB5JkiTNsZTLfODJwB8Bz8PtQFJnWbJI/XED8CXgdOC7XgctSZI0vAbXLh8OnAicADw0NpGkibBkkfrpOtoVLqc3dfWD6DCSJEmaGSmXx9MWK88Ddg2OI2mSLFmk/vslY4XLD6PDSJIkaXJSLo9jrFh5RHAcSdNgySINl6totxOd3tTVZdFhJEmSNL6Uy/60xcqJwF7BcSTNEEsWaXhdzljh8vPoMJIkSaMu5bI3Y8XKfsFxJM0CSxZpNPyItnA5o6mrn0WHkSRJGhUpl0cBx9MWK48NjiNpllmySKPn58B/A2cCF3gttCRJ0swZXLd8GHAc8HvA3rGJJM0lSxZptN0CfJW2cDm7qau7g/NIkiT1TsplC+AY2mLlmcAOsYkkRbFkkbTSfcC3aQuXrzR1dX1wHkmSpM5KuewMPJu2WHkqsGlsIkldYMkiaTwrgIbBtqKmri4NziNJkhQu5XIAY9uAEjAvNpGkrrFkkTQRv2LsHJfzmrpaGhtHkiRp9qVcFgBHMFas7BEaSFLnWbJImqw7gK8DZ9Ge4+K2IkmSNDRSLrvQnq9yLPC7wDaxiST1iSWLpOm6lLZwOQs4v6mr+4PzSJIkTVjKZRPgSbSlyrHAAbGJJPWZJYukmXQvcC5wNnBWU1dXxMaRJElaW8plX9pC5RjgKcBmoYEkDQ1LFkmz6VrGVrl8q6mr24PzSJKkEZRy2RZ4GmOrVXaLTSRpWFmySJory4AfMDjLBfhBU1fLYiNJkqRhlHLZCHg8Y2erPB7YKDSUpJFgySIpyu3At2gLl3OauirBeSRJUo+lXCrgSNpi5WnAtrGJJI0iSxZJXfF/wHdoz3T5TlNXP4+NI0mSuizlsjfwZNozVZ4MPCw0kCRhySKpu35DW7p8Bzi3qasrg/NIkqRAKZd9GCtUngzsHBpIksZhySKpL25k9dLlp8F5JEnSLEq5PJrVS5WdQgNJ0gRYskjqq5tZpXQBLm/qyt/PJEnqoZTLPGA/Vi9VdozMJElTYckiaVjcApw3eC4EftjU1ZLYSJIkaTwpl4XA44BDgSMGzw6hoSRpBliySBpW9wEXA9+jLV0ubOrq+thIkiSNppTLLrSFyqHAE4GDgU1DQ0nSLLBkkTRKrmVQuDC22uWB2EiSJA2XlMvGwEG0ZcrKYmW30FCSNEcsWSSNsvuBS2gLl+/Rrna5LjaSJEn9knLZlbEVKofSFiybhIaSpCCWLJK0uutYZYsRcElTV/fHRpIkqRtSLpvQliirbv3ZNTSUJHWIJYskrd8DwBXAj4Afr3xt6uq20FSSJM2ylMt2wIHAY1d53RfYODKXJHWZJYskTc11jBUvK8uXq5u6Wh6aSpKkSUq5zAf2ZKxMWVmouEJFkibJkkWSZs7dwE9YvXi5tKmru0NTSZI0kHLZAjiA1QuVxwBbROaSpGFhySJJs2s5cDVrbzfygF1J0qwaHEi75nafPYH5kbkkaZhZskhSjFsZW/Gysny5wiulJUmTNbgyeV9WX51yILB9ZC5JGkWWLJLUHUuAn7J68fLjpq5uDU0lSeqMlP9/9u486rKqMBP3y1BMCogKiIIDHNFGMUaPSTSdqHFOa8xgO6RjYif9O4l2WhMzKW0mkzbGeU48Jv3DaIxzQiQRESNoRxyORAPSoAccQJlUBAQKiqL6j3OK+r6qr6jpft++w/Ostde9dauW611L77lnv+69T3+XLF+d8gNJTkiyrmQuAAZKFoDp981std0oSe+QXYD5NR5GW2Xb7T73KJkLgNunZAGYTdcnOTfLV71c0DXV1UVTAbDL6rY/LMn9s3x1yolxGC3AzFGyAMyX72Y4aLdfMi7KsPLlipLBABZZ3fZHZliZctz4Wi35850LRgNggpQsAIvj+9mqeFkyvtk1ld8DgN1Ut/1eGbbybF2gbH5/x3LpAFgrShYAkmR9kouzcgnz9a6pNhbMBjAV6rbfJ8m9snKJcmySA8qlA2AaKFkA2JENSb6WlbchXeyx08A8GR+HfGxW3tZz73iKDwC3Q8kCwJ64NcklWXkL0kVdU91QMBvAiuq2PygrlyhVkmOS7F0uHQCzTMkCwGq6LCscwpvhIN5rSgYD5lvd9odm5W09VZKjCkYDYI4pWQAo5dokl2coYrY7PJYaWGp83PFROxh3S3JIqYwALC4lCwDT7qbsRBmT5CoH9MJsGg+UPTw7V57sXygmAOyQkgWAebExyVXZcRlzeddUN5UKCYukbvv9MxQjOypPDk+yT6GYADAxShYAFtHV2bky5tpiCWGK1W1/SHauPDmsVEYAKEHJAgDbd0O2Kl6SfC/JNeO4djvvr++ayu8rU61u+72S3CHJoeM4ZDvv75RtC5WDCkQGgKmnZAGAybs1Q+myvRJmp953TbVhzZMzE+q2X5ftlyI7+/6QeFQxAEyUkmW63Jzk5Ul+N8kBhbMAUN6N2c2CZvP7rqmuX/vY3J667Xdm9ciO3h+45sEBmDbrk7wiyYuS7Fc4CyMly3S5qWuqA+q2PzbJ65M8uXQgAGbexgyly3UZyvwNW41bVvhsqj5fuvVq3OKybqux7wqf7ernk/jPuL3P90tycIaSxAGvAOypU5O8oGuqi+u2Xx9PXpsa+5YOwLa6pro4yVPqtn9yhrLl2MKRAJhd+2Q4fHRmDyCt235jhrJonygoAFhsF2coV04tHYSV2Yc7xcYvzgOS/GGGJeMAsIj2ybASRMECwKK6McO88AEKlulmJcuU65pqfZKX1m3/N0lel+SphSMBAACwdk5J8htdU32tdBB2TMkyI8Yv1E/Xbf+kDFuI7ls2EQAAAKvoKxm2Bn24dBB2nu1CM2b8gp2Y5CVJbigcBwAAgMm6IcN870QFy+yxkmUGdU11U5L/Vbf9O5K8JsnPFY4EAADAnvtAkhd2TfWN0kHYPUqWGTZ+8Z5Wt/3jk7whyf0KRwIAAGDXXZjk+V1TnV46CHvGdqE5MH4RH5TkRUmuLxwHAACAnXN9hnncgxQs88FKljnRNdXNSf68bvu/TfLqJE8vHAkAAIDte2+S3+qa6tLSQZgcJcucGb+gz6jb/rVJ/izJo8omAgAAYIkzk7y4a6pPlw7C5ClZ5tT4hX30eF7Ly5I8tHAkAACARfb5JCfZFjTfnMky58Yv8MMybB+6sHAcAACARXNhhvnYwxQs889KlgXQNdWmJO+r2/6DSZ6T5A+THFM0FAAAwHy7JMkfJzm5a6qNpcOwNpQsC2T8Yv/1eDju85K8OMldy6YCAACYK9/OcD7mW7qmWl86DGtLybKAxi/6a+q2f1uS30rywiQHl00FAAAw065L8pokr+6a6rrSYShDybLAxi/+H9Vt/+YkJyV5bpL9y6YCAACYKTcl+YskL+ua6qrSYShLyULGC8Fv1m3/miR/lOSXkuxTNBQAAMB025jk7Un+qGuqS0qHYTooWbjNeGH4lbrtX5nkT5P8XOFIAAAA0+gDSV7SNdUFpYMwXZQsbGO8UDytbvs6ycuSPK5wJAAAgGnw0SQndU3VlQ7CdFKysF3jhePxddv/WIYnET2pcCQAAIASPpzkz7qm+mTpIEw3JQs7NF5IPlm3/YOTvCjJ0+LMFgAAYL5tTPL+JC/vmuoLpcMwG5Qs7LTxwvLMuu2PS/K7GQ7I9TQiAABgntyU4UDbV3RNdVHpMMwWJQu7bLzQ/Grd9n+U5DeT/FqSg4uGAgAA2DPXJfnLJK/tmuqy0mGYTUoWdtt44fnduu1fluTXkzw/yeFlUwEAAOySq5K8Icmbuqb6XukwzDYlC3tsvBD9ad32r07y35L8dpJ7lk0FAABwu76R5FVJ/qprqhtLh2E+KFmYmPHC9Ma67f8iyc8n+b0kJ5RNBQAAsMz5Sf48ybu6prqldBjmi5KFiRsvVH9Tt/07kvxUhsc//3DZVAAAwIL7TJI/S/KPXVNtKh2G+aRkYdWMF65TkpxSt/2jMzz++fFlUwEAAAvm9AyPYf546SDMPyULa2K8oH28bvuHZFjZ8jNJ9imbCgAAmFMbk/x9kj/rmuqc0mFYHEoW1tR4gfvPddvfK8mvZjgo1xOJAACASbgqyV8leWvXVF8vHYbFo2ShiPGCd1Ld9n+c5D8n+e9JfqRsKgAAYEZ9Osmbk7yva6qbSodhcSlZKGq8AL4zyTvHrUTPy/BkogOLBgMAAKbdjUneleQttgQxLZQsTI3xwvjf6rb/nST/Nclzk1RlUwEAAFOmT/IXSf7/rqmuLh0GllKyMHXGC+Vr6rZ/bZInZNhK9JNJ9i4aDAAAKOUKyYtCAAAgAElEQVTWJP+cYUvQRzyCmWmlZGFqjRfO05KcVrf9vZP8WpJfSXLXkrkAAIA18+0kf53kL7um+lrhLLBDShZmwnhBfVHd9n+Y5BkZVrf8UNFQAADAavlshlUr73GQLbNEycJMGS+wf5Pkb+q2f2iGsuVZSQ4oGgwAANhT65P8XZI3d031+dJhYHcoWZhZ44X3l+u2/+0kv5zhoNxjy6YCAAB20cUZDrL9311Tfbd0GNgTShZm3nghflXd9q9O8tgkz0nyM/EYaAAAmFY3Jvn7JCcnOcNBtswLJQtzY7wwfzTJR+u2PyTD2S3PSfKIkrkAAIDbfCpDsfKerqmuLZwFJk7JwlwaL9hvS/K2uu2Pz1C2PDvJ0SVzAQDAAro0yTuSnNw11ZdLh4HVpGRh7o0X8pPqtn9Jlm8nclguAACsjvVZvh3o1rJxYG0oWVgY44X99CSn121/aJJnZihcfqRkLgAAmCOfzlCsvLtrqmsKZ4E1p2RhIY0X/LcmeWvd9vdP8ktJfjHJ3YsGAwCA2fOtJH+T5O1dU11QOgyUpGRh4Y0/BC8etxM9LsPqlqfGdiIAANie9UlOybBq5aNdU20sGwemg5IFRuMPw2lJTqvb/k4Znk70zCQ/nmTvktkAAGAK3JrkE0neneHpQN8rnAemjpIFVjD+YGzeTnRUkqdlKF0ekWSvktkAAGANbcrw2OX3JHl/11SXFc4DU03JAjsw/pC8Mckb67Y/JsnTMxQuDysaDAAAVs/nMhQr7+2a6pLSYWBWKFlgF4w/MK9O8uq67Y/NULg8M8kPFA0GAAB77osZtgK9t2uqi0uHgVmkZIHdNP7wvDzJy+u2v1+G1S3PSHJC0WAAALDzzs+wYuU9XVNdWDoMzDolC0zA+IP00iQvrdv+gRlWtzw9yX2LBgMAgG19Jcl7k7y7a6rzSoeBeaJkgQkbf6hekuQldds/JMPqlqcnuXfJXAAALLSvZShW3tM11TmFs8DcUrLAKhp/wM5J8nt12/9Qkp9O8tTYUgQAwOo7P8kpSf6ha6rPlg4Di0DJAmtk/GH7bJKT6ravMpQtT83wWOh9SmYDAGAubMzwuOVTkpzSNVVfOA8sHCULFDD+4G1+StFdkzw5Q+Hy+CQHlcwGAMBMuSHJ6RmKlVO7pvp24Tyw0JQsUNj4Q3hykpPrtj8wyWMzFC5PTnJkwWgAAEynK5KcmqFYOaNrqhsL5wFGShaYIuMP5IeSfKhu+72T/HC2bCu6f8lsAAAUdUHGbUBJPtM11a2F8wArULLAlBp/OM8ex4vqtj8+WwqXhyfZu2A8AABW1+Z7wc3nq3y5cB5gJyhZYEaMP6yvTPLKuu0PT/KUcTwmycElswEAMBHXJflYxpXNXVNdVTgPsIuULDCDxh/c/53kf9dtvy7DypYnjuPBSfYqGA8AgJ2zKckXkpw2jrO7ptpQNhKwJ5QsMOPGH+JPjOOkuu2PzPCUoicmeVySwwvGAwBguauSfDRDqXJ611RXFM4DTJCSBebM+EP9jiTvqNt+ryQPzVC4PCHJj8T3HgBgLd2S5NNJPpKhWPl811SbykYCVovJFsyx8Qe8G8ef1m1/aIZHRD8hQ/FyTMF4AADz6pIMhcpHMjxi+ZrCeYA1omSBBTL+wH9gHKnb/oRsKVx+PMkB5dIBAMys9Rm2bp+W5CNdU51fOA9QiJIFFth4A3B+ktfWbX9gkkdmKFx+IskD4wBdAICVbEpyXpJ/yVCsnNU11Y1lIwHTQMkCJEnGG4PNJ9unbvu7ZChdHjUOpQsAsKg2lypnjuOsrqm+UzIQMJ2ULMCKxhuHD44jddvfNctLlwdE6QIAzKdNSb6U5aXKt0sGAmaDkgXYKeONxdLzXDaXLo/OULqcEKULADCbNmXYQn1mko9HqQLsJiULsFtWKF0Oz5aVLo/OULoAAEyr8zMUKmdmKFWuKhsHmAdKFmAixhuT948jddsfkeXbi5QuAEBJm1eqnJmhVLmyaBpgLilZgFUx3ri8bxybS5cfTfLwcdTxyGgAYHWsT9IlOXsc/6pUAdaCkgVYE+ONzd+PI3Xbr0vyg9lSujwiyTHFAgIAs+ySJJ/KllLl37qm2lA2ErCIlCxAEeONz2fH8fokqdv+HlleujwkyX6lMgIAU+nmJOdkSanSNdU3y0YCGChZgKkx3iAtPddl/wxFyyOypXy5e7GAAEAJ38qWFSqfSnJO11Q3lY0EsDIlCzC1xhuozTdVSZK67e+Z5aXLg5OsKxIQAJi0DUm+kCWlStdU3ygbCWDnKVmAmTLeaH0jybuTpG77A5M8NMNBuptfj0+yd6mMAMBOuTXJlzMcUPv5za9dU91YNBXAHlCyADNtvBH7P+NIktRtf8cM24yWli/HJ9mrREYAIJsyFCq3lSkZtv18v2gqgAlTsgBzZ7xh+8Q4kiR12x+coXhZuuKliuIFACZtU5I+y1eonNM11XVFUwGsASULsBDGG7uzxpEkqdv+kGxbvBwXxQsA7KxNSS7KtoXKtUVTARSiZAEW1ngDeOY4kiR1298p2241OjaKFwDYlOTibLvl53tFUwFMESULwBLjjeK/jCNJUrf9HZI8cBwnLhmHl8gIAGvgqiTnLhnnJTmva6rri6YCmHJKFoAdGG8oPzOO29Rtf2SWly4nJjkhyUFrnREAdtMNSc7P8kLl3K6priiaCmBGKVkAdtN4A3pFkjM2f1a3/d4ZznU5MctXvlRJ9ikQEwCSZGOGw2iXrkw5N8lFXVPdWjIYwDxRsgBM0Hij+pVxfHDz53XbH5BhlcvWK1+OKhATgPl2WbZamZLk/K6p1hdNBbAAlCwAa2C8sT1nHLep2/6wJPdLcv/xdfOokuy3xjEBmB03Z1iZcuGScUGSC7umurpkMIBFpmQBKGi8Ef70OG5Tt/0+Se6dLaXL0hLmbmubEoCCLs9WJco4vtY11caSwQDYlpIFYAqNN84XjeOfl/5d3faHZPmql80lzH2THLC2SQGYgPUZtpkuLVEuzLAq5dqSwQDYNUoWgBkz3nB/bhy3GQ/dvWeWly/HJzl2/Nw1H6CcW5J8I8nFSb6c5WXKNxw+CzAf3HADzInxBv1r4/jI0r8btx8dk6Fwuc8Kr0esYVSAeXVlkq9mKFK2fr3E9h6A+adkAVgA443918axjbrt75CVy5fNrwetRU6AKXdDtl+ifLVrqusLZgNgCihZAMg4MThvHNuo2/7IbL+EuUf8ngDz4ZYk38z2S5QrCmYDYAa4KQZgh8aJxRXZ6ilIyW1bke6W5OitxjFL3t89ybq1yguwgg1JvpXk0nFcsuT95nG5LT0A7AklCwB7ZJyQfHMcn1np34yH8h6R5cXL1mXMPZLstwaRgflzc4Zr0PbKk0uSXOlwWQBWm5IFgFU3TmwuH8fnVvo3ddvvleTwbLsK5ugkRyU5chx3SbL36qcGpsCtSb6TYSXdFUkuy7blyaVJruqaalOpkACwmZIFgKkwTpCuHMc52/t34/aku2ZL6XLEkvdb//mI2KYE02ZDhu/55uJk6fut//xt23cAmCVKFgBmyjjh2jwB26G67Q/LzhUyhye54ypEhkXw/SRXZSeKk66pri4VEgBWm5IFgLk2TuiuTnLBjv5t3fbrktx5HIcteb+9zzb/+U5J9lmF+LCWNib5XpLvZvjOfHfJ2PrPyz7rmmpDicAAMG2ULAAwGieKO71KZrPxPJlDc/tFzOZxaIYVMweP447jcM4Me+rWDCtKvp/kunF8P8k1uf3CZPOfr3GuCQDsGSULAOyhcWL6vXHslrrtD8ry4mV33i/9zG/89Lsly8uQpa+7/L5rqhvWOD8AsBU3YAAwBcYJ8g3ZxVU021O3/b5J9k9ywPi6Wu/XZdgqtfcKryt9trt/t3eGlRq3ZtjWsvR1pc/25O82JLlpHOtX633XVLds/79BAGAWKVkAYA6NE/hbklxfOgsAwKKw/xsAAABgApQsAAAAABOgZAEAAACYACULAAAAwAQoWQAAAAAmQMkCAAAAMAFKFgAAAIAJULIAAAAATICSBQAAAGAClCwAAAAAE6BkAQAAAJgAJQsAAADABChZAAAAACZAyQIAAAAwAUoWAAAAgAlQsgAAAABMgJIFAAAAYAKULAAAAAAToGQBAAAAmAAlCwAAAMAEKFkAAAAAJkDJAgAAADABShYAAACACVCyAAAAAEyAkgUAAABgApQsAAAAABOgZAEAAACYACULAAAAwAQoWQAAAAAmQMkCAAAAMAFKFgAAAIAJULIAAAAATICSBQAAAGAClCwAAAAAE6BkAQAAAJgAJQsAAADABChZAAAAACZAyQIAAAAwAUoWAAAAgAlQsgAAAABMgJIFAAAAYAKULAAAAAAToGQBAAAAmAAlCwAAAMAEKFkAAAAAJkDJAgAAADABShYAAACACVCyTJd967bfq3QIAAAApt84f9y3dA62ULJMl32SHFY6BAAAADPhsAzzSKaEkmX6HFE6AAAAADPh8NIBWE7JMn18SQAAANgZ/k/6KaNkmT53Kx0AAACAmWD+OGWULNPnoaUDAAAAMBPMH6eMkmX6/GjpAAAAAMwE88cpo2SZPg+r236/0iEAAACYXuO88WGlc7CckmX67J+kLh0CAACAqVZnmD8yRZQs0+knSgcAAABgqpk3TiEly3R6dukAAAAATDXzximkZJlOx9dt7wAjAAAAtjHOF48vnYNtKVmm138tHQAAAICpZL44pZQs0+vpddsfVDoEAAAA02OcJz69dA5WpmSZXgcneVbpEAAAAEyVZ2WYLzKFlCzT7X/Wbb+udAgAAADKG+eH/7N0DrZPyTLd7pPkl0uHAAAAYCr8coZ5IlNKyTL9XlK3/f6lQwAAAFDOOC98Sekc3D4ly/Q7OsmvlQ4BAABAUb+WYX7IFFOyzIYX121/h9IhAAAAWHvjfPDFpXOwY0qW2XBkkj8pHQIAAIAi/iTDvJApp2SZHS+o2/6HS4cAAABg7YzzwBeUzsHOUbLMjr2T/JVHOgMAACyGcf73VzF3nxn+i5otD0xyUukQAAAArImTMswDmRFKltlzUt32J5QOAQAAwOoZ533+T/YZo2SZPfslOblu+/1KBwEAAGDyxvneyRnmf8wQJctseliS15UOAQAAwKp4XYZ5HzNGyTK7nlu3/bNLhwAAAGByxnnec0vnYPcoWWbbW+u2f1DpEAAAAOy5cX731tI52H1Kltl2YJIP1m1/aOkgAAAA7L5xXvfBDPM8ZpSSZfYdl+QdddvvVToIAAAAu26cz70jw/yOGaZkmQ9PSfKy0iEAAADYLS/LMK9jxilZ5seL6rZ/QekQAAAA7LxxHvei0jmYDCXLfHlt3fbPLB0CAACAHRvnb68tnYPJUbLMl72SvL1u+8eVDgIAAMD2jfO2t2eYxzEnlCzzZ78MTxx6aOkgAAAAbGucr30ww/yNOaJkmU93TPLhuu2r0kEAAADYYpynfTjDvI05o2SZX4cnOaNue48AAwAAmALj/OyMDPM15pCSZb7dK8kn6ra/f+kgAAAAi2ycl30iwzyNOaVkmX93T3JW3fYPKh0EAABgEY3zsbMyzM+YY0qWxXBEko/Xbf+w0kEAAAAWyTgP+3iGeRlzTsmyOO6c4YyWHy0dBAAAYBGM868zMszHWABKlsVySJKP1G3/mNJBAAAA5tk47/pIhnkYC0LJsnjukOTUuu1/rnQQAACAeTTOt07NMP9igShZFtMBSd5Xt/2LSwcBAACYJ+M8630Z5l0smL0e+tavbCodgqJOTvKrXVPdXDoIAADArKrbfr8kb03ynMJRKMhKFp6T5PS67R3EBAAAsBvG+dTpUbAsPCULSfLIJJ+u2/740kEAAABmyTiP+nSGeRULTsnCZvfNULQ8unQQAACAWTDOnz6dYT4FShaWOSzDI56b0kEAAACm2Thv+kiGeRQkcfAt2/eOJM/tmur60kEAAACmRd32d0jyF0meXToL08dKFrbn2Uk+W7f9CaWDAAAATINxfvTZKFjYDiULt+eEJJ+r2/4XSwcBAAAoaZwXfS7DPAlWZLsQO+uvk/yPrqluLB0EAABgrdRtf2CSNyb5ldJZmH5WsrCzfiXJZzzmGQAAWBTj/OczUbCwk5Qs7IoTk3y+bvtnlg4CAACwmsZ5z+czzINgp9guxO56Z5Lnd011dekgAAAAk1K3/WFJ3pDkF0pnYfZYycLu+oUk59Vt/6TSQQAAACZhnN+cFwULu8lKFibhr5O8sGuqa0sHAQAA2FV12x+S5DVx9gp7yEoWJuFXkpxbt/1jSgcBAADYFeM85twoWJgAK1mYpE1J3pLk97qmur50GAAAgO2p2/4OSf48yfOS7FU4DnPCShYmaa8k/z3JF+u2/4+lwwAAAKxknK98McP8RcHCxFjJwmq5NcOJ3L/fNdX3S4cBAACo2/6OSf4kyfNj0QGrwP+oWC17J/mNJBfUbf+00mEAAIDFNs5LLsgwTzEXZlVYycJaOS3Jr3dNdVHpIAAAwOKo2/64JG9K8sTSWZh/ShbW0vokL0vyiq6pbiodBgAAmF912++f5HeTnJTkgMJxWBCWSLGWDkjy0iT/Xrf9Y0uHAQAA5tM43/j3DPMPBQtrxkoWSvq7JC/smury0kEAAIDZV7f93ZK8JsmzSmdhMSlZKO3aJC9J8pauqTaWDgMAAMyeuu33SfK8JH+a5JDCcVhgtgtR2iEZHvX8hbrtHUQFAADsknEe8YUM8woFC0VZycK0OSPJ73RN9YXSQQAAgOlVt/2Dk7wyifMemRpKFqbRrUnekeQlXVNdWjoMAAAwPeq2PzrDtqBnx+4MpoyShWl2Y5LXJnl511TXlQ4DAACUU7f9wUlelOQ3kxxYOA6sSMnCLLgyyR8nabumuqV0GAAAYO3Ubb9vkibJHyY5onAcuF2WVjELjkjy5iTn1W3/1NJhAACAtTHe/5+XYT6gYGHqWcnCLPpEkpO6pvrX0kEAAIDJq9v+R5O8LMmPl84Cu0LJwiw7I8kfdk31qdJBAACAPVe3/SMyHBXgiUHMJCUL8+D0JH/UNdXZpYMAAAC7rm77hyf5oySPLxwF9oiShXnykQxly6dLBwEAAHasbvsfyVCuPKFwFJgIJQvz6LQMZctnSgcBAAC2Vbf9D2coV55YOApMlJKFefbhDGe2fK50EAAAIKnb/mEZzlx5UukssBqULCyCf8qwsqUrHQQAABZR3fZ1hpUr/6lwFFhVShYWyRlJXtk11emlgwAAwCKo2/7xSX47yeNKZ4G1oGRhEf17klcn+buuqTaUDgMAAPOkbvt1SZ6V5LeSPKhwHFhTShYW2TeTvD5J2zXVNaXDAADALKvb/tAkTZIXJLlH4ThQhJIFkuuSvC3J67qmuqR0GAAAmCV12x+T5DeS/H9JDi4cB4pSssAWtyR5b5JXdU31b6XDAADANKvb/gcznLfy9CT7Fo4DU0HJAiv7WIay5bTSQQAAYJrUbf/EDOXKY0pngWmjZIHbd16S12U4JPeG0mEAAKCEuu0PynCY7W8keWDhODC1lCywc76X5O1J/qJrqgtLhwEAgLVQt/39kjw3yS8luVPhODD1lCywazYl+Zckb0nyj11T3VI4DwAATFTd9vsm+akkz0vyE0n2KpsIZoeSBXbfN5O0Sd7WNdVlpcMAAMCeqNv+qAxPCGriEcywW5QssOduSfIPSd7SNdXHS4cBAIBdUbf9ozOsWvnpeEoQ7BElC0zWBRm2Ev1N11TXlA4DAAArqdv+0CS/mKFcuX/hODA3lCywOq5P8q4MB+X+W+kwAACQJHXb/2CGg2x/PskdCseBuaNkgdX3b0lOTvKurqm+XTgLAAALpm77u2YoVZ6T5AfLpoH5pmSBtbMhyakZCpd/9mQiAABWy/iEoJ/MUKw8Ocm6ooFgQShZoIwrk7wzycldU51bOgwAAPOhbvsTMxQrv5DkiLJpYPEoWaC8c7JlO9F3CmcBAGDG1G1/l2zZDvSQsmlgsSlZYHrcnORDGQqX02wnAgBge8btQE/MUKw8Jcl+RQMBSZQsMK2uyJbtROeVDgMAwHSo2/6B2bId6MiyaYCtKVlg+n0+yd8meV/XVJeWDgMAwNqq2/7oJP85yX9J8tDCcYDboWSB2bEpyaeSvCfJ+7umuqxwHgAAVknd9kcleVqSZyR5RJK9yiYCdoaSBWbTrUk+maFw+UDXVFcWzgMAwB6q2/6IJD+XoVj5sSR7l00E7ColC8y+jUnOzFC4fNATigAAZsf4ZKCfzVCsPCrJPkUDAXtEyQLz5ZYkH8tQuPxD11RXF84DAMBW6rY/LMlPZyhWHpNk37KJgElRssD8ujnJRzMULqd0TXVt4TwAAAurbvtDkjw1Q7HyuHjkMswlJQsshpuSnJbk75P8U9dU3y6cBwBg7tVtf9ck/ynJzyR5YpL9yyYCVpuSBRbPxiRnJzklyT92TfXlwnkAAOZG3fbHJ/mpDKtWHh5nrMBCUbIAF2YsXJKc3TXVrYXzAADMjLrt985QpmwuVu5XNhFQkpIFWOqqJKdmKFxO75rqhsJ5AACmTt32ByV5fIZi5clJDi+bCJgWShZge9ZneFLRKUlO7ZrqssJ5AACKqdv+qAyFylMzPBHogLKJgGmkZAF2xqYkn8uWc1zOK5wHAGDV1W3/wGzZBvSwJHuVTQRMOyULsDu+luQj4/iYx0MDAPNgfMzyY5I8YRz3LhoImDlKFmBP3ZLk09lSunze4bkAwCwYD619aLaUKj+SZN+ioYCZpmQBJu07Sc7IWLp0TfWtwnkAAG5Tt/3ds6VUeWySu5RNBMwTJQuw2s7LllUun+yaan3hPADAAqnb/oAkP5YtxcoDyyYC5pmSBVhLNyY5K8npGVa5nF84DwAwh+q2PyFDofL4JI9McmDZRMCiULIAJV2S5KNJPp7krK6pLimcBwCYQXXbH5OhTHl0ksclOaZsImBRKVmAaXJxkjMzrHY5q2uqr5eNAwBMo7rt75WhVHlkkkclObZoIICRkgWYZl/LULicmaF0+WrRNABAEXXb3ydbCpVHxqOVgSmlZAFmyTeyvHS5qGwcAGA11G1/XJaXKvcsGghgJylZgFl2aZaXLl8pGwcA2B112983y0uVo4sGAthNShZgnnwrySeSfCrJ2Um+2DXVhrKRAICl6rZfl+QHkjw8ySOS/HiSuxcNBTAhShZgnt2YpMtQuJyd5Oyuqa4oGwkAFkvd9kdmKFQ2jzoeqQzMKSULsGi+mi2ly6eS/HvXVLeUjQQA86Fu+32TPCjDCpXNpcp9ioYCWENKFmDR3ZDkc1m+2uWqspEAYDbUbX94lq9SeViSg4qGAihIyQKwrYuypHRJcp6zXQBYdONZKg/M8lLluKKhAKaMkgVgxzYkOT/JF5N8YXz9YtdU3ymaCgBWSd32d8lwOO0PJHnw+HpCknUlcwFMOyULwO67NGPhki3lS9811a1FUwHATqrbfu8kVZaXKT8Qj1AG2C1KFoDJuj7JuVlevJzbNdX3i6YCYOHVbX/HJCdmeaFyYpI7lMwFME+ULACrb1OSPttuN7qkaCoA5lbd9sdk2+0+VZK9SuYCmHdKFoByvptttxud3zXVzUVTATAz6rbfL8NZKVtv97lzyVwAi0rJAjBdNiT5v9l21cu3i6YCoLi67e+abVen/Ic4jBZgaihZAGbDN7NV8ZLkKw7ZBZg/42G09822hco9SuYCYMeULACz64YsP2T3giQXJblU+QIw/cYy5egkxyW5f5YfRntQwWgA7CYlC8D8uSnJVzMctttnKF42v36ta6oNBbMBLJS67dcluXeGIqVa8loluU+S/YuFA2DilCwAi2Vjkq9nefGyuYy5uGuqGwtmA5hJddsfmOTYbClPlhYq90qyT7l0AKwlJQsAm21K8q2sXMBc1DXVNQWzARRVt/2hWb4KZWmRcvd4NDIAUbIAsPO+na2Kl2wpYK4sGQxgEuq2PyIrb+s5LsldC0YDYEYoWQCYhOuynQImw0G8fmuA4uq23ytbDppdqUg5uFw6AOaBkgWA1bY+ycXZdhvSN5Jc3jXV1QWzAXOmbvvDktwtyT2z7baeY5McUC4dAPNOyQJAaeuTXJ7ksu2MzX93pUdTw2IaH3V8RJKjMhQoR21n3C1KFAAKUrIAMCs2JrkyOy5jLu+a6qZSIYGdV7f9/tlSmtxeeXJEPKEHgBmgZAFgHn03Oy5jLuua6rpiCWGO1W1/cJavLtleeXLnUhkBYDUoWQBYZNdnJ8qYJN9xeC+Lbjw09i7ZufLkDoViAkBRShYA2LENGUqXy5N8L8k1K4xrt/d511TrC2SGbdRtf0CSQ5IcusLY3ud3ylCo3C3JurVPDQCzQ8kCAKvv5uxkIbO9z7um+v7ax2aa1G1/x+x6QbL15/uteXAAWCBKlulyU5JnJXltknsVzgLAdNmYbUuYXSlrrstQ9mxIssH2p9U3bq9ZN479khyc3S9HDomDXwFY7utJfjPJ3yXZv3AWRkqW6XJT11QH1G1/YJIXJ/mdeAwhAKtjY8bCJcktS95v2MHnu/JvJ/n5xgwlw7qtxr4rfDYtnytFAFgN65O8MsmfdU11Y93266NkmRr7lg7AtrqmujHJH9Rtf3KS1yd5ctlEAMyhfcahzAeA2XFqkhd0TXVx6SCsTMkyxcYvzlPqtv9PGcqW4wpHAgAAYO1dlKFc+afSQbh9e5cOwI6NX6QHJPn9JDcWjgMAAMDauDHDPPABCpbZYCXLjOia6qYkf1q3/TuSvCbJzxaOBAAAwOr5YJIXdk319dJB2HlKlhkzfsF+rm77xyd5Q5L7FY4EAADA5FyY5PldU51eOgi7znahGTV+4R6U5EVJri8cBwAAgD1zfYb53YMULLPLSpYZ1jXVzUn+vG77dyZ5dZJnFI4EAADArntPkt/qmuqbpYOwZ0Fi3+QAACAASURBVJQsc2D8Ij6zbvu3JnljhkNyAQAAmG5fSvI/uqb6eOkgTIbtQnNk/GI+OMkLk3yvcBwAAABW9r0M87YHK1jmi5Usc6ZrqluSvLZu+5OT/F6S5yc5sGgoAAAAkuGRzG9I8uddU11dOgyTp2SZU+MX9kV1278+yR8k+W/x3zcAAEAJtyT5qyQv7ZrqstJhWD0m3XNu/AI/t277Vyd5aZJnJtmrbCoAAICFsCnJu5P8QddUfekwrD4ly4IYv9A/X7f9K5K8LMmTCkcCAACYZx9OclLXVF8oHYS1o2RZMOMX/Cfrtv+xJC9P8ojCkQAAAObJp5K8qGuqT5YOwtpTsiyo8Qv/o3XbPyXJ/0pyYuFIAAAAs+zcJP+za6oPlQ5COR7hvODGC8CDkzw7yVcLxwEAAJg1X80wn3qwggUrWUjXVLcmeWfd9u9J0iT5/SRHlk0FAAAw1a5I8idJ2q6pNpQOw3RQsnCb8cLw5rrtT07ygiS/m+TQoqEAAACmyzVJXpHk9V1TXV86DNNFycI2xgvFy+q2/8skL0ry60kOLJsKAACgqBuTvCnJy7um+m7pMEwnJQvbNV44frdu+1cl+Y0kz4uVLQAAwGK5Jslbkryua6orS4dhuilZ2KHxQnJS3fYvT/JrSX4zyd3KpgIAAFhVlyd5bZK/7Jrq2tJhmA1KFnbaeGF5Rd32r0/ynCS/k+S4oqEAAAAm66Ikr0xyctdUN5UOw2xRsrDLxgvNW+u2/6skT8twbsuDy6YCAADYI19I8vIk7++aamPpMMwmJQu7bbzwvCfJe+q2f2KGsuWRZVMBAADskrMyHGZ7WukgzD4lCxMxXpBOq9v+4RnKlqck2atsKgAAgBVtSvKhDOXK2aXDMD+ULEzUeIF6at32JyT5vSQ/H/87AwAApsMtSd6V5M+7pjq/dBjmj8kvq2K8YP1S3fa/n+S3k/xKkoPKpgIAABbUDUn+Osmruqb6RukwzC8lC6tqvIA9v277lyZ5fpJfT3JY2VQAAMCCuDrJm5K8oWuqb5cOw/xTsrAmxgvaH9Rt/4okv5qhcLln2VQAAMCc+kaSNyR5a9dU3y8dhsWhZGFNjRe4V9dt/7okT07y35M8Ng7JBQAA9symJGckeXOSUz2GmRKULBQxXvBOSXJK3fbHZyhbfinJoUWDAQAAs+aaJG9P8uauqb5cOgyLTclCceOF8AV125+U5BcyFC4nlk0FAABMuXMzrFp5Z9dU15cOA4mShSkyXhjfmuStddv/WIay5WeTrCsaDAAAmBYbknwww6qVT5YOA1tTsjCVxgvmJ+u2PypJM467l00FAAAU8q0kbZK2a6rLSoeB7VGyMNXGC+gf123/v5L8TIbVLY8smwoAAFgjZ2XYEvT3XVPdUjoM7IiShZkwXlDfl+R9dds/MEPZ8gtJ7lg0GAAAMGnfT/LODFuCzisdBnaFkoWZM15on1u3/e9leCLR85Lcv2wqAABgD12Q5C1J3t411bWlw8DuULIws8YL7xuTvLFu+8ck+fUkT0myT9FgAADAztqY5ENJ3tQ11cdKh4E9pWRhLowX5I/VbX+3DNuInpPkAUVDAQAA2/OlJCdnePzy5YWzwMQoWZgr4wX6VUleVbd9naFseVaSO5fMBQAA5LtJ/i7JyV1TdaXDwGpQsjC3xgt3V7f9CzNsI3pOkifG/+4BAGCt3JLktAyrVj7UNdXNZePA6jLZZO6NF/IPJPlA3fZHZthO9EtJTiwaDAAA5te5Sd6eYTvQFaXDwFpRsrBQxgv8q5O8um77h2RY3fLzSe5SMhcAAMyB7yR5V4btQOeUDgMlKFlYWOOF/5y67X87yZMzrG75yfheAADAzrolyT9nWLVyqu1ALDqTSRbe+EPwwSQfrNv+iCT/JcMKlweVzAUAAFPs3zOcs/K3XVNdWTgLTA0lCywx/kC8Nslr67b/gSTPTPKMJPcpGgwAAMr7apL3JHl311RfLB0GppGSBbZj/OH4YpIX123/QxkKl6cnuUfRYAAAsHa+meS9GYqVz5YOA9NOyQI7YfxB+Wzd9r+V5D9mKFyeluSIosEAAGDyrkzy/iTvTvJ/uqbaVDgPzAwlC+yC8Qfmk0k+Wbf985M8OkPh8rNJDiuZDQAA9sDVGc4pfHeSj3dNtbFwHphJShbYTeMPzxlJzqjb/rlJHp/h/JafTnJwyWwAALATrkvyDxnOWTm9a6oNhfPAzFOywASMP0j/lOSf6rY/IMOjoJ+R4dHQB5XMBgAAS9yQ5NQMxco/d021vnAemCtKFpiw8Ydq8yOh75DkKRm2FD0xyf4lswEAsJBuSnJahq1AH+qa6vrCeWBuKVlgFY0/YO9O8u667Q/JULQ8NcNKlzuVzAYAwFz7XpJ/TnJKktO6prq2cB5YCEoWWCPjD9t7k7y3bvt1SX48Q+HyU0nuVTIbAABz4etJ/jFDsfIJZ6zA2lOyQAHjD97HxvH8uu0fnKFweWqSHyyZDQCAmfJvGUqVU7qm+kLpMLDolCwwBcYfxC8k+eO67Y/JlsLlkUnWlcwGAMBU2ZDkrGwpVi4pnAdYQskCU2b8oXxTkjfVbX9okidlKFyelOTQktkAACjimiQfzlCsfLhrqmsK5wG2Q8kCU2z8Ad18cO66JI/KlnNcjikYDQCA1XVJtpyvcqbzVWA2KFlgRow/rB8dx6/Xbf+QDI+HfkKSH0qyT8F4AADsmY1JPpvkIxkes3xO4TzAblCywIwaf3jPyXCOy2FJHpuhcHlCkqNLZgMAYKdcmqFU+UiSM7qmurpwHmAPKVlgDow/yO8bR+q2f0C2FC4/nuSAcukAABitT/KJjMVK11RfKpwHmDAlC8yh8Qf7S0leU7f9gRmeUrS5dPkPJbMBACyY/5stq1XO6prqxsJ5gFWkZIE5N/6QnzaO1G1/z2wpXB4bTywCAJika5KckS2rVb5ROA+whpQssGDGH/q3JXlb3fb7JPmRbCld6iR7F4wHADBrbk3SZctqlU93TbWxbCSgFCULLLDxBuBfx/EHddvfJcnjkvxEhsdF37dcOgCAqfWVJGcm+ZckH+2a6jtl4wDTQskC3Ga8QXj3OFK3/d0zlC2PSvLoJFWpbAAABfVJPp6hWDmza6pvlY0DTCslC7Bd4w3Eu8aRuu3vkS2ly6OidAEA5lOfsVDJUKp8s2gaYGYoWYCdNt5g/O04Urf90VleuhxXKBoAwJ64KMtLlUuLpgFmlpIF2G3jDcg7x7G0dHn0+HpsqWwAALfj4gyFysejVAEmSMkCTMwKpcsxWb7SRekCAJSwuVQ5M0OpcknRNMDcUrIAq2a8gXnHOFK3/VFJHpHk4ePrQ5LsXywgADCPbkpyTpJPJTk7yae6prqsbCRgUShZgDUz3uB8YByp237/DEXL0uLlqGIBAYBZdFmWFCpJzuma6qaykYBFpWQBihlvgM4eR5Kkbvt7Z0vh8ogkD4prFQAwuCXJv2coUz6V5Oyuqb5WNBHAEiYuwFQZb5S+luTvkqRu+4OS/FC2FC8PT3KXQvEAgLX1nWxZoXJ2ks92TXVD2UgA26dkAabaeCN15jiSJHXbH58tK10enuSEJHsXiAcATM6tSc7PllLlU11TfblsJIBdo2QBZs54w/XlJCcnSd32hyT5wSR1koeO475J9ioUEQC4fZuSfCXJ58fRJfm3rqmuLZoKYA8pWYCZN96QnTWOJMuKl4cuGcdH8QIAa21Thv9z5PNLhkIFmEtKFmAubad4OTjD04wULwCwOlYqVM7pmuq6oqkA1oiSBVgY4w3eSsXL1luNFC8AsGNbFyqbt/woVICFpWQBFtp4I/iJcSRZVrxsLl0elOR+SfYrkREApsDNSS7M8PjkpVt+FCoASyhZALayneJlXYYVLiduNe4Vq14AmB+bknw9yblbjS93TbWhZDCAWaBkAdgJ443ll8bx7s2fj6teHpjlxcsDk9ylQEwA2BXfSXJelpcp51mdArD7lCwAe2C8ET17HLep2/7u2bZ8OSHJAWudEYCFtz7J+dm2TPlW0VQAc0jJArAKxhvXbyU5ffNnddvvk6TK8uLlAUmOjesxAHvuliQXZ1h1ubRQ6bum2lgyGMCicFMPsEbGG9wLx/H+zZ+P570cl+T+GQ7YXfp62NonBWDKXZ3kggy/J0tfL3JuCkBZShaAwsYb4gvGsUzd9odnS+mytIA5Nsk+axgTgLW1McOqlKVFyoVJLuia6qqSwQDYPiULwBQbb6SvSvLJpZ/Xbb9fVl79cr9Y/QIwS67OkgIly1el3FwyGAC7TskCMIPGG+//O45l6rY/IltKl+MzrHo5Nsl9khy6hjEBGFyT5KsZVqZcnOTL2bIq5cqSwQCYLCULwJwZb9ivTPKJrf+ubvs7Zyhbjl3h9V5J1q1dUoC5sSHJ1zMUKF/d+rVrqu8WzAbAGlKyACyQ8Ub/u0k+v/Xf1W2/d5Kjs/0S5m5rlxRg6lye7ZQoSS7tmurWgtkAmBJKFgCSJOME4RvjOGvrv6/b/sAMhcvW5cs9kxyT5K5rFhZg8r6d5JIM18CtS5Svdk11Y8FsAMwIJQsAO2WcYJw/jm3UbX9AkntkWA1zdIbi5eitxhFJ9lqLvACjTRm2UF661bhkyftvdk21vlhCAOaGkgWAiRgnKBeNY0XjU5GWFjErlTFHJtl7tfMCc+HWJFdk++XJ5gLFU3oAWBNKFgDWzDjR+eo4VlS3/bokd8/y4uWoDOXLkRlWwxyZ5PAk+6xyZKCMjRkeX39FhlUoV4zjsiwvUL7VNdWGUiEBYGtKFgCmyjhh+vo4tms8qPcu2VK6bF3CbP1+/9VLDeyEm7KlLLlyO+83//k7DpIFYBYpWQCYSeME7KpxfGlH/75u+0Nz+4XM4UnuvGTstyrBYX7cnOFpZZvH5pUnKxYnXVNdUygnAKwZJQsAC2Gc4F2T5Cs78+/rtj8oy0uXOyc5bAd/vnOSgyedHVbZdVlelnw3ydU7+PN3u6a6oUhaAJhiShYAWME4gbwhw7kPO61u+32zvHzZuog5JEMRc8dxbO+9w3/ZkVuTfH8c193O+2uz/cLk6q6pblnz5AAwp5QsADBB44R18zam3TaupLm9ImZHRc2BSQ4Yx/5bva7bk2zskg1J1mc4j2Tp6/okN2bHBcnW72/7zEoSAJg+ShYAmEJLVtJcOen/7PHQ4M2Fy0olzPber/TZugxPedp7hdeVPtvdv9s7w8qNWzM8eWbp60qf7cnfbV2MbK8k2eHfO7wVABaLkgUAFsw48b9xHAAATIj93gAAAAAToGQBAAAAmAAlCwAAAMAEKFkAAP4fe3ceZslZl4/7mcm+QQiETdkLWTQoUgECIsKXXUVAEFFRVCxFRQURQVR+CAgGBAHZil2QXSFAgIQ1IAmQgrBIMFIg+xIgCdkzSWZ+f1RNZuuZ6e453e9Z7vu66uqmJ93n4cr0Oefz5H3fAgCYACULAAAAwAQoWQAAAAAmQMkCAAAAMAFKFgAAAIAJULIAAAAATICSBQAAAGAClCwAAAAAE6BkAQAAAJgAJQsAAADABChZAAAAACZAyQIAAAAwAUoWAAAAgAlQsgAAAABMgJIFAAAAYAKULAAAAAAToGQBAAAAmAAlCwAAAMAEKFkAAAAAJkDJAgAAADABShYAAACACVCyAAAAAEyAkgUAAABgApQsAAAAABOgZAEAAACYACULAAAAwAQoWQAAAAAmQMkCAAAAMAFKFgAAAIAJULIAAAAATICSBQAAAGAClCwAAAAAE6BkAQAAAJgAJQsAAADABChZAAAAACZAyQIAAAAwAUoWAAAAgAlQsgAAAABMgJIFAAAAYAKULAAAAAAToGQBAAAAmAAlCwAAAMAEKFkAAAAAJkDJMl02lA4AAADATDFHThEly3Q5sG77Q0qHAAAAYPqN8+OBpXOwjZJl+ly7dAAAAABmgvlxyihZpo9fEgAAAJbD/DhllCzTxy8JAAAAy2F+nDJKlulz89IBAAAAmAnmxymjZJk+dy4dAAAAgJlgfpwySpbp45cEAACA5TA/Thkly/S5Xt32Ny0dAgAAgOk1zo3XK52DHSlZptPPlQ4AAADAVDM3TiEly3R6cOkAAAAATDVz4xRSskyn+9Ztf53SIQAAAJg+47x439I52JWSZTrtn+ThpUMAAAAwlR6eYW5kyihZptfvlg4AAADAVDIvTikly/S6dd32dygdAgAAgOkxzom3Lp2DpSlZpttflw4AAADAVDEnTjEly3R7YN32dekQAAAAlDfOhw8snYPdU7JMv6eWDgAAAMBUeFrpAOyZkmX63adu+58rHQIAAIByxrnw3qVzsGdKltmgrQQAAFhs5sIZoGSZDXet296+OwAAgAVUt/0Dkty1dA72TskyO15Yt/2RpUMAAACwfuq2v3qSF5bOwfIoWWbH9ZI8q3QIAAAA1tXxSa5fOgTLo2SZLY+s2/5upUMAAACw9uq2v2uSPyidg+VTssyel9Vtf0jpEAAAAKyduu0PTtIm2VA6C8unZJk9N4tTpQEAAObdk5P8ROkQrIySZTY9pm77XyodAgAAgMmr2/7eSR5fOgcrp2SZTRuSvLZu+5uWDgIAAMDk1G1/oySvj3l9JvmXNruOTPLWcZ8eAAAAM65u+4OS/EeSo0pnYXWULLPttnG/dAAAgHnxr0luVzoEq6dkmX2/V7f975cOAQAAwOrVbf97SR5ZOgf7RskyH/61bvtjS4cAAABg5cZ5zi6FOaBkmQ8HJzmxbvublw4CAADA8o1z3IkZ5jpmnJJlfhyd5OS67a9XOggAAAB7N85vJ2eY55gDSpb5cuMk763b/uqlgwAAALB749z23gxzHHNCyTJ/bpPkhPHWXwAAAEyZcV47IcP8xhxRssynuyZ5fd32/v0CAABMkXFOe32GuY05YwifXw9K8tK67TeUDgIAAEAyzmcvzTCvMYeULPPtkUleVbf9fqWDAAAALLJxLntVhjmNOaVkmX+/k2Hr0AGlgwAAACyicR57fYb5jDmmZFkMv5bkPx2GCwAAsL7GOew/M8xlzDkly+L4pSTvqtv+0NJBAAAAFsE4f70rwzzGAlCyLJZ7JDmpbvurlQ4CAAAwz8a566QMcxgLQsmyeH4uyQfqtr9W6SAAAADzaJy3PpBh/mKBKFkWU53kE3Xb37J0EAAAgHkyzlmfyDB3sWCULIvrpklOq9v+7qWDAAAAzINxvjotw7zFAlKyLLYjk7y3bvvfLx0EAABglo1z1XszzFksqA23e+mXtpQOwVT4pyRP7JrK3wcAAIBlqtt+Q5JnJPnr0lkoz0oWtvrrJG+p2/6Q0kEAAABmwTg/vSUKFkZKFrb3q0lOqdv+uqWDAAAATLNxbjolwxwFSZQs7OrYJJ+q2/7nSwcBAACYRuO89KkM8xNcxZks7M6VSf4uyTOd0wIAAHDV+StPSPLUJPsVjsMUspKF3dkvyT8mObFu+2uWDgMAAFDSOBedmGFOUrCwJCULe3PfJGfUbX9c6SAAAAAljPPQGRnmI9gtJQvLcYMkH6nb/i9LBwEAAFhP4xz0kQxzEeyRM1lYqXckeUTXVOeWDgIAALBW6ra/RpJXJ7l/4SjMECtZWKn7J/l03fZ3KR0EAABgLYzzzqejYGGFrGRhtTYneV6SJ3VNdUnpMAAAAPuqbvtDkjw9yZ/HogRWwV8aVmtjksdkOBT3DqXDAAAA7Itxrjkjw5xjVmZVrGRhEq5M8qwkT+6aalPpMAAAAMtVt/2BSZ6S5K/i1szsI+0ck7Bfkick+VTd9rctHQYAAGA5xvnlUxnmGQUL+8xKFibt8gx7GJ/eNdUVpcMAAADsrG77/ZM8abwOKByHOWIlC5N2QJL/L8kn6rb/qcJZAAAAdjDOKZ/IMLcoWJgoK1lYS5cneW6Sf+ia6qLSYQAAgMVVt/1hSf4+w8G2yhXWhJUsrKUDkjw+yZl12/9K6TAAAMBiGueRMzPMJwoW1oyVLKyndyZ5dNdUXysdBAAAmH91298oyQuS/HLpLCwGJQvr7eIkT03yz11TXV46DAAAMH/qtj8gyV8m+bskhxaOwwKxXYj1dmiSZyT5bN32dy0dBgAAmC/jnPHZDHOHgoV1ZSULpb02yeO6pjq7dBAAAGB21W1/7STPTvLw0llYXEoWpsG5GW6f9mJbiAAAgJUYtwY9KsNMcY2yaVh0tgsxDa6R5HkZ7kL0q6XDAAAAs2GcH87MME8oWCjOSham0akZthCdVjoIAAAwfeq2Py7D1qA7lc4C21OyMM3ekuSJXVN9uXQQAACgvLrtb5bhQNuHlM4CS1GyMO02JXlRkqd2TXVO6TAAAMD6q9v+qAy3Y/7jJAcWjgO7pWRhVpyX5OlJXtA11WWlwwAAAGuvbvuDkjw6yZOSHFk4DuyVkoVZ89Ukf5PkjV1T+bsLAABzqG77DUl+Pck/Jrlx2TSwfEoWZtXnk/xDkv9QtgAAwHwYy5VfTfL3SY4pHAdWTMnCrFO2AADAjFOuMC+ULMwLZQsAAMwY5QrzRsnCvFG2AADAlFOuMK+ULMwrZQsAAEwZ5QrzTsnCvFO2AABAYcoVFoWShUXx+STPTPLmrqmuKB0GAAAWQd32+yf5tSRPiHKFBaBkYdF8Pcm/JHlZ11QXlg4DAADzqG77w5P8QZK/SHLDwnFg3ShZWFTnJXlJkud3TfWd0mEAAGAe1G1/vSR/luSPkhxZOA6sOyULi25Tkn9P8uyuqc4sHQYAAGZR3fa3TvK4JL+Z5MDCcaAYJQsMtiR5d5JndU11SukwAAAwC+q2v2uSv0pyvyQbCseB4pQssKvTkzw7wx2JriwdBgAApknd9vtluFPQ45IcWzgOTBUlC+ze/yV5TpJXdU11UekwAABQUt32hyX53SSPTXKTwnFgKilZYO9+lOQ1SV7cNdX/lA4DAADrqW77WyZ5VJLfSXL1wnFgqilZYGU+lORFSd7eNdUVpcMAAMBaqNt+/yQPSPLHSe5WOA7MDCULrM63k7wsycu6pvpW6TAAADAJddv/WJI/GK/rF44DM0fJAvvmiiTvSPKirqk+UDoMAACsRt32/y/DqpX7J9m/cByYWUoWmJyzkrw4yWu6pjqvdBgAANiTuu2PzHDOyqOS3KJwHJgLShaYvIuTvCHD6pZPlw4DAADbq9v+ZzOsWnlYkkMLx4G5omSBtfXJJK9M8iarWwAAKGVctfLQJL+X5PaF48DcUrLA+rg0ydsz3Ar6fV1TXVk4DwAAc65u+/2S3DPDlqAHJDm4bCKYf0oWWH/fTvLaDGe3fLF0GAAA5kvd9rfKUKw8PO4QBOtKyQJlfTLJq5O8sWuqcwtnAQBgRtVtf40kv57kEbEdCIpRssB0uCzDraBfneQk24kAANibcTvQvTMUK/dPclDRQICSBabQd5O8Lsmru6b6QukwAABMl7rtfzJDsfJbSa5bNg2wPSULTLcuw+qWN3dN9f3CWQAAKKRu+6OT/FqGcqUumwbYHSULzIYrk3wwyZuS/KfzWwAA5t94zsqDMtx6+e5J9iubCNgbJQvMnsuTvC/JG5Oc0DXV+YXzAAAwIXXbXy3Jr2Q4xPaeSQ4omwhYCSULzLbLkrwnwwqXd3ZNdVHhPAAArFDd9ocl+eUMK1buGwfYwsxSssD8uDjJiRkKl3d3TXVJ4TwAAOxG3faHJLlfhmLlF5McWjYRMAlKFphPFyY5IUPhclLXVJsK5wEAWHh12x+Y4ZbLD82wJejwsomASVOywPw7L8nbMxQuH1S4AACsn7FYuXuGYuUBSY4smwhYS0oWWCznJ3lvkndk2FLkLkUAABM23hXofknun+Q+Sa5WNhGwXpQssLiuSPLRDIXLO7qm+krhPAAAM6tu+5tmKFXun+QuSfYvmwgoQckCbPXfGQqXE5Kc3jWV5wYAgN2o235DkmMznK1y/yQ/VTYRMA2ULMBSvpvknRlKl/d3TXVp4TwAAMXVbX9wkntkKFV+Ocl1yyYCpo2SBdibi5OcnKFweVfXVN8vnAcAYN3UbX90kl/KUKzcK261DOyBkgVYic1JTsuwyuWkJJ+1rQgAmCfjNqCfznCr5V9OclySjUVDATNDyQLsi+9lWOVyUpL3dU11duE8AAArVrf9tZPcM0Oxcq8k1ymbCJhVShZgUrYkOSND4XJyko91TXV52UgAALuq2/6AJHfOUKjcO8ltk2woGgqYC0oWYK1cmORDGUqXk7qm6gvnAQAWWN32VYZC5d5J7pbk8LKJgHmkZAHWy1cyFi5JPtg11QWF8wAAc6xu+yOS3D3bipWblk0ELAIlC1DCFRkO0N26tejTXVNdWTYSADDL6rbfL8nPZtsWoOOS7F80FLBwlCzANDg/yUeTnJLkw1G6AAB7sV2p8gtJ7prkLkmuVjITgJIFmEYXJPlYhsLllCRd11RXFE0EABRVt/3+SeoMhcovZDi49oiSmQB2pmQBZsGFSU7NttLldHcuAoD5Nt4B6NhsK1XuFIfVAlNOyQLMoouzY+nyya6pNhVNBADsk7rtD0xy++xYqhxaMhPASilZgHlwSYaDdD+c5CMZVrpcXDQRALBHddsfmmGlys9nKFWOS3JIyUwA+0rJAsyjK5J8LkPx8vEkp3VN9eWykQBgsdVtf7MMRcodx4+3ibv/AHNGyQIsiu9nLFzG6/SuqS4qGwkA5lPd9odlWKVyXLYVK0cXDQWwDpQswKK6Msnns610+XjXVF8qGwkAZlPd9jfPthUqxyU5Jsl+RUMBFKBkAdjmBxlWu2xd8fLJrqkuLBsJAKZL3faHZzigdusKlTsmuVbRUABTQskCsHtXJvlCkjOSfCbJZ5N8tmuqc4qmAoB1Urf9UUl+erx+Jsltk/xkrFIBWJKSBWDlvpGhcLmqeEnSd03l+RSAmVS3/YYkVXYsVH46yQ1K5gKYNUoWgMm4MMMZNxE1/wAAIABJREFUL9sXL593uC4A02Y8lPaY7FioHJPk8JK5AOaBkgVg7WxO0mfHVS+f6ZrqW0VTAbAw6rb/sWxblbL1Y5VkY8lcAPNKyQKw/n6YXbcbndk11eVFUwEws+q2PyDJrbPrdp9rlswFsGiULADTYVOSL2bH4uWzXVP9sGgqAKZO3fbXzLYyZWuhcqskB5bMBYCSBWDafTM7bTdK8uWuqTYXTQXAmqvbfmOSm2XX7T4/XjIXALunZAGYPRdl10N2P+eQXYDZNR5Ge5vsehjtYSVzAbAyShaA+bAlw62l+yRfHj9uvb6sgAEobyxSbpbh4Nmt19b/fYMkG8qlA2ASlCwAi+G72al42fp511TnlQwGME/qtj8yuxYoW6/rFowGwDpQsgDwwyyx+iVDAXN2yWAA06hu+2tn6RLlZnE3H4CFpmQBYE8uyBKrX8br211TeQ0B5k7d9huSXD9Lb+upkhxRLh0A00zJAsBqXZLkK1m6hPl611RXFswGsEd12++X5IZZukS5aZJDyqUDYFYpWQBYC5cn+Wp2XPmytYj5v66pNpWLBiyKuu0PTHKT7Lqtp0py4yQHFAsHwFxSsgCw3jYn+fp4fTfJd3ZznWM7ErCUcTvPUUmut5vruhlWqdwwycZCMQFYQEoWAKbVpgwlzJ6KmO8kObtrqitKhQQmp277/ZNcO7svT7YWKNdNcmChmACwW0oWAGbd5iTfz97LmO92TXVJqZCwyOq2PyRDMbK38uToWHkCwAxTsgCwSM7L3suY73RN9aNiCWGG1G1/9ey5ONlanhxZKiMArCclCwDs6pIsXcZ8N0NR86PxOn/r511TXVomKkxG3fYHJ7n6eF1tu8+PzNKrUK4bd+ABgB0oWQBgMi7PruXL+Ut8bU+fX9A11eZ1T85Mq9t+Y5IjsnRBsrfPt/+aO+0AwD5SskyXK5K8O8n9SwcBoIgtSS7M6gqa7VfVXLbuyVmVuu0PyurKke0/PzzJhvXODsBUeEeS+yXZv3QQBkqW6XJZ11QH121/vyTPS1KVDgTATNqUXcuXC8avX77TdcUSX1uXr6/lqp1xdcf+GVZn7Hyt5dd3988emG2rTbYvStwhB4DV6JP8eddU767b/tIkB5UOxEDbNYXGX5QPJPmrJE9McmjhSADMlgMz3KXl6NJB9qRu+81ZfilzZZL9svxSwx1qAJhHFyd5RpJnWbk6nZQsU2r8hXla3favTfLcJA8sHAkAJm1jhv/y5r++AcDevS3JY7qm+lrpIOyekmXKjb9AD6rb/t5Jnp/kJwpHAgAAYP38b5I/65rqpNJB2DtLaWfE+At1TJK/SXJR4TgAAACsrYsyzH/HKFhmh5UsM6Rrqk1JnlG3/euSPCfJgwtHAgAAYPLemuSxXVN9o3QQVkbJMoPGX7SH1G1/jyQvSHLLwpEAAADYd/+T5NFdU72/dBBWx3ahGTb+4t0myeOTXFg4DgAAAKtzYYa57jYKltlmJcuM65rq8iTPqtv+9UmeneTXC0cCAABg+d6Y5HFdU32rdBD2nZJlToy/kA+r275N8q9Jbl04EgAAALt3ZpI/7ZrqQ6WDMDm2C82Z8Rf0p5M8Ksm3C8cBAABgR9/OMK/9tIJl/ljJMoe6proiyUvqtn9NkkcneUKSa5RNBQAAsNDOTfLMJC/omuqS0mFYG0qWOTb+4h5ft/1LMxyi9OdJDiubCgAAYKFclOR5SY7vmupHpcOwtpQsC2D8RX5S3fbPT/K3SZokB5ZNBQAAMNc2JWmTPK1rqu+VDsP6ULIskPEX+9F12z8nyVOS/GacywMAADBJm5P8e5Ind031f6XDsL6ULAto/EX/7brt/ynJ05P8SuFIAAAA8+CEJE/qmuoLpYNQhpJlgY2/+A+o2/6OSZ6R5BfKJgIAAJhJH07yxK6pPl46CGUpWcj4RHC3uu3vleQfk9yucCQAAIBZ8Kkkf9M11cmlgzAdnMfBVcYnhmOTPCTJWYXjAAAATKuzMsxNxypY2J6VLOyga6otSd5at/3bkjwiyZOT3KBoKAAAgOnwjQw3EXl111RXlg7D9FGysKTxCeMVddu/LsMtnx+X5IZlUwEAABTx9STPTtJ2TXVZ6TBMLyULezQ+gbygbvuXJPmNJH+d5FZlUwEAAKyLLyb5pySv75rq8tJhmH5KFpZlfEJ5Td32/5bhls9PTHL7sqkAAADWxCcz3IH1hPFIBVgWJQsrMj7BvD3J2+u2v3uSJyS5Z9lUAAAAE/G+JM/smuqDpYMwm5QsrNr4xPPBuu1vl2FlywPjjlUAAMBs2ZzkbUme0TXVp0qHYbYpWdhn4xPRg+u2v0WSxyf5rSQHlk0FAACwR5uSvC7J8V1TnVU6DPNBycLEjE9Mv1+3/ZOTPDbDXYkOK5sKAABgBxclaZM8p2uqb5YOw3xRsjBx4xPVY+u2f1qSR4/XNcumAgAAFtwPk7wgyQu6pjqndBjmk5KFNTM+cT2lbvtnZ1jV8tgkP142FQAAsGC+meQ5SdquqS4qHYb5pmRhzY1PZM+t2/6FGc5reXySW5RNBQAAzLmzkhyf5HVdU20qHYbFoGRh3YxPbK+s2/7VSe6X5I+T3CfJhpK5AACAubElyXuTvCjJu7um2lw4DwtGycK6G5/o3pXkXXXb3yzJo5L8bpKjigYDAABm1TlJXpXkxV1Tfbl0GBaXkoWixifAx9Vt/3dJHpZhdcvtyqYCAABmxKcyrFp5Q9dUl5QOA0oWpsL4hPjKDNuJ7pDkT5L8WpKDigYDAACmzWVJ3pzkhV1TfaJ0GNiekoWpMz5RfqJu+8cmeWSSP0pyo7KpAACAwr6W5CVJXt411Q9Kh4GlKFmYWuMT5zPrtj8+yS9mWN1yrzgoFwAAFsWWJCcneWGSEx1ky7RTsjD1xifSdyZ5Z932N8+2g3KPLBoMAABYK+dl20G2XyodBpZLycJMGZ9gH1u3/d9mOCj3T5LctmwqAABgQs7IsGrlDV1TXVw6DKyUkoWZND7hviLJK+q2Py5D2fKQJAcWDQYAAKzUpiRvyXCQ7Wmlw8C+ULIw88Yn4tPGg3J/J8kjkty6aCgAAGBvzkzy6iSv6Zrq7MJZYCKULMyN8Yn5WUmeVbf9sRnKlocluUbJXAAAwFXOTfKGJK/umur00mFg0pQszKXxCfv0cXXLr2QoXO6VZL+SuQAAYAFdmeEOQa9OckLXVJeVjQNrR8nCXBufwN+c5M11218vycMzFC63KpkLAAAWwBczFCuv7ZrqO4WzwLpQsrAwxif245McX7f9HTKULb8et4IGAIBJOS/JGzNsB/pE6TCw3pQsLKTxCf8Tdds/JjtuJ9pYMhcAAMygzdlxO9ClZeNAOUoWFtr4AvCmJG+q2/7Hsm070S1K5gIAgBlwVrZtB/pW4SwwFZQsMBpfGJ6Z5Jl1298xw+2gH5zkWkWDAQDA9PhBkrdmuO3yx0uHgWmjZIEljC8YH6/b/tFJ7p7koUkeGLeDBgBg8Zyb5G0ZVoB/sGuqKwrngamlZIE9GF9ATk5yct32j8pwbstDM5zjckTJbAAAsIYuSHJChmLl5K6pNhXOAzNByQLLNL6wvCvJu+q2PzjJfTMULr+c5NCS2QAAYAIuTvLODMXKexxgCyunZIFVGF9w3pbkbXXbH5qhaHlohuLl4JLZAABgBS5N8p4Mxco7u6a6uHAemGlKFthH4wvR1jsUHZFhK9GvJ7lnkgNLZgMAgCVsSvK+JG/McMvlCwrngbmhZIEJGl+gXpfkdXXbXyPDYbkPzXB4rt83AABKuSLJBzP8x8G3dU11buE8MJcMfbBGxheuVyZ5Zd3210ryoCQPyFC4HFQyGwAAC+GyDMXK25P8Z9dUPyicB+aekgXWwfiC1iZp67Y/PMl9Mmwr+sW4LTQAAJNzbpITM9wZ6L1dU11YOA8sFCULrLPxhe6tSd5at/3+Se6SoXD5lSQ3LhgNAIDZ9NUMpcoJST7aNdUVZePA4lKyQEHjC+CHxusv6ra/TbYVLrcrmQ0AgKn2qYzFStdUnysdBhgoWWCKjC+Qn0vy1LrtfyzJ/TMULneLOxUBACyyTRn+w9wJSd7RNdW3CucBlqBkgSk1vnC+OMmL67a/Wrad43K/JEeWzAYAwLo4L8m7s+18lfML5wH2QskCM2B8QX1zkjeP57jcNUPh8stxjgsAwDz5apJ3ZihWTnG+CswWJQvMmPGF9gPj9Wd1298iyb0zrHT5hSSHlEsHAMAKXZLkw0nem+SkrqnOKhsH2BdKFphx4wvxWUmeX7f9wRnuVnSf8bp1yWwAACzpzAylynsz3A3o0sJ5gAlRssAcGV+g3zdef1m3/Q2ybZXL/4uzXAAASjgvwyrkratVvlE4D7BGlCwwx8YX8JcneXnd9vsluWOGwuXeGW4RvbFgPACAebU5wy2WT8pQrHy8a6ory0YC1oOSBRbE+ML+sfH6u7rtr5XkXhkKl3snuU7BeAAAs+57GUqVk5Kc3DXVDwrnAQpQssCCGl/4X5/k9XXbb0jyM9m2tei4JAcWjAcAMO02JTkt4xagJJ/pmmpL2UhAaUoWIOMbgjPG65l12x+SoWj5hfG6Q5QuAMBi25TkExnuBPThJKd1TXVJyUDA9FGyALsY3zB8cLwyli53yrbS5fZRugAA821Tkk9mW6lyqlIF2BslC7BX4xuKD4zXzqXL3ZIcG6ULADDbNiU5PcmHolQBVknJAqzYEqXLodl1pcsBheIBACzH5dl1pcrFJQMBs0/JAuyz8Q3J+8dra+ly52wrXY6N0gUAKOvyDCtVPjxeH1OqAJOmZAEmbnzD8r7xSt32h2VY6fJz48c7JDmiWEAAYBFckOGg2lOT/FeGlSoXlY0EzDslC7Dmxjc025cuG5P8VIY7GN1pvKpiAQGAedBnKFROzXBr5f/ummpz2UjAolGyAOtufMPzufF6aZLUbX90tpUux2XYYnRIqYwAwFS7JMPWn9MylipdU32/bCQAJQswJcY3Ru8Yr9Rtf0CSn8mOxcsNiwUEAEr6erYrVJJ8pmuqy8tGAtiVkgWYSuMbp9PH6/lJUrf9j2Vb4XKnJLeNW0cDwLzZlOSMbCtUTu2a6ltlIwEsj5IFmBnjG6y3jFfqtj84ye0ylC63S1InuVmSDaUyAgArsiXJl5N0ST6VoVT5VNdUlxZNBbBKShZgZo1vwD42XkmSuu2vnuRnM5QuW68qihcAKG1LhsNpP7Xd9emuqX5UNBXABClZgLkyvlH70Hgluap4uW2GlS6KFwBYezsXKl2SMxQqwLxTsgBzb3xD9+HxSpLUbX+17LjipY7iBQBWY2uhsnXLz9YVKucXTQVQgJIFWEjjG78PZ8/Fy+2S3DyKFwDYakuSL2XXLT8KFYAoWQCuspvi5Ygkx4zXT233+VHrnxAA1tU5ST4/Xv+99fOuqS4omgpgiilZAPZgfCN56nhdpW7762db4bL1ulWSg9c7IwDso0uTfDHbCpWtZcq3i6YCmEFKFoBVGN94fjvJSVu/Vrf9fhm2F+288uWmSTYWiAkA29uc5CvZaWVKki91TXVlyWAA80LJAjAh4xvU/xmvt2z9et32hyb5yey68uXaBWICsBjOzk4rU5J8oWuqi4umAphzShaANTa+oT19vK5St/21M5Qvt0hyy/HjLZLcKFa+ALB3m5N8LclZ4/U/48cvdE11dslgAItKyQJQyPgG+OwkH9r+63XbH5Rh29Ettru2ljBXX+eYAJT3o+xYomy9vtQ11WUlgwGwIyULwJQZ3zD/93jtoG7762TH8mXrddMk+61jTAAm68oM56WctfPVNdX3SgYDYPmULAAzZHyj/b0kH9n+63XbH5jkZtm1fPmJJNda55gA7N4Pkvxvdi1Tvtw11aaSwQDYd0oWgDkwvjH/4njtoG77IzKsdLnJEh9vEredBpikS5P833h9ZeePXVNdUDAbAGtMyQIw58Y39J8drx3Ubb8hyXWz+xLmx+IQXoDtbU7yreymREny3a6ptpSLB0BJShaABTYOAt8Zr4/t/OfjNqQbZfclzDXWLSzA+jk3uy9RvmZbDwC7o2QBYLfGQeJL47WLuu2PTHLDJDdI8uM7XVu/dti6hAVYnouSfDPJN8aP21/fSPL1rqnOKxcPgFmmZAFg1cZB5Lwkn9vdPzMWMTsXLzuXMUeseVhgEVyQ3Zcn30zyTQUKAGtJyQLAmtquiNnlltRb1W1/tSy9Cmbrdb0kRyXZsNZ5gam0Jck5GbY2LlmeZChQzi+WEACiZAFgCoyD0ZnjtaS67Q9Icu0k11nGdc04sBem3eYkP8xwW/q9XWd3TXV5oZwAsGxKFgBmwjhgfWu89qhu+/2SHJ3lFTJHJ9lvbVLDwrkyyfezvOLk+11TXVkoJwCsCSULAHNnHNy+O157VLf9xgwrX66dYUvSNfbwcefPlTPMqysz3GHn3AzbdHb+fKmPZyf5YddUm0sEBoBpoGQBYKGNA+H3x2vZ6rbfkOHA3pUUM0cluXqSw+M1mLV3RZILk/wou5YieytMLhhv8Q4ArIA3eACwCuMAev54fXWl31+3/cEZSprDd/q42s8P2pf/P0yFyzKUIheM12o/vzBDSXLpOucHgIWnZAGAAsYB+NKscAXN7owHA29fvBySoXg5ePy4Vp8fkGHb1MYlPk67zRm2xez88fIMhcdlGf4drdXnl2S7gsTBrgAw+5QsADAHxgF96zaQqTBuqdpdAbPU1/b0ZxszlCBLFSO7K0t2+2e2wgAAa0HJAgCsibHIuKJ0DgCA9TILS3kBAAAApp6SBQAAAGAClCwAAAAAE6BkAQAAAJgAJQsAAADABChZAAAAACZAyQIAAAAwAUoWAAAAgAlQsgAAAABMgJIFAAAAYAKULAAAAAAToGQBAAAAmAAlCwAAAMAEKFkAAAAAJkDJAgAAADABShYAAACACVCyAAAAAEyAkgUAAABgApQsAAAAABOgZAEAAACYACULAAAAwAQoWQAAAAAmQMkCAAAAMAFKFgAAAIAJULIAAAAATICSBQAAAGAClCwAAAAAE7AxyZbSIbiK0gsAAICVMEdOjy0bk1xYOgVXOaBu+yNKhwAAAGD6jfPjAaVzcJULNyY5v3QKdnDt0gEAAACYCebH6XK+kmX6+CUBAABgOcyP0+X8jUkuKJ2CHVyndAAAAABmgvlxulxgJcv0OaZ0AAAAAGaC+XG62C40he5cOgAAAAAzwfw4XZQsU+i4uu3dggsAAIDdGufG40rnYAcXOJNl+lwtlnwBAACwZ8dkmB+ZHlayTKmfLx0AAACAqWZunD5Klin1G6UDAAAAMNXMjdPHLZyn1B3rtr9l6RAAAABMn3FevGPpHOzCLZyn2CNKBwAAAGAqPaJ0AJZku9AUe3jd9vuVDgEAAMD0GOfEh5fOwZLO35jk3NIpWNL1k9yndAgAAACmyn0yzItMn3M3Jvnf0inYrb8tHQAAAICpYk6cXv+7sWuqs5OcUzoJS7pj3fa/VDoEAAAA5Y3zoQNvp9M5XVOdvXH8H18sGoU9eWrd9htKhwAAAKCccS58aukc7NYXk0TJMv1+JsmDS4cAAACgqAdnmA+ZTjuULGcWDMLePcWdhgAAABbTOA8+pXQO9ujMxEqWWXGrJH9aOgQAAABF/GmGuZDpZbvQjHl63fY3Lh0CAACA9TPOgU8vnYO92qFk+XqSi8plYRkOS9KWDgEAAMC6ajPMg0yvizL0KkPJ0jXVliRnlUzEstyzbvtHlA4BAADA2hvnv3uWzsFenTX2KletZEkcfjsr/rlu++uUDgEAAMDaGee+fy6dg2W5qk/ZvmRxLstsOCrJi0uHAAAAYE29OMP8x/S7qk9RssymB9Zt/5jSIQAAAJi8uu3/PMkDS+dg2ZQsc+D4uu3vUjoEAAAAk1O3/Z2TPKt0DlZkyZKlT3Lh+mdhlfZP8qa67a9bOggAAAD7bjyH5c1JDiidhWW7MEOfkmS7kqVrqiuSfLhAIFbvekneXLf9/qWDAAAAsHp12++X5A1Jrl86Cyvy4bFPSbLjSpYkOXmdw7Dv7pLk+NIhAAAA2CdPT3K30iFYsR16FCXLfHhM3fYPLx0CAACAlavb/qFJHl86B6uyQ4+yYcuWLTv8ad32X09yg/VMxERcnuT+XVO9t3QQAAAAlqdu+3skOTHJgaWzsGLf6Jrqhtt/YeeVLInVLLPqgCRvrdv+9qWDAAAAsHd1298uyduiYJlVu/QnS5Us71uHIKyNw5KcWLf9LUoHAQAAYPfqtr95kvckObx0FlZtl/5kqZLl/Uk2r30W1si1kpxUt70TqQEAAKZQ3fbXy7AK4ujSWVi1zRn6kx3sUrJ0TfXDJJ9ej0SsmRsleW/d9keWDgIAAMA245x2UpIbF47Cvvn02J/sYKmVLIktQ/PgmAxbh65WOggAAADJOJ+dmGFeY7Yt2ZvsrmRx+O18uFOS99dtf43SQQAAABbZOJe9P8OcxuxbsjfZXclyapKL1i4L6+jYJB+q295ePwAAgALGeexDGeYzZt9FGXqTXSxZsnRNtSnJKWuZiHX100lOcRguAADA+hrnsFMyzGXMh1PG3mQXu1vJktgyNG9uleQjddvfqHQQAACARTDOXx/JMI8xP3bbl+ypZHlLkisnn4WCbpahaKlKBwEAAJhn49z1kQxzGPPjygx9yZJ2W7J0TfXtJO9Zi0QUdcMMRcttSgcBAACYR+O89ZEM8xfz5T1jX7KkPa1kSZKXTzgM0+F6ST5Wt/0vlQ4CAAAwT8Y562MZ5i7mzyv29Id7K1lOTPLdyWVhihye5IS67f+idBAAAIB5MM5XJ2SYt5g/303yrj39Axu2bNmyx59Qt/0/JXn8BEMxfV6c5M+6prqidBAAAIBZU7f9/kmen+RRpbOwpo7vmuqv9/QP7G0lS7KXpTDMhUclObFu+6uXDgIAADBLxjnqxChYFsFe+5G9lixdU/1vko9OJA7T7F5JTq3b/ialgwAAAMyCcX46NcM8xXz76NiP7NFyVrIkVrMsilsn+UTd9ncuHQQAAGCajXPTJzLMUcy/ZfUiyy1Z3pLk/NVnYYYcneRDdds/pnQQAACAaTTOSx/KMD8x/87P0Ivs1V4Pvt2qbvuXJPnDfQjF7Hlbkt/tmupHpYMAAACUNp6/8qokDyydhXX10q6p/mg5/+ByV7IkyctXGYbZ9cAkn67b/mdLBwEAAChpnIs+HQXLIlp2H7LskqVrqi7J51YVh1l20wwH4lrFBAAALKRxHjo1w3zEYvnc2Icsy/4r/OGvSPK8FX4Ps++gJC+p2/7nk/xh11QXlg4EAACw1uq2PzzJS5P8RuksFLOiGwGtZLtQkrwmyXkr/B7mx28kOb1u+58sHQQAAGAtjXPP6VGwLLLzMvQgy7bsg2+3qtv+75M8ZUXfxLy5OMnjk7yoa6qV/QUCAACYYnXbb0jyx0mOT3Jo4TiU9eSuqf5hJd+w0pUsSfIvSc5dxfcxPw5N8q9J3l+3/Y1KhwEAAJiEcb55f4Z5R8Gy2M7N0H+syIpLlq6pzk/yzyv9PubS3ZN8vm77R5YOAgAAsC/GuebzGeYc+Oex/1iRFW8XSpK67Y9I8tUkR634m5lX70nyyK6pvl06CAAAwHLVbX/9DLfovW/pLEyNc5LcuGuqC1b6javZLpTxgZ69mu9lbt03yRfqtv+t0kEAAACWY5xfvhAFCzt69moKlmSVK1mSq25l9X9JrrWqH8A8e3uGWz2fXToIAADAzuq2v3aGWzM/oHQWps4Pktyka6oLV/PNq1rJkiTjAz5rtd/PXHtAhlUtDy0dBAAAYHvjnPKFKFhY2rNWW7Ak+7CSJUnqtj8sw2qWo1f9Q5h3Jyf5066pvlQ6CAAAsLjqtr95hrsG3at0FqbW9zOsYrlotT9gn0qWJKnb/nGxooU9uyzJPyV5RtdUl5YOAwAALI667Q9O8sQkf53koMJxmG5/1TXVPp0/u+rtQtt5UZLvTeDnML8OSvL3GbYQOVAKAABYF+P88YUM84iChT35XoZ+Y5/s80qWJKnb/jFJnrPPP4hF8Z9J/qJrqm+UDgIAAMyfuu1vkORfkjyodBZmxmO7pnruvv6QSZUshyT5SpLr7vMPY1FclOQpSZ7bNdUVpcMAAACzr277/ZM8JsmTkxxWOA6z47tJbto11SX7+oMmsV0oY5C/ncTPYmEcluT4JJ+p2/4upcMAAACzbZwrPpNhzlCwsBJ/O4mCJZnQSpYkqdt+Q5JTkhiYWY03JPmbrqm+WjoIAAAwO+q2v3GSf0zysMJRmE0fTXLXrqkmUo5MrGRJkrrtb53kjCQHTuyHskguS/KCJE/vmuq80mEAAIDpVbf9kUmelOTRcagtq7MpyW27pjpzUj9woiVLktRt/7QMf9Fhtc5J8tQkL+qaalPpMAAAwPSo2/7AJH+c5O+SHFU4DrPt6V1TTfTok4mcybKTpyXp1+DnsjiOSvLcJGfWbf+Q0mEAAIDpMM4HZ2aYFxQs7Is+Q38xURNfyZIkddvfI8n7Jv6DWVSnJXlc11Snlg4CAACsv7rt75Tk2UmOK52FuXHPrqneP+kfuiYlS5LUbf+6JL+5Jj+cRfUfSZ7QNZWVUgAAsADqtq+SPDPJr5bOwlz5966pfmstfvBalizXTvLFWMLFZF2e5MUZ9s6dXToMAAAweeM8+aQkj0pyQOE4zJdzktxqrebJNStZkqRu+0cmedmaPQCL7OIkL0pyfNdU3y8dBgAA2Hd12x+d5PEZDrY9tHAc5tMfdE318rX64WtdsmxIckqSu6zZg7DoLkrywiTP6prqB6XDAAAAK1e3/bWS/FWSP0lyWOE4zK+PJrlr11RrVoSsacmSJHXb3zrJGUkOXNMHYtFdlORfkzxb2QIAALNhLFcel+RPo1xhbW1Kctuuqc5cywdZ85IlSeq2f1p6lrK6AAAd50lEQVSG/XSw1i7MtrLlh6XDAAAAu6rb/prZVq4cXjgOi+HpXVP97Vo/yHqVLAcn+XySas0fDAYXJnlBhrLlnNJhAACApG77ozKUK4+OcoX10yc5pmuqS9f6gdalZEmSuu2PTfJfsW2I9XVBkucneY6yBQAAyhjLlccm+bMkRxSOw2LZlOTnuqY6fT0ebN1KliSp2/7RGQZeWG8XJHlpkud1TfXN0mEAAGAR1G3/40n+PMkfRrlCGX/WNdUL1uvB1rVkSZK67d+S5MHr+qCwzeVJ3phhG9HnSocBAIB5VLf9bTJsC/r1JAcUjsPiemvXVA9ZzwcsUbJcLcmnk9xsXR8YdvW+DLd+fl/pIAAAMA/qtr9nhlsx37N0Fhbel5P8bNdU56/ng657yZIkddvfNslpSQ5a9weHXX0uybOTvLFrqstLhwEAgFlSt/0BGVasPC7JbQrHgSS5LMlxXVOdsd4PXKRkSZK67f8wyUuKPDgs7ZsZzgx66Xq3nQAAMGvGXQp/mOEw2x8vHAe290ddU720xAMXK1mSpG771yd5WLEAsLTzk7wswyG53ygdBgAApknd9jfIcJjtHyS5WuE4sLM3dE31G6UevHTJcniSLsktioWA3bsiyZuSPLdrqk+VDgMAACXVbX+7JI9J8tAk+xeOA0s5K0ndNdWFpQIULVmSpG77Y5J8IskhRYPAnn0yyYsznNtyaekwAACwHuq2PzjDeSuPSnL7wnFgTy5JcoeuqT5fMkTxkiVJ6rb/vSSvKJ0DluGcJK9K8pKuqfrSYQAAYC3UbV8l+aMkv5vkqMJxYDl+v2uqV5YOMRUlS5LUbf/qJL9TOgcs05YkJyd5UZITu6a6snAeAADYJ3Xb75fkF5P8cZJ7JdlQNhEs22u6pnpE6RDJdJUsh2bYkvGTpbPACn09SZvk5V1Tfa90GAAAWIm67a+T5JFJmiQ3LBwHVuoLSW7fNdXFpYMkU1SyJEnd9rdIcmosR2M2XZ7kP5K8qGuqj5YOAwAAe1K3/V0yrFr51SQHFI4Dq3FOkjt1TXVW6SBbTVXJkiR12985yfuTHFw6C+yD/85wUO5ru6a6oHQYAABIkrrtj0jy8AwH2f5U4TiwLy5Nco+uqT5WOsj2pq5kSZK67R+Y5K1JNpbOAvvowiRvSfLqJB/tmmr6fuEAAJhrddtvSHKXJI9I8pAkhxcNBPtuc5IHd031ttJBdjaVJUuS1G3/J0n+tXQOmKCvJHlNhkOZvlY6DAAA861u+xtluLnI7yS5aeE4MEl/2jXVC0uHWMrUlixJUrf9M5I8oXQOmLAtST6UYXXLf0zLAU0AAMy+8YYiv5ph1crd4g5BzJ9ndk31xNIhdmfaS5YNSf4tyW+VzgJr5IKM24kclgsAwGqNh9g+IsN2oCPKpoE187okvz3NxzBMdcmSJHXbH5Dk3UnuUToLrLEvZ1jd8m9dU329cBYAAKZc3fY3TPLbGcqVm5VNA2vu/Unu1zXV5aWD7MnUlyzJVSdgfyTJz5TOAutgS5IPZihc/tN2IgAAthq3Az0oQ7Fy99gOxGL4TJKfn4U7t85EyZIkddtfL8lpSW5UOgusowuSvDnJvyc5pWuqzYXzAACwzuq235jkrkl+M8mvxXYgFsvXkhzXNdV3SgdZjpkpWZKkbvtbJvlYkqNKZ4ECvpfh1uZvSvJf07wPEQCAfTOeT/lzSR6a5MFJrlM2ERRxTpI7d031P6WDLNdMlSxJUrf9nTPsxTq4dBYo6NsZDsx9U5KPK1wAAGbfWKzcMUOx8pAk1y+bCIq6NMk9uqb6WOkgKzFzJUuS1G3/wAz/RX9j6SwwBb6esXDpmur00mEAAFiZuu2PzbZi5YaF48A02JzkwV1Tva10kJWayZIlSeq2/4MkL42DnmB7/5fhDJc3dU11RukwAAAsrW7722YoVn4tyU0Kx4FpsiXJH3ZN9bLSQVZjZkuWJKnb/hFJXhErWmApX8q2wuXzpcMAACy6uu2PybZi5eaF48A02pzk97um+v/bu/dgu8v63uPvXEkwhUAEFImi/ESwIBgfq9BjlELxUivV4yi9cWg7/Z3anl6mPWiPeNTTqlVpO9aO2j4drbVOBcdqU/VUKSjFCnr8gVJQER9ESURugUADhGRn5/zxW5u9drKT7Mva+7su79fMM7+1155hPgxDdvZnPc/3+XB0kLka6JIFIOXy88BHgOXRWaQ+djPt/JZPNXV1Q3QYSZKkUZFyOQ14JW25clJwHKmfjQEXNHX1segg8zHwJQtAyuVVwKXAiugs0gD4AbAJ+Gfaa6HHgvNIkiQNjZTLctrrll8BnAc8JTaRNBB2Aec3dfXJ6CDzNRQlC0DK5WeAfwQOic4iDZBtwP+lLV0+19TVg8F5JEmSBk7K5TDgJbSlysuAtbGJpIHyKPBfm7r6bHSQXhiakgUg5XIO7S+Lh0ZnkQbQTuAqOrtcmrraEhtHkiSpf6VcjmNyt8qLgJWhgaTB9DBwXlNXV0QH6ZWhKlkAUi4bgc8Ca6KzSAPuetrCZZNzXCRJkh6br3JeZ20IjiMNuu3AzzR1dXV0kF4aupIFIOXyfOBzwOHRWaQh8QPaGS6bgKubutoVnEeSJGnBpVxWABtpS5VX4HwVqVceAF7S1NVXooP02lCWLAAplw3A5cC66CzSkNlGW2J+Hri8qas7gvNIkiT1TMrlWOBc4MW0c1acryL11lbg3Kauro8OshCGtmSBx+6hvwI4OjqLNMRuoi00Pw98qamrR4LzSJIkzVjKZTXwAtpS5VzglNhE0lC7Gzinqasbo4MslKEuWQBSLicBVwLHRmeRRsAO4Gra0uXyYf7DU5IkDa7Oh7HndtZGYFVsImkk3AGc3dTVzdFBFtLQlywAKZcTgC8AT47OIo2YO4B/pd3lckVTV/cE55EkSSMo5XIUcA7tbpWfxg9gpcV2O/BTTV3dGh1koY1EyQKPXbH2GeC06CzSiNpDe2PRxNGiaxygK0mSFkJnYO2ZTB4B2gAsCQ0lja4bgJc3dbUlOshiGJmSBSDlsgb4B+Bno7NIYjvwRdqdLl8EvtnU1ej8gSRJknom5bIE+HHgLNqdKmcBa0JDSQL4NPALTV1tjw6yWEaqZAFIuSwFLgF+PzqLpCnuBf4NuKqzLF0kSdK0ukqVF3XWC4HHB0aStK8/By5q6mo8OshiGrmSZULKpQbeByyPziJpWpYukiQJsFSRBswY8FtNXeXoIBFGtmQBSLmcDXwCWBudRdJB3Ut7c9FVnXWTpYskScOpU6qcwmSpshFLFWkQbANe3dTVldFBoox0yQKPXfH8GeCE6CySZmUrU3e6WLpIkjSgpilVXgisC4wkafZupR1wO9RXNB/MyJcsACmXdcCngBdEZ5E0ZxOly9XAtcDXvb1IkqT+1Ln959nAGbS7VCxVpMH2JeCVTV1tjQ4SzZKlI+WyEvgb4ILoLJJ6YgdwHfAV2tLl2qau7oiNJEnSaEq5HEtbqJwBPB94DrAqNJSkXvkI8OtNXe2MDtIPLFn2knJ5I/A2YEl0Fkk9t5lO4cLkbhd/GEiS1EOdDy830JYpE8XK+tBQkhbCHuBNTV29IzpIP7FkmUbK5dW0bdzq6CySFtSjwPW0hctXaHe7bImNJEnSYEm5HMfkDpUzaAuWQ0JDSVpojwAXNHX1iegg/caSZT9SLs8F/hl4QnQWSYtqC11HjIDrm7p6NDaSJEn9IeVyCG2J0n3057jQUJIW253AK5q6+lp0kH5kyXIAKZf1wCeBFJ1FUpidwLeBbwA3TDyburovNJUkSQss5XIkcBpwetfzZGBlZC5JoRrgVU1dbY4O0q8sWQ6ic6b0XcDvRWeR1Fe2MFm8TJQvtzZ1NR6aSpKkWUq5LAVOYLJMmShU3KEiqdt7gDc40/DALFlmKOVyHvC3wBHRWST1rYeA/2Bq8XJjU1cPhaaSJKkj5fI44FSmFirPAh4XmUtSX7sf+JWmrjZFBxkEliyzkHJ5MnAp7flTSZqJceBW9j1u5IBdSdKC6gyk3fu4zwnA0shckgbKtcD5TV3dHh1kUFiyzFLKZTnwduAivOZZ0txtZXLHy0T58m23X0qSZqtzvP1kpu5OOQ1YF5lL0kDbA1wCXNzU1Vh0mEFiyTJHKZeX0l7z/PjoLJKGxi7gW0wtXm5o6mpraCpJUt9Iuaxj6u6U04BnAisic0kaKvfSXs/8L9FBBpElyzykXJ4E/AOwMTqLpKH2Q/Y6bgQUh+xK0vDqDKOt2Pe4z5Mic0kaelcDv9DU1Q+jgwwqS5Z5SrksA94KvBHPt0paPA8BNzJ118vNTV3dH5pKkjRrKZcjgJOYujvlVBxGK2nxjAPvAN7a1NXu6DCDzJKlR1Iu5wAfBY6JziJppN0PFNphu6X7dVNXd0YGk6RRlnJ5Au3OlBM6z+7X3l4pKdJdwC81dXVFdJBhYMnSQ50fnh8Fzo7OIknTeIjJ8mXv52aPH0nS3HWO96xnannS/XRXiqR+dCVtweKHcT1iydJjnR+wFwNvAZYFx5GkmdoJ3Mb0BcxtTV3tCswmSX0h5bICeCrTFylPBVbGpZOkWdkN/B/g7X7Q1luWLAsk5fJC4MPA8bFJJGnedgObmf4Y0q1NXT0cmE2SeirlcihtcTLdsZ71+CGapMH3feDCpq7+LTrIMLJkWUAplzXAO4HfBJYEx5GkhfIj9j8HZltkMEmaTsplLfufj/LEwGiStJD2AO8H/rCpq+3RYYaVJcsiSLlsBD5I+4NbkkbJfexVvDBZwNwVGUzScEu5HMP0x3oq4MjAaJIUoQC/1tTV1dFBhp0lyyJJuawG3gb8Hl71LEnQzoG5k3YnzIHW3V4lKAkg5bIMOJp2t8mB1hNwPookQXs183uANzV19Uh0mFFgybLIUi5nAB8CTorOIkkDYhy4h4OXMXc2dbUjKqSkuUu5rKItRg5WnhyFH1ZJ0kzdDPxqU1fXRgcZJZYsAVIuhwBvBS7C4WmS1EvbmFkZ80BYQmmEpFwOZ2blydqojJI0hHYDlwBvberq0egwo8aSJVDK5TnA3wKnRmeRpBHzCDMoY4B7mrryB6XUJeWyhHZHyUzKk9VBMSVpVN0I/EpTV9dFBxlVlizBUi4rgIuBNwIrguNIkqYaA+5iavGyDXhgmvVg99dNXY1FBJZmKuWyHDi8ax2219cTay1TC5VjgOUBkSVJ+7cLeAfw9qaudkWHGWWWLH0i5fIs2l0tG6KzSJJ64mGmKV8O8N50RY0zZjStzgyTmRQk070/8d6hix5ckrQQrqfdvfIf0UFkydJXOp8ovR54M3BIcBxJUrydzKKUme79pq62L35sHUjKZQ1zK0e63/fmHEnSo8AfAe92B23/sGTpQymXZ9LeQPS86CySpIG3m7Z0+U/a0mbXXmtsmvf66v3uuTideSAr9lrLp3lvtu/34p9xoPdXAj9GW5I49F6SNF9fpb056FvRQTSVJUufSrksBWrgbcC64DiSJEXa3VnLsKCQJI22rcCbgNzU1Xh0GO3LkqXPpVyOpN0C9hv4F0tJkiRJGkW7gb8C3tzU1X3RYbR/liwDIuVyKvBe4EXBUSRJkiRJi+cq4HeauroxOogOzpJlwKRcXgNcAjw5OoskSZIkacHcDlzU1NXHo4No5ixZBlDK5VDgDbQ3Ea0KjiNJkiRJ6p0dwLuBdzV19XB0GM2OJcsAS7kcD/wZ8KrgKJIkSZKk+fsk8AdNXX0/OojmxpJlCKRczgb+Avjx6CySJEmSpFn7JvC7TV1dGR1E87M0OoDmr/M/4unA7wLbguNIkiRJkmZmG+3vcadbsAwHd7IMmZTLUcDbgV/DEk2SJEmS+tE48EHg4qau7okOo96xZBlSKZcNwF8CZ0ZnkSRJkiQ95hrgt5u6uj46iHrPkmXIpVzOB/4IeHp0FkmSJEkaYd8F3tzU1aXRQbRwLFlGQMplOXAh8GZgfWwaSZIkSRopt9N+8P13TV2NRYfRwrJkGSEpl0OA1wH/Czg6OI4kSZIkDbO7gHcAf93U1aPRYbQ4LFlGUMplDe0E64uAw4PjSJIkSdIwuR+4BHhvU1cPRYfR4rJkGWEplyOA1wO/AxwaHEeSJEmSBtl24D3AnzZ19UB0GMWwZBEpl2OAi4H/DqwMjiNJkiRJg2QH8AHgT7yOWZYsekzK5SnAW4ALgGXBcSRJkiSpn40BHwL+uKmrLdFh1B8sWbSPlMszgD8GXg0sCY4jSZIkSf1kHPgY8Jamrm6NDqP+Ysmi/Uq5PBt4G/Cy6CySJEmS1Ac+Bfzvpq6+GR1E/cmSRQeVcvlJ2qvHNkZnkSRJkqQAlwMXN3XVRAdRf7Nk0YylXF4IvAF4aXQWSZIkSVpge4BNwDubuvpqdBgNBksWzVrK5Vm0ZctrcUCuJEmSpOGyC/go8O6mrm6ODqPBYsmiOUu5HA/8T+BXgdWxaSRJkiRpXrYDfwP8ubcFaa4sWTRvKZejgN8G/gdwRHAcSZIkSZqNe4H3Au9r6uq+6DAabJYs6pmUyxrg14HfB44LjiNJkiRJB/ID4M+ADzZ19XB0GA0HSxb1XMplBfCLwOuBk4PjSJIkSVK3m4B3Ax9r6mosOoyGiyWLFkzKZQnwCtohuWcEx5EkSZI02r4MvBP4bFNX/iKsBWHJokWRcnkB8IfAy6KzSJIkSRoZe4DPAu9q6urfo8No+FmyaFGlXE6lPUZ0PrA8OI4kSZKk4TQGXEpbrtwUHUajw5JFIVIuTwF+i/b653XBcSRJkiQNh63Ah2hvCvpBdBiNHksWhUq5rAJeS1u4PDc4jiRJkqTB9DXgfcBlTV3tiA6j0WXJor6Rcnku8Ju0R4lWBceRJEmS1N920B4Jen9TV1+LDiOBJYv6UMplHe0xot8AnhYcR5IkSVJ/+R7wV8CHmrraGh1G6mbJor6VclkKvIR2d8tLgaWxiSRJkiQFGQf+BXg/8LmmrsaD80jTsmTRQEi5PBV4HQ7KlSRJkkbJxCDbDzR1dVt0GOlgLFk0UByUK0mSJI0EB9lqIFmyaGClXBJt2eKgXEmSJGnwTQyyfV9TV010GGkuLFk08FIuR9IeI3odDsqVJEmSBs33gA/QDrK9LzqMNB+WLBoanUG5ZwMXAq8EVocGkiRJkrQ/jwCfAj4MXOkgWw0LSxYNpZTLYbSzWy4EzoxNI0mSJKnjGtpi5bKmrh4MziL1nCWLhl7K5UTasuWXgeNi00iSJEkjZwvw98CHm7q6JTqMtJAsWTQyOseJzmHyOJHDciVJkqSFsYPJ40BXeBxIo8KSRSMp5XI47a1EFwLPj00jSZIkDY2v0BYrlzZ19UBwFmnRWbJo5KVcTgL+G3ABcGxwHEmSJGnQ3AF8BPi7pq5ujg4jRbJkkTpSLsuAn6bd3XIeHieSJEmS9mcHsIl218q/NnW1OzaO1B8sWaRppFzW0t5OdD6wEVgam0iSJEkKNw5cDVxKezvQtuA8Ut+xZJEOIuXyRODVtKXLmcCS2ESSJEnSotlDe+3yZcAnmrr6UXAeqa9ZskizkHJZD7yGtnB5bnAcSZIkaaF8jbZY+XhTV5ujw0iDwpJFmqOUy9NoC5fzgdOC40iSJEnzdQPtUaCPN3X1vegw0iCyZJF6IOXyDNrdLa8FnhkcR5IkSZqpb9HuWLmsqavvRIeRBp0li9RjKZdTaHe3vAZ4enAcSZIkaW/fBT4OXNrU1U3RYaRhYskiLaCUywba3S2vAY6PTSNJkqQR9n3aYuWypq6uD84iDS1LFmmRpFx+Avg54Dw8UiRJkqSF9y1gE/BPTV39v+gw0iiwZJECpFwq2rLlPNproZfFJpIkSdIQ2E173fImYFNTVyU4jzRyLFmkYCmXxwMvpy1czgUOjU0kSZKkAfIwcDltsfKZpq7uDc4jjTRLFqmPpFxWA+fQFi4vB46JTSRJkqQ+dBfwGdpi5Yqmrh4JziOpw5JF6lMpl6XA85g8VnRSbCJJkiQFupnOMSDgq01djQfnkTQNSxZpQKRcTmSycDkDWBqbSJIkSQtoHLiWyfkqtwTnkTQDlizSAEq5HAX8bGf9FHBYbCJJkiT1wIPAF4BPA59u6uqe4DySZsmSRRpwKZfltDcUvbizNgBLQkNJkiRpJvYA1wOf76xrmroai40kaT4sWaQh09nlci5t4XIuDs+VJEnqJ3fR3gb0eeByd6tIw8WSRRpiKZclwOlM7nL5SWBFaChJkqTRsgv4MpO7Vb7R1JW/hElDypJFGiEplzW0M1wmSpcTYhNJkiQNpVuZLFW+0NTV9uA8khaJJYs0wlIuFZOFy1nAmthEkiRJA2k78EU6xUpTVyU4j6QgliySAEi5rKQ9TvRi2t0uG4BloaEkSZL6027agbVfoC1WvtzU1c7YSJL6gSWLpGmlXA4D/gvwos6ydJEkSaNqolS5qrP+vamrByMDSepPliySZqRTuryAydLl2Vi6SJKk4bQb+DqTpcqXLFUkzYQli6Q56SpdzmKydFkamUmSJGmOxpksVb6IpYqkObJkkdQTKZfDmdzpchbt1dGWLpIkqR+NA9+gLVSuoi1VHghNJGkoWLJIWhCd0mUjk8eLLF0kSVKUiVLlqs662lJF0kKwZJG0KFIua4EzgDM7z+fhldGSJGlhbAe+ClwLXANc29TVtthIkkaBJYukECmXZcAptKXLRPFyQmgoSZI0qG5lslC5BripqavdsZEkjSJLFkl9I+VyNJOFy5lAAlaFhpIkSf1mB9DQ2aECXNPU1d2xkSSpZckiqW+lXFbQ3lrUXbwcFxpKkiQtti10FSrA15u62hUbSZKmZ8kiaaCkXNYzWbicSTtQd0VoKEmS1Cu7aAfUThz7ubapq82xkSRp5ixZJA20lMtq4DmdlTrPZ+BNRpIk9btx4DvAdbTHf64Drmvq6pHQVJI0D5YskoZOyuVxtMeMntO1TsLiRZKkKOPAzXSKlM76elNXD4WmkqQes2SRNBIsXiRJWjQWKpJGliWLpJHVKV5OZ+pRI4sXSZJmrrtQmTjy8w0LFUmjypJFkrrsVbxMrGcAyyNzSZLUB8aYnKEysSxUJKmLJYskHUTKZSVwMnAKcGrXWh+ZS5KkBbQZuLFr3QR8u6mrnaGpJKnPWbJI0hylXNayb/FyCrA2MpckSbOwjbZAmVKoNHW1LTSVJA0oSxZJ6rGUy3omC5eJ8uVkYGVkLknSSNsJfJupO1NubOpqc2gqSRoyliyStAhSLsuBE5m66+VU4HhgSVwySdKQ2QN8n6k7U24EbmnqaiwwlySNBEsWSQrUGbR7Iu1w3ZO6nicChwZGkyT1t4eBW2hv9vlO1/MWB9FKUhxLFknqQymXJbSDdbvLl4nXxwVGkyQtri1MFijdZcrmpq78i7wk9RlLFkkaMJ3dL92ly8Tz6bj7RZIG0cPAd9l3V8p33JUiSYPFkkWShkRn98uTmVq+nAg8rfP+8rh0kjTyxoDbge/RHvPpLlNud1eKJA0HSxZJGgEpl2W0x4+eBjx1mufRcekkaWjcDdxGW6Ts/dzc1NXuwGySpEVgySJJmjiCNF35MvH0GJIktcd69lei3ObRHkmSJYsk6aBSLsew/xLmSXgUSdJwGAN+yP5LlLsCs0mSBoAliyRpXjpHkZ5Ae+tR91rf9fpYYEVURkkCdgF30N7WswXY3PV6Yt3pkR5J0nxYskiSFlzKZSnt3Jfu4mXvMuZJwMqojJIG2k7aHSj7K082A3c3dTUellCSNBIsWSRJfaFzO9JR7LsL5jjgicAxnbUOWBoUU9LiGge2And11o/YtzzZAtzj7TySpH5gySJJGiid40mPZ7J0Obrr9d5fH43HlKR+s4v2Fp6J4qT79d5f3+vxHUnSILFkkSQNtZTLEcyskDkKWBMUUxp024F7mEFx0tTV/VEhJUlaaJYskiR1pFxWAEd21hFdr/f33sTXa4FlAZGlXtoNbAPuA+7vPO/bz9dT3mvqaldEYEmS+o0liyRJ89SZJ3M4By5iJtZhwI/R7ppZ0/XakkbztZt2R8l/dp4Trx/kwIXJxNcPONdEkqT5sWSRJKkPpFxWMX35sr/XB/v+aixu+tlu4BGmL0UO9Hq/32/qasfi/itIkqS9WbJIkjSkUi7LgVXAIXs99/d6Lt9fQVvmLJ3mOd17c/3eUtqbZsZpC4ru53Tvzed7u4AdwKOdZ/fr6d6b9febuho70H87SZI0mP4/lPrVVNjRG50AAAAASUVORK5CYII=;" parent="1" vertex="1">
          <mxGeometry x="650" y="421" width="48.64" height="60" as="geometry" />
        </mxCell>
        <mxCell id="BJWZIvIbwDyXQehV0seY-34" value="Behavior DB" style="text;whiteSpace=wrap;" parent="1" vertex="1">
          <mxGeometry x="640" y="480" width="80" height="40" as="geometry" />
        </mxCell>
        <mxCell id="BJWZIvIbwDyXQehV0seY-35" value="&lt;h1 style=&quot;margin-top: 0px;&quot;&gt;Behavior DB&lt;/h1&gt;&lt;p&gt;Runtime NT API called by malware.&lt;/p&gt;" style="text;html=1;whiteSpace=wrap;overflow=hidden;rounded=0;" parent="1" vertex="1">
          <mxGeometry x="730" y="405.75" width="180" height="89.5" as="geometry" />
        </mxCell>
        <mxCell id="BJWZIvIbwDyXQehV0seY-36" value="" style="shape=image;verticalLabelPosition=bottom;labelBackgroundColor=default;verticalAlign=top;aspect=fixed;imageAspect=0;image=https://cdn3.iconfinder.com/data/icons/logos-and-brands-adobe/512/267_Python-1024.png;" parent="1" vertex="1">
          <mxGeometry x="873" y="157" width="74" height="74" as="geometry" />
        </mxCell>
        <mxCell id="BJWZIvIbwDyXQehV0seY-38" value="ML/AI Detection malware" style="text;html=1;align=center;verticalAlign=middle;whiteSpace=wrap;rounded=0;" parent="1" vertex="1">
          <mxGeometry x="841" y="233" width="158" height="30" as="geometry" />
        </mxCell>
        <mxCell id="BJWZIvIbwDyXQehV0seY-39" value="Using DB for training" style="text;html=1;align=center;verticalAlign=middle;whiteSpace=wrap;rounded=0;" parent="1" vertex="1">
          <mxGeometry x="738" y="162" width="60" height="30" as="geometry" />
        </mxCell>
      </root>
    </mxGraphModel>
  </diagram>
</mxfile>
